<svg width="170" height="37" viewBox="0 0 170 37" fill="none" xmlns="http://www.w3.org/2000/svg">
<rect width="170" height="37" rx="18.5" fill="#DA7733"/>
<path d="M34.1778 14.874L30.9408 24H28.1588L24.9218 14.874H27.2878L29.5498 21.764L31.8248 14.874H34.1778ZM36.8748 15.992C36.4848 15.992 36.1642 15.8793 35.9128 15.654C35.6702 15.42 35.5488 15.134 35.5488 14.796C35.5488 14.4493 35.6702 14.1633 35.9128 13.938C36.1642 13.704 36.4848 13.587 36.8748 13.587C37.2562 13.587 37.5682 13.704 37.8108 13.938C38.0622 14.1633 38.1878 14.4493 38.1878 14.796C38.1878 15.134 38.0622 15.42 37.8108 15.654C37.5682 15.8793 37.2562 15.992 36.8748 15.992ZM37.9798 16.746V24H35.7568V16.746H37.9798ZM47.0788 20.256C47.0788 20.464 47.0658 20.6807 47.0398 20.906H42.0088C42.0435 21.3567 42.1865 21.7033 42.4378 21.946C42.6978 22.18 43.0142 22.297 43.3868 22.297C43.9415 22.297 44.3272 22.063 44.5438 21.595H46.9098C46.7885 22.0717 46.5675 22.5007 46.2468 22.882C45.9348 23.2633 45.5405 23.5623 45.0638 23.779C44.5872 23.9957 44.0542 24.104 43.4648 24.104C42.7542 24.104 42.1215 23.9523 41.5668 23.649C41.0122 23.3457 40.5788 22.9123 40.2668 22.349C39.9548 21.7857 39.7988 21.127 39.7988 20.373C39.7988 19.619 39.9505 18.9603 40.2538 18.397C40.5658 17.8337 40.9992 17.4003 41.5538 17.097C42.1085 16.7937 42.7455 16.642 43.4648 16.642C44.1668 16.642 44.7908 16.7893 45.3368 17.084C45.8828 17.3787 46.3075 17.799 46.6108 18.345C46.9228 18.891 47.0788 19.528 47.0788 20.256ZM44.8038 19.671C44.8038 19.2897 44.6738 18.9863 44.4138 18.761C44.1538 18.5357 43.8288 18.423 43.4388 18.423C43.0662 18.423 42.7498 18.5313 42.4898 18.748C42.2385 18.9647 42.0825 19.2723 42.0218 19.671H44.8038ZM59.3146 16.746L57.3516 24H54.8946L53.7506 19.294L52.5676 24H50.1236L48.1476 16.746H50.3706L51.3976 21.933L52.6196 16.746H54.9726L56.2076 21.907L57.2216 16.746H59.3146ZM63.8402 19.424C63.8402 18.5227 64.0352 17.721 64.4252 17.019C64.8152 16.3083 65.3569 15.758 66.0502 15.368C66.7522 14.9693 67.5452 14.77 68.4292 14.77C69.5125 14.77 70.4399 15.056 71.2112 15.628C71.9825 16.2 72.4982 16.98 72.7582 17.968H70.3142C70.1322 17.5867 69.8722 17.2963 69.5342 17.097C69.2049 16.8977 68.8279 16.798 68.4032 16.798C67.7185 16.798 67.1639 17.0363 66.7392 17.513C66.3145 17.9897 66.1022 18.6267 66.1022 19.424C66.1022 20.2213 66.3145 20.8583 66.7392 21.335C67.1639 21.8117 67.7185 22.05 68.4032 22.05C68.8279 22.05 69.2049 21.9503 69.5342 21.751C69.8722 21.5517 70.1322 21.2613 70.3142 20.88H72.7582C72.4982 21.868 71.9825 22.648 71.2112 23.22C70.4399 23.7833 69.5125 24.065 68.4292 24.065C67.5452 24.065 66.7522 23.87 66.0502 23.48C65.3569 23.0813 64.8152 22.531 64.4252 21.829C64.0352 21.127 63.8402 20.3253 63.8402 19.424ZM74.3275 20.36C74.3275 19.6147 74.4662 18.9603 74.7435 18.397C75.0295 17.8337 75.4152 17.4003 75.9005 17.097C76.3859 16.7937 76.9275 16.642 77.5255 16.642C78.0369 16.642 78.4832 16.746 78.8645 16.954C79.2545 17.162 79.5535 17.435 79.7615 17.773V16.746H81.9845V24H79.7615V22.973C79.5449 23.311 79.2415 23.584 78.8515 23.792C78.4702 24 78.0239 24.104 77.5125 24.104C76.9232 24.104 76.3859 23.9523 75.9005 23.649C75.4152 23.337 75.0295 22.8993 74.7435 22.336C74.4662 21.764 74.3275 21.1053 74.3275 20.36ZM79.7615 20.373C79.7615 19.8183 79.6055 19.3807 79.2935 19.06C78.9902 18.7393 78.6175 18.579 78.1755 18.579C77.7335 18.579 77.3565 18.7393 77.0445 19.06C76.7412 19.372 76.5895 19.8053 76.5895 20.36C76.5895 20.9147 76.7412 21.3567 77.0445 21.686C77.3565 22.0067 77.7335 22.167 78.1755 22.167C78.6175 22.167 78.9902 22.0067 79.2935 21.686C79.6055 21.3653 79.7615 20.9277 79.7615 20.373ZM87.1938 24.104C86.5611 24.104 85.9978 23.9957 85.5038 23.779C85.0098 23.5623 84.6198 23.2677 84.3338 22.895C84.0478 22.5137 83.8874 22.089 83.8528 21.621H86.0498C86.0758 21.8723 86.1928 22.076 86.4008 22.232C86.6088 22.388 86.8644 22.466 87.1678 22.466C87.4451 22.466 87.6574 22.414 87.8048 22.31C87.9608 22.1973 88.0388 22.0543 88.0388 21.881C88.0388 21.673 87.9304 21.5213 87.7138 21.426C87.4971 21.322 87.1461 21.2093 86.6608 21.088C86.1408 20.9667 85.7074 20.841 85.3608 20.711C85.0141 20.5723 84.7151 20.36 84.4638 20.074C84.2124 19.7793 84.0868 19.385 84.0868 18.891C84.0868 18.475 84.1994 18.098 84.4248 17.76C84.6588 17.4133 84.9968 17.1403 85.4388 16.941C85.8894 16.7417 86.4224 16.642 87.0378 16.642C87.9478 16.642 88.6628 16.8673 89.1828 17.318C89.7114 17.7687 90.0148 18.3667 90.0928 19.112H88.0388C88.0041 18.8607 87.8914 18.6613 87.7008 18.514C87.5188 18.3667 87.2761 18.293 86.9728 18.293C86.7128 18.293 86.5134 18.345 86.3748 18.449C86.2361 18.5443 86.1668 18.6787 86.1668 18.852C86.1668 19.06 86.2751 19.216 86.4918 19.32C86.7171 19.424 87.0638 19.528 87.5318 19.632C88.0691 19.7707 88.5068 19.9093 88.8448 20.048C89.1828 20.178 89.4774 20.3947 89.7288 20.698C89.9888 20.9927 90.1231 21.3913 90.1318 21.894C90.1318 22.3187 90.0104 22.7 89.7678 23.038C89.5338 23.3673 89.1914 23.6273 88.7408 23.818C88.2988 24.0087 87.7831 24.104 87.1938 24.104ZM98.9798 20.256C98.9798 20.464 98.9668 20.6807 98.9408 20.906H93.9098C93.9445 21.3567 94.0875 21.7033 94.3388 21.946C94.5988 22.18 94.9151 22.297 95.2878 22.297C95.8425 22.297 96.2281 22.063 96.4448 21.595H98.8108C98.6895 22.0717 98.4685 22.5007 98.1478 22.882C97.8358 23.2633 97.4415 23.5623 96.9648 23.779C96.4881 23.9957 95.9551 24.104 95.3658 24.104C94.6551 24.104 94.0225 23.9523 93.4678 23.649C92.9131 23.3457 92.4798 22.9123 92.1678 22.349C91.8558 21.7857 91.6998 21.127 91.6998 20.373C91.6998 19.619 91.8515 18.9603 92.1548 18.397C92.4668 17.8337 92.9001 17.4003 93.4548 17.097C94.0095 16.7937 94.6465 16.642 95.3658 16.642C96.0678 16.642 96.6918 16.7893 97.2378 17.084C97.7838 17.3787 98.2085 17.799 98.5118 18.345C98.8238 18.891 98.9798 19.528 98.9798 20.256ZM96.7048 19.671C96.7048 19.2897 96.5748 18.9863 96.3148 18.761C96.0548 18.5357 95.7298 18.423 95.3398 18.423C94.9671 18.423 94.6508 18.5313 94.3908 18.748C94.1395 18.9647 93.9835 19.2723 93.9228 19.671H96.7048ZM107.509 24.091C106.842 24.091 106.244 23.9827 105.715 23.766C105.187 23.5493 104.762 23.2287 104.441 22.804C104.129 22.3793 103.965 21.868 103.947 21.27H106.313C106.348 21.608 106.465 21.868 106.664 22.05C106.864 22.2233 107.124 22.31 107.444 22.31C107.774 22.31 108.034 22.2363 108.224 22.089C108.415 21.933 108.51 21.7207 108.51 21.452C108.51 21.2267 108.432 21.0403 108.276 20.893C108.129 20.7457 107.943 20.6243 107.717 20.529C107.501 20.4337 107.189 20.3253 106.781 20.204C106.192 20.022 105.711 19.84 105.338 19.658C104.966 19.476 104.645 19.2073 104.376 18.852C104.108 18.4967 103.973 18.033 103.973 17.461C103.973 16.6117 104.281 15.9487 104.896 15.472C105.512 14.9867 106.313 14.744 107.301 14.744C108.307 14.744 109.117 14.9867 109.732 15.472C110.348 15.9487 110.677 16.616 110.72 17.474H108.315C108.298 17.1793 108.19 16.9497 107.99 16.785C107.791 16.6117 107.535 16.525 107.223 16.525C106.955 16.525 106.738 16.5987 106.573 16.746C106.409 16.8847 106.326 17.0883 106.326 17.357C106.326 17.6517 106.465 17.8813 106.742 18.046C107.02 18.2107 107.453 18.3883 108.042 18.579C108.632 18.7783 109.108 18.969 109.472 19.151C109.845 19.333 110.166 19.5973 110.434 19.944C110.703 20.2907 110.837 20.737 110.837 21.283C110.837 21.803 110.703 22.2753 110.434 22.7C110.174 23.1247 109.793 23.4627 109.29 23.714C108.788 23.9653 108.194 24.091 107.509 24.091ZM116.898 22.115V24H115.767C114.961 24 114.333 23.805 113.882 23.415C113.432 23.0163 113.206 22.3707 113.206 21.478V18.592H112.322V16.746H113.206V14.978H115.429V16.746H116.885V18.592H115.429V21.504C115.429 21.7207 115.481 21.8767 115.585 21.972C115.689 22.0673 115.863 22.115 116.105 22.115H116.898ZM125.95 16.746V24H123.727V23.012C123.501 23.3327 123.194 23.5927 122.804 23.792C122.422 23.9827 121.998 24.078 121.53 24.078C120.975 24.078 120.485 23.9567 120.061 23.714C119.636 23.4627 119.307 23.103 119.073 22.635C118.839 22.167 118.722 21.6167 118.722 20.984V16.746H120.932V20.685C120.932 21.1703 121.057 21.5473 121.309 21.816C121.56 22.0847 121.898 22.219 122.323 22.219C122.756 22.219 123.098 22.0847 123.35 21.816C123.601 21.5473 123.727 21.1703 123.727 20.685V16.746H125.95ZM127.754 20.36C127.754 19.6147 127.893 18.9603 128.17 18.397C128.456 17.8337 128.842 17.4003 129.327 17.097C129.813 16.7937 130.354 16.642 130.952 16.642C131.429 16.642 131.862 16.7417 132.252 16.941C132.651 17.1403 132.963 17.409 133.188 17.747V14.38H135.411V24H133.188V22.96C132.98 23.3067 132.681 23.584 132.291 23.792C131.91 24 131.464 24.104 130.952 24.104C130.354 24.104 129.813 23.9523 129.327 23.649C128.842 23.337 128.456 22.8993 128.17 22.336C127.893 21.764 127.754 21.1053 127.754 20.36ZM133.188 20.373C133.188 19.8183 133.032 19.3807 132.72 19.06C132.417 18.7393 132.044 18.579 131.602 18.579C131.16 18.579 130.783 18.7393 130.471 19.06C130.168 19.372 130.016 19.8053 130.016 20.36C130.016 20.9147 130.168 21.3567 130.471 21.686C130.783 22.0067 131.16 22.167 131.602 22.167C132.044 22.167 132.417 22.0067 132.72 21.686C133.032 21.3653 133.188 20.9277 133.188 20.373ZM145.08 16.746L140.53 27.445H138.138L139.802 23.753L136.851 16.746H139.334L141.011 21.283L142.675 16.746H145.08Z" fill="white"/>
</svg>
