<svg width="32" height="32" viewBox="0 0 32 32" fill="none" xmlns="http://www.w3.org/2000/svg">
<path d="M16 26C15.7 26 15.5 25.9 15.3 25.7L5.3 15.7C4.9 15.3 4.9 14.7 5.3 14.3C5.7 13.9 6.3 13.9 6.7 14.3L16 23.6L25.3 14.3C25.7 13.9 26.3 13.9 26.7 14.3C27.1 14.7 27.1 15.3 26.7 15.7L16.7 25.7C16.5 25.9 16.3 26 16 26Z" fill="white"/>
<path d="M16 18C15.7 18 15.5 17.9 15.3 17.7L5.3 7.7C4.9 7.3 4.9 6.7 5.3 6.3C5.7 5.9 6.3 5.9 6.7 6.3L16 15.6L25.3 6.3C25.7 5.9 26.3 5.9 26.7 6.3C27.1 6.7 27.1 7.3 26.7 7.7L16.7 17.7C16.5 17.9 16.3 18 16 18Z" fill="white"/>
</svg>
