<svg width="55" height="56" viewBox="0 0 55 56" fill="none" xmlns="http://www.w3.org/2000/svg">
<path fill-rule="evenodd" clip-rule="evenodd" d="M42.7183 26.2215C40.5043 24.9207 36.4308 21.9363 36.3765 18.958C36.3162 15.6419 40.0427 14.1386 42.8468 16.9893C45.65 14.1386 49.3765 15.6412 49.3169 18.9572C49.2627 21.9355 45.1892 24.9207 42.9752 26.2215C42.8933 26.2689 42.7994 26.2689 42.7183 26.2215ZM13.7268 14.7678L15.2014 18.6466C15.2428 18.7645 15.3478 18.8377 15.4721 18.8441L19.6184 19.0479C19.8986 19.0606 20.0165 19.4173 19.7967 19.5925L16.5612 22.1943C16.4625 22.2707 16.4242 22.3917 16.456 22.5128L17.5452 26.519C17.6185 26.7896 17.316 27.0094 17.0802 26.8565L13.6091 24.5827C13.5039 24.5126 13.3766 24.5126 13.2715 24.5827L9.79704 26.8565C9.56141 27.0094 9.25891 26.7896 9.33537 26.519L10.4245 22.5128C10.4563 22.3917 10.4149 22.2707 10.3193 22.1943L7.08382 19.5925C6.86403 19.4173 6.97867 19.0606 7.26219 19.0479L11.4085 18.8441C11.5327 18.8377 11.6346 18.7645 11.6792 18.6466L13.1537 14.7678C13.2523 14.5035 13.6282 14.5035 13.7268 14.7678ZM27.8663 15.1824C24.3022 15.1824 21.3947 12.2759 21.3947 8.7118C21.3947 5.14769 24.3022 2.24121 27.8663 2.24121C31.4304 2.24121 34.3369 5.14769 34.3369 8.7118C34.3369 12.2759 31.4304 15.1824 27.8663 15.1824ZM30.4912 46.0537L41.2946 49.0483C41.817 49.193 42.1259 49.7389 41.9811 50.2613L41.4047 52.3409C41.2598 52.8633 40.7141 53.1723 40.1916 53.0275L29.388 50.033C28.8658 49.8882 28.5569 49.3423 28.7016 48.82L29.278 46.7402C29.4229 46.218 29.9688 45.9089 30.4912 46.0537ZM24.5117 46.0537C25.0341 45.9089 25.58 46.218 25.7248 46.7402L26.3012 48.82C26.446 49.3423 26.1371 49.8882 25.6148 50.033L14.8113 53.0275C14.2888 53.1723 13.743 52.8633 13.5982 52.3409L13.0218 50.2613C12.8769 49.7389 13.1859 49.193 13.7083 49.0483L24.5117 46.0537Z" fill="#6AA9FF"/>
<path fill-rule="evenodd" clip-rule="evenodd" d="M40.7018 47.9849C41.2144 48.127 41.5234 48.2128 41.5232 48.2127C42.5089 48.4789 43.072 49.4836 42.8073 50.4702C42.8069 50.4719 42.8063 50.4736 42.8059 50.4753L42.2454 52.5134C41.9805 53.4769 40.9469 54.0589 39.9833 53.7939L39.9815 53.7934C39.9815 53.7934 29.3713 50.8511 29.3731 50.8516C28.4063 50.5857 27.8213 49.5745 28.1068 48.5839L28.6657 46.5515C28.9317 45.5842 29.9479 45.005 30.9151 45.2709L30.9168 45.2715L31.5537 45.448L32.9307 40.2667C33.3786 38.5797 34.0755 37.1088 35.6275 36.3171C37.0684 35.5779 39.6268 34.5561 41.769 33.0653C41.8032 33.0415 41.8391 33.0203 41.8764 33.0016C43.2038 32.3378 44.7998 32.7368 45.5558 34.0089C45.5597 34.0156 45.5636 34.0221 45.5672 34.0288C45.5901 34.0697 45.612 34.1107 45.6328 34.1518C45.675 34.0391 45.7118 33.9223 45.7432 33.8009C45.7437 33.7994 45.7441 33.7978 45.7445 33.7963L47.6931 26.4473C48.4237 23.669 49.7318 22.6298 50.8384 22.4107C51.8233 22.2157 52.7736 22.6127 53.4198 23.2935C54.0733 23.9819 54.3889 24.945 54.1883 25.7973C54.1881 25.7981 54.1879 25.799 54.1878 25.7999L50.9401 39.4145C50.5903 40.916 49.714 42.0567 48.3789 42.8304L48.3771 42.8315L40.9317 47.1227L40.7018 47.9849ZM39.0324 47.5219L39.3506 46.3287C39.4099 46.1062 39.5555 45.9165 39.755 45.8014L47.5109 41.3313C48.4161 40.8064 49.0169 40.0377 49.2535 39.0192C49.254 39.0175 49.2543 39.0158 49.2547 39.0142C49.2547 39.0142 52.4582 25.5846 52.5026 25.3984C52.5761 25.0816 52.4061 24.7417 52.1632 24.4859C51.4054 23.6874 50.1305 23.9883 49.3682 26.889L49.3677 26.8908L47.4193 34.2387C47.0986 35.4731 46.4179 36.4069 45.3812 37.1539L45.3796 37.1551L44.7045 37.6391C44.696 37.6452 44.6873 37.6512 44.6785 37.657L44.6776 37.6576C43.4134 38.496 42.1241 39.1553 40.7438 39.9421C40.3285 40.1789 39.7992 40.034 39.5624 39.6187C39.3257 39.2034 39.4706 38.674 39.8859 38.4372C41.2206 37.6763 42.4695 37.0404 43.6924 36.2323C44.1756 35.8465 44.3193 35.358 44.0602 34.8833C43.7783 34.4218 43.1934 34.3067 42.6998 34.5278C40.4983 36.0466 37.8934 37.1016 36.4177 37.8587L36.4157 37.8597C35.3191 38.4186 34.9214 39.5197 34.605 40.7111L33.2231 45.911L39.0324 47.5219ZM41.0642 49.8831L30.4555 46.9412L30.4543 46.9409C30.403 46.9276 30.3501 46.9595 30.336 47.0108L29.7755 49.0488C29.7743 49.0533 29.773 49.0579 29.7717 49.0625C29.7568 49.1134 29.7827 49.1676 29.8324 49.1813L29.8342 49.1818C29.8342 49.1818 40.4428 52.1237 40.4441 52.124C40.4993 52.1384 40.5601 52.109 40.5752 52.054C40.5752 52.054 41.1344 50.0202 41.1353 50.0169C41.1484 49.9609 41.1268 49.8999 41.0713 49.885C41.0689 49.8844 41.0665 49.8837 41.0642 49.8831ZM30.8255 48.0039C31.0421 47.711 31.4624 47.6473 31.7553 47.8638C32.0356 48.0804 32.0992 48.5007 31.8828 48.7936C31.6663 49.0866 31.2586 49.1375 30.9657 48.921C30.6727 48.7045 30.609 48.2969 30.8255 48.0039ZM14.2877 47.9849L14.0577 47.1227L6.61235 42.8315C6.61052 42.8304 6.60868 42.8294 6.60685 42.8283C5.28944 42.056 4.41386 40.9183 4.05043 39.4193C4.05021 39.418 4.04989 39.4167 4.04957 39.4154L0.814272 25.7991L0.81384 25.7973C0.61336 24.9452 0.927723 23.9826 1.5791 23.2943C2.224 22.6129 3.17323 22.2155 4.15838 22.4107C5.26388 22.6297 6.57256 23.6688 7.30891 26.4469L7.30923 26.4482L9.24534 33.7976C9.24566 33.7988 9.24588 33.7999 9.2462 33.8009C9.27877 33.9266 9.31738 34.0474 9.36192 34.1637C9.3864 34.1158 9.41228 34.0681 9.43967 34.0204C9.44032 34.0193 9.44097 34.0181 9.44162 34.017C10.1823 32.7394 11.8028 32.3373 13.1174 33.0038C13.1525 33.0216 13.1863 33.0416 13.2185 33.0641C15.3733 34.5548 17.9193 35.5768 19.3725 36.316C19.3736 36.3166 19.3748 36.3173 19.3761 36.3178C20.9133 37.1088 21.6237 38.5801 22.0713 40.2664L23.4476 45.4448L24.0726 45.2715L24.0743 45.2709C25.0326 45.0074 26.0434 45.574 26.3309 46.5323C26.3329 46.5386 26.3347 46.5451 26.3364 46.5515L26.8969 48.5895C26.8974 48.5912 26.8979 48.5929 26.8983 48.5947C27.1629 49.5809 26.5784 50.5871 25.6182 50.8511L15.0079 53.7934L15.0061 53.7939C14.04 54.0596 13.025 53.4819 12.7577 52.5167L12.1849 50.4802C12.184 50.4768 12.183 50.4735 12.1821 50.4702C11.9176 49.484 12.502 48.4779 13.4623 48.2138L14.2877 47.9849ZM21.7782 45.9076L20.3972 40.7111C20.0807 39.5192 19.6709 38.4186 18.5851 37.859C17.0955 37.1016 14.5024 36.0463 12.2884 34.5268C11.8026 34.3053 11.2118 34.4198 10.9405 34.8854C10.6711 35.3585 10.8231 35.8465 11.2982 36.2329C12.5332 37.0404 13.7818 37.6765 15.1162 38.4372C15.5315 38.674 15.6765 39.2034 15.4397 39.6187C15.203 40.034 14.6736 40.1789 14.2583 39.9421C12.8793 39.156 11.5914 38.4975 10.3155 37.66L10.3143 37.6591C10.3022 37.6513 10.2903 37.643 10.2786 37.6344L10.2776 37.6337C10.2486 37.6126 9.61815 37.1519 9.61815 37.1519C8.58329 36.4054 7.89029 35.4712 7.57 34.2381L5.63432 26.8904C4.86518 23.9885 3.59339 23.6861 2.8373 24.485C2.59465 24.7415 2.42545 25.0826 2.49997 25.4001L5.7344 39.0126C5.98233 40.0339 6.58334 40.8058 7.4806 41.3325L15.2344 45.8014C15.4339 45.9165 15.5795 46.1062 15.6388 46.3287L15.9571 47.5219L21.7782 45.9076ZM24.5338 46.9412L13.9252 49.8831L13.9235 49.8836C13.8673 49.899 13.8404 49.961 13.8546 50.0186L14.4257 52.0492C14.4261 52.0508 14.4266 52.0524 14.427 52.054C14.4412 52.1057 14.4948 52.1378 14.5466 52.1237L25.1552 49.1818L25.1571 49.1813C25.2137 49.1657 25.2406 49.1027 25.2254 49.0446C25.2254 49.0446 24.67 47.025 24.6698 47.0241C24.6497 46.9664 24.5926 46.9251 24.5338 46.9412ZM24.1639 48.0039C24.3805 48.2969 24.3295 48.7045 24.0366 48.921C23.7436 49.1375 23.336 49.0866 23.1195 48.7936C22.8902 48.5007 22.9538 48.0804 23.2468 47.8638C23.5397 47.6473 23.9474 47.711 24.1639 48.0039ZM21.1727 25.1423L20.7227 25.5924C20.386 25.929 19.8392 25.929 19.5025 25.5924C19.1658 25.2557 19.1658 24.7089 19.5025 24.3722L21.2825 22.5923C21.4359 22.3534 21.704 22.195 22.0088 22.195H22.0869C22.3916 22.195 22.6597 22.3534 22.8132 22.5923L24.5931 24.3722C24.9298 24.7089 24.9298 25.2557 24.5931 25.5924C24.4219 25.7636 24.1963 25.8477 23.9715 25.8448C23.7469 25.8477 23.5212 25.7636 23.3499 25.5924L22.8982 25.1406V34.962C22.8982 35.4382 22.5116 35.8247 22.0354 35.8247C21.5593 35.8247 21.1727 35.4382 21.1727 34.962V25.1423ZM26.9906 21.3884L26.5405 21.8385C26.2038 22.1752 25.6571 22.1752 25.3204 21.8385C24.9838 21.5018 24.9838 20.9551 25.3204 20.6184L27.1003 18.8385C27.2539 18.5996 27.5219 18.4412 27.8267 18.4412H27.9047C28.2096 18.4412 28.4777 18.5996 28.6311 18.8385L30.4111 20.6184C30.7478 20.9551 30.7478 21.5018 30.4111 21.8385C30.2397 22.0098 30.0141 22.0939 29.7895 22.0909C29.5647 22.0939 29.3391 22.0098 29.1678 21.8385L28.7161 21.3867V31.2082C28.7161 31.6843 28.3295 32.0709 27.8533 32.0709C27.3771 32.0709 26.9906 31.6843 26.9906 31.2082V21.3884ZM32.8067 25.1423L32.3567 25.5924C32.02 25.929 31.4733 25.929 31.1365 25.5924C30.7998 25.2557 30.7998 24.7089 31.1365 24.3722L32.9165 22.5923C33.0699 22.3534 33.338 22.195 33.6429 22.195H33.7209C34.0256 22.195 34.2938 22.3534 34.4473 22.5923L36.2272 24.3722C36.5639 24.7089 36.5639 25.2557 36.2272 25.5924C36.0559 25.7636 35.8303 25.8477 35.6055 25.8448C35.3809 25.8477 35.1553 25.7636 34.9839 25.5924L34.5322 25.1406V34.962C34.5322 35.4382 34.1457 35.8247 33.6694 35.8247C33.1933 35.8247 32.8067 35.4382 32.8067 34.962V25.1423ZM10.9995 18.065C11.3596 17.1178 12.3436 14.5293 12.3436 14.5293C12.7235 13.5221 14.1564 13.5221 14.5364 14.5293L15.8805 18.065C16.8938 18.1148 19.6591 18.2507 19.6561 18.2506C20.7417 18.2994 21.1771 19.6668 20.3383 20.3353L17.3877 22.708C17.654 23.6874 18.3793 26.3557 18.379 26.3546C18.6679 27.3906 17.5137 28.2354 16.6114 27.6501C16.6103 27.6495 16.6093 27.6488 16.6083 27.6482L13.4401 25.5747L10.2751 27.648C10.2741 27.6486 10.273 27.6494 10.2718 27.6501C9.3727 28.2333 8.22008 27.3925 8.4995 26.3597L8.49982 26.3587C8.49982 26.3587 9.22765 23.6812 9.4923 22.708C8.70278 22.0731 6.54214 20.3358 6.54452 20.3377C5.70291 19.6668 6.13827 18.2994 7.22015 18.2507L10.9995 18.065ZM8.77536 19.9087C9.704 20.6554 10.8577 21.5832 10.8575 21.583C11.232 21.8776 11.384 22.3379 11.2622 22.8006C11.2616 22.8029 11.261 22.8052 11.2604 22.8074L10.5578 25.3919C11.5548 24.7389 12.7939 23.9272 12.7927 23.9279C13.1952 23.6607 13.6823 23.6602 14.085 23.9265L16.3218 25.3903L15.6196 22.8074C15.619 22.8052 15.6183 22.8029 15.6178 22.8006C15.4959 22.3375 15.6481 21.8771 16.0221 21.5833L18.1045 19.9087L15.429 19.7771L15.4271 19.777C14.9516 19.7527 14.5615 19.4723 14.3912 19.0225L13.44 16.5201L12.4893 19.0212C12.3185 19.4723 11.9284 19.7527 11.4529 19.777L11.4511 19.7771L8.77536 19.9087ZM42.2769 27.0286C40.8874 26.2114 38.8016 24.7561 37.3398 23.0534C36.2662 21.8029 35.5386 20.4114 35.5136 19.0391V19.0388C35.4758 16.9541 36.6557 15.4564 38.2586 14.9104C39.609 14.4504 41.307 14.6647 42.8449 15.8945C44.3827 14.6662 46.0809 14.4518 47.4316 14.9114C49.0355 15.4569 50.2161 16.954 50.1785 19.0388V19.0391C50.1534 20.4114 49.4258 21.8029 48.3523 23.0534C46.8904 24.7561 44.8046 26.2114 43.4153 27.0285C43.0556 27.2426 42.6367 27.2426 42.2769 27.0286ZM42.846 25.3578C44.0982 24.5913 45.8152 23.3597 47.0431 21.9294C47.8328 21.0095 48.4348 20.0171 48.4532 19.0076C48.4754 17.7778 47.822 16.8668 46.8759 16.5449C45.8598 16.1992 44.5767 16.5253 43.4597 17.6608C43.2975 17.8257 43.0757 17.9186 42.8444 17.9186C42.6131 17.9185 42.3915 17.8255 42.2293 17.6605C41.1126 16.5243 39.8304 16.1979 38.815 16.5438C37.8694 16.8659 37.2165 17.7777 37.2387 19.0076C37.2572 20.0171 37.8593 21.0095 38.649 21.9294C39.8769 23.3597 41.5939 24.5913 42.846 25.3578ZM27.8649 16.112C23.8266 16.112 20.5316 12.8169 20.5316 8.77865C20.5316 4.74035 23.8266 1.44531 27.8649 1.44531C31.9032 1.44531 35.1982 4.74035 35.1982 8.77865C35.1982 12.8169 31.9032 16.112 27.8649 16.112ZM27.8649 14.3865C30.953 14.3865 33.4727 11.8667 33.4727 8.77865C33.4727 5.69056 30.953 3.1708 27.8649 3.1708C24.7767 3.1708 22.257 5.69056 22.257 8.77865C22.257 11.8667 24.7767 14.3865 27.8649 14.3865ZM27.002 4.93706V4.77885C27.002 4.30262 27.3885 3.91611 27.8648 3.91611C28.3409 3.91611 28.7275 4.30262 28.7275 4.77885V4.92843C29.4789 5.14358 30.1574 5.65982 30.5205 6.52365C30.705 6.96257 30.4985 7.46878 30.0595 7.6533C29.6206 7.83782 29.1144 7.6313 28.9298 7.19238C28.6552 6.53874 27.9183 6.41861 27.3925 6.62556C27.125 6.73092 26.8952 6.93528 26.9102 7.24954C26.9216 7.4814 27.0853 7.60316 27.2641 7.69062C27.4939 7.80299 27.7603 7.86403 28.01 7.90512C29.237 8.10581 30.56 8.69442 30.7382 10.1532L30.7383 10.1544C30.9039 11.5267 29.8771 12.3696 28.7275 12.6461V12.7784C28.7275 13.2547 28.3409 13.6412 27.8648 13.6412C27.3885 13.6412 27.002 13.2547 27.002 12.7784V12.6334C26.0534 12.3818 25.257 11.7172 25.0006 10.6869C24.8855 10.2248 25.1673 9.75635 25.6293 9.64128C26.0914 9.52632 26.5599 9.80801 26.6749 10.2701C26.8124 10.8226 27.3869 11.0335 27.9267 11.0208C28.1809 11.0149 28.4576 10.9621 28.6911 10.8477C28.8827 10.7538 29.0549 10.6098 29.0253 10.3617C28.9906 10.0798 28.7857 9.93537 28.5621 9.834C28.3024 9.71613 28.0072 9.65315 27.7315 9.60796L27.7306 9.60785C26.5211 9.40867 25.257 8.77164 25.1867 7.33366V7.33312C25.1329 6.21813 25.8111 5.39377 26.7605 5.01999C26.8393 4.98893 26.92 4.96132 27.002 4.93706ZM37.3219 8.63845C36.8986 8.42018 36.7323 7.8994 36.9506 7.47622C37.1688 7.05305 37.6896 6.88665 38.1128 7.10492C40.5158 8.34436 42.6672 10.0041 44.4695 11.9868C44.7898 12.3392 44.7638 12.8852 44.4115 13.2055C44.0592 13.5258 43.513 13.4998 43.1927 13.1475C41.5281 11.3162 39.5412 9.7832 37.3219 8.63845ZM12.3702 13.2428C12.0521 13.5972 11.5062 13.6265 11.1519 13.3084C10.7975 12.9904 10.7682 12.4443 11.0863 12.0901C13.0095 9.9481 15.3375 8.17688 17.9495 6.89721C18.3771 6.68768 18.8943 6.86475 19.1038 7.29235C19.3133 7.71995 19.1362 8.23727 18.7086 8.4467C16.2963 9.62856 14.1464 11.2645 12.3702 13.2428Z" fill="#47568C"/>
</svg>
