<svg id="Layer_1" height="512" viewBox="0 0 512 512" width="512" xmlns="http://www.w3.org/2000/svg"><g><path clip-rule="evenodd" d="m225.894 276.897v-31.379h60.212v31.379c0 16.603-13.501 30.108-30.106 30.108s-30.106-13.503-30.106-30.108m270.036 144.248c0 19.326-16.131 34.702-35.316 34.702h-409.215c-19.175 0-35.336-15.351-35.336-34.678v-271.989h19.23v77.923c0 .826.497 1.565 1.266 1.873l28.879 11.503v157.326c0 1.114.899 2.015 2.015 2.015h377.089c1.117 0 2.013-.897 2.013-2.015v-157.326l28.882-11.503c.768-.306 1.268-1.049 1.268-1.873v-77.923h19.226v271.965zm-456.612-283.215c0-12.414 8.454-25.434 21.834-25.434h389.668c13.382 0 21.854 12.987 21.854 25.417v87.828l-102.698 40.913h-79.846v-23.15c0-1.114-.895-2.014-2.01-2.014h-64.243c-1.117 0-2.016.896-2.016 2.014v23.15h-79.845l-102.698-40.914z" fill="#8ac9fe" fill-rule="evenodd"/><path d="m497.944 139.106h-15.194v-1.21c-.038-19.511-14.34-35.425-31.904-35.476h-76.059v-25.676c0-16.908-13.756-30.666-30.665-30.666h-176.247c-16.908 0-30.665 13.757-30.665 30.666v25.676h-76.084c-17.534.051-31.836 15.965-31.877 35.493v1.194h-15.196c-4.454 0-8.06 3.608-8.06 8.058v274.03c.067 24.591 20.417 44.654 45.386 44.728h204.62 204.636c24.952-.073 45.3-20.137 45.372-44.753v-274.006c0-4.449-3.613-8.058-8.063-8.058m-344.614-62.362c0-8.022 6.524-14.546 14.545-14.546h176.247c8.021 0 14.546 6.524 14.546 14.546v25.676h-205.338zm-107.967 61.186c.025-10.668 7.116-19.364 15.789-19.389h389.668c8.703.025 15.79 8.721 15.81 19.372v83.73l-97.813 38.967h-72.642v-17.106c0-4.455-3.605-8.059-8.056-8.059h-64.243c-4.453 0-8.06 3.604-8.06 8.059v17.106h-72.641l-97.813-38.967v-83.713zm30.15 113.07 63.138 25.154c.949.381 1.96.576 2.981.576h74.186v.168c0 22.155 18.024 40.185 40.182 40.185 22.155 0 40.177-18.03 40.177-40.185v-.168h74.188c1.021 0 2.035-.195 2.983-.576l63.134-25.154v138.749h-360.969zm156.425 25.897v-25.334h48.123v25.334c0 13.268-10.797 24.064-24.063 24.064-13.268 0-24.06-10.796-24.06-24.064zm257.947 144.248c-.048 15.757-13.186 28.611-29.271 28.658h-409.215c-16.102-.047-29.245-12.901-29.292-28.634v-265.945h7.142v71.879c0 3.304 2.01 6.267 5.074 7.49l25.07 9.986v153.226c0 4.455 3.609 8.059 8.06 8.059h377.089c4.455 0 8.06-3.604 8.06-8.059v-153.226l25.073-9.986c3.058-1.223 5.075-4.186 5.075-7.49v-71.879h7.135z" fill="#26a6fe"/></g></svg>