<svg enable-background="new 0 0 512 512" viewBox="0 0 512 512" xmlns="http://www.w3.org/2000/svg"><g id="_x32_8_Speech_Bubble"><g><path d="m228.569 336.735c0 56.662 60.636 102.607 135.436 102.607 32.525 0 62.371-8.687 85.72-23.165 2.448-1.518 17.035 8.345 27.262 15.675 2.762 1.979 6.365-.922 5.023-4.043-4.941-11.495-11.312-27.791-8.891-30.281 16.546-17.016 26.323-38.04 26.323-60.793 0-56.662-60.636-102.607-135.436-102.607s-135.437 45.945-135.437 102.607z" fill="#85dafa"/><path d="m384.625 213.588c0 77.83-83.29 140.94-186.033 140.94-44.676 0-85.673-11.932-117.744-31.819-3.67-2.276-27.196 14.066-41.128 24.187-2.766 2.01-6.401-.919-5.026-4.05 6.887-15.683 17.652-42.02 14.021-45.754-22.727-23.373-36.157-52.252-36.157-83.505 0-77.83 83.29-140.94 186.033-140.94s186.034 63.111 186.034 140.941z" fill="#fff"/><circle cx="99.408" cy="209.516" fill="#c2d5ea" r="24.632"/><circle cx="198.592" cy="209.516" fill="#c2d5ea" r="24.632"/><circle cx="297.776" cy="209.516" fill="#c2d5ea" r="24.632"/><g fill="#404f7c"><path d="m409.538 233.413c-3.455-.9-6.995 1.184-7.888 4.643-.898 3.465 1.184 6.995 4.646 7.891 51.841 13.414 86.672 49.904 86.672 90.8 0 20.304-8.467 39.773-24.466 56.278-3.002 3.065-4.504 7.066 3.455 27.415-17.661-12.008-21.846-12.185-25.645-9.747-23.124 14.31-52.357 22.185-82.317 22.185-51.935 0-98.559-23.086-118.779-58.817-1.76-3.121-5.713-4.213-8.824-2.448-3.111 1.76-4.206 5.711-2.446 8.821 22.481 39.727 73.528 65.392 130.049 65.392 31.437 0 62.231-8.098 87.095-22.888 2.307 1.037 8.263 4.259 22.147 14.198 3.657 2.57 8.435 2.403 11.892-.4 3.44-2.802 4.568-7.425 2.812-11.482-6.851-16.004-8.424-22.383-8.776-24.654 17.511-18.68 26.753-40.719 26.753-63.855-.001-46.888-38.732-88.416-96.38-103.332z"/><path d="m391.101 213.59c0-81.285-86.359-147.416-192.507-147.416-106.151 0-192.51 66.131-192.51 147.416 0 31.543 12.744 61.543 36.882 86.869-.25 3.667-3.412 15.215-14.198 39.783-1.808 4.117-.675 8.781 2.822 11.598 3.498 2.817 8.293 2.939 11.937.298 24.15-17.547 32.896-21.826 35.645-22.863 33.822 20.471 76.139 31.725 119.422 31.725 106.148.001 192.507-66.13 192.507-147.41zm-192.508 134.462c-41.647 0-82.251-10.956-114.333-30.845-1.08-.668-2.173-1.345-4.049-1.345-4.337 0-12.873 3.617-35.172 19.272 14.889-35.792 11.272-39.515 8.318-42.55-22.456-23.096-34.325-50.415-34.325-78.994 0-74.143 80.552-134.467 179.561-134.467s179.558 60.324 179.558 134.467-80.549 134.462-179.558 134.462z"/><path d="m99.407 178.41c-17.152 0-31.105 13.956-31.105 31.108s13.953 31.103 31.105 31.103 31.108-13.951 31.108-31.103-13.956-31.108-31.108-31.108zm0 49.262c-10.013 0-18.156-8.144-18.156-18.154 0-10.015 8.144-18.159 18.156-18.159s18.159 8.144 18.159 18.159c0 10.01-8.146 18.154-18.159 18.154z"/><path d="m198.591 178.41c-17.152 0-31.105 13.956-31.105 31.108s13.953 31.103 31.105 31.103 31.108-13.951 31.108-31.103-13.956-31.108-31.108-31.108zm0 49.262c-10.013 0-18.156-8.144-18.156-18.154 0-10.015 8.144-18.159 18.156-18.159 10.013 0 18.159 8.144 18.159 18.159 0 10.01-8.147 18.154-18.159 18.154z"/><path d="m297.777 178.41c-17.152 0-31.108 13.956-31.108 31.108s13.956 31.103 31.108 31.103 31.105-13.951 31.105-31.103-13.953-31.108-31.105-31.108zm0 49.262c-10.013 0-18.159-8.144-18.159-18.154 0-10.015 8.146-18.159 18.159-18.159s18.156 8.144 18.156 18.159c0 10.01-8.143 18.154-18.156 18.154z"/></g></g></g><g id="Layer_1"/></svg>