<svg width="55" height="56" viewBox="0 0 55 56" fill="none" xmlns="http://www.w3.org/2000/svg">
<path fill-rule="evenodd" clip-rule="evenodd" d="M28.1966 5.29795C23.8465 5.15308 19.4516 6.33989 15.6572 8.87266C11.3955 11.7203 8.41728 15.9255 7.04548 20.6265C6.66665 20.5803 6.21301 20.6007 5.67436 20.753C3.66324 21.3236 2.15065 22.9716 1.47053 24.4229C0.588413 26.3144 0.216387 28.8159 0.608817 31.3983C0.998526 33.9725 2.08604 36.0945 3.44628 37.4119C4.8106 38.73 6.35108 39.1584 7.88135 38.8368C10.1598 38.3505 11.2894 37.9866 10.9705 35.8639L9.4259 25.5744C9.7374 20.0056 12.6204 14.7632 17.4425 11.5394C23.8968 7.22813 32.3589 7.50426 38.5154 12.2304C42.7981 15.514 45.2846 20.434 45.5716 25.5989L44.4916 32.7966C42.0826 39.389 36.1104 43.9553 29.1997 44.6035H24.598C23.4105 44.6035 22.4543 45.5597 22.4543 46.7459V47.8762C22.4543 49.063 23.4105 50.0193 24.598 50.0193H30.4001C31.587 50.0193 32.5391 49.063 32.5391 47.8762V47.2852C37.7502 46.0134 42.2989 42.8107 45.2608 38.3443L47.1196 38.8374C48.6321 39.2299 50.191 38.73 51.5546 37.4126C52.9149 36.0945 54.0017 33.9732 54.3921 31.3989C54.7859 28.8165 54.403 26.3191 53.5311 24.4236C52.6557 22.5281 51.3519 21.3243 49.8468 20.8924C49.2164 20.7108 48.5322 20.6442 47.9452 20.6265C46.7047 16.3758 44.1508 12.51 40.47 9.68745C36.8511 6.91052 32.5466 5.44078 28.1966 5.29795Z" fill="#47568C"/>
<path fill-rule="evenodd" clip-rule="evenodd" d="M34.9875 23.8095C36.5212 23.8095 37.7645 25.0528 37.7679 26.5905C37.7645 28.1242 36.5212 29.3709 34.9875 29.3709C33.4498 29.3709 32.2031 28.1242 32.2031 26.5905C32.2031 25.0535 33.4505 23.8095 34.9875 23.8095ZM27.4994 23.8095C29.0365 23.8095 30.2797 25.0528 30.2797 26.5905C30.2797 28.1242 29.0365 29.3709 27.4994 29.3709C25.961 29.3709 24.7177 28.1242 24.7177 26.5905C24.7177 25.0535 25.961 23.8095 27.4994 23.8095ZM20.014 23.8095C21.5477 23.8095 22.7943 25.0528 22.7943 26.5905C22.7943 28.1242 21.5477 29.3709 20.014 29.3709C18.4769 29.3709 17.233 28.1242 17.233 26.5905C17.233 25.0535 18.4769 23.8095 20.014 23.8095ZM27.4994 11.8652C19.3448 11.8652 12.7734 18.2203 12.7734 26.5905C12.7734 30.6107 14.2935 34.1637 16.7698 36.7706L15.8911 40.7098C15.6014 42.0061 16.5005 42.8781 17.6655 42.2292L21.5123 40.0834C23.3405 40.8771 25.3625 41.3158 27.4994 41.3158C35.6568 41.3158 42.224 34.9649 42.224 26.5905C42.224 18.2203 35.6568 11.8652 27.4994 11.8652Z" fill="#4895FF"/>
</svg>
