<svg width="460" height="460" viewBox="0 0 460 460" fill="none" xmlns="http://www.w3.org/2000/svg">
<g clip-path="url(#clip0_435_109)">
<path d="M216.459 326.136C223.913 333.574 235.959 333.574 243.397 326.136L349.877 219.656C355.323 214.194 356.956 206.008 354.023 198.915C351.059 191.791 344.131 187.15 336.424 187.15H289.879V49.079C289.879 35.071 278.521 23.713 264.528 23.713H195.328C181.335 23.713 169.976 35.071 169.976 49.079V187.149H123.449C115.742 187.149 108.828 191.79 105.864 198.914C102.916 206.007 104.548 214.194 109.996 219.655L216.459 326.136Z" fill="white"/>
<path d="M437.037 220.045C424.42 220.045 414.184 230.282 414.184 242.912V338.512C414.184 367.155 390.868 390.472 362.223 390.472H97.679C69.035 390.472 45.735 367.155 45.735 338.512V242.912C45.735 230.282 35.483 220.045 22.867 220.045C10.237 220.045 0 230.282 0 242.912V338.512C0 392.387 43.819 436.191 97.679 436.191H362.223C416.084 436.191 459.904 392.387 459.904 338.512V242.912C459.904 230.282 449.668 220.045 437.037 220.045Z" fill="white"/>
</g>
<defs>
<clipPath id="clip0_435_109">
<rect width="459.904" height="459.904" fill="white"/>
</clipPath>
</defs>
</svg>
