<svg width="512" height="512" viewBox="0 0 512 512" fill="none" xmlns="http://www.w3.org/2000/svg">
<g clip-path="url(#clip0_221_13)">
<path fill-rule="evenodd" clip-rule="evenodd" d="M499.848 76.7607C496.008 72.3523 491.267 68.818 485.946 66.3961C480.625 63.9743 474.846 62.721 469 62.7207H43C37.1248 62.7205 31.3186 63.9869 25.9771 66.4336C20.6356 68.8803 15.8843 72.4497 12.047 76.8987L12.01 76.9907L11.798 77.2397C5.47581 84.6165 2.00051 94.0114 2 103.727V408.269C2.02324 419.136 6.35015 429.552 14.0339 437.237C21.7177 444.921 32.1327 449.25 43 449.275H469C479.867 449.25 490.282 444.921 497.966 437.237C505.65 429.552 509.977 419.136 510 408.269V103.727C509.999 94.0099 506.523 84.6137 500.2 77.2357L499.864 76.8417L499.848 76.7607Z" fill="#D1E7FF"/>
<path fill-rule="evenodd" clip-rule="evenodd" d="M215.376 383.909H77.35V363.909H215.376V383.909ZM223.376 347.909H69.356C68.3052 347.908 67.2645 348.114 66.2934 348.516C65.3224 348.917 64.4401 349.507 63.6971 350.25C62.954 350.993 62.3648 351.875 61.9631 352.846C61.5614 353.817 61.3551 354.858 61.356 355.909V391.909C61.3551 392.959 61.5614 394 61.9631 394.971C62.3648 395.942 62.954 396.825 63.6971 397.568C64.4401 398.311 65.3224 398.9 66.2934 399.302C67.2645 399.703 68.3052 399.91 69.356 399.909H223.377C225.499 399.909 227.534 399.066 229.034 397.566C230.534 396.065 231.377 394.03 231.377 391.909V355.909C231.377 353.787 230.534 351.752 229.034 350.252C227.534 348.752 225.498 347.909 223.376 347.909ZM496.006 408.275V103.728C496.005 99.8543 495.161 96.0276 493.534 92.5127L280.956 244.033C273.693 249.281 264.96 252.106 255.999 252.106C247.038 252.106 238.305 249.281 231.042 244.033L18.477 92.5127C16.8467 96.0265 16.0034 99.854 16.006 103.728V408.27C16.019 415.427 18.8677 422.287 23.9284 427.347C28.9891 432.408 35.8491 435.257 43.006 435.27H469C476.156 435.254 483.014 432.404 488.074 427.344C493.134 422.284 495.984 415.426 496 408.27L496.006 408.275ZM469 76.7247C473.839 76.7409 478.586 78.0478 482.752 80.5107L271.676 230.96C267.149 234.334 261.653 236.157 256.006 236.157C250.359 236.157 244.863 234.334 240.336 230.96L29.258 80.5107C33.4205 78.049 38.1642 76.7421 43 76.7247H469ZM501.655 75.7957C497.626 71.0709 492.62 67.2764 486.982 64.6742C481.345 62.0719 475.209 60.7237 469 60.7227H43C36.7915 60.7223 30.657 62.0703 25.0205 64.6735C19.3841 67.2766 14.3803 71.0729 10.355 75.7997C10.326 75.8717 10.305 75.8717 10.276 75.9427C3.64548 83.6817 0.000745057 93.5366 0 103.728L0 408.27C0.0248265 419.667 4.56295 430.59 12.6215 438.65C20.68 446.71 31.6028 451.249 43 451.276H469C480.397 451.249 491.32 446.71 499.379 438.65C507.437 430.59 511.975 419.667 512 408.27V103.728C511.999 93.5347 508.353 83.6782 501.72 75.9387C501.707 75.8677 501.672 75.8677 501.658 75.7997L501.655 75.7957Z" fill="#418CFE"/>
<rect x="77" y="364" width="140" height="20" fill="white"/>
</g>
<defs>
<clipPath id="clip0_221_13">
<rect width="512" height="512" fill="white"/>
</clipPath>
</defs>
</svg>
