<svg width="55" height="56" viewBox="0 0 55 56" fill="none" xmlns="http://www.w3.org/2000/svg">
<path fill-rule="evenodd" clip-rule="evenodd" d="M8.59375 1.87109C4.79679 1.87109 1.71875 4.94913 1.71875 8.74609V19.0586C1.71875 22.8556 4.79679 25.9336 8.59375 25.9336H18.9062C22.7032 25.9336 25.7812 22.8556 25.7812 19.0586V8.74609C25.7812 4.94913 22.7032 1.87109 18.9062 1.87109H8.59375Z" fill="#6878B3"/>
<path fill-rule="evenodd" clip-rule="evenodd" d="M42.926 3.20875C42.7481 2.42631 42.0524 1.87109 41.25 1.87109C40.4476 1.87109 39.7519 2.42631 39.574 3.20875L38.6231 7.39081C38.1832 9.32514 36.6728 10.8356 34.7384 11.2754L30.5564 12.2264C29.774 12.4043 29.2188 13.0999 29.2188 13.9023C29.2188 14.7047 29.774 15.4004 30.5564 15.5783L34.7384 16.5293C36.6728 16.9691 38.1832 18.4795 38.6231 20.4139L39.574 24.596C39.7519 25.3784 40.4476 25.9336 41.25 25.9336C42.0524 25.9336 42.7481 25.3784 42.926 24.596L43.8769 20.4139C44.3168 18.4795 45.8272 16.9691 47.7616 16.5293L51.9436 15.5783C52.726 15.4004 53.2812 14.7047 53.2812 13.9023C53.2812 13.0999 52.726 12.4043 51.9436 12.2264L47.7616 11.2754C45.8272 10.8356 44.3168 9.32514 43.8769 7.39081L42.926 3.20875Z" fill="#4895FF"/>
<path fill-rule="evenodd" clip-rule="evenodd" d="M1.71875 36.2461C1.71875 32.4491 4.79679 29.3711 8.59375 29.3711H18.9062C22.7032 29.3711 25.7812 32.4491 25.7812 36.2461V46.5586C25.7812 50.3556 22.7032 53.4336 18.9062 53.4336H8.59375C4.79679 53.4336 1.71875 50.3556 1.71875 46.5586V36.2461Z" fill="#B3DBF1"/>
<path fill-rule="evenodd" clip-rule="evenodd" d="M36.0938 29.3711C32.2968 29.3711 29.2188 32.4491 29.2188 36.2461V46.5586C29.2188 50.3556 32.2968 53.4336 36.0938 53.4336H46.4062C50.2032 53.4336 53.2812 50.3556 53.2812 46.5586V36.2461C53.2812 32.4491 50.2032 29.3711 46.4062 29.3711H36.0938Z" fill="#88BAFF"/>
</svg>
