<svg width="55" height="56" viewBox="0 0 55 56" fill="none" xmlns="http://www.w3.org/2000/svg">
<g clip-path="url(#clip0_445_878)">
<path d="M27.5 55.9336C42.6878 55.9336 55 43.6214 55 28.4336C55 13.2458 42.6878 0.933594 27.5 0.933594C12.3122 0.933594 0 13.2458 0 28.4336C0 43.6214 12.3122 55.9336 27.5 55.9336Z" fill="#54C0EB"/>
<path d="M27.5 49.0586C16.1562 49.0586 6.875 39.7773 6.875 28.4336C6.875 17.0898 16.1562 7.80859 27.5 7.80859C38.8438 7.80859 48.125 17.0898 48.125 28.4336C48.125 39.7773 38.8438 49.0586 27.5 49.0586Z" fill="#F2F2F2"/>
<path d="M27.5 42.1836C19.9375 42.1836 13.75 35.9961 13.75 28.4336C13.75 20.8711 19.9375 14.6836 27.5 14.6836C35.0625 14.6836 41.25 20.8711 41.25 28.4336C41.25 35.9961 35.0625 42.1836 27.5 42.1836Z" fill="#4578C4"/>
<path d="M27.5 35.3086C23.7188 35.3086 20.625 32.2148 20.625 28.4336C20.625 24.6523 23.7188 21.5586 27.5 21.5586C31.2812 21.5586 34.375 24.6523 34.375 28.4336C34.375 32.2148 31.2812 35.3086 27.5 35.3086Z" fill="#CDD6E0"/>
<path d="M27.5 35.3086C23.7188 35.3086 20.625 32.2148 20.625 28.4336C20.625 24.6523 23.7188 21.5586 27.5 21.5586C31.2812 21.5586 34.375 24.6523 34.375 28.4336C34.375 32.2148 31.2812 35.3086 27.5 35.3086Z" fill="#FFD15C"/>
<path opacity="0.2" d="M54.7704 31.8718C54.312 35.3093 53.2808 38.5177 51.6766 41.4968L50.187 40.924L48.2391 36.799L27.6141 29.3511C26.6975 29.0073 26.2391 27.9761 26.5829 27.0594C26.9266 26.1428 27.9579 25.6844 28.8745 26.0282L49.4995 33.4761L53.6245 31.5282L54.7704 31.8718Z" fill="#334A5E"/>
<path d="M46.2904 12.0488L29.4467 28.8926C28.7592 29.5801 27.6133 29.5801 26.9258 28.8926C26.2383 28.2051 26.2383 27.0592 26.9258 26.3717L43.8842 9.64258C44.5717 8.95508 45.7175 8.95508 46.405 9.64258C46.9779 10.3301 46.9779 11.3613 46.2904 12.0488Z" fill="#40596B"/>
<path d="M47.8972 8.03772L42.5117 13.4232V6.31897L47.8972 0.933594V8.03772Z" fill="#4578C4"/>
<path d="M49.616 13.4226L55.0013 8.03711H47.8972L42.5117 13.4226H49.616Z" fill="#235094"/>
</g>
<defs>
<clipPath id="clip0_445_878">
<rect width="55" height="55" fill="white" transform="translate(0 0.933594)"/>
</clipPath>
</defs>
</svg>
