<svg height="512" viewBox="0 0 64 64" width="512" xmlns="http://www.w3.org/2000/svg"><g id="_29._Sketch" data-name="29. Sketch"><path d="m1 18h58a0 0 0 0 1 0 0v38a0 0 0 0 1 0 0h-53a5 5 0 0 1 -5-5v-33a0 0 0 0 1 0 0z" fill="#f5f7ff"/><path d="m1 48v3a5 5 0 0 0 5 5h53v-3h-53a5 5 0 0 1 -5-5z" fill="#ccd3eb"/><path d="m11 18v33a5 5 0 0 0 -10 0v-33a5 5 0 0 1 10 0z" fill="#ccd3eb"/><path d="m54 32h-6v-25a3 3 0 0 1 6 0z" fill="#ccd3eb"/><path d="m48 23h6v4h-6z" fill="#f5f7ff"/><path d="m48 32 3 5 3-5z" fill="#96a1c3"/><path d="m31 4h8v10h-8z" fill="#0074ff"/><path d="m31 14a5 5 0 0 1 0-10z" fill="#f5f7ff"/><path d="m39 14v-10a5 5 0 0 1 0 10z" fill="#f5f7ff"/><path d="m63 36v24h-24z" fill="#0074ff"/><path d="m59 48v8h-8z" fill="#f5f7ff"/><g fill="#033c59"><path d="m39 17a1 1 0 0 0 0 2h2a1 1 0 0 0 0-2z"/><path d="m39 56a1 1 0 0 0 -1-1h-32a4 4 0 1 1 4-4 1 1 0 0 0 2 0v-32h23a1 1 0 0 0 0-2h-23.09a6 6 0 0 0 -11.91 1v33a6 6 0 0 0 6 6h32a1 1 0 0 0 1-1zm-37-38a4 4 0 0 1 8 0v28.53a6 6 0 0 0 -8 0z"/><path d="m31 15h8a6 6 0 0 0 0-12h-8a6 6 0 0 0 0 12zm12-6a4 4 0 0 1 -3 3.87v-7.74a4 4 0 0 1 3 3.87zm-5 4h-6v-8h6zm-8-7.87v7.74a4 4 0 0 1 0-7.74z"/><path d="m62.29 35.29-2.29 2.3v-19.59a1 1 0 0 0 -1-1h-4v-10a4 4 0 0 0 -8 0v10h-2a1 1 0 0 0 0 2h2v13c0 .39-.11.09 3.14 5.51a1 1 0 0 0 1.72 0c3.28-5.46 3.14-5.13 3.14-5.51v-13h3v20.59l-19.71 19.7a1 1 0 0 0 .71 1.71h24a1 1 0 0 0 1-1v-24a1 1 0 0 0 -1.71-.71zm-13.29-4.29v-20h4v20zm2-26a2 2 0 0 1 2 2v2h-4v-2a2 2 0 0 1 2-2zm0 30.06-1.23-2.06h2.46zm11 23.94h-20.59l20.59-20.59z"/><path d="m58.29 47.29-8 8a1 1 0 0 0 .71 1.71h8a1 1 0 0 0 1-1v-8a1 1 0 0 0 -1.71-.71zm-.29 7.71h-4.59l4.59-4.59z"/></g><path d="m38 45a4 4 0 0 1 -4-4v-6a3 3 0 0 0 -6 0 4 4 0 0 1 -4 4h-7a1 1 0 0 1 0-2h7a2 2 0 0 0 2-2 5 5 0 0 1 10 0v6a2 2 0 0 0 4 0 5 5 0 0 1 5-5h1a1 1 0 0 1 0 2h-1a3 3 0 0 0 -3 3 4 4 0 0 1 -4 4z" fill="#96a1c3"/><path d="m35 59a1 1 0 1 0 1 1 1 1 0 0 0 -1-1z" fill="#0074ff"/><path d="m31 59a1 1 0 1 0 1 1 1 1 0 0 0 -1-1z" fill="#0074ff"/><path d="m17 25h-2a1 1 0 0 0 0 2h2a1 1 0 0 0 0-2z" fill="#0074ff"/><path d="m15 23h2a1 1 0 0 0 0-2h-2a1 1 0 0 0 0 2z" fill="#0074ff"/></g></svg>