<svg width="512" height="512" viewBox="0 0 512 512" fill="none" xmlns="http://www.w3.org/2000/svg">
<g clip-path="url(#clip0_218_2)">
<path d="M8 144H472V448H48C42.7471 448 37.5457 446.965 32.6927 444.955C27.8396 442.945 23.4301 439.999 19.7157 436.284C12.2143 428.783 8 418.609 8 408V144Z" fill="white"/>
<path d="M8 384V408C8 418.609 12.2143 428.783 19.7157 436.284C23.4301 439.999 27.8396 442.945 32.6927 444.955C37.5457 446.965 42.7471 448 48 448H472V424H48C42.7471 424 37.5457 422.965 32.6927 420.955C27.8396 418.945 23.4301 415.999 19.7157 412.284C12.2143 404.783 8 394.609 8 384Z" fill="#9BC9FF"/>
<path d="M88 144V408C88 397.391 83.7857 387.217 76.2843 379.716C68.7828 372.214 58.6087 368 48 368C37.3913 368 27.2172 372.214 19.7157 379.716C12.2143 387.217 8 397.391 8 408V144C8 133.391 12.2143 123.217 19.7157 115.716C27.2172 108.214 37.3913 104 48 104C58.6087 104 68.7828 108.214 76.2843 115.716C83.7857 123.217 88 133.391 88 144Z" fill="#9BC9FF"/>
<path d="M432 256H384V56C384 49.6348 386.529 43.5303 391.029 39.0294C395.53 34.5286 401.635 32 408 32C414.365 32 420.47 34.5286 424.971 39.0294C429.471 43.5303 432 49.6348 432 56V256Z" fill="#9BC9FF"/>
<path d="M384 184H432V216H384V184Z" fill="white"/>
<path d="M384 256L408 296L432 256H384Z" fill="#96A1C3"/>
<path d="M248 32H312V112H248V32Z" fill="#9BC9FF"/>
<path d="M248 112C237.391 112 227.217 107.786 219.716 100.284C212.214 92.7828 208 82.6087 208 72C208 61.3913 212.214 51.2172 219.716 43.7157C227.217 36.2143 237.391 32 248 32V112Z" fill="white"/>
<path d="M312 112V32C322.609 32 332.783 36.2143 340.284 43.7157C347.786 51.2172 352 61.3913 352 72C352 82.6087 347.786 92.7828 340.284 100.284C332.783 107.786 322.609 112 312 112Z" fill="white"/>
<path d="M504 288V480H312L504 288Z" fill="#9BC9FF"/>
<path d="M472 384V448H408L472 384Z" fill="white"/>
<path d="M312 136C309.878 136 307.843 136.843 306.343 138.343C304.843 139.843 304 141.878 304 144C304 146.122 304.843 148.157 306.343 149.657C307.843 151.157 309.878 152 312 152H328C330.122 152 332.157 151.157 333.657 149.657C335.157 148.157 336 146.122 336 144C336 141.878 335.157 139.843 333.657 138.343C332.157 136.843 330.122 136 328 136H312Z" fill="#1E81CE"/>
<path d="M312 448C312 445.879 311.157 443.844 309.657 442.344C308.157 440.843 306.122 440 304 440H48C41.671 440 35.4841 438.124 30.2218 434.607C24.9594 431.091 20.8579 426.094 18.4359 420.246C16.0139 414.399 15.3801 407.965 16.6149 401.758C17.8496 395.55 20.8973 389.848 25.3726 385.373C29.8479 380.898 35.5497 377.85 41.7571 376.615C47.9645 375.381 54.3986 376.014 60.2459 378.436C66.0931 380.858 71.0908 384.96 74.607 390.222C78.1232 395.485 80 401.671 80 408C80 410.122 80.8429 412.157 82.3431 413.657C83.8434 415.158 85.8783 416 88 416C90.1217 416 92.1566 415.158 93.6569 413.657C95.1571 412.157 96 410.122 96 408V152H280C282.122 152 284.157 151.158 285.657 149.657C287.157 148.157 288 146.122 288 144C288 141.879 287.157 139.844 285.657 138.344C284.157 136.843 282.122 136 280 136H95.28C93.2127 124.193 86.8022 113.586 77.3093 106.266C67.8164 98.9466 55.9283 95.4438 43.9831 96.4467C32.0379 97.4497 20.9003 102.886 12.7609 111.686C4.62152 120.486 0.0694286 132.013 0 144L0 408C0 420.731 5.05713 432.94 14.0589 441.942C23.0606 450.943 35.2696 456 48 456H304C306.122 456 308.157 455.158 309.657 453.657C311.157 452.157 312 450.122 312 448ZM16 144C16 135.513 19.3714 127.374 25.3726 121.373C31.3737 115.372 39.5131 112 48 112C56.4869 112 64.6263 115.372 70.6274 121.373C76.6286 127.374 80 135.513 80 144V372.24C71.1996 364.369 59.8069 360.017 48 360.017C36.1931 360.017 24.8004 364.369 16 372.24V144Z" fill="#1E81CE"/>
<path d="M248 120H312C324.73 120 336.939 114.943 345.941 105.941C354.943 96.9394 360 84.7304 360 72C360 59.2696 354.943 47.0606 345.941 38.0589C336.939 29.0571 324.73 24 312 24H248C235.27 24 223.061 29.0571 214.059 38.0589C205.057 47.0606 200 59.2696 200 72C200 84.7304 205.057 96.9394 214.059 105.941C223.061 114.943 235.27 120 248 120ZM344 72C343.995 79.0902 341.635 85.9778 337.291 91.5815C332.947 97.1851 326.865 101.187 320 102.96V41.04C326.865 42.8125 332.947 46.8149 337.291 52.4185C341.635 58.0222 343.995 64.9098 344 72ZM304 104H256V40H304V104ZM240 41.04V102.96C233.152 101.17 227.091 97.1605 222.765 91.5584C218.439 85.9563 216.092 79.078 216.092 72C216.092 64.922 218.439 58.0437 222.765 52.4416C227.091 46.8395 233.152 42.8298 240 41.04Z" fill="#1E81CE"/>
<path d="M498.32 282.32L480 300.72V144C480 141.878 479.157 139.843 477.657 138.343C476.156 136.843 474.121 136 472 136H440V56C440 47.5131 436.628 39.3737 430.627 33.3726C424.626 27.3714 416.487 24 408 24C399.513 24 391.373 27.3714 385.372 33.3726C379.371 39.3737 376 47.5131 376 56V136H360C357.878 136 355.843 136.843 354.343 138.343C352.842 139.843 352 141.878 352 144C352 146.122 352.842 148.157 354.343 149.657C355.843 151.157 357.878 152 360 152H376V256C376 259.12 375.12 256.72 401.12 300.08C401.828 301.274 402.835 302.263 404.041 302.95C405.247 303.636 406.612 303.998 408 303.998C409.388 303.998 410.752 303.636 411.958 302.95C413.165 302.263 414.171 301.274 414.88 300.08C441.12 256.4 440 259.04 440 256V152H464V316.72L306.32 474.32C305.191 475.439 304.422 476.869 304.109 478.427C303.797 479.985 303.955 481.6 304.565 483.068C305.174 484.535 306.207 485.788 307.531 486.667C308.855 487.545 310.411 488.009 312 488H504C506.121 488 508.156 487.157 509.657 485.657C511.157 484.157 512 482.122 512 480V288C512.009 286.411 511.545 284.855 510.666 283.531C509.788 282.207 508.535 281.174 507.067 280.565C505.6 279.956 503.984 279.797 502.426 280.11C500.868 280.422 499.439 281.192 498.32 282.32ZM392 248V88H424V248H392ZM408 40C412.243 40 416.313 41.6857 419.313 44.6863C422.314 47.6869 424 51.7565 424 56V72H392V56C392 51.7565 393.685 47.6869 396.686 44.6863C399.687 41.6857 403.756 40 408 40ZM408 280.48L398.16 264H417.84L408 280.48ZM496 472H331.28L496 307.28V472Z" fill="#1E81CE"/>
<path d="M466.32 378.32L402.32 442.32C401.191 443.439 400.422 444.868 400.109 446.426C399.797 447.984 399.955 449.6 400.565 451.067C401.174 452.535 402.207 453.788 403.531 454.666C404.855 455.545 406.411 456.009 408 456H472C474.121 456 476.156 455.157 477.657 453.657C479.157 452.156 480 450.121 480 448V384C480.009 382.411 479.545 380.855 478.666 379.531C477.788 378.207 476.535 377.174 475.067 376.565C473.6 375.955 471.984 375.797 470.426 376.109C468.868 376.422 467.439 377.191 466.32 378.32ZM464 440H427.28L464 403.28V440Z" fill="#1E81CE"/>
<path d="M304 360C295.513 360 287.374 356.629 281.373 350.627C275.371 344.626 272 336.487 272 328V280C272 273.635 269.471 267.53 264.971 263.029C260.47 258.529 254.365 256 248 256C241.635 256 235.53 258.529 231.029 263.029C226.529 267.53 224 273.635 224 280C224 288.487 220.629 296.626 214.627 302.627C208.626 308.629 200.487 312 192 312H136C133.878 312 131.843 311.157 130.343 309.657C128.843 308.157 128 306.122 128 304C128 301.878 128.843 299.843 130.343 298.343C131.843 296.843 133.878 296 136 296H192C196.243 296 200.313 294.314 203.314 291.314C206.314 288.313 208 284.243 208 280C208 269.391 212.214 259.217 219.716 251.716C227.217 244.214 237.391 240 248 240C258.609 240 268.783 244.214 276.284 251.716C283.786 259.217 288 269.391 288 280V328C288 332.243 289.686 336.313 292.686 339.314C295.687 342.314 299.757 344 304 344C308.243 344 312.313 342.314 315.314 339.314C318.314 336.313 320 332.243 320 328C320 317.391 324.214 307.217 331.716 299.716C339.217 292.214 349.391 288 360 288H368C370.122 288 372.157 288.843 373.657 290.343C375.157 291.843 376 293.878 376 296C376 298.122 375.157 300.157 373.657 301.657C372.157 303.157 370.122 304 368 304H360C353.635 304 347.53 306.529 343.029 311.029C338.529 315.53 336 321.635 336 328C336 336.487 332.629 344.626 326.627 350.627C320.626 356.629 312.487 360 304 360Z" fill="#9BC9FF"/>
<path d="M280 472C278.418 472 276.871 472.469 275.555 473.348C274.24 474.227 273.214 475.477 272.609 476.939C272.003 478.4 271.845 480.009 272.154 481.561C272.462 483.113 273.224 484.538 274.343 485.657C275.462 486.776 276.887 487.538 278.439 487.846C279.991 488.155 281.6 487.997 283.061 487.391C284.523 486.786 285.773 485.76 286.652 484.445C287.531 483.129 288 481.582 288 480C288 477.878 287.157 475.843 285.657 474.343C284.157 472.843 282.122 472 280 472Z" fill="#0074FF"/>
<path d="M248 472C246.418 472 244.871 472.469 243.555 473.348C242.24 474.227 241.214 475.477 240.609 476.939C240.003 478.4 239.845 480.009 240.154 481.561C240.462 483.113 241.224 484.538 242.343 485.657C243.462 486.776 244.887 487.538 246.439 487.846C247.991 488.155 249.6 487.997 251.061 487.391C252.523 486.786 253.773 485.76 254.652 484.445C255.531 483.129 256 481.582 256 480C256 477.878 255.157 475.843 253.657 474.343C252.157 472.843 250.122 472 248 472Z" fill="#0074FF"/>
<path d="M136 200H120C117.878 200 115.843 200.843 114.343 202.343C112.843 203.843 112 205.878 112 208C112 210.122 112.843 212.157 114.343 213.657C115.843 215.157 117.878 216 120 216H136C138.122 216 140.157 215.157 141.657 213.657C143.157 212.157 144 210.122 144 208C144 205.878 143.157 203.843 141.657 202.343C140.157 200.843 138.122 200 136 200Z" fill="#1E81CE"/>
<path d="M120 184H136C138.122 184 140.157 183.157 141.657 181.657C143.157 180.157 144 178.122 144 176C144 173.878 143.157 171.843 141.657 170.343C140.157 168.843 138.122 168 136 168H120C117.878 168 115.843 168.843 114.343 170.343C112.843 171.843 112 173.878 112 176C112 178.122 112.843 180.157 114.343 181.657C115.843 183.157 117.878 184 120 184Z" fill="#1E81CE"/>
</g>
<defs>
<clipPath id="clip0_218_2">
<rect width="512" height="512" fill="white"/>
</clipPath>
</defs>
</svg>
