<svg id="Layer_1" height="512" viewBox="0 0 512 512" width="512" xmlns="http://www.w3.org/2000/svg" data-name="Layer 1"><g fill-rule="evenodd"><path d="m161.292 437.3a44.965 44.965 0 0 0 31.889 13.2 42.134 42.134 0 0 0 6.012-.428l.082-.011v48.018h-185.347v-185.318l56.758.036-.036-.035v-.072h.072a7.041 7.041 0 0 0 2.355-.424 6.886 6.886 0 0 0 4.135-8.838 31.407 31.407 0 0 1 -1.847-10.669 31.234 31.234 0 0 1 62.467 0 31.714 31.714 0 0 1 -.459 5.442 32.267 32.267 0 0 1 -1.226 4.8 6.947 6.947 0 0 0 6.334 9.76h56.794v47.945l-.079-.009a56.229 56.229 0 0 0 -6.015-.357 45.078 45.078 0 0 0 -31.889 76.96zm151.427-238.132c.011-.111.006-.238.006-.35v-47.518l.08.008a55.97 55.97 0 0 0 6.015.357 45.077 45.077 0 1 0 0-90.154 42.134 42.134 0 0 0 -6.012.428l-.083.012v-48.088h185.348v.073q-.372 92.619-.192 185.239v.072h-56.6a6.94 6.94 0 0 0 -6.929 6.929 7.1 7.1 0 0 0 .595 2.831 30.633 30.633 0 0 1 1.226 4.8 31.5 31.5 0 0 1 .458 5.442 31.23 31.23 0 1 1 -60.621-10.669 6.97 6.97 0 0 0 -4.137-8.909 6.641 6.641 0 0 0 -2.354-.353h-.071l.036-.107-56.773.036z" fill="#bdd6ff"/><path d="m250.961 199.175h47.849a2.485 2.485 0 0 1 -.014-.357v-56.365h.028a6.674 6.674 0 0 1 .415-2.358 6.908 6.908 0 0 1 8.944-4.143 36.663 36.663 0 0 0 5.215 1.357 33.442 33.442 0 0 0 5.422.429 31.147 31.147 0 0 0 0-62.294 33.556 33.556 0 0 0 -5.422.428 45.072 45.072 0 0 0 -4.758 1.215 6.38 6.38 0 0 1 -2.843.643 7.007 7.007 0 0 1 -7-7v-56.795h-185.197v185.24h47.842a45.16 45.16 0 1 1 89.919-6 46.217 46.217 0 0 1 -.4 6zm47.835 14h-56.715a6.958 6.958 0 0 1 -7-7 6.719 6.719 0 0 1 .6-2.786 34.486 34.486 0 0 0 1.219-4.789 31.87 31.87 0 0 0 .458-5.429 31.158 31.158 0 0 0 -62.316 0 31.1 31.1 0 0 0 1.836 10.644 7 7 0 0 1 -6.558 9.359h-63.72a6.962 6.962 0 0 1 -7-7v-199.168a7.007 7.007 0 0 1 7-7h398.4a6.988 6.988 0 0 1 6.973 7c-.379 88.941-.251 176.881-.122 265.179.071 53.793.157 107.8.157 133.232a7.009 7.009 0 0 1 -7.008 7h-199.2a7.007 7.007 0 0 1 -7-7v-54.864a42.176 42.176 0 0 1 -6.015.428 45.185 45.185 0 0 1 0-90.369 42.176 42.176 0 0 1 6.015.428v-47.863zm142.483-14a7.013 7.013 0 0 0 -7 7 7.187 7.187 0 0 0 .6 2.857 30.389 30.389 0 0 1 1.222 4.787 31.158 31.158 0 1 1 -61.4 0 30.2 30.2 0 0 1 1.379-5.215 7.051 7.051 0 0 0 -4.18-9 6.868 6.868 0 0 0 -2.379-.357v-.071h-56.731c.007-.072.007-.214.007-.357v-47.436a56.175 56.175 0 0 0 6.023.357 45.149 45.149 0 1 0 0-90.3 42.351 42.351 0 0 0 -6.023.428v-47.933h185.203c-.25 62.08-.264 123.66-.192 185.24zm-434.279 99.656a6.962 6.962 0 0 0 -7 7v199.169a7.007 7.007 0 0 0 7 7h199.2a7 7 0 0 0 7-7v-63.721a7 7 0 0 0 -7-7 7.476 7.476 0 0 0 -2.836.572 24.929 24.929 0 0 1 -4.758 1.214 26.9 26.9 0 0 1 -5.422.5 31.148 31.148 0 1 1 0-62.3 33.442 33.442 0 0 1 5.422.429 36.833 36.833 0 0 1 5.215 1.357 6.942 6.942 0 0 0 9.359-6.572h.021v-63.647a6.958 6.958 0 0 0 -7-7h-54.84a47.306 47.306 0 0 0 .4-6.072 45.16 45.16 0 0 0 -90.319 0 46.077 46.077 0 0 0 .4 6.072zm63.723 14h-56.723v185.169h185.2v-47.862a42.326 42.326 0 0 1 -6.022.428 45.149 45.149 0 1 1 0-90.3 55.883 55.883 0 0 1 6.022.358v-47.791h-56.719a7.013 7.013 0 0 1 -7-7 6.918 6.918 0 0 1 .6-2.857 31.407 31.407 0 0 0 1.679-10.216 31.162 31.162 0 0 0 -62.323 0 31.854 31.854 0 0 0 .464 5.429 31.315 31.315 0 0 0 1.379 5.211 7 7 0 0 1 -6.558 9.359v.071zm427.1-99.656h-47.664a46.077 46.077 0 0 1 .4 6.072 45.16 45.16 0 0 1 -90.319 0 47.306 47.306 0 0 1 .4-6.072h-47.84v56.725h-.021a7.23 7.23 0 0 1 -.414 2.429 7.031 7.031 0 0 1 -8.944 4.143 29.329 29.329 0 0 0 -5.222-1.357 33.216 33.216 0 0 0 -5.415-.5 31.183 31.183 0 0 0 0 62.365 33.216 33.216 0 0 0 5.415-.5 31.536 31.536 0 0 0 4.764-1.214 7.478 7.478 0 0 1 2.837-.572 7 7 0 0 1 7 7v56.722h185.2c0-59.436-.05-92.8-.1-126.231-.035-19.646-.056-39.363-.077-59.008z" fill="#2b72ff"/></g></svg>