<svg width="512" height="512" viewBox="0 0 512 512" fill="none" xmlns="http://www.w3.org/2000/svg">
<g clip-path="url(#clip0_219_64)">
<path fill-rule="evenodd" clip-rule="evenodd" d="M161.294 437.3C165.478 441.492 170.449 444.816 175.921 447.082C181.394 449.347 187.26 450.509 193.183 450.5C195.194 450.501 197.203 450.358 199.195 450.072L199.277 450.061V498.079H13.9297V312.761L70.6877 312.797L70.6517 312.762V312.69H70.7237C71.5271 312.684 72.3236 312.541 73.0787 312.266C73.9316 311.959 74.7154 311.486 75.3852 310.875C76.055 310.264 76.5975 309.527 76.9817 308.706C77.3659 307.885 77.5842 306.996 77.624 306.09C77.6638 305.185 77.5243 304.28 77.2137 303.428C75.985 300.006 75.3601 296.396 75.3667 292.759C75.4134 284.506 78.7246 276.607 84.577 270.788C90.4293 264.969 98.347 261.702 106.6 261.702C114.853 261.702 122.771 264.969 128.623 270.788C134.476 276.607 137.787 284.506 137.834 292.759C137.837 294.583 137.684 296.404 137.375 298.201C137.09 299.83 136.68 301.435 136.149 303.001C135.681 304.057 135.484 305.214 135.576 306.365C135.667 307.517 136.044 308.627 136.673 309.596C137.302 310.565 138.163 311.362 139.177 311.915C140.191 312.467 141.328 312.758 142.483 312.761H199.277V360.706L199.198 360.697C197.201 360.471 195.193 360.352 193.183 360.34C184.264 360.336 175.545 362.977 168.129 367.93C160.712 372.882 154.931 379.924 151.517 388.163C148.103 396.401 147.21 405.468 148.95 414.215C150.69 422.962 154.986 430.996 161.294 437.3ZM312.721 199.168C312.732 199.057 312.727 198.93 312.727 198.818V151.3L312.807 151.308C314.804 151.535 316.812 151.654 318.822 151.665C330.777 151.665 342.242 146.916 350.696 138.463C359.149 130.009 363.899 118.543 363.899 106.588C363.899 94.6331 359.149 83.1676 350.696 74.714C342.242 66.2605 330.777 61.5113 318.822 61.5113C316.81 61.5102 314.801 61.6533 312.81 61.9393L312.727 61.9513V13.8633H498.075V13.9363C497.827 75.6823 497.763 137.429 497.883 199.175V199.247H441.283C439.446 199.25 437.685 199.981 436.386 201.28C435.088 202.579 434.357 204.339 434.354 206.176C434.356 207.151 434.558 208.114 434.949 209.007C435.486 210.572 435.896 212.177 436.175 213.807C436.485 215.605 436.638 217.425 436.633 219.249C436.617 223.799 435.606 228.291 433.673 232.41C431.739 236.529 428.929 240.175 425.438 243.094C421.948 246.013 417.862 248.135 413.466 249.309C409.07 250.484 404.471 250.684 399.99 249.896C395.509 249.107 391.254 247.348 387.523 244.743C383.793 242.138 380.676 238.75 378.392 234.814C376.108 230.879 374.712 226.492 374.301 221.961C373.889 217.429 374.473 212.862 376.012 208.58C376.638 206.85 376.554 204.942 375.779 203.273C375.004 201.604 373.601 200.309 371.875 199.671C371.118 199.413 370.32 199.293 369.521 199.318H369.45L369.486 199.211L312.713 199.247L312.721 199.168Z" fill="#9BC9FF"/>
<path fill-rule="evenodd" clip-rule="evenodd" d="M250.961 199.175H298.81C298.797 199.056 298.792 198.937 298.796 198.818V142.453H298.824C298.819 141.648 298.96 140.849 299.239 140.095C299.547 139.231 300.025 138.436 300.643 137.759C301.262 137.081 302.009 136.533 302.842 136.147C303.675 135.762 304.576 135.546 305.493 135.512C306.41 135.479 307.324 135.628 308.183 135.952C309.886 136.532 311.629 136.985 313.398 137.309C315.191 137.599 317.004 137.742 318.82 137.738C327.081 137.738 335.003 134.456 340.844 128.615C346.686 122.774 349.967 114.852 349.967 106.591C349.967 98.3302 346.686 90.4078 340.844 84.5666C335.003 78.7254 327.081 75.4439 318.82 75.4439C317.004 75.4396 315.191 75.5827 313.398 75.8719C311.791 76.1901 310.203 76.5957 308.64 77.0869C307.755 77.5177 306.782 77.7378 305.797 77.7299C303.941 77.728 302.162 76.9899 300.849 75.6776C299.537 74.3652 298.799 72.5858 298.797 70.7299V13.9349H113.6V199.175H161.442C160.62 193.046 161.065 186.813 162.751 180.863C164.436 174.913 167.325 169.372 171.24 164.584C175.154 159.797 180.01 155.864 185.507 153.031C191.004 150.197 197.024 148.522 203.194 148.11C209.365 147.699 215.554 148.559 221.379 150.637C227.203 152.715 232.539 155.968 237.054 160.193C241.57 164.418 245.17 169.525 247.631 175.199C250.092 180.872 251.362 186.991 251.361 193.175C251.358 195.181 251.225 197.186 250.961 199.175ZM298.796 213.175H242.081C241.16 213.18 240.248 213.003 239.396 212.653C238.544 212.304 237.77 211.788 237.119 211.137C236.468 210.486 235.952 209.712 235.603 208.86C235.253 208.008 235.076 207.096 235.081 206.175C235.08 205.214 235.284 204.264 235.681 203.389C236.201 201.824 236.609 200.223 236.9 198.6C237.207 196.807 237.361 194.99 237.358 193.171C237.358 184.907 234.075 176.982 228.232 171.139C222.389 165.296 214.464 162.013 206.2 162.013C197.936 162.013 190.011 165.296 184.168 171.139C178.325 176.982 175.042 184.907 175.042 193.171C175.029 196.799 175.65 200.401 176.878 203.815C177.255 204.869 177.374 205.998 177.225 207.107C177.076 208.217 176.663 209.274 176.02 210.191C175.378 211.108 174.525 211.857 173.533 212.376C172.541 212.895 171.44 213.169 170.32 213.174H106.6C105.679 213.179 104.767 213.001 103.915 212.651C103.064 212.301 102.29 211.786 101.639 211.135C100.988 210.484 100.473 209.71 100.123 208.859C99.7727 208.007 99.5951 207.095 99.6001 206.174V7.00586C99.602 5.14991 100.34 3.37051 101.652 2.05816C102.965 0.745806 104.744 0.00771254 106.6 0.00585938H505C506.853 0.00983378 508.628 0.749469 509.936 2.06214C511.244 3.37481 511.976 5.15304 511.973 7.00586C511.594 95.9469 511.722 183.887 511.851 272.185C511.922 325.978 512.008 379.985 512.008 405.417C512.006 407.274 511.266 409.054 509.952 410.367C508.638 411.679 506.857 412.417 505 412.417H305.8C303.944 412.415 302.165 411.677 300.852 410.365C299.54 409.052 298.802 407.273 298.8 405.417V350.553C296.808 350.839 294.798 350.982 292.785 350.981C280.838 350.925 269.4 346.139 260.972 337.672C252.544 329.204 247.813 317.743 247.813 305.796C247.813 293.849 252.544 282.389 260.972 273.921C269.4 265.453 280.838 260.668 292.785 260.612C294.798 260.611 296.808 260.754 298.8 261.04V213.177L298.796 213.175ZM441.279 199.175C439.424 199.178 437.645 199.917 436.333 201.229C435.021 202.541 434.283 204.319 434.279 206.175C434.282 207.158 434.486 208.131 434.879 209.032C435.416 210.592 435.824 212.193 436.101 213.819C436.877 218.294 436.665 222.885 435.48 227.27C434.295 231.655 432.166 235.728 429.241 239.204C426.316 242.679 422.667 245.473 418.549 247.39C414.431 249.306 409.943 250.3 405.401 250.3C400.859 250.3 396.371 249.306 392.253 247.39C388.135 245.473 384.486 242.679 381.561 239.204C378.637 235.728 376.507 231.655 375.322 227.27C374.137 222.885 373.925 218.294 374.701 213.819C375.004 212.043 375.466 210.298 376.08 208.604C376.71 206.856 376.624 204.929 375.841 203.244C375.059 201.559 373.642 200.251 371.9 199.604C371.134 199.346 370.329 199.225 369.521 199.247V199.176H312.79C312.797 199.104 312.797 198.962 312.797 198.819V151.383C314.797 151.61 316.807 151.729 318.82 151.74C330.795 151.74 342.279 146.983 350.746 138.516C359.213 130.048 363.97 118.564 363.97 106.59C363.97 94.6153 359.213 83.1313 350.746 74.664C342.279 66.1967 330.795 61.4399 318.82 61.4399C316.805 61.439 314.792 61.5821 312.797 61.8679V13.9349H498C497.75 76.0149 497.736 137.595 497.808 199.175H441.279ZM7.0001 298.831C6.07944 298.826 5.16692 299.003 4.31537 299.353C3.46382 299.703 2.69014 300.219 2.03912 300.87C1.38811 301.521 0.872682 302.295 0.522684 303.146C0.172686 303.998 -0.00493474 304.91 0.000104286 305.831V505C0.00195745 506.856 0.74005 508.635 2.0524 509.948C3.36476 511.26 5.14416 511.998 7.0001 512H206.2C208.057 512 209.837 511.262 211.15 509.95C212.463 508.637 213.2 506.856 213.2 505V441.279C213.2 439.422 212.463 437.642 211.15 436.329C209.837 435.016 208.057 434.279 206.2 434.279C205.227 434.283 204.263 434.477 203.364 434.851C201.822 435.411 200.228 435.818 198.606 436.065C196.82 436.414 195.004 436.582 193.184 436.565C184.923 436.565 176.999 433.283 171.158 427.441C165.316 421.599 162.034 413.676 162.034 405.415C162.034 397.153 165.316 389.23 171.158 383.388C176.999 377.547 184.923 374.265 193.184 374.265C195 374.26 196.813 374.404 198.606 374.694C200.375 375.018 202.118 375.472 203.821 376.051C204.876 376.443 206.01 376.572 207.126 376.428C208.243 376.284 209.307 375.871 210.228 375.225C211.149 374.578 211.899 373.717 212.413 372.716C212.927 371.715 213.191 370.604 213.18 369.479H213.201V305.832C213.207 304.911 213.029 303.998 212.68 303.146C212.33 302.295 211.814 301.521 211.163 300.87C210.512 300.219 209.738 299.703 208.886 299.353C208.035 299.004 207.122 298.826 206.201 298.832H151.361C151.625 296.819 151.758 294.79 151.761 292.76C151.705 280.82 146.922 269.388 138.459 260.964C129.996 252.541 118.542 247.812 106.602 247.812C94.6612 247.812 83.2068 252.541 74.7439 260.964C66.2809 269.388 61.4983 280.82 61.4421 292.76C61.4415 294.79 61.5751 296.819 61.8421 298.832L7.0001 298.831ZM70.7231 312.831H14.0001V498H199.2V450.138C197.206 450.424 195.193 450.567 193.178 450.566C181.204 450.566 169.72 445.809 161.252 437.342C152.785 428.874 148.028 417.39 148.028 405.416C148.028 393.441 152.785 381.957 161.252 373.49C169.72 365.023 181.204 360.266 193.178 360.266C195.19 360.277 197.201 360.396 199.2 360.624V312.833H142.481C140.626 312.829 138.847 312.091 137.535 310.779C136.223 309.467 135.485 307.688 135.481 305.833C135.476 304.849 135.68 303.875 136.081 302.976C137.202 299.687 137.769 296.235 137.76 292.76C137.713 284.526 134.41 276.645 128.571 270.839C122.732 265.033 114.833 261.774 106.599 261.774C98.3645 261.774 90.4651 265.033 84.6262 270.839C78.7874 276.645 75.4837 284.526 75.4371 292.76C75.4364 294.579 75.5917 296.396 75.9011 298.189C76.2101 299.962 76.6715 301.706 77.2801 303.4C77.6574 304.454 77.7764 305.583 77.6271 306.692C77.4778 307.802 77.0647 308.859 76.4223 309.776C75.7799 310.693 74.927 311.442 73.9352 311.961C72.9434 312.48 71.8415 312.754 70.7221 312.759V312.83L70.7231 312.831ZM497.823 213.175H450.159C450.426 215.188 450.56 217.216 450.559 219.247C450.503 231.187 445.72 242.619 437.257 251.042C428.794 259.466 417.34 264.194 405.4 264.194C393.459 264.194 382.005 259.466 373.542 251.042C365.079 242.619 360.296 231.187 360.24 219.247C360.243 217.216 360.377 215.188 360.64 213.175H312.8V269.9H312.779C312.781 270.727 312.641 271.549 312.365 272.329C311.715 274.054 310.414 275.455 308.741 276.23C307.068 277.005 305.157 277.092 303.421 276.472C301.726 275.86 299.978 275.406 298.199 275.115C296.411 274.8 294.6 274.633 292.784 274.615C284.545 274.661 276.658 277.967 270.849 283.81C265.039 289.653 261.778 297.558 261.778 305.797C261.778 314.037 265.039 321.942 270.849 327.785C276.658 333.627 284.545 336.933 292.784 336.98C294.6 336.961 296.411 336.794 298.199 336.48C299.816 336.2 301.409 335.794 302.963 335.266C303.863 334.892 304.826 334.698 305.8 334.694C307.657 334.694 309.437 335.431 310.75 336.744C312.063 338.057 312.8 339.837 312.8 341.694V398.416H498C498 338.98 497.95 305.616 497.9 272.185C497.865 252.539 497.844 232.822 497.823 213.177V213.175Z" fill="#1E81CE"/>
</g>
<defs>
<clipPath id="clip0_219_64">
<rect width="512" height="512" fill="white"/>
</clipPath>
</defs>
</svg>
