<svg width="506" height="506" viewBox="0 0 506 506" fill="none" xmlns="http://www.w3.org/2000/svg">
<path d="M497.851 253.052C497.851 388.262 388.26 497.854 252.947 497.854C117.737 497.854 8.14453 388.262 8.14453 253.052C8.14453 117.74 117.737 8.14844 252.947 8.14844C388.26 8.14944 497.851 117.74 497.851 253.052Z" fill="#D4E3FF"/>
<path d="M252.944 447.023C145.99 447.023 58.9766 360.01 58.9766 253.051C58.9766 146.038 145.99 58.9805 252.944 58.9805C359.957 58.9805 447.02 146.038 447.02 253.051C447.02 360.01 359.957 447.023 252.944 447.023Z" fill="white"/>
<path d="M278.936 152.15C278.936 166.546 267.358 178.125 253.038 178.125C238.718 178.125 227.062 166.547 227.062 152.15C227.062 137.83 238.717 126.252 253.038 126.252C267.359 126.252 278.936 137.831 278.936 152.15Z" fill="#D4E3FF"/>
<path d="M295.882 361.774V379.75H222.757V361.774C222.757 353.066 229.816 346.007 238.525 346.007H241.268V239.062H224.63C217.763 239.062 211.401 234.366 210.301 227.587C208.9 218.947 215.525 211.488 223.9 211.488H264.88C273.294 211.488 280.114 218.309 280.114 226.722V346.006C288.822 346.007 295.882 353.066 295.882 361.774Z" fill="#D4E3FF"/>
<path d="M252.944 0.248047C113.606 0.248047 0.246094 113.658 0.246094 253.054C0.246094 392.392 113.605 505.752 252.944 505.752C392.34 505.752 505.75 392.393 505.75 253.054C505.75 113.658 392.34 0.248047 252.944 0.248047ZM252.944 489.955C122.318 489.955 16.0431 383.68 16.0431 253.054C16.0431 122.366 122.318 16.045 252.944 16.045C383.632 16.045 489.953 122.366 489.953 253.054C489.953 383.68 383.632 489.955 252.944 489.955Z" fill="#2380CD"/>
<path d="M252.944 51.0801C141.636 51.0801 51.0781 141.685 51.0781 253.05C51.0781 364.362 141.637 454.92 252.944 454.92C364.313 454.92 454.918 364.361 454.918 253.05C454.918 141.685 364.313 51.0801 252.944 51.0801ZM252.944 439.124C150.345 439.124 66.8741 355.65 66.8741 253.051C66.8741 150.394 150.344 66.8771 252.944 66.8771C355.601 66.8771 439.122 150.393 439.122 253.051C439.122 355.649 355.601 439.124 252.944 439.124Z" fill="#2380CD"/>
<path d="M253.037 186.024C271.672 186.024 286.833 170.829 286.833 152.151C286.833 133.516 271.672 118.355 253.037 118.355C234.359 118.355 219.164 133.516 219.164 152.151C219.163 170.829 234.359 186.024 253.037 186.024ZM253.037 134.151C262.96 134.151 271.036 142.227 271.036 152.15C271.036 162.116 262.96 170.226 253.037 170.226C243.071 170.226 234.961 162.115 234.961 152.15C234.96 142.227 243.071 134.151 253.037 134.151Z" fill="#2380CD"/>
<path d="M288.014 339.464V226.722C288.014 213.968 277.635 203.59 264.881 203.59H223.9C210.604 203.59 200.342 215.461 202.504 228.855C204.182 239.179 213.691 246.962 224.633 246.962H233.372V338.674C222.793 341.034 214.86 350.495 214.86 361.776V379.752C214.86 384.114 218.397 387.65 222.758 387.65H295.885C300.247 387.65 303.784 384.113 303.784 379.752V361.776C303.784 351.493 297.193 342.723 288.014 339.464ZM287.987 371.852H230.657V361.774C230.657 357.435 234.185 353.906 238.524 353.906H241.271C245.633 353.906 249.168 350.369 249.168 346.008V239.063C249.168 234.701 245.632 231.165 241.271 231.165H224.633C221.409 231.165 218.538 229.04 218.099 226.329C217.48 222.508 220.365 219.387 223.899 219.387H264.88C268.926 219.387 272.216 222.677 272.216 226.722V346.009C272.216 350.371 275.752 353.907 280.113 353.907C284.452 353.907 287.984 357.436 287.984 361.775V371.852H287.987Z" fill="#2380CD"/>
</svg>
