<svg width="515" height="515" viewBox="0 0 515 515" fill="none" xmlns="http://www.w3.org/2000/svg">
<g clip-path="url(#clip0_225_21)">
<path d="M306.785 257.5C306.785 284.721 284.719 306.787 257.498 306.787C230.277 306.787 208.211 284.721 208.211 257.5C208.211 230.279 230.277 208.213 257.498 208.213C284.719 208.213 306.785 230.279 306.785 257.5Z" fill="white"/>
<path d="M372.764 170.296C370.395 163.876 366.615 158.064 361.704 153.294C356.934 148.383 351.127 144.603 344.702 142.234C339.492 140.21 331.666 137.802 317.25 137.146C301.655 136.434 296.979 136.281 257.499 136.281C218.015 136.281 213.34 136.431 197.749 137.142C183.333 137.802 175.502 140.21 170.296 142.234C163.872 144.603 158.06 148.383 153.294 153.294C148.383 158.064 144.603 163.872 142.23 170.296C140.206 175.506 137.798 183.337 137.142 197.753C136.431 213.343 136.277 218.019 136.277 257.503C136.277 296.983 136.431 301.659 137.142 317.253C137.798 331.669 140.206 339.496 142.23 344.706C144.603 351.13 148.379 356.938 153.291 361.708C158.06 366.619 163.868 370.399 170.292 372.768C175.502 374.796 183.333 377.204 197.749 377.86C213.34 378.572 218.011 378.721 257.495 378.721C296.983 378.721 301.659 378.572 317.246 377.86C331.662 377.204 339.492 374.796 344.702 372.768C357.598 367.794 367.79 357.602 372.764 344.706C374.788 339.496 377.196 331.669 377.856 317.253C378.568 301.659 378.717 296.983 378.717 257.503C378.717 218.019 378.568 213.343 377.856 197.753C377.2 183.337 374.792 175.506 372.764 170.296ZM257.499 333.426C215.563 333.426 181.569 299.435 181.569 257.499C181.569 215.563 215.563 181.572 257.499 181.572C299.431 181.572 333.426 215.563 333.426 257.499C333.426 299.435 299.431 333.426 257.499 333.426ZM336.428 196.315C326.628 196.315 318.684 188.37 318.684 178.571C318.684 168.771 326.628 160.827 336.428 160.827C346.227 160.827 354.172 168.771 354.172 178.571C354.168 188.37 346.227 196.315 336.428 196.315Z" fill="white"/>
<path d="M257.5 0C115.308 0 0 115.308 0 257.5C0 399.692 115.308 515 257.5 515C399.692 515 515 399.692 515 257.5C515 115.308 399.692 0 257.5 0ZM404.469 318.461C403.754 334.201 401.251 344.947 397.597 354.353C389.916 374.215 374.215 389.916 354.353 397.597C344.951 401.251 334.201 403.75 318.465 404.469C302.697 405.188 297.66 405.361 257.504 405.361C217.344 405.361 212.311 405.188 196.539 404.469C180.803 403.75 170.053 401.251 160.651 397.597C150.781 393.884 141.846 388.065 134.459 380.541C126.939 373.158 121.12 364.219 117.407 354.353C113.752 344.951 111.25 334.201 110.535 318.465C109.808 302.693 109.639 297.656 109.639 257.5C109.639 217.344 109.808 212.307 110.531 196.539C111.246 180.799 113.745 170.053 117.399 160.647C121.112 150.781 126.935 141.842 134.459 134.459C141.842 126.935 150.781 121.116 160.647 117.403C170.053 113.749 180.799 111.25 196.539 110.531C212.307 109.812 217.344 109.639 257.5 109.639C297.656 109.639 302.693 109.812 318.461 110.535C334.201 111.25 344.947 113.749 354.353 117.399C364.219 121.112 373.158 126.935 380.545 134.459C388.065 141.846 393.888 150.781 397.597 160.647C401.255 170.053 403.754 180.799 404.473 196.539C405.192 212.307 405.361 217.344 405.361 257.5C405.361 297.656 405.192 302.693 404.469 318.461Z" fill="white"/>
</g>
<defs>
<clipPath id="clip0_225_21">
<rect width="515" height="515" fill="white"/>
</clipPath>
</defs>
</svg>
