<svg width="512" height="512" viewBox="0 0 512 512" fill="none" xmlns="http://www.w3.org/2000/svg">
<path d="M256.003 436.539C355.551 436.539 436.541 355.551 436.541 256.001C436.541 156.451 355.551 75.4648 256.003 75.4648C156.455 75.4648 75.4648 156.453 75.4648 256.003C75.4648 355.553 156.455 436.539 256.003 436.539Z" fill="white"/>
<path d="M256 13.8184C122.46 13.8184 13.8164 122.46 13.8164 256.002C13.8164 389.542 122.46 498.186 256 498.186C389.54 498.186 498.184 389.542 498.184 256.002C498.184 122.46 389.54 13.8184 256 13.8184ZM256 436.538C156.452 436.538 75.4624 355.55 75.4624 256.002C75.4624 156.454 156.452 75.4644 256 75.4644C355.548 75.4644 436.538 156.454 436.538 256.002C436.538 355.55 355.548 436.538 256 436.538Z" fill="#D4E3FF"/>
<path d="M235.537 330.302C229.829 336.026 226.973 342.846 226.973 350.776C226.973 358.704 229.827 365.524 235.537 371.232C241.247 376.94 248.081 379.812 256.009 379.812C263.923 379.812 270.741 376.942 276.465 371.232C282.175 365.524 285.029 358.704 285.029 350.776C285.029 342.846 282.175 336.028 276.465 330.302C270.741 324.594 263.921 321.74 256.009 321.74C248.079 321.74 241.245 324.594 235.537 330.302Z" fill="#D4E3FF"/>
<path d="M237.178 283.163C237.762 287.689 241.616 291.079 246.18 291.079H265.378C269.942 291.079 273.794 287.691 274.38 283.165L286.482 189.459C286.532 189.073 286.556 188.685 286.556 188.297V141.265C286.556 136.253 282.492 132.189 277.48 132.189H234.096C229.084 132.189 225.02 136.253 225.02 141.265V188.297C225.02 188.685 225.046 189.073 225.094 189.457L237.178 283.163Z" fill="#D4E3FF"/>
<path d="M256 444.352C359.858 444.352 444.352 359.858 444.352 256C444.352 152.146 359.858 67.6523 256 67.6523C152.146 67.6523 67.6523 152.146 67.6523 256C67.6523 359.858 152.146 444.352 256 444.352ZM256 83.2763C351.244 83.2763 428.728 160.76 428.728 256C428.728 351.24 351.244 428.728 256 428.728C160.76 428.728 83.2763 351.24 83.2763 256C83.2763 160.76 160.76 83.2763 256 83.2763Z" fill="#2380CD"/>
<path d="M256.002 505.998C393.848 505.998 506 393.852 506 256C506 118.148 393.848 6.00195 256.002 6.00195C118.152 6.00195 6.00391 118.15 6.00391 256C6.00391 393.85 118.152 505.998 256.002 505.998ZM256.002 21.628C385.234 21.628 490.374 126.768 490.374 256C490.374 385.232 385.234 490.372 256.002 490.372C126.77 490.372 21.6299 385.232 21.6299 256C21.6299 126.768 126.77 21.628 256.002 21.628Z" fill="#2380CD"/>
<path d="M256.01 313.926C235.722 313.926 219.16 330.466 219.16 350.776C219.16 371.046 235.714 387.626 256.01 387.626C276.052 387.626 292.844 371.274 292.844 350.776C292.844 330.454 276.25 313.926 256.01 313.926ZM256.01 372C244.442 372 234.786 362.472 234.786 350.776C234.786 339.15 244.338 329.552 256.01 329.552C267.562 329.552 277.22 339.056 277.22 350.776C277.22 362.55 267.476 372 256.01 372Z" fill="#2380CD"/>
<path d="M229.429 284.157C230.505 292.557 237.707 298.893 246.183 298.893H265.379C273.839 298.893 281.041 292.565 282.133 284.165C292.711 201.939 294.371 189.941 294.371 188.299V141.267C294.371 131.955 286.795 124.379 277.479 124.379H234.099C224.783 124.379 217.207 131.955 217.207 141.267V188.297C217.205 190.013 218.447 198.701 229.429 284.157ZM232.831 141.267C232.831 140.569 233.395 140.005 234.097 140.005H277.477C278.179 140.005 278.743 140.569 278.743 141.267L278.727 188.461L266.635 282.161C266.551 282.791 266.009 283.267 265.377 283.267H246.181C245.547 283.267 245.007 282.797 244.929 282.165L232.829 188.297L232.831 141.267Z" fill="#2380CD"/>
</svg>
