<svg enable-background="new 0 0 512 512" height="512" viewBox="0 0 512 512" width="512" xmlns="http://www.w3.org/2000/svg"><g id="_x36_9_Startup"><g><path d="m254.155 209.893-80.256 80.255h-143.122c-5.688 0-8.536-6.876-4.514-10.898l77.668-77.667c16.062-16.062 39.517-22.252 61.413-16.207z" fill="#b8daff"/><path d="m302.154 257.892-80.256 80.255-.001 143.122c0 5.688 6.876 8.536 10.898 4.514l77.668-77.667c16.062-16.062 22.252-39.517 16.207-61.412z" fill="#b8daff"/><path d="m378.796 260.402c-65.615 65.614-149.672 96.774-201.098 110.629-22.268 6-42.723-14.462-36.715-36.728 13.872-51.413 45.052-135.443 110.663-201.053 65.65-65.649 149.694-96.843 201.113-110.721 22.267-6.01 42.731 14.448 36.729 36.717-13.862 51.432-45.037 135.502-110.692 201.156z" fill="#fefdfe"/><g fill="#b8daff"><path d="m463.771 132.506c11.972-27.412 20.231-52.907 25.717-73.26 6.002-22.269-14.462-42.726-36.729-36.717-20.346 5.491-45.831 13.756-73.232 25.732z"/><path d="m193.42 343.578c-21.715 21.715-45.513 36.388-60.933 44.594-5.524 2.94-11.554-3.089-8.614-8.614 8.207-15.42 22.879-39.218 44.595-60.933 21.716-21.716 45.499-36.373 60.906-44.566 5.524-2.937 11.55 3.089 8.613 8.613-8.194 15.408-22.851 39.19-44.567 60.906z"/><path d="m391.58 168.327c-13.17 13.169-34.626 13.169-47.859-.064-13.169-13.169-13.169-34.625 0-47.795 13.233-13.233 34.689-13.233 47.859-.064 13.234 13.233 13.234 34.689 0 47.923z"/><path d="m105.969 455.928c-13.803 13.802-84.519 34.614-84.519 34.614s20.865-70.662 34.668-84.465c13.751-13.751 36.048-13.751 49.798-.001 13.803 13.804 13.803 36.101.053 49.852z"/></g><path d="m487.071 24.931c-9.62-9.616-23.177-13.255-36.284-9.705-75.16 20.28-148.778 56.96-204.489 112.677-18.527 18.526-34.299 38.444-47.857 58.762l-31.08-8.58c-24.507-6.753-50.825.196-68.779 18.15l-77.667 77.667c-8.771 8.771-2.549 23.813 9.864 23.813h113.473c-4.182 12.226-7.672 23.859-10.575 34.622-1.571 5.829-1.685 11.736-.508 17.354-6.658 9.755-12.007 18.858-15.976 26.312-2.889 5.434-1.906 12.021 2.46 16.384 4.358 4.363 10.945 5.359 16.387 2.464 7.467-3.973 16.589-9.331 26.363-16.005 5.489 1.157 11.045 1.163 17.258-.508 10.778-2.904 22.428-6.394 34.672-10.579l-.006 113.511c0 12.439 15.071 18.624 23.82 9.864l77.667-77.667c17.946-17.946 24.899-44.301 18.146-68.775l-8.582-31.09c20.32-13.554 40.239-29.323 58.764-47.847 55.833-55.83 92.427-129.532 112.651-204.537 3.533-13.109-.102-26.675-9.722-36.287zm-453.441 257.652 75.65-75.65c14.112-14.112 34.822-19.576 54.054-14.263l26.557 7.331c-17.199 27.976-30.295 56.301-40.177 82.583h-116.084zm98.842 96.992c22.847-41.351 53.7-73.072 96.921-96.917-22.697 41.1-53.467 72.923-96.921 96.917zm172.645 23.192-75.657 75.657.006-116.125c26.282-9.876 54.605-22.962 82.577-40.152l7.333 26.57c5.305 19.236-.155 39.945-14.259 54.05zm68.328-147.713c-59.017 59.014-132.857 89.942-187.696 105.86 24.855-21.4 44.264-47.126 58.916-74.689 2.889-5.43 1.906-12.014-2.453-16.376-4.381-4.367-10.964-5.364-16.395-2.468-27.147 14.437-53.034 33.749-74.743 58.983 15.922-54.829 46.864-128.705 105.922-187.763 37.207-37.214 80.279-63.211 120.786-81.387l77.034 77.037c-18.169 40.516-44.16 83.592-81.371 120.803zm108.735-197.776c-5.362 19.907-12.548 41.395-20.998 61.944l-68.372-68.376c20.829-8.57 42.27-15.707 61.922-21.013 8.228-2.211 16.556.715 21.641 5.8 5.741 5.737 7.913 13.831 5.807 21.645z" fill="#3f8cf4"/><path d="m338.372 115.118c-16.121 16.125-16.121 42.369 0 58.494 16.139 16.146 42.419 16.204 58.561.063 16.166-16.162 16.166-42.458 0-58.62-16.129-16.125-42.402-16.092-58.561.063zm47.862 47.858c-10.24 10.233-26.909 10.192-37.164-.063-10.226-10.229-10.226-26.868 0-37.097 10.232-10.232 26.903-10.316 37.164-.063 10.276 10.276 10.29 26.933 0 37.223z" fill="#3f8cf4"/><path d="m23.582 497.8c7.425-2.187 72.997-21.781 87.737-36.525 16.683-16.679 16.653-43.839-.052-60.548-16.683-16.683-43.813-16.683-60.496 0-14.74 14.736-34.386 80.249-36.58 87.671-.783 2.656-.052 5.53 1.906 7.488 1.954 1.97 4.844 2.692 7.485 1.914zm37.887-86.374c25.538-25.52 65.309 12.993 39.151 39.151-7.647 7.651-41.382 20.119-67.73 28.53 8.431-26.321 20.925-60.026 28.579-67.681z" fill="#3f8cf4"/></g></g></svg>