<svg width="512" height="512" viewBox="0 0 512 512" fill="none" xmlns="http://www.w3.org/2000/svg">
<path d="M254.154 209.894L173.898 290.149H30.7758C25.0878 290.149 22.2398 283.273 26.2618 279.251L103.93 201.584C119.992 185.522 143.447 179.332 165.343 185.377L254.154 209.894Z" fill="#9BC9FF"/>
<path d="M302.155 257.893L221.899 338.148L221.898 481.27C221.898 486.958 228.774 489.806 232.796 485.784L310.464 408.117C326.526 392.055 332.716 368.6 326.671 346.705L302.155 257.893Z" fill="#9BC9FF"/>
<path d="M378.797 260.403C313.182 326.017 229.125 357.177 177.699 371.032C155.431 377.032 134.976 356.57 140.984 334.304C154.856 282.891 186.036 198.861 251.647 133.251C317.297 67.6016 401.341 36.4076 452.76 22.5296C475.027 16.5196 495.491 36.9776 489.489 59.2466C475.627 110.679 444.452 194.749 378.797 260.403Z" fill="#FEFDFE"/>
<path d="M463.771 132.506C475.743 105.094 484.002 79.5993 489.488 59.2463C495.49 36.9773 475.026 16.5203 452.759 22.5293C432.413 28.0203 406.928 36.2853 379.527 48.2613L463.771 132.506Z" fill="#9BC9FF"/>
<path d="M193.42 343.578C171.705 365.293 147.907 379.966 132.487 388.172C126.963 391.112 120.933 385.083 123.873 379.558C132.08 364.138 146.752 340.34 168.468 318.625C190.184 296.909 213.967 282.252 229.374 274.059C234.898 271.122 240.924 277.148 237.987 282.672C229.793 298.08 215.136 321.862 193.42 343.578Z" fill="#B8DAFF"/>
<path d="M391.579 168.327C378.409 181.496 356.953 181.496 343.72 168.263C330.552 155.094 330.552 133.638 343.72 120.468C356.953 107.235 378.409 107.235 391.579 120.404C404.813 133.637 404.813 155.093 391.579 168.327Z" fill="#B8DAFF"/>
<path d="M105.968 455.928C92.1652 469.73 21.4492 490.542 21.4492 490.542C21.4492 490.542 42.3142 419.88 56.1172 406.077C69.8682 392.326 92.1652 392.326 105.915 406.076C119.718 419.88 119.718 442.177 105.968 455.928Z" fill="#9BC9FF"/>
<path d="M487.072 24.9312C477.452 15.3152 463.895 11.6762 450.788 15.2262C375.628 35.5062 302.01 72.1862 246.299 127.903C227.772 146.429 212 166.347 198.442 186.665L167.362 178.085C142.855 171.332 116.537 178.281 98.5826 196.235L20.9156 273.902C12.1446 282.673 18.3666 297.715 30.7796 297.715H144.253C140.071 309.941 136.581 321.574 133.678 332.337C132.107 338.166 131.993 344.073 133.17 349.691C126.512 359.446 121.163 368.549 117.194 376.003C114.305 381.437 115.288 388.024 119.654 392.387C124.012 396.75 130.599 397.746 136.041 394.851C143.508 390.878 152.63 385.52 162.404 378.846C167.893 380.003 173.449 380.009 179.662 378.338C190.44 375.434 202.09 371.944 214.334 367.759L214.328 481.27C214.328 493.709 229.399 499.894 238.148 491.134L315.815 413.467C333.761 395.521 340.714 369.166 333.961 344.692L325.379 313.602C345.699 300.048 365.618 284.279 384.143 265.755C439.976 209.925 476.57 136.223 496.794 61.2182C500.327 48.1092 496.692 34.5432 487.072 24.9312ZM33.6306 282.583L109.281 206.933C123.393 192.821 144.103 187.357 163.335 192.67L189.892 200.001C172.693 227.977 159.597 256.302 149.715 282.584H33.6306V282.583ZM132.473 379.575C155.32 338.224 186.173 306.503 229.394 282.658C206.697 323.758 175.927 355.581 132.473 379.575ZM305.118 402.767L229.461 478.424L229.467 362.299C255.749 352.423 284.072 339.337 312.044 322.147L319.377 348.717C324.682 367.953 319.222 388.662 305.118 402.767ZM373.446 255.054C314.429 314.068 240.589 344.996 185.75 360.914C210.605 339.514 230.014 313.788 244.666 286.225C247.555 280.795 246.572 274.211 242.213 269.849C237.832 265.482 231.249 264.485 225.818 267.381C198.671 281.818 172.784 301.13 151.075 326.364C166.997 271.535 197.939 197.659 256.997 138.601C294.204 101.387 337.276 75.3902 377.783 57.2142L454.817 134.251C436.648 174.767 410.657 217.843 373.446 255.054ZM482.181 57.2782C476.819 77.1852 469.633 98.6732 461.183 119.222L392.811 50.8462C413.64 42.2762 435.081 35.1392 454.733 29.8332C462.961 27.6222 471.289 30.5482 476.374 35.6332C482.115 41.3702 484.287 49.4642 482.181 57.2782Z" fill="#1E81CE"/>
<path d="M338.372 115.118C322.251 131.243 322.251 157.487 338.372 173.612C354.511 189.758 380.791 189.816 396.933 173.675C413.099 157.513 413.099 131.217 396.933 115.055C380.804 98.93 354.531 98.963 338.372 115.118ZM386.234 162.976C375.994 173.209 359.325 173.168 349.07 162.913C338.844 152.684 338.844 136.045 349.07 125.816C359.302 115.584 375.973 115.5 386.234 125.753C396.51 136.029 396.524 152.686 386.234 162.976Z" fill="#1E81CE"/>
<path d="M23.5827 497.8C31.0077 495.613 96.5797 476.019 111.32 461.275C128.003 444.596 127.973 417.436 111.268 400.727C94.5847 384.044 67.4547 384.044 50.7717 400.727C36.0317 415.463 16.3857 480.976 14.1917 488.398C13.4087 491.054 14.1397 493.928 16.0977 495.886C18.0517 497.856 20.9417 498.578 23.5827 497.8ZM61.4697 411.426C87.0077 385.906 126.779 424.419 100.621 450.577C92.9737 458.228 59.2387 470.696 32.8907 479.107C41.3217 452.786 53.8157 419.081 61.4697 411.426Z" fill="#1E81CE"/>
</svg>
