<svg width="515" height="515" viewBox="0 0 515 515" fill="none" xmlns="http://www.w3.org/2000/svg">
<g clip-path="url(#clip0_225_28)">
<path d="M257.5 0C115.308 0 0 115.308 0 257.5C0 399.692 115.308 515 257.5 515C399.692 515 515 399.692 515 257.5C515 115.308 399.692 0 257.5 0ZM182.673 389.268H119.961V200.594H182.673V389.268ZM151.319 174.831H150.91C129.866 174.831 116.255 160.344 116.255 142.239C116.255 123.725 130.282 109.639 151.735 109.639C173.189 109.639 186.39 123.725 186.799 142.239C186.799 160.344 173.189 174.831 151.319 174.831ZM408.803 389.268H346.098V288.332C346.098 262.965 337.018 245.665 314.327 245.665C297.004 245.665 286.686 257.335 282.151 268.6C280.493 272.631 280.089 278.265 280.089 283.904V389.268H217.38C217.38 389.268 218.201 218.295 217.38 200.594H280.089V227.309C288.422 214.452 303.333 196.166 336.605 196.166C377.865 196.166 408.803 223.132 408.803 281.083V389.268Z" fill="white"/>
</g>
<defs>
<clipPath id="clip0_225_28">
<rect width="515" height="515" fill="white"/>
</clipPath>
</defs>
</svg>
