<svg width="2190" height="2190" viewBox="0 0 2190 2190" fill="none" xmlns="http://www.w3.org/2000/svg">
<path d="M1874.42 234.768C1744.7 186.15 1408.9 73 1095 73C781.101 73 445.301 186.15 315.58 234.768C308.615 237.338 302.613 241.994 298.393 248.102C294.173 254.21 291.941 261.472 292.001 268.896V1145.77C292.238 1265.63 320.471 1383.77 374.45 1490.78C428.429 1597.8 506.66 1690.72 602.908 1762.15L1073.28 2109.7C1079.57 2114.35 1087.18 2116.86 1095 2116.86C1102.82 2116.86 1110.43 2114.35 1116.72 2109.7L1587.09 1762C1683.32 1690.59 1761.54 1597.69 1815.52 1490.7C1869.5 1383.72 1897.74 1265.6 1898 1145.77V268.896C1898.06 261.472 1895.83 254.21 1891.61 248.102C1887.39 241.994 1881.39 237.338 1874.42 234.768ZM1825 1145.77C1824.78 1254.21 1799.24 1361.11 1750.4 1457.93C1701.56 1554.75 1630.78 1638.83 1543.7 1703.46L1138.55 2003.05C1126.01 2012.39 1110.8 2017.44 1095.17 2017.44C1079.53 2017.44 1064.32 2012.39 1051.79 2003.05L646.635 1703.49C559.489 1638.89 488.642 1554.83 439.744 1458C390.847 1361.17 365.252 1254.25 365.001 1145.77V346.13C365 330.876 369.776 316.006 378.66 303.607C387.544 291.207 400.088 281.902 414.532 276.999C558.634 228.089 838.662 146 1095 146C1351.34 146 1631.55 228.089 1775.51 277.035C1789.94 281.943 1802.47 291.245 1811.35 303.637C1820.22 316.028 1825 330.887 1825 346.13V1145.77Z" fill="white"/>
<path fill-rule="evenodd" clip-rule="evenodd" d="M418.155 321.304C412.661 326.528 408.26 332.792 405.206 339.731L404.187 342.047C401.321 348.557 399.467 355.467 398.689 362.537L397.965 369.104V390.278L399.864 652.734V769.928L399.121 808.498C398.486 841.44 425.017 868.487 457.965 868.487H717.427H974.405C1028.83 868.487 1072.96 824.361 1072.96 769.928V523.229V234.352C1072.96 206.402 1051.03 183.366 1023.12 181.987L922.489 190.85L717.427 227.289L573.123 264.712L507.142 284.901L470.592 296.227L447.156 304.22C439.716 306.757 432.675 310.339 426.244 314.858L424.69 315.95C422.383 317.571 420.199 319.361 418.155 321.304ZM906.464 474.487H926.964L921.964 378.987H544.465V474.487H562.965C563.298 456.82 565.965 442.987 570.965 432.987C575.965 422.987 582.465 415.654 590.465 410.987C598.798 405.987 608.465 402.987 619.465 401.987C630.798 400.987 642.965 400.487 655.965 400.487C666.632 400.487 675.132 400.82 681.465 401.487C687.798 401.82 692.632 402.654 695.965 403.987C699.632 405.32 701.965 406.987 702.965 408.987C704.298 410.654 704.965 412.987 704.965 415.987V683.487C704.965 694.154 704.132 703.32 702.465 710.987C701.132 718.654 698.132 724.987 693.465 729.987C689.132 734.654 682.632 738.32 673.965 740.987C665.298 743.32 653.965 744.654 639.965 744.987V763.987H828.964V744.987C814.965 744.654 803.632 743.32 794.965 740.987C786.632 738.32 780.132 734.654 775.465 729.987C771.132 724.987 768.132 718.654 766.465 710.987C765.132 703.32 764.465 694.154 764.465 683.487V415.987C764.465 412.987 764.965 410.654 765.965 408.987C767.298 406.987 769.965 405.32 773.965 403.987C777.965 402.654 783.632 401.82 790.965 401.487C798.632 400.82 808.632 400.487 820.964 400.487C835.297 400.487 847.631 401.654 857.964 403.987C868.297 406.32 876.797 410.32 883.464 415.987C890.464 421.32 895.797 428.82 899.464 438.487C903.131 448.154 905.464 460.154 906.464 474.487Z" fill="white"/>
<path d="M1596.96 609.001C1596.96 635.334 1594.29 658.501 1588.96 678.501C1583.96 698.501 1575.63 715.168 1563.96 728.501C1552.63 741.834 1537.79 752.001 1519.46 759.001C1501.13 765.668 1478.96 769.001 1452.96 769.001C1428.29 769.001 1406.79 766.668 1388.46 762.001C1370.13 757.001 1354.79 749.001 1342.46 738.001C1330.13 726.668 1320.96 712.001 1314.96 694.001C1308.96 676.001 1305.96 653.834 1305.96 627.501V495.501C1305.96 470.834 1305.29 451.834 1303.96 438.501C1302.96 425.168 1299.63 415.334 1293.96 409.001C1289.96 404.668 1284.46 401.834 1277.46 400.501C1270.79 398.834 1261.79 398.001 1250.46 398.001V379.001H1420.96V398.001C1409.63 398.001 1400.46 398.668 1393.46 400.001C1386.46 401.334 1380.96 404.668 1376.96 410.001C1372.29 416.001 1369.29 425.668 1367.96 439.001C1366.63 452.001 1365.96 470.834 1365.96 495.501V631.501C1365.96 648.501 1367.63 663.668 1370.96 677.001C1374.63 690.001 1380.46 701.168 1388.46 710.501C1396.46 719.501 1406.79 726.334 1419.46 731.001C1432.46 735.668 1448.29 738.001 1466.96 738.001C1500.29 738.001 1525.29 728.834 1541.96 710.501C1558.63 691.834 1566.96 664.501 1566.96 628.501V508.001C1566.96 478.334 1565.79 455.834 1563.46 440.501C1561.13 425.168 1556.79 414.334 1550.46 408.001C1545.79 403.668 1539.96 401.001 1532.96 400.001C1525.96 398.668 1517.29 398.001 1506.96 398.001V379.001H1651.96V398.001C1641.29 398.001 1632.46 398.834 1625.46 400.501C1618.79 402.168 1613.46 405.834 1609.46 411.501C1604.46 418.501 1601.13 429.501 1599.46 444.501C1597.79 459.168 1596.96 480.334 1596.96 508.001V609.001Z" fill="white"/>
<path d="M881.453 1396.5C898.786 1420.17 919.953 1432 944.953 1432V1451H774.453V1432C789.453 1432 799.62 1430.67 804.953 1428C810.62 1425 813.453 1421 813.453 1416C813.453 1413.67 813.12 1411.33 812.453 1409C812.12 1406.33 810.953 1403.17 808.953 1399.5C807.286 1395.83 804.786 1391.33 801.453 1386C798.12 1380.67 793.62 1373.67 787.953 1365L730.953 1280L687.953 1334C677.62 1347 668.953 1358.17 661.953 1367.5C654.953 1376.83 649.286 1384.83 644.953 1391.5C640.953 1398.17 637.953 1403.67 635.953 1408C634.286 1412.33 633.453 1416 633.453 1419C633.453 1424 636.286 1427.5 641.953 1429.5C647.62 1431.17 658.286 1432 673.953 1432V1451H534.953V1432C542.953 1432 550.12 1431.17 556.453 1429.5C563.12 1427.83 569.62 1425.17 575.953 1421.5C582.286 1417.5 588.62 1412.33 594.953 1406C601.62 1399.33 608.786 1391.17 616.453 1381.5L714.453 1256.5L612.953 1118C604.62 1106.33 595.286 1098 584.953 1093C574.62 1087.67 562.286 1085 547.953 1085V1066H713.953V1085C692.286 1085 681.453 1091.5 681.453 1104.5C681.453 1112.83 686.12 1123.83 695.453 1137.5L749.953 1218.5L798.953 1156.5C808.286 1144.83 814.786 1135.33 818.453 1128C822.12 1120.67 823.953 1113.67 823.953 1107C823.953 1098.67 821.12 1093 815.453 1090C810.12 1086.67 800.453 1085 786.453 1085V1066H923.953V1085C915.953 1085 908.953 1085.67 902.953 1087C897.286 1088 891.786 1090.33 886.453 1094C881.12 1097.67 875.286 1103 868.953 1110C862.62 1117 854.953 1126.33 845.953 1138L766.453 1240.5L881.453 1396.5Z" fill="white"/>
<path fill-rule="evenodd" clip-rule="evenodd" d="M1771.36 1314.51L1780.36 1268.01L1786.73 1227.78C1787.55 1222.61 1787.96 1217.38 1787.96 1212.14V1157.45V1098.51V1048.7V950.279V925.505C1787.96 900.652 1767.81 880.505 1742.96 880.505H1470.46H1184.73C1146.2 880.505 1114.96 911.744 1114.96 950.279V1157.45V1671.51V1895.01V1925.51C1114.96 1939.99 1130.97 1948.73 1143.15 1940.91L1188.96 1911.51L1365.46 1781.01L1493.96 1684.51L1575.08 1625.85C1579.99 1622.3 1584.57 1618.3 1588.76 1613.92L1625.96 1575.01L1670.46 1521.01L1700.96 1473.01L1738.62 1405.31C1741.51 1400.12 1743.93 1394.68 1745.85 1389.07L1771.36 1314.51ZM1533.46 1076.51C1508.13 1066.18 1480.79 1061.01 1451.46 1061.01C1422.13 1061.01 1394.79 1066.18 1369.46 1076.51C1344.13 1086.84 1322.13 1101.01 1303.46 1119.01C1284.79 1137.01 1270.13 1158.18 1259.46 1182.51C1248.79 1206.84 1243.46 1233.18 1243.46 1261.51C1243.46 1288.51 1248.79 1313.84 1259.46 1337.51C1270.46 1361.18 1285.29 1381.84 1303.96 1399.51C1322.63 1416.84 1344.63 1430.68 1369.96 1441.01C1395.29 1451.01 1422.46 1456.01 1451.46 1456.01C1480.46 1456.01 1507.63 1451.01 1532.96 1441.01C1558.29 1430.68 1580.29 1416.84 1598.96 1399.51C1617.63 1381.84 1632.29 1361.18 1642.96 1337.51C1653.96 1313.84 1659.46 1288.51 1659.46 1261.51C1659.46 1233.18 1654.13 1206.84 1643.46 1182.51C1632.79 1158.18 1618.13 1137.01 1599.46 1119.01C1580.79 1101.01 1558.79 1086.84 1533.46 1076.51ZM1510.46 1417.01C1493.13 1424.68 1473.46 1428.51 1451.46 1428.51C1429.46 1428.51 1409.63 1424.68 1391.96 1417.01C1374.29 1409.34 1359.29 1398.34 1346.96 1384.01C1334.63 1369.68 1325.13 1352.34 1318.46 1332.01C1311.79 1311.34 1308.46 1288.34 1308.46 1263.01C1308.46 1236.34 1311.79 1212.34 1318.46 1191.01C1325.13 1169.34 1334.63 1151.01 1346.96 1136.01C1359.29 1120.68 1374.29 1109.01 1391.96 1101.01C1409.63 1092.68 1429.46 1088.51 1451.46 1088.51C1473.46 1088.51 1493.29 1092.68 1510.96 1101.01C1528.63 1109.01 1543.63 1120.68 1555.96 1136.01C1568.29 1151.01 1577.79 1169.34 1584.46 1191.01C1591.13 1212.34 1594.46 1236.34 1594.46 1263.01C1594.46 1288.34 1591.13 1311.34 1584.46 1332.01C1577.79 1352.34 1568.13 1369.68 1555.46 1384.01C1543.13 1398.34 1528.13 1409.34 1510.46 1417.01Z" fill="white"/>
</svg>
