<svg width="515" height="512" viewBox="0 0 515 512" fill="none" xmlns="http://www.w3.org/2000/svg">
<g clip-path="url(#clip0_225_51)">
<path fill-rule="evenodd" clip-rule="evenodd" d="M257.5 0C399.713 0 515 114.615 515 256C515 397.385 399.713 512 257.5 512C115.287 512 0 397.385 0 256C0 114.615 115.287 0 257.5 0ZM420.952 355.241V164.978L325.258 260.109L420.952 355.241ZM114.491 359.117H400.515L313.098 272.209L279.781 305.327C278.165 306.929 275.977 307.828 273.695 307.827H241.307C240.177 307.828 239.058 307.608 238.013 307.179C236.969 306.75 236.02 306.121 235.22 305.327L201.904 272.209L114.487 359.117H114.491ZM94.0479 164.972V355.246L189.742 260.109L94.0479 164.972ZM408.787 152.883H106.219L244.87 290.727H270.135L408.787 152.883Z" fill="white"/>
</g>
<defs>
<clipPath id="clip0_225_51">
<rect width="515" height="512" fill="white"/>
</clipPath>
</defs>
</svg>
