<svg width="30" height="25" viewBox="0 0 30 25" fill="none" xmlns="http://www.w3.org/2000/svg">
<path d="M1.0317 6.60003C0.461324 6.60003 0 8.67823 0 9.55693C0 10.4391 0.461324 12.5173 1.0317 12.5173H1.6393L4.98196 20.8346H7.58545L5.35673 12.9079C11.6058 14.3125 16.5021 19.115 16.5021 19.115V11.7944V7.32293V0C16.5021 0 9.79773 6.60003 2.06168 6.60003H1.0317Z" fill="white"/>
<path d="M17.5312 6.82715V12.2884C18.5275 12.2884 19.3359 11.066 19.3359 9.55721C19.3367 8.05184 18.5275 6.82715 17.5312 6.82715Z" fill="white"/>
<path d="M20.125 9.4504C20.125 9.05401 20.3656 8.73438 20.666 8.73438H24.4569C24.7564 8.73438 24.9988 9.05401 24.9988 9.4504C24.9988 9.84794 24.7564 10.1687 24.4569 10.1687H20.666C20.3656 10.1687 20.125 9.84794 20.125 9.4504Z" fill="white"/>
<path d="M19.1797 4.79581C19.1797 4.54835 19.2775 4.30547 19.4497 4.17601L22.7361 1.66592C22.9949 1.46543 23.3264 1.58458 23.4753 1.92598C23.6268 2.26852 23.5376 2.7073 23.2771 2.9055L19.9924 5.4156C19.7328 5.61379 19.4013 5.49694 19.2533 5.15325C19.2031 5.03983 19.1797 4.9161 19.1797 4.79581Z" fill="white"/>
<path d="M19.1797 14.1039C19.1797 13.9848 19.2031 13.8588 19.2524 13.7465C19.4013 13.4028 19.7328 13.286 19.9915 13.4842L23.2805 15.9988C23.5393 16.2005 23.6276 16.6347 23.4779 16.9784C23.3299 17.3186 22.9966 17.4366 22.7387 17.2396L19.4497 14.726C19.2775 14.5908 19.1797 14.3514 19.1797 14.1039Z" fill="white"/>
</svg>
