<svg width="55" height="56" viewBox="0 0 55 56" fill="none" xmlns="http://www.w3.org/2000/svg">
<g clip-path="url(#clip0_445_906)">
<path d="M30.7234 28.934C30.7234 30.7161 29.2786 32.1599 27.4965 32.1599C25.7144 32.1599 24.2695 30.7161 24.2695 28.934C24.2695 27.1519 25.7144 25.707 27.4965 25.707C29.2786 25.707 30.7234 27.1519 30.7234 28.934Z" fill="#E8F1FD"/>
<path d="M30.727 28.934C30.727 30.7161 29.2821 32.1599 27.5 32.1599V25.707C29.2821 25.707 30.727 27.1519 30.727 28.934Z" fill="#CFDBFD"/>
<path d="M37.3628 9.45537C34.8416 3.95967 31.3375 0.933594 27.4972 0.933594C23.6568 0.933594 20.1527 3.95967 17.6315 9.45537C15.2919 14.5515 14.0039 21.2911 14.0039 28.4336C14.0039 35.5761 15.2919 42.3157 17.6315 47.4118C20.1527 52.9075 23.6568 55.9336 27.4972 55.9336C31.3375 55.9336 34.8416 52.9075 37.3628 47.4118C39.7024 42.3157 40.9904 35.5761 40.9904 28.4336C40.9904 21.2911 39.7024 14.5515 37.3628 9.45537ZM34.4345 46.068C32.4966 50.2896 29.9679 52.7109 27.4972 52.7109C25.0265 52.7109 22.4978 50.2896 20.5599 46.068C18.4104 41.3844 17.2266 35.1217 17.2266 28.4336C17.2266 21.7455 18.4104 15.4828 20.5599 10.7992C22.4978 6.57754 25.0265 4.15625 27.4972 4.15625C29.9679 4.15625 32.4966 6.57754 34.4345 10.7992C36.584 15.4828 37.7678 21.7455 37.7678 28.4336C37.7678 35.1217 36.584 41.3844 34.4345 46.068Z" fill="#8095FF"/>
<path d="M40.9933 28.4336C40.9933 35.5761 39.7053 42.3157 37.3656 47.4118C34.8444 52.9075 31.3403 55.9336 27.5 55.9336V52.7109C29.9707 52.7109 32.4994 50.2896 34.4373 46.068C36.5868 41.3844 37.7706 35.1217 37.7706 28.4336C37.7706 21.7455 36.5868 15.4828 34.4373 10.7992C32.4994 6.57754 29.9707 4.15625 27.5 4.15625V0.933594C31.3403 0.933594 34.8444 3.95967 37.3656 9.45537C39.7053 14.5515 40.9933 21.2911 40.9933 28.4336Z" fill="#6666FF"/>
<path d="M50.5564 13.4473C48.4638 10.2268 44.0166 8.93884 38.0353 9.81862C34.7267 10.3052 31.1313 11.4235 27.4983 13.0724C25.0384 14.1885 22.5623 15.5474 20.1453 17.119C14.1565 21.0109 9.20759 25.7643 6.20945 30.5016C2.97605 35.6117 2.34763 40.1986 4.44021 43.418C6.96785 47.3078 12.3572 47.7235 16.9613 47.0467C20.2699 46.5601 23.8653 45.4419 27.4983 43.7929C29.9583 42.6768 32.4344 41.3179 34.8513 39.7464C40.8401 35.8545 45.789 31.101 48.7872 26.3637C52.0206 21.2537 52.649 16.6668 50.5564 13.4473ZM46.064 24.6396C43.3087 28.9945 38.7024 33.3999 33.095 37.0447C31.2473 38.2446 29.3696 39.3124 27.4983 40.2308C23.6891 42.1021 19.9122 43.3557 16.4929 43.8585C11.8964 44.5341 8.48894 43.7339 7.14187 41.6617C5.79588 39.5906 6.44793 36.1509 8.93259 32.2257C12.0457 27.308 17.0623 22.9671 21.9016 19.8207C23.7493 18.6208 25.627 17.553 27.4983 16.6345C31.3075 14.7632 35.0845 13.5096 38.5037 13.0069C41.6426 12.5439 46.1349 12.559 47.8548 15.2037C49.2008 17.2748 48.5487 20.7144 46.064 24.6396Z" fill="#8DCDFC"/>
<path d="M33.4277 27.3223H32.8187C32.7123 26.9688 32.5705 26.6305 32.3997 26.3114L32.8305 25.8796C33.46 25.2512 33.46 24.2307 32.8305 23.6012C32.201 22.9717 31.1805 22.9717 30.552 23.6012L30.1202 24.0319C29.8012 23.8601 29.4628 23.7193 29.1094 23.6119V23.0039C29.1094 22.1134 28.3875 21.3926 27.498 21.3926C26.6086 21.3926 25.8867 22.1134 25.8867 23.0039V23.6119C25.5333 23.7193 25.1949 23.8601 24.8759 24.0319L24.444 23.6012C23.8156 22.9717 22.7951 22.9717 22.1656 23.6012C21.5361 24.2307 21.5361 25.2512 22.1656 25.8796L22.5964 26.3114C22.4256 26.6305 22.2838 26.9688 22.1774 27.3223H21.5684C20.6789 27.3223 19.957 28.0431 19.957 28.9336C19.957 29.823 20.6789 30.5449 21.5684 30.5449H22.1774C22.2838 30.8973 22.4256 31.2356 22.5964 31.5558L22.1656 31.9865C21.5361 32.616 21.5361 33.6365 22.1656 34.266C22.4804 34.5808 22.8929 34.7376 23.3054 34.7376C23.7179 34.7376 24.1304 34.5808 24.444 34.266L24.8759 33.8342C25.1949 34.0061 25.5333 34.1479 25.8867 34.2542V34.8633C25.8867 35.7527 26.6086 36.4746 27.498 36.4746C28.3875 36.4746 29.1094 35.7527 29.1094 34.8633V34.2542C29.4628 34.1479 29.8012 34.0061 30.1202 33.8342L30.552 34.266C30.8657 34.5808 31.2782 34.7376 31.6907 34.7376C32.1032 34.7376 32.5157 34.5808 32.8305 34.266C33.46 33.6365 33.46 32.616 32.8305 31.9865L32.3997 31.5558C32.5705 31.2356 32.7123 30.8973 32.8187 30.5449H33.4277C34.3172 30.5449 35.0391 29.823 35.0391 28.9336C35.0391 28.0431 34.3172 27.3223 33.4277 27.3223ZM27.498 31.2711C26.209 31.2711 25.1605 30.2227 25.1605 28.9336C25.1605 27.6445 26.209 26.5961 27.498 26.5961C28.7871 26.5961 29.8355 27.6445 29.8355 28.9336C29.8355 30.2227 28.7871 31.2711 27.498 31.2711Z" fill="#404A80"/>
<path d="M48.7889 26.3637C45.7907 31.101 40.8418 35.8545 34.853 39.7464C32.436 41.3179 29.96 42.6768 27.5 43.7929V40.2308C29.3713 39.3124 31.249 38.2446 33.0967 37.0447C38.7041 33.3999 43.3104 28.9945 46.0657 24.6396C48.5504 20.7144 49.2024 17.2748 47.8564 15.2037C46.1366 12.559 41.6442 12.5439 38.5054 13.0069C35.0861 13.5096 31.3092 14.7632 27.5 16.6345V13.0724C31.133 11.4235 34.7284 10.3052 38.037 9.81862C44.0183 8.93884 48.4655 10.2268 50.5581 13.4473C52.6507 16.6668 52.0223 21.2537 48.7889 26.3637Z" fill="#63B4EF"/>
<path d="M27.4983 40.2312C25.627 39.3128 23.7493 38.245 21.9016 37.0451C16.2942 33.4003 11.688 28.9949 8.93259 24.64C6.44793 20.7148 5.79588 17.2752 7.14187 15.2041C8.8617 12.5583 13.3541 12.5454 16.4929 13.0073C19.9122 13.5101 23.6891 14.7637 27.4983 16.635L29.5394 15.3624L27.4983 13.0728C23.8653 11.4239 20.2699 10.3057 16.9613 9.81904C10.9801 8.93818 6.53279 10.2272 4.44021 13.4477C2.34763 16.6672 2.97605 21.2541 6.20945 26.3642C9.20759 31.1015 14.1565 35.8549 20.1453 39.7468C22.5623 41.3184 25.0384 42.6772 27.4983 43.7934L29.5394 42.5729L27.4983 40.2312Z" fill="#4C5CE9"/>
<path d="M50.5581 43.4198C48.0305 47.3106 42.6411 47.7264 38.037 47.0485C34.7284 46.5619 31.133 45.4436 27.5 43.7947V40.2326C31.3092 42.1039 35.0861 43.3575 38.5054 43.8603C43.102 44.5359 46.5094 43.7356 47.8564 41.6635C49.2024 39.5924 48.5504 36.1527 46.0657 32.2275C43.3104 27.8727 38.7041 23.4673 33.0967 19.8225C31.249 18.6226 29.3713 17.5548 27.5 16.6363V13.0742C29.96 14.1903 32.436 15.5492 34.853 17.1208C37.8469 19.0673 40.5818 21.2286 42.943 23.4952C45.303 25.7618 47.2893 28.1348 48.7889 30.5034C52.0223 35.6135 52.6507 40.2004 50.5581 43.4198Z" fill="#2A36A5"/>
<path d="M35.041 28.9336C35.041 29.823 34.3191 30.5449 33.4297 30.5449H32.8206C32.7143 30.8973 32.5725 31.2356 32.4017 31.5558L32.8324 31.9865C33.4619 32.616 33.4619 33.6365 32.8324 34.266C32.5177 34.5808 32.1052 34.7376 31.6927 34.7376C31.2802 34.7376 30.8677 34.5808 30.554 34.266L30.1222 33.8342C29.8031 34.0061 29.4647 34.1479 29.1113 34.2542V34.8633C29.1113 35.7527 28.3895 36.4746 27.5 36.4746V31.2711C28.7891 31.2711 29.8375 30.2227 29.8375 28.9336C29.8375 27.6445 28.7891 26.5961 27.5 26.5961V21.3926C28.3895 21.3926 29.1113 22.1134 29.1113 23.0039V23.6119C29.4647 23.7193 29.8031 23.8601 30.1222 24.0319L30.554 23.6012C31.1824 22.9717 32.2029 22.9717 32.8324 23.6012C33.4619 24.2307 33.4619 25.2512 32.8324 25.8796L32.4017 26.3114C32.5725 26.6305 32.7143 26.9688 32.8206 27.3223H33.4297C34.3191 27.3223 35.041 28.0431 35.041 28.9336Z" fill="#283366"/>
</g>
<defs>
<clipPath id="clip0_445_906">
<rect width="55" height="55" fill="white" transform="translate(0 0.933594)"/>
</clipPath>
</defs>
</svg>
