<svg width="103" height="28" viewBox="0 0 103 28" fill="none" xmlns="http://www.w3.org/2000/svg">
<path d="M47.6676 27.3262C47.6676 27.3262 47.7788 27.2948 47.9945 27.2338C48.2079 27.1744 48.5131 27.0523 48.8982 26.8603C49.2758 26.6587 49.7653 26.4322 50.2385 25.9961C50.4735 25.7768 50.6922 25.5021 50.9221 25.2194C51.1459 24.9319 51.4064 24.6459 51.6161 24.2821C52.0355 23.5584 52.281 22.5721 52.0429 21.5071C51.7885 20.4822 51.1847 19.4758 50.2989 18.7136C49.4086 17.9474 48.2527 17.4888 47.0221 17.2703C46.3997 17.1514 45.7706 17.1 45.1303 17.0703C44.4893 17.0598 43.8303 16.9691 43.1512 16.9522C42.8109 16.9281 42.4639 16.9 42.1116 16.8864L41.5781 16.8727C41.3997 16.8888 41.2184 16.8583 40.9908 16.6004C40.5527 16.1651 39.9273 14.9025 39.2535 14.0841C38.9288 13.6833 38.5938 13.4214 38.3072 13.3556C38.0132 13.2881 37.7744 13.4656 37.5094 13.5716C36.9796 13.8086 36.4094 14.1314 35.8259 14.6005C35.2214 15.0599 34.5878 15.733 33.9998 16.6759C33.4378 17.6253 33.0065 18.9755 33.0811 20.2116C33.1206 21.4396 33.5445 22.434 33.9893 23.0685C34.4527 23.7239 34.9468 24.1753 35.4281 24.5102L35.79 24.7568C35.7796 24.7319 36.0527 25.0893 35.9535 24.9463L35.9893 24.964L36.0602 25.0001L36.096 25.0186L36.2251 25.1359C36.3124 25.2122 36.4035 25.2837 36.496 25.3511C36.6982 25.5013 36.84 25.5608 36.993 25.6274C37.1482 25.6973 37.2997 25.7455 37.4497 25.7784C37.7579 25.8571 38.0341 25.8628 38.2915 25.8475C39.2997 25.7367 39.8109 25.2965 40.2564 24.9343C40.6855 24.5407 41.0124 24.1544 41.3049 23.7504C42.4363 22.1472 43.2758 20.634 44.1616 19.0879C44.5967 18.3144 44.9557 17.4888 45.2631 16.6374C45.5676 15.786 45.7803 14.8816 45.8139 13.9491C45.8467 13.0214 45.6407 12.0528 45.1295 11.2705C44.6288 10.4818 43.8676 9.92194 43.0587 9.56854C42.2497 9.19747 41.3833 9.00551 40.5169 8.88022C40.0811 8.81757 39.6467 8.78062 39.2102 8.72921C38.7729 8.69548 38.3326 8.68182 37.893 8.65933C36.1356 8.66094 34.3639 8.78784 32.6192 9.15651C30.8647 9.48983 29.1931 10.1758 27.5647 10.885C25.9334 11.5958 24.3334 12.3524 22.7013 12.9612C21.0804 13.6086 19.3856 13.9587 17.714 14.0913C16.0357 14.1756 14.3819 13.9676 12.8133 13.5347C11.2431 13.1034 9.75883 12.4544 8.36107 11.7066C6.95138 10.9926 5.66631 10.0336 4.51706 9.0802C3.36035 8.14289 2.42901 6.92687 1.94543 5.83052C1.72006 5.27954 1.61484 4.7663 1.74618 4.42655C1.88349 4.07235 2.30886 4.00327 2.70886 4.08359C3.12752 4.16311 3.55065 4.37916 3.89691 4.48759C4.24915 4.60244 4.54318 4.61932 4.82825 4.52133C5.39765 4.30286 6.01855 4.20728 6.42302 4.17355C6.51556 4.16311 6.50511 3.53903 6.90884 3.5053C7.31257 3.47157 8.0454 4.29161 8.31928 4.45466C8.54689 4.62413 8.57525 5.04742 8.51704 5.40965C8.43644 5.76064 8.32824 6.02569 8.18869 6.204C8.05137 6.37749 7.75585 6.38392 7.58869 6.27709C7.41257 6.18794 7.30809 6.10681 7.30809 6.10681L6.87675 6.28191C6.87675 6.28191 6.9163 6.40721 7.03272 6.63692C7.14242 6.8586 7.39689 7.22245 7.88794 7.37826C8.85883 7.6907 10.3715 6.8345 10.7797 5.0193C10.9812 4.11652 10.7193 3.025 10.0872 2.19852C9.78719 1.78648 9.37898 1.38489 8.98868 1.07486C8.53943 0.719048 8.04316 0.466845 7.49764 0.288538C6.41034 -0.0568318 5.18721 -0.0953799 3.96333 0.190554C2.76558 0.523073 1.48947 1.14393 0.64544 2.35513C0.241711 2.95832 -0.0314221 3.71332 0.0029061 4.49884C0.0327567 5.28034 0.298424 6.04256 0.692452 6.7076C1.48648 8.04892 2.65662 9.11073 3.90587 10.0601C6.45063 11.8986 9.31405 13.5395 12.5984 14.5877C14.2364 15.1186 16.0028 15.3997 17.814 15.4021C19.6162 15.4125 21.5125 15.3635 23.405 15.1876C25.3132 15.0519 27.1699 14.7579 28.8423 14.3571C29.6744 14.1547 30.4662 13.8993 31.2154 13.6335C31.5923 13.4833 31.9714 13.4086 32.3042 13.1323C32.6408 12.8865 32.9483 12.5162 33.255 12.0713C33.8587 11.1757 34.5199 10.0488 35.3378 9.59505C36.1505 9.14286 37.0288 9.12518 37.8863 9.12358C38.3147 9.15811 38.7326 9.23201 39.1542 9.32197C39.5721 9.42397 40.04 9.57176 40.4072 9.71152C41.2034 10.0167 41.9273 10.4585 42.5415 10.8456C43.7833 11.6592 44.5072 12.3435 44.7907 13.9154C45.0004 15.4487 44.6094 17.3249 43.7721 18.8084C42.9228 20.2967 41.834 21.6195 40.5766 22.6211C39.9415 23.0797 39.2124 23.5167 38.5102 23.4669C38.155 23.4283 37.9348 23.2195 37.7348 22.8404C37.5244 22.5071 37.3542 22.1529 37.2303 21.7898C36.9684 21.0653 37.0408 20.2702 37.4915 19.7232C37.9266 19.165 38.5796 18.8261 39.2236 18.5739C39.8781 18.345 40.5191 18.0277 41.1893 17.851C41.8594 17.6887 42.537 17.6622 43.1945 17.6157C44.5064 17.5642 45.79 17.553 46.9594 17.7434C48.1303 17.9458 49.1944 18.4188 50.0041 19.124C50.8206 19.8172 51.3691 20.7304 51.5997 21.6396C51.8086 22.5103 51.8138 23.4934 51.3355 24.1062C51.2168 24.2556 51.0892 24.3889 50.937 24.4877C50.8012 24.5993 50.64 24.6797 50.4228 24.6724C49.9788 24.6564 49.4482 24.364 49.1594 24.3263C48.8639 24.2829 48.7452 24.4885 48.5862 24.6323C48.4377 24.7889 48.3094 24.968 48.1982 25.1608C47.9728 25.5343 47.8206 25.9752 47.7079 26.2852C47.6571 26.4555 47.6139 26.584 47.5907 26.6925C47.5646 26.7921 47.5519 26.8434 47.5519 26.8434L47.6676 27.3262Z" fill="black"/>
<path d="M55.2185 27.3262C55.2185 27.3262 55.1073 27.2948 54.8917 27.2338C54.6782 27.1744 54.373 27.0523 53.9879 26.8603C53.6103 26.6587 53.1208 26.4322 52.6476 25.9961C52.4126 25.7768 52.1939 25.5021 51.9641 25.2194C51.7402 24.9319 51.4797 24.6459 51.27 24.2821C50.8506 23.5584 50.6051 22.5721 50.8432 21.5071C51.0976 20.4822 51.7014 19.4758 52.5872 18.7136C53.4775 17.9474 54.6334 17.4888 55.864 17.2703C56.4864 17.1514 57.1155 17.1 57.7558 17.0703C58.3969 17.0598 59.0558 16.9691 59.7349 16.9522C60.0752 16.9281 60.4222 16.9 60.7745 16.8864L61.308 16.8727C61.4864 16.8888 61.6677 16.8583 61.8953 16.6004C62.3334 16.1651 62.9588 14.9025 63.6327 14.0841C63.9573 13.6833 64.2924 13.4214 64.5789 13.3556C64.8722 13.2881 65.1118 13.4656 65.3767 13.5716C65.9065 13.8086 66.4767 14.1314 67.0602 14.6005C67.6647 15.0599 68.2983 15.733 68.8864 16.6759C69.4476 17.6253 69.8796 18.9755 69.805 20.2116C69.7655 21.4396 69.3416 22.434 68.8968 23.0685C68.4334 23.7239 67.9394 24.1753 67.458 24.5102L67.0961 24.7568C67.1065 24.7319 66.8334 25.0893 66.9326 24.9463L66.8968 24.964L66.8259 25.0001L66.7901 25.0186L66.661 25.1359C66.5737 25.2122 66.4826 25.2837 66.3901 25.3511C66.1879 25.5013 66.0461 25.5608 65.8931 25.6274C65.7386 25.6973 65.5864 25.7455 65.4364 25.7784C65.1282 25.8571 64.8521 25.8628 64.5953 25.8475C63.5864 25.7367 63.0759 25.2965 62.6304 24.9343C62.2013 24.5407 61.8745 24.1544 61.5819 23.7504C60.4506 22.1472 59.611 20.634 58.7252 19.0879C58.2901 18.3144 57.9312 17.4888 57.623 16.6374C57.3185 15.786 57.1058 14.8816 57.0722 13.9491C57.0394 13.0214 57.2454 12.0528 57.7566 11.2705C58.2573 10.4818 59.0185 9.92194 59.8274 9.56854C60.6364 9.19747 61.5028 9.00551 62.3692 8.88022C62.8051 8.81757 63.2394 8.78062 63.6759 8.72921C64.114 8.69548 64.5535 8.68182 64.9931 8.65933C66.7505 8.66094 68.5222 8.78784 70.2669 9.15651C72.0214 9.48983 73.693 10.1758 75.3214 10.885C76.9527 11.5958 78.5527 12.3524 80.1848 12.9612C81.8057 13.6086 83.5005 13.9587 85.1721 14.0913C86.8505 14.1756 88.5042 13.9676 90.0728 13.5347C91.643 13.1034 93.1273 12.4544 94.525 11.7066C95.9347 10.9926 97.2198 10.0336 98.369 9.0802C99.5258 8.14289 100.457 6.92687 100.941 5.83052C101.166 5.27954 101.271 4.7663 101.14 4.42655C101.003 4.07235 100.578 4.00327 100.177 4.08359C99.7586 4.16311 99.3355 4.37916 98.9892 4.48759C98.637 4.60244 98.3429 4.61932 98.0571 4.52133C97.4877 4.30286 96.8668 4.20728 96.4623 4.17355C96.3698 4.16311 96.278 4.15267 96.1885 4.14222L96.0802 4.13178L96.0302 4.12215L96.0049 4.11572L95.9915 4.1125C95.9019 4.18238 96.1071 4.01291 96.0773 4.0362L96.0556 4.04825L95.7168 4.23379L95.6377 4.27635H95.6183L95.5743 4.27474C95.5265 4.25306 95.3885 4.32294 95.3116 4.32695C94.9526 4.42896 94.8385 4.29161 94.5646 4.45466C94.337 4.62413 94.3086 5.04742 94.3668 5.40965C94.4474 5.76064 94.5564 6.02569 94.6959 6.204C94.8332 6.37749 95.1288 6.38392 95.2959 6.27709C95.472 6.18794 95.5765 6.10681 95.5765 6.10681L96.0079 6.28191C96.0079 6.28191 95.9683 6.40721 95.8512 6.63692C95.7415 6.8586 95.487 7.22245 94.9959 7.37826C94.025 7.6907 92.5124 6.8345 92.1049 5.0193C91.9034 4.11652 92.1654 3.025 92.7974 2.19852C93.0974 1.78648 93.5056 1.38489 93.8959 1.07486C94.3452 0.719048 94.8414 0.466845 95.387 0.288538C96.4743 -0.0568318 97.6974 -0.0953799 98.9213 0.190554C100.119 0.523073 101.395 1.14393 102.239 2.35513C102.642 2.95832 102.916 3.71332 102.882 4.49884C102.852 5.28034 102.586 6.04256 102.192 6.7076C101.398 8.04892 100.228 9.11073 98.9787 10.0601C96.434 11.8986 93.5706 13.5395 90.2863 14.5877C88.6482 15.1186 86.8818 15.3997 85.0706 15.4021C83.2684 15.4125 81.3721 15.3635 79.4796 15.1876C77.5714 15.0519 75.7147 14.7579 74.0423 14.3571C73.2102 14.1547 72.4184 13.8993 71.6692 13.6335C71.2923 13.4833 70.9132 13.4086 70.5804 13.1323C70.2438 12.8865 69.9363 12.5162 69.6296 12.0713C69.0259 11.1757 68.3647 10.0488 67.5468 9.59505C66.7341 9.14286 65.8558 9.12518 64.9976 9.12358C64.5692 9.15811 64.1513 9.23201 63.7297 9.32197C63.3118 9.42397 62.8439 9.57176 62.4767 9.71152C61.6804 10.0167 60.9565 10.4585 60.3424 10.8456C59.1006 11.6592 58.3767 12.3435 58.0931 13.9154C57.8834 15.4487 58.2745 17.3249 59.1118 18.8084C59.961 20.2967 61.0498 21.6195 62.3073 22.6211C62.9424 23.0797 63.6715 23.5167 64.3737 23.4669C64.7289 23.4283 64.9491 23.2195 65.1491 22.8404C65.3595 22.5071 65.5297 22.1529 65.6535 21.7898C65.9155 21.0653 65.8431 20.2702 65.3923 19.7232C64.9573 19.165 64.3043 18.8261 63.6603 18.5739C63.0058 18.345 62.3647 18.0277 61.6946 17.851C61.0245 17.6887 60.3468 17.6622 59.6901 17.6157C58.3782 17.5642 57.0946 17.553 55.9252 17.7434C54.7543 17.9458 53.6902 18.4188 52.8805 19.124C52.0641 19.8172 51.5155 20.7304 51.2849 21.6396C51.076 22.5103 51.0708 23.4934 51.5491 24.1062C51.6678 24.2556 51.7954 24.3889 51.9476 24.4877C52.0835 24.5993 52.2447 24.6797 52.4618 24.6724C52.9058 24.6564 53.4364 24.364 53.7252 24.3263C54.0208 24.2829 54.1394 24.4885 54.2984 24.6323C54.4469 24.7889 54.5752 24.968 54.6864 25.1608C54.9118 25.5343 55.064 25.9752 55.1767 26.2852C55.2275 26.4555 55.2708 26.584 55.2939 26.6925C55.32 26.7921 55.3327 26.8434 55.3327 26.8434L55.2185 27.3262Z" fill="black"/>
</svg>
