<svg width="55" height="56" viewBox="0 0 55 56" fill="none" xmlns="http://www.w3.org/2000/svg">
<g clip-path="url(#clip0_445_476)">
<path d="M27.4107 9.41128C29.9675 9.41128 32.0402 7.3386 32.0402 4.78181C32.0402 2.22503 29.9675 0.152344 27.4107 0.152344C24.8539 0.152344 22.7812 2.22503 22.7812 4.78181C22.7812 7.3386 24.8539 9.41128 27.4107 9.41128Z" fill="#659EF0"/>
<path d="M29.0236 11.6191C27.8701 11.3849 26.6159 11.3952 25.483 11.6622C17.7864 12.5641 15.2872 21.4728 15.9929 28.2655C16.299 31.2021 20.9285 31.233 20.6193 28.2655C20.3625 25.79 20.4724 22.0541 21.7882 19.3989C21.7882 22.6263 21.7882 25.8537 21.7882 29.08C21.7882 29.194 21.7995 29.3008 21.8047 29.4108C21.8016 29.4631 21.7893 29.5073 21.7893 29.5607C21.7893 37.243 21.7759 44.9221 21.4585 52.5982C21.3178 56.0104 26.6088 55.9971 26.7484 52.5982C26.997 46.582 27.0597 40.5628 27.0741 34.5425C27.3247 34.5589 27.5753 34.5589 27.826 34.5446C27.8414 40.5648 27.902 46.5841 28.1485 52.5982C28.2892 55.9971 33.5802 56.0104 33.4384 52.5982C33.121 44.9221 33.1097 37.243 33.1097 29.5607C33.1097 29.3224 33.0779 29.1057 33.0296 28.8972C33.0224 25.5619 32.8951 22.2236 32.9341 18.8904C34.5098 21.558 34.6536 25.6266 34.3803 28.2634C34.0701 31.2289 38.7006 31.1991 39.0067 28.2634C39.7288 21.33 37.1095 12.1902 29.0236 11.6191Z" fill="#659EF0"/>
</g>
<defs>
<clipPath id="clip0_445_476">
<rect width="55" height="55" fill="white" transform="translate(0 0.152344)"/>
</clipPath>
</defs>
</svg>
