<svg width="55" height="56" viewBox="0 0 55 56" fill="none" xmlns="http://www.w3.org/2000/svg">
<g clip-path="url(#clip0_445_893)">
<path d="M46.7189 5.88907C45.6039 4.77167 44.121 4.15625 42.5433 4.15625H39.8784V3.61914C39.8784 2.13833 38.6737 0.933594 37.1929 0.933594H17.8569C16.3761 0.933594 15.1714 2.13833 15.1714 3.61914V4.15625H12.4969C9.24621 4.15625 6.59859 6.80377 6.59494 10.0579L6.55078 50.0188C6.54907 51.5982 7.16212 53.0834 8.27705 54.2008C9.39209 55.3182 10.8751 55.9336 12.4528 55.9336H42.4991C45.7499 55.9336 48.3975 53.2861 48.4011 50.0319L48.4453 10.071C48.4471 8.49158 47.834 7.00637 46.7189 5.88907ZM18.394 4.15625H36.6558V7.37891H18.394V4.15625ZM45.1818 50.0283C45.1801 51.5076 43.9767 52.7109 42.4991 52.7109H12.4528C11.7356 52.7109 11.0615 52.4312 10.5547 51.9233C10.0479 51.4153 9.76925 50.7403 9.77 50.0225L9.81415 10.0616C9.81577 8.58225 11.0192 7.37891 12.4969 7.37891H15.1714V7.91602C15.1714 9.39683 16.3761 10.6016 17.8569 10.6016H37.1929C38.6737 10.6016 39.8784 9.39683 39.8784 7.91602V7.37891H42.5433C43.2605 7.37891 43.9346 7.65863 44.4414 8.16652C44.9482 8.67441 45.227 9.34956 45.2261 10.0674L45.1818 50.0283Z" fill="#3C71B9"/>
<path d="M28.0488 22.418H39.4969C40.3868 22.418 41.1082 21.6965 41.1082 20.8066C41.1082 19.9168 40.3868 19.1953 39.4969 19.1953H28.0488C27.1589 19.1953 26.4375 19.9168 26.4375 20.8066C26.4375 21.6965 27.1589 22.418 28.0488 22.418Z" fill="#3C71B9"/>
<path d="M28.0488 33.1602H39.4969C40.3868 33.1602 41.1082 32.4387 41.1082 31.5488C41.1082 30.6589 40.3868 29.9375 39.4969 29.9375H28.0488C27.1589 29.9375 26.4375 30.6589 26.4375 31.5488C26.4375 32.4387 27.1589 33.1602 28.0488 33.1602Z" fill="#3C71B9"/>
<path d="M39.543 40.6797H28.0488C27.1589 40.6797 26.4375 41.4011 26.4375 42.291C26.4375 43.1809 27.1589 43.9023 28.0488 43.9023H39.543C40.4329 43.9023 41.1543 43.1809 41.1543 42.291C41.1543 41.4011 40.433 40.6797 39.543 40.6797Z" fill="#3C71B9"/>
<path d="M21.1904 16.4192L17.4745 20.1351L16.5984 19.2589C15.9691 18.6296 14.9489 18.6296 14.3196 19.2589C13.6903 19.8881 13.6903 20.9084 14.3196 21.5376L16.3352 23.5533C16.6373 23.8555 17.0472 24.0253 17.4746 24.0253C17.9019 24.0253 18.3117 23.8556 18.6139 23.5533L23.4693 18.6981C24.0985 18.0689 24.0985 17.0486 23.4693 16.4193C22.84 15.7899 21.8198 15.7899 21.1904 16.4192Z" fill="#3C71B9"/>
<path d="M21.1904 27.9816L17.4745 31.6976L16.5984 30.8214C15.9691 30.1922 14.9489 30.1922 14.3196 30.8214C13.6903 31.4506 13.6903 32.4708 14.3196 33.1002L16.3352 35.1158C16.6373 35.418 17.0472 35.5879 17.4746 35.5879C17.9019 35.5879 18.3118 35.4181 18.6139 35.1158L23.4693 30.2605C24.0985 29.6313 24.0985 28.611 23.4693 27.9817C22.84 27.3525 21.8197 27.3525 21.1904 27.9816Z" fill="#3C71B9"/>
<path d="M21.1904 38.7238L17.4745 42.4398L16.5984 41.5636C15.9691 40.9343 14.9489 40.9343 14.3196 41.5636C13.6903 42.1928 13.6903 43.213 14.3196 43.8424L16.3352 45.858C16.6373 46.1602 17.0472 46.33 17.4746 46.33C17.9019 46.33 18.3118 46.1603 18.6139 45.858L23.4693 41.0027C24.0985 40.3735 24.0985 39.3532 23.4693 38.7239C22.84 38.0946 21.8197 38.0946 21.1904 38.7238Z" fill="#3C71B9"/>
</g>
<defs>
<clipPath id="clip0_445_893">
<rect width="55" height="55" fill="white" transform="translate(0 0.933594)"/>
</clipPath>
</defs>
</svg>
