<svg width="55" height="56" viewBox="0 0 55 56" fill="none" xmlns="http://www.w3.org/2000/svg">
<g clip-path="url(#clip0_445_459)">
<path d="M27.5 0.152344C12.3372 0.152344 0 12.4895 0 27.6523C0 42.8152 12.3372 55.1523 27.5 55.1523C42.6628 55.1523 55 42.8152 55 27.6523C55 12.4895 42.6628 0.152344 27.5 0.152344ZM27.5 51.7148C14.2347 51.7148 3.4375 40.9211 3.4375 27.6523C3.4375 14.3836 14.2347 3.58984 27.5 3.58984C40.7653 3.58984 51.5625 14.3836 51.5625 27.6523C51.5625 40.9211 40.7653 51.7148 27.5 51.7148Z" fill="#4895FF"/>
<path d="M40.5591 24.5588L35.5197 20.7775L40.5625 16.9963C41.3222 16.4257 41.4769 15.3497 40.9097 14.59C40.3356 13.8269 39.2597 13.6791 38.5034 14.2463L31.6284 19.4025C31.1919 19.7257 30.9375 20.2379 30.9375 20.7775C30.9375 21.3172 31.1919 21.8294 31.625 22.1525L38.5 27.3088C38.8094 27.5391 39.1738 27.6525 39.5313 27.6525C40.0503 27.6525 40.5694 27.4154 40.9062 26.965C41.4734 26.2054 41.3188 25.1294 40.5591 24.5588Z" fill="#4895FF"/>
<path d="M23.3742 19.402L16.4992 14.2457C15.7429 13.682 14.667 13.8298 14.0929 14.5895C13.5257 15.3492 13.677 16.4251 14.4367 16.9957L19.4795 20.777L14.4367 24.5583C13.677 25.1289 13.5257 26.2048 14.0929 26.9645C14.4298 27.4148 14.9489 27.652 15.4679 27.652C15.8254 27.652 16.1898 27.5386 16.4992 27.3083L23.3742 22.152C23.8073 21.8289 24.0617 21.3167 24.0617 20.777C24.0617 20.2373 23.8073 19.7251 23.3742 19.402Z" fill="#4895FF"/>
<path d="M42.0186 38.1473L35.1436 34.7098C34.6589 34.4691 34.0883 34.4691 33.6071 34.7098L27.4986 37.7623L21.3936 34.7098C20.9089 34.4691 20.3383 34.4691 19.8571 34.7098L12.9821 38.1473C12.133 38.5735 11.7893 39.6048 12.2121 40.4538C12.6383 41.3063 13.6661 41.6398 14.5186 41.2238L20.6236 38.1679L26.7286 41.2204C27.2133 41.461 27.7839 41.461 28.2652 41.2204L34.3736 38.1679L40.4786 41.2204C40.7296 41.3441 40.9908 41.4026 41.2486 41.4026C41.8777 41.4026 42.4827 41.0554 42.7852 40.4538C43.208 39.6048 42.8677 38.5701 42.0186 38.1473Z" fill="#4895FF"/>
</g>
<defs>
<clipPath id="clip0_445_459">
<rect width="55" height="55" fill="white" transform="translate(0 0.152344)"/>
</clipPath>
</defs>
</svg>
