<svg enable-background="new 0 0 512 512" height="512" viewBox="0 0 512 512" width="512" xmlns="http://www.w3.org/2000/svg"><g id="_x32_4_x2C__question_x2C__mind_x2C__thought_x2C__user_x2C__human_brain"><g id="XMLID_1066_"><path id="XMLID_374_" d="m356.004 446.002.34.01c-.23 5.75-.34 11.5-.34 17.27v22.72h-190v-40z" fill="#a4c2f7"/><path id="XMLID_373_" d="m400.254 267.562c-26.12 56.18-41.48 116.7-43.91 178.45l-.34-.01h-190v-40h-32.5c-20.71 0-37.5-16.79-37.5-37.5v-62.5h-60l40-90v-20c0-93.16 74.93-168.82 167.81-169.99 122.148-1.523 208.99 128.491 156.44 241.55z" fill="#fff"/><path id="XMLID_1095_" d="m243.688 16.013c-98.456 1.24-177.684 81.327-177.684 179.989v17.878l-39.137 88.06c-2.935 6.605 1.907 14.062 9.138 14.062h50v52.5c0 26.191 21.309 47.5 47.5 47.5h22.5v70c0 5.522 4.478 10 10 10h190c5.522 0 10-4.478 10-10 1.296-14.037-8.751-102.231 43.318-214.225 57.071-122.793-38.153-257.388-165.635-255.764zm102.316 459.989h-170v-20h170.064c-.103 6.416-.048 8.583-.064 20zm45.183-212.656c-25.894 55.694-40.79 113.731-44.347 172.656h-170.836v-30c0-5.522-4.478-10-10-10h-32.5c-15.163 0-27.5-12.337-27.5-27.5v-62.5c0-5.522-4.478-10-10-10h-44.612l33.75-75.938c.568-1.279.862-2.662.862-4.062v-20c0-88.141 72.335-160.003 159.839-160.003 114.195 0 194.269 122.077 145.344 227.347z" fill="#418cfe"/><path id="XMLID_369_" d="m346.004 26.002c71.8 0 130 58.2 130 130 0 71.98-58.377 130-130 130-71.8 0-130-58.2-130-130 0-71.711 58.137-130 130-130z" fill="#a4c2f7"/><g fill="#418cfe"><path id="XMLID_1072_" d="m346.004 296.002c-77.196 0-140-62.804-140-140 0-58.884 36.473-110.044 89.389-130.562 16.123-6.263 33.151-9.438 50.611-9.438 77.196 0 140 62.804 140 140 0 77.593-62.8 140-140 140zm0-260c-67.149 0-120 54.971-120 120 0 66.168 53.832 120 120 120 66.196 0 120-53.505 120-120 0-66.169-53.832-120-120-120zm-46.99-1.24h.01z"/><path id="XMLID_365_" d="m346.004 226.002c-5.522 0-10-4.477-10-10v-30c0-5.523 4.478-10 10-10 27.57 0 50-22.43 50-50s-22.43-50-50-50-50 22.43-50 50c0 5.523-4.478 10-10 10s-10-4.477-10-10c0-38.598 31.402-70 70-70s70 31.402 70 70c0 35.203-26.122 64.421-60 69.288v20.712c0 5.523-4.477 10-10 10z"/><path id="XMLID_364_" d="m346.004 266.002c-5.522 0-10-4.477-10-10v-10c0-5.523 4.478-10 10-10s10 4.477 10 10v10c0 5.523-4.477 10-10 10z"/></g></g></g></svg>