<svg width="512" height="512" viewBox="0 0 512 512" fill="none" xmlns="http://www.w3.org/2000/svg">
<path d="M155.996 446.002L155.656 446.012C155.886 451.762 155.996 457.512 155.996 463.282V486.002H345.996V446.002H155.996Z" fill="#D7E9FF"/>
<path d="M111.746 267.561C137.866 323.741 153.226 384.261 155.656 446.011L155.996 446.001H345.996V406.001H378.496C399.206 406.001 415.996 389.211 415.996 368.501V306.001H475.996L435.996 216.001V196.001C435.996 102.841 361.066 27.1813 268.186 26.0113C146.038 24.4883 59.1961 154.502 111.746 267.561Z" fill="white"/>
<path d="M268.312 16.0126C366.768 17.2526 445.996 97.3396 445.996 196.002V213.88L485.133 301.94C488.068 308.545 483.226 316.002 475.995 316.002H425.995V368.502C425.995 394.693 404.686 416.002 378.495 416.002H355.995V486.002C355.995 491.524 351.517 496.002 345.995 496.002H155.995C150.473 496.002 145.995 491.524 145.995 486.002C144.699 471.965 154.746 383.771 102.677 271.777C45.6059 148.984 140.83 14.3886 268.312 16.0126ZM165.996 476.002H335.996V456.002H165.932C166.035 462.418 165.98 464.585 165.996 476.002ZM120.813 263.346C146.707 319.04 161.603 377.077 165.16 436.002H335.996V406.002C335.996 400.48 340.474 396.002 345.996 396.002H378.496C393.659 396.002 405.996 383.665 405.996 368.502V306.002C405.996 300.48 410.474 296.002 415.996 296.002H460.608L426.858 220.064C426.29 218.785 425.996 217.402 425.996 216.002V196.002C425.996 107.861 353.661 35.9986 266.157 35.9986C151.962 35.9986 71.8879 158.076 120.813 263.346Z" fill="#418CFE"/>
<path d="M165.996 26.002C94.1961 26.002 35.9961 84.202 35.9961 156.002C35.9961 227.982 94.3731 286.002 165.996 286.002C237.796 286.002 295.996 227.802 295.996 156.002C295.996 84.291 237.859 26.002 165.996 26.002Z" fill="#D7E9FF"/>
<path d="M165.996 296.002C88.8001 296.002 25.9961 233.198 25.9961 156.002C25.9961 97.118 62.4691 45.958 115.385 25.44C131.508 19.177 148.536 16.002 165.996 16.002C243.192 16.002 305.996 78.806 305.996 156.002C305.996 233.595 243.196 296.002 165.996 296.002ZM165.996 36.002C98.8471 36.002 45.9961 90.973 45.9961 156.002C45.9961 222.17 99.8281 276.002 165.996 276.002C232.192 276.002 285.996 222.497 285.996 156.002C285.996 89.833 232.164 36.002 165.996 36.002Z" fill="#418CFE"/>
<path d="M165.996 226.002C160.474 226.002 155.996 221.525 155.996 216.002V186.002C155.996 180.479 160.474 176.002 165.996 176.002C193.566 176.002 215.996 153.572 215.996 126.002C215.996 98.432 193.566 76.002 165.996 76.002C138.426 76.002 115.996 98.432 115.996 126.002C115.996 131.525 111.518 136.002 105.996 136.002C100.474 136.002 95.9961 131.525 95.9961 126.002C95.9961 87.404 127.398 56.002 165.996 56.002C204.594 56.002 235.996 87.404 235.996 126.002C235.996 161.205 209.874 190.423 175.996 195.29V216.002C175.996 221.525 171.519 226.002 165.996 226.002Z" fill="#418CFE"/>
<path d="M165.996 266.002C160.474 266.002 155.996 261.525 155.996 256.002V246.002C155.996 240.479 160.474 236.002 165.996 236.002C171.518 236.002 175.996 240.479 175.996 246.002V256.002C175.996 261.525 171.519 266.002 165.996 266.002Z" fill="#418CFE"/>
</svg>
