<svg width="170" height="37" viewBox="0 0 170 37" fill="none" xmlns="http://www.w3.org/2000/svg">
<rect width="170" height="37" rx="18.5" fill="#5170BE"/>
<path d="M34.2366 13.874L30.9996 23H28.2176L24.9806 13.874H27.3466L29.6086 20.764L31.8836 13.874H34.2366ZM36.9337 14.992C36.5437 14.992 36.223 14.8793 35.9717 14.654C35.729 14.42 35.6077 14.134 35.6077 13.796C35.6077 13.4493 35.729 13.1633 35.9717 12.938C36.223 12.704 36.5437 12.587 36.9337 12.587C37.315 12.587 37.627 12.704 37.8697 12.938C38.121 13.1633 38.2467 13.4493 38.2467 13.796C38.2467 14.134 38.121 14.42 37.8697 14.654C37.627 14.8793 37.315 14.992 36.9337 14.992ZM38.0387 15.746V23H35.8157V15.746H38.0387ZM47.1377 19.256C47.1377 19.464 47.1247 19.6807 47.0987 19.906H42.0677C42.1023 20.3567 42.2453 20.7033 42.4967 20.946C42.7567 21.18 43.073 21.297 43.4457 21.297C44.0003 21.297 44.386 21.063 44.6027 20.595H46.9687C46.8473 21.0717 46.6263 21.5007 46.3057 21.882C45.9937 22.2633 45.5993 22.5623 45.1227 22.779C44.646 22.9957 44.113 23.104 43.5237 23.104C42.813 23.104 42.1803 22.9523 41.6257 22.649C41.071 22.3457 40.6377 21.9123 40.3257 21.349C40.0137 20.7857 39.8577 20.127 39.8577 19.373C39.8577 18.619 40.0093 17.9603 40.3127 17.397C40.6247 16.8337 41.058 16.4003 41.6127 16.097C42.1673 15.7937 42.8043 15.642 43.5237 15.642C44.2257 15.642 44.8497 15.7893 45.3957 16.084C45.9417 16.3787 46.3663 16.799 46.6697 17.345C46.9817 17.891 47.1377 18.528 47.1377 19.256ZM44.8627 18.671C44.8627 18.2897 44.7327 17.9863 44.4727 17.761C44.2127 17.5357 43.8877 17.423 43.4977 17.423C43.125 17.423 42.8087 17.5313 42.5487 17.748C42.2973 17.9647 42.1413 18.2723 42.0807 18.671H44.8627ZM59.3734 15.746L57.4104 23H54.9534L53.8094 18.294L52.6264 23H50.1824L48.2064 15.746H50.4294L51.4564 20.933L52.6784 15.746H55.0314L56.2664 20.907L57.2804 15.746H59.3734ZM63.899 18.424C63.899 17.5227 64.094 16.721 64.484 16.019C64.874 15.3083 65.4157 14.758 66.109 14.368C66.811 13.9693 67.604 13.77 68.488 13.77C69.5714 13.77 70.4987 14.056 71.27 14.628C72.0414 15.2 72.557 15.98 72.817 16.968H70.373C70.191 16.5867 69.931 16.2963 69.593 16.097C69.2637 15.8977 68.8867 15.798 68.462 15.798C67.7774 15.798 67.2227 16.0363 66.798 16.513C66.3734 16.9897 66.161 17.6267 66.161 18.424C66.161 19.2213 66.3734 19.8583 66.798 20.335C67.2227 20.8117 67.7774 21.05 68.462 21.05C68.8867 21.05 69.2637 20.9503 69.593 20.751C69.931 20.5517 70.191 20.2613 70.373 19.88H72.817C72.557 20.868 72.0414 21.648 71.27 22.22C70.4987 22.7833 69.5714 23.065 68.488 23.065C67.604 23.065 66.811 22.87 66.109 22.48C65.4157 22.0813 64.874 21.531 64.484 20.829C64.094 20.127 63.899 19.3253 63.899 18.424ZM74.3864 19.36C74.3864 18.6147 74.525 17.9603 74.8024 17.397C75.0884 16.8337 75.474 16.4003 75.9594 16.097C76.4447 15.7937 76.9864 15.642 77.5844 15.642C78.0957 15.642 78.542 15.746 78.9234 15.954C79.3134 16.162 79.6124 16.435 79.8204 16.773V15.746H82.0434V23H79.8204V21.973C79.6037 22.311 79.3004 22.584 78.9104 22.792C78.529 23 78.0827 23.104 77.5714 23.104C76.982 23.104 76.4447 22.9523 75.9594 22.649C75.474 22.337 75.0884 21.8993 74.8024 21.336C74.525 20.764 74.3864 20.1053 74.3864 19.36ZM79.8204 19.373C79.8204 18.8183 79.6644 18.3807 79.3524 18.06C79.049 17.7393 78.6764 17.579 78.2344 17.579C77.7924 17.579 77.4154 17.7393 77.1034 18.06C76.8 18.372 76.6484 18.8053 76.6484 19.36C76.6484 19.9147 76.8 20.3567 77.1034 20.686C77.4154 21.0067 77.7924 21.167 78.2344 21.167C78.6764 21.167 79.049 21.0067 79.3524 20.686C79.6644 20.3653 79.8204 19.9277 79.8204 19.373ZM87.2526 23.104C86.6199 23.104 86.0566 22.9957 85.5626 22.779C85.0686 22.5623 84.6786 22.2677 84.3926 21.895C84.1066 21.5137 83.9463 21.089 83.9116 20.621H86.1086C86.1346 20.8723 86.2516 21.076 86.4596 21.232C86.6676 21.388 86.9233 21.466 87.2266 21.466C87.5039 21.466 87.7163 21.414 87.8636 21.31C88.0196 21.1973 88.0976 21.0543 88.0976 20.881C88.0976 20.673 87.9893 20.5213 87.7726 20.426C87.5559 20.322 87.2049 20.2093 86.7196 20.088C86.1996 19.9667 85.7663 19.841 85.4196 19.711C85.0729 19.5723 84.7739 19.36 84.5226 19.074C84.2713 18.7793 84.1456 18.385 84.1456 17.891C84.1456 17.475 84.2583 17.098 84.4836 16.76C84.7176 16.4133 85.0556 16.1403 85.4976 15.941C85.9483 15.7417 86.4813 15.642 87.0966 15.642C88.0066 15.642 88.7216 15.8673 89.2416 16.318C89.7703 16.7687 90.0736 17.3667 90.1516 18.112H88.0976C88.0629 17.8607 87.9503 17.6613 87.7596 17.514C87.5776 17.3667 87.3349 17.293 87.0316 17.293C86.7716 17.293 86.5723 17.345 86.4336 17.449C86.2949 17.5443 86.2256 17.6787 86.2256 17.852C86.2256 18.06 86.3339 18.216 86.5506 18.32C86.7759 18.424 87.1226 18.528 87.5906 18.632C88.1279 18.7707 88.5656 18.9093 88.9036 19.048C89.2416 19.178 89.5363 19.3947 89.7876 19.698C90.0476 19.9927 90.1819 20.3913 90.1906 20.894C90.1906 21.3187 90.0693 21.7 89.8266 22.038C89.5926 22.3673 89.2503 22.6273 88.7996 22.818C88.3576 23.0087 87.8419 23.104 87.2526 23.104ZM99.0386 19.256C99.0386 19.464 99.0256 19.6807 98.9996 19.906H93.9686C94.0033 20.3567 94.1463 20.7033 94.3976 20.946C94.6576 21.18 94.974 21.297 95.3466 21.297C95.9013 21.297 96.287 21.063 96.5036 20.595H98.8696C98.7483 21.0717 98.5273 21.5007 98.2066 21.882C97.8946 22.2633 97.5003 22.5623 97.0236 22.779C96.547 22.9957 96.014 23.104 95.4246 23.104C94.714 23.104 94.0813 22.9523 93.5266 22.649C92.972 22.3457 92.5386 21.9123 92.2266 21.349C91.9146 20.7857 91.7586 20.127 91.7586 19.373C91.7586 18.619 91.9103 17.9603 92.2136 17.397C92.5256 16.8337 92.959 16.4003 93.5136 16.097C94.0683 15.7937 94.7053 15.642 95.4246 15.642C96.1266 15.642 96.7506 15.7893 97.2966 16.084C97.8426 16.3787 98.2673 16.799 98.5706 17.345C98.8826 17.891 99.0386 18.528 99.0386 19.256ZM96.7636 18.671C96.7636 18.2897 96.6336 17.9863 96.3736 17.761C96.1136 17.5357 95.7886 17.423 95.3986 17.423C95.026 17.423 94.7096 17.5313 94.4496 17.748C94.1983 17.9647 94.0423 18.2723 93.9816 18.671H96.7636ZM107.568 23.091C106.901 23.091 106.303 22.9827 105.774 22.766C105.246 22.5493 104.821 22.2287 104.5 21.804C104.188 21.3793 104.024 20.868 104.006 20.27H106.372C106.407 20.608 106.524 20.868 106.723 21.05C106.923 21.2233 107.183 21.31 107.503 21.31C107.833 21.31 108.093 21.2363 108.283 21.089C108.474 20.933 108.569 20.7207 108.569 20.452C108.569 20.2267 108.491 20.0403 108.335 19.893C108.188 19.7457 108.002 19.6243 107.776 19.529C107.56 19.4337 107.248 19.3253 106.84 19.204C106.251 19.022 105.77 18.84 105.397 18.658C105.025 18.476 104.704 18.2073 104.435 17.852C104.167 17.4967 104.032 17.033 104.032 16.461C104.032 15.6117 104.34 14.9487 104.955 14.472C105.571 13.9867 106.372 13.744 107.36 13.744C108.366 13.744 109.176 13.9867 109.791 14.472C110.407 14.9487 110.736 15.616 110.779 16.474H108.374C108.357 16.1793 108.249 15.9497 108.049 15.785C107.85 15.6117 107.594 15.525 107.282 15.525C107.014 15.525 106.797 15.5987 106.632 15.746C106.468 15.8847 106.385 16.0883 106.385 16.357C106.385 16.6517 106.524 16.8813 106.801 17.046C107.079 17.2107 107.512 17.3883 108.101 17.579C108.691 17.7783 109.167 17.969 109.531 18.151C109.904 18.333 110.225 18.5973 110.493 18.944C110.762 19.2907 110.896 19.737 110.896 20.283C110.896 20.803 110.762 21.2753 110.493 21.7C110.233 22.1247 109.852 22.4627 109.349 22.714C108.847 22.9653 108.253 23.091 107.568 23.091ZM116.957 21.115V23H115.826C115.02 23 114.392 22.805 113.941 22.415C113.491 22.0163 113.265 21.3707 113.265 20.478V17.592H112.381V15.746H113.265V13.978H115.488V15.746H116.944V17.592H115.488V20.504C115.488 20.7207 115.54 20.8767 115.644 20.972C115.748 21.0673 115.922 21.115 116.164 21.115H116.957ZM126.009 15.746V23H123.786V22.012C123.56 22.3327 123.253 22.5927 122.863 22.792C122.481 22.9827 122.057 23.078 121.589 23.078C121.034 23.078 120.544 22.9567 120.12 22.714C119.695 22.4627 119.366 22.103 119.132 21.635C118.898 21.167 118.781 20.6167 118.781 19.984V15.746H120.991V19.685C120.991 20.1703 121.116 20.5473 121.368 20.816C121.619 21.0847 121.957 21.219 122.382 21.219C122.815 21.219 123.157 21.0847 123.409 20.816C123.66 20.5473 123.786 20.1703 123.786 19.685V15.746H126.009ZM127.813 19.36C127.813 18.6147 127.952 17.9603 128.229 17.397C128.515 16.8337 128.901 16.4003 129.386 16.097C129.872 15.7937 130.413 15.642 131.011 15.642C131.488 15.642 131.921 15.7417 132.311 15.941C132.71 16.1403 133.022 16.409 133.247 16.747V13.38H135.47V23H133.247V21.96C133.039 22.3067 132.74 22.584 132.35 22.792C131.969 23 131.523 23.104 131.011 23.104C130.413 23.104 129.872 22.9523 129.386 22.649C128.901 22.337 128.515 21.8993 128.229 21.336C127.952 20.764 127.813 20.1053 127.813 19.36ZM133.247 19.373C133.247 18.8183 133.091 18.3807 132.779 18.06C132.476 17.7393 132.103 17.579 131.661 17.579C131.219 17.579 130.842 17.7393 130.53 18.06C130.227 18.372 130.075 18.8053 130.075 19.36C130.075 19.9147 130.227 20.3567 130.53 20.686C130.842 21.0067 131.219 21.167 131.661 21.167C132.103 21.167 132.476 21.0067 132.779 20.686C133.091 20.3653 133.247 19.9277 133.247 19.373ZM145.139 15.746L140.589 26.445H138.197L139.861 22.753L136.91 15.746H139.393L141.07 20.283L142.734 15.746H145.139Z" fill="#F2F3F5"/>
</svg>
