<svg enable-background="new 0 0 512 512" height="512" viewBox="0 0 512 512" width="512" xmlns="http://www.w3.org/2000/svg"><g id="_x30_6_Project"><g><path d="m454.858 69.658h-429.63v314.201c0 27.938 22.643 50.581 50.517 50.581h379.113c17.614 0 31.892-14.279 31.892-31.892v-300.998c0-17.614-14.279-31.892-31.892-31.892z" fill="#fff"/><path d="m424.206 245.139v13.804c0 4.656-3.692 8.347-8.347 8.347h-15.57c-1.043 6.341-2.729 12.521-4.976 18.54l13.564 7.785c3.933 2.247 5.297 7.384 3.05 11.317l-6.902 11.958c-2.247 3.933-7.384 5.297-11.397 3.05l-13.483-7.865c-4.093 4.976-8.588 9.47-13.564 13.563l7.865 13.563c2.247 3.934.883 9.07-3.049 11.318l-12.039 6.901c-3.933 2.328-8.989.964-11.317-3.049l-7.785-13.564c-5.94 2.247-12.119 3.933-18.54 4.976v15.65c0 4.575-3.692 8.267-8.267 8.267h-13.804c-4.575 0-8.347-3.692-8.347-8.267v-15.65c-6.34-1.043-12.52-2.729-18.459-4.976l-7.865 13.564c-2.247 4.013-7.304 5.377-11.317 3.049l-11.958-6.901c-3.933-2.247-5.297-7.384-3.05-11.318l7.866-13.563c-4.976-4.093-9.471-8.587-13.564-13.563l-13.564 7.865c-3.933 2.247-8.989.883-11.317-3.05l-6.902-11.958c-2.247-3.933-.883-9.069 3.05-11.317l13.564-7.785c-2.247-6.019-3.933-12.199-4.976-18.54h-15.65c-4.575 0-8.267-3.692-8.267-8.347v-13.804c0-4.574 3.692-8.267 8.267-8.267h15.65c1.043-6.42 2.729-12.6 4.976-18.539l-13.564-7.785c-3.933-2.247-5.297-7.384-3.05-11.317l6.902-12.039c2.328-3.933 7.384-5.296 11.317-3.05l13.564 7.866c4.013-4.897 8.587-9.471 13.564-13.484l-7.866-13.564c-2.247-4.013-.883-9.068 3.05-11.396l11.958-6.903c4.013-2.246 9.069-.882 11.317 3.051l7.865 13.644c5.939-2.328 12.119-4.013 18.459-5.056v-15.57c0-4.655 3.772-8.346 8.347-8.346h13.804c4.575 0 8.267 3.692 8.267 8.346v15.57c6.421 1.043 12.6 2.729 18.54 5.056l7.785-13.644c2.327-3.933 7.384-5.297 11.317-3.051l12.039 6.903c3.933 2.328 5.297 7.383 3.049 11.396l-7.865 13.564c4.976 4.013 9.47 8.587 13.564 13.484l13.483-7.866c4.013-2.246 9.15-.883 11.397 3.05l6.902 12.039c2.247 3.933.883 9.069-3.05 11.317l-13.564 7.785c2.247 5.939 3.933 12.119 4.976 18.539h15.57c4.655.001 8.347 3.693 8.347 8.267z" fill="#d7e9ff"/><path d="m336.38 252.052c0 16.481-13.351 29.831-29.823 29.831s-29.831-13.351-29.831-29.831c0-16.472 13.359-29.823 29.831-29.823s29.823 13.351 29.823 29.823z" fill="#fff"/><path d="m179.184 461.673h206.686v43.489h-206.686z" fill="#d7e9ff"/><path d="m385.869 461.644 16.933-.005c4.493-.001 8.136 3.642 8.137 8.137l.002 27.211c0 4.495-3.642 8.14-8.136 8.142l-16.933.005z" fill="#fff"/><path d="m179.182 461.714-20.591 16.218c-3.572 2.813-3.572 8.228.001 11.04l20.593 16.205z" fill="#fff"/><path d="m126.345 383.857c0-27.885-22.622-50.586-50.586-50.586-27.885 0-50.507 22.7-50.507 50.586v-326.462c0-27.885 22.622-50.586 50.507-50.586 27.964 0 50.586 22.7 50.586 50.586z" fill="#94c1ff"/><path d="m434.439 69.639c0 26.843-21.743 48.587-48.587 48.587-26.805 0-48.548-21.743-48.548-48.587 0-26.805 21.743-48.548 48.548-48.548 26.844-.001 48.587 21.743 48.587 48.548z" fill="#94c1ff"/><g fill="#116fff"><path d="m151.811 488.755c.803 1.685 1.983 3.188 3.501 4.384l20.597 16.206c.533.42 2.034 1.147 3.277 1.147 56.531-.016 41.848-.012 223.618-.062 7.409 0 13.436-6.032 13.436-13.444v-27.211c0-7.409-6.032-13.439-13.441-13.439-181.77.05-167.172.047-223.618.062-1.103 0-2.585.599-3.283 1.149l-20.592 16.219c-1.518 1.196-2.698 2.699-3.5 4.384l-5.53.001c-2.931 0-5.302 2.374-5.302 5.305 0 2.928 2.377 5.299 5.302 5.299zm250.989-21.814c1.564 0 2.837 1.271 2.837 2.835v27.211c0 1.566-1.269 2.84-2.832 2.84l-11.629.003c0-.704-.005-34.08-.005-32.886zm-22.233.007c0 .703.005 34.079.005 32.886l-196.083.052c0-.703-.005-34.08-.005-32.886zm-218.694 15.15 12.007-9.46c0 .534.004 23.046.004 21.618l-12.016-9.451c-.861-.68-.888-2.007.005-2.707z"/><path d="m197.153 272.592h11.256c.766 3.622 1.74 7.244 2.915 10.832l-9.739 5.589c-6.493 3.712-8.745 12.033-5.012 18.57l6.933 12.012c3.79 6.397 12.095 8.621 18.541 4.934l9.75-5.657c2.501 2.791 5.126 5.416 7.917 7.919l-5.67 9.781c-3.723 6.513-1.47 14.834 5.002 18.541l11.95 6.894c6.797 3.927 15.044 1.321 18.567-4.976l5.659-9.76c3.552 1.17 7.15 2.141 10.775 2.907v11.254c0 7.482 6.125 13.571 13.648 13.571h13.804c7.482 0 13.571-6.089 13.571-13.571v-11.246c3.645-.764 7.264-1.737 10.837-2.91l5.597 9.757c3.905 6.712 12.309 8.68 18.541 4.986l12.038-6.899c6.488-3.715 8.74-12.035 5.002-18.577l-5.654-9.752c2.786-2.501 5.411-5.123 7.906-7.909l9.755 5.685c6.555 3.671 14.896 1.413 18.577-5.025l6.912-11.981c3.723-6.516 1.47-14.837-5.012-18.544l-9.75-5.594c1.175-3.596 2.154-7.218 2.915-10.832h11.173c7.523 0 13.648-6.123 13.648-13.648v-13.803c0-7.482-6.125-13.568-13.648-13.568h-11.163c-.766-3.642-1.74-7.267-2.91-10.839l9.724-5.582c6.493-3.712 8.745-12.033 5.017-18.557l-6.897-12.03c-3.692-6.454-12.033-8.727-18.671-4.999l-9.693 5.651c-2.563-2.837-5.198-5.465-7.875-7.86l5.68-9.804c3.681-6.57 1.496-14.717-5.038-18.588l-12.043-6.904c-6.42-3.671-14.73-1.445-18.552 5.025l-5.571 9.762c-3.536-1.188-7.161-2.175-10.847-2.951v-11.166c0-7.526-6.089-13.648-13.571-13.648h-13.804c-7.523 0-13.648 6.123-13.648 13.648v11.173c-3.666.779-7.269 1.763-10.785 2.949l-5.633-9.77c-3.676-6.441-11.976-8.693-18.572-5.012l-12.012 6.933c-6.467 3.831-8.652 11.979-4.934 18.616l5.638 9.729c-2.76 2.454-5.4 5.082-7.901 7.865l-9.781-5.672c-6.4-3.661-14.715-1.445-18.546 5.015l-6.907 12.046c-3.723 6.516-1.47 14.837 5.012 18.544l9.739 5.587c-1.175 3.565-2.149 7.189-2.915 10.839h-11.246c-7.482 0-13.565 6.086-13.565 13.568v13.804c.001 7.525 6.085 13.648 13.566 13.648zm-2.961-27.452c0-1.634 1.331-2.964 2.962-2.964h15.652c2.599 0 4.815-1.885 5.235-4.45.963-5.931 2.547-11.826 4.701-17.516.922-2.436-.062-5.18-2.32-6.475l-13.576-7.79c-1.367-.782-1.874-2.69-1.082-4.075l6.866-11.973c.865-1.45 2.723-1.957 4.096-1.165l13.565 7.865c2.257 1.302 5.11.777 6.762-1.227 3.857-4.704 8.16-8.983 12.789-12.716 2.035-1.641 2.568-4.523 1.258-6.785l-7.829-13.498c-.828-1.481-.321-3.384 1.077-4.212l11.898-6.868c1.47-.828 3.319-.355 4.137 1.072l7.865 13.643c1.305 2.273 4.101 3.244 6.529 2.289 5.545-2.175 11.396-3.777 17.381-4.761 2.563-.422 4.442-2.635 4.442-5.232v-15.569c0-1.678 1.367-3.044 3.044-3.044h13.804c1.662 0 2.967 1.338 2.967 3.044v15.567c0 2.599 1.885 4.815 4.453 5.232 6.011.979 11.888 2.581 17.459 4.761 2.434.953 5.229-.023 6.534-2.309l7.741-13.568c.859-1.447 2.703-1.955 4.121-1.152l11.971 6.863c1.45.859 1.957 2.762 1.165 4.176l-7.865 13.565c-1.31 2.263-.777 5.144 1.258 6.785 4.401 3.549 8.714 7.839 12.82 12.755 1.657 1.983 4.505 2.483 6.741 1.181l13.405-7.818c1.47-.831 3.402-.347 4.209 1.061l6.897 12.03c.797 1.393.29 3.301-1.087 4.088l-13.565 7.785c-2.257 1.294-3.241 4.039-2.32 6.475 2.164 5.714 3.743 11.606 4.701 17.513.419 2.566 2.635 4.453 5.235 4.453h15.569c1.709 0 3.044 1.302 3.044 2.964v13.804c0 1.734-1.31 3.044-3.044 3.044h-15.569c-2.599 0-4.81 1.882-5.229 4.442-.958 5.835-2.542 11.738-4.712 17.547-.911 2.431.078 5.16 2.325 6.451l13.576 7.79c1.367.782 1.874 2.69 1.087 4.062l-6.912 11.981c-.808 1.398-2.734 1.882-4.121 1.1l-13.488-7.865c-2.263-1.31-5.121-.795-6.767 1.212-3.894 4.738-8.093 8.937-12.835 12.835-2.004 1.649-2.516 4.51-1.217 6.754l7.849 13.534c.797 1.393.29 3.301-1.082 4.088l-12.1 6.935c-1.411.832-3.197.305-4.023-1.121l-7.782-13.565c-1.294-2.257-4.033-3.233-6.472-2.322-5.711 2.159-11.603 3.741-17.516 4.704-2.568.417-4.453 2.633-4.453 5.232v15.649c0 1.636-1.331 2.967-2.967 2.967h-13.804c-1.678 0-3.044-1.331-3.044-2.967v-15.649c0-2.597-1.879-4.81-4.442-5.232-5.882-.968-11.753-2.55-17.444-4.701-2.396-.914-5.148.035-6.462 2.299l-7.901 13.633c-.795 1.412-2.553 1.909-4.044 1.046l-11.976-6.907c-1.372-.787-1.879-2.695-1.098-4.059l7.865-13.563c1.3-2.245.787-5.105-1.217-6.754-4.743-3.899-8.942-8.098-12.835-12.835-1.646-2.001-4.51-2.522-6.757-1.219l-13.534 7.849c-1.419.808-3.267.298-4.096-1.098l-6.891-11.94c-.797-1.393-.29-3.301 1.087-4.088l13.565-7.785c2.247-1.292 3.236-4.02 2.325-6.451-2.159-5.786-3.743-11.691-4.712-17.55-.419-2.56-2.635-4.44-5.229-4.44h-15.652c-1.662 0-2.962-1.338-2.962-3.044v-13.803z"/><path d="m75.763 439.753h379.088c20.519 0 37.217-16.695 37.217-37.217v-300.99c0-20.493-16.698-37.168-37.217-37.168h-15.375c-2.656-27.233-25.685-48.59-53.622-48.59-27.918 0-50.933 21.357-53.586 48.59h-200.622v-6.982c0-30.817-25.07-55.888-55.888-55.888-30.776 0-55.81 25.07-55.81 55.888v12.207c0 .027-.016.05-.016.077v314.193c0 30.812 25.045 55.88 55.831 55.88zm310.09-413.362c23.869 0 43.285 19.401 43.285 43.246 0 .007-.001.014-.001.021 0 .008-.004.014-.004.021 0 .004.003.008.003.012-.03 23.841-19.432 43.232-43.283 43.232-23.83 0-43.218-19.39-43.246-43.232 0-.005.003-.008.003-.012 0-.007-.004-.013-.004-.021 0-.006-.001-.014-.001-.021-.001-23.845 19.4-43.246 43.248-43.246zm-355.301 31.004c0-24.969 20.281-45.284 45.206-45.284 24.972 0 45.284 20.315 45.284 45.284v293.742c-10.164-14.026-26.675-23.167-45.284-23.167-18.572 0-35.058 9.133-45.206 23.147zm0 326.462c0-24.969 20.281-45.284 45.206-45.284 24.972 0 45.284 20.315 45.284 45.284 0 2.928 2.371 5.302 5.302 5.302s5.302-2.374 5.302-5.302v-308.876h200.625c2.691 27.214 25.69 48.546 53.582 48.546 27.91 0 50.926-21.331 53.619-48.546h15.379c14.673 0 26.613 11.916 26.613 26.564v300.99c0 14.673-11.94 26.613-26.613 26.613h-379.088c-24.919 0-45.197-20.285-45.224-45.227 0-.022.013-.041.013-.064z"/><path d="m306.557 287.185c19.37 0 35.125-15.761 35.125-35.133 0-19.367-15.756-35.125-35.125-35.125s-35.13 15.758-35.13 35.125c0 19.372 15.761 35.133 35.13 35.133zm0-59.654c13.519 0 24.521 11 24.521 24.521 0 13.527-11.003 24.529-24.521 24.529-13.524 0-24.527-11.003-24.527-24.529.001-13.521 11.003-24.521 24.527-24.521z"/><path d="m375.374 84.21c2.071 2.071 5.427 2.07 7.497 0l21.612-21.609c2.071-2.071 2.071-5.426 0-7.497s-5.426-2.071-7.497 0l-17.863 17.86-4.365-4.367c-2.071-2.071-5.426-2.071-7.497 0-2.071 2.068-2.071 5.426 0 7.497z"/></g></g></g></svg>