<svg enable-background="new 0 0 520 520" height="512" viewBox="0 0 520 520" width="512" xmlns="http://www.w3.org/2000/svg"><g id="_x35_74_x2C__Design_x2C__Responsive_x2C__Web_x2C__Web_Design"><g><path d="m480 115.67v258.66c0 14.18-11.49 25.67-25.67 25.67-23.252 0-365.761 0-388.67 0-14.17 0-25.66-11.49-25.66-25.67v-258.66c0-14.18 11.49-25.67 25.66-25.67h388.67c14.18 0 25.67 11.49 25.67 25.67z" fill="#9bc9ff"/><path d="m450 120v220h-380v-220z" fill="#fff"/><path d="m305 270v40h-170v-145h120v75 6.75c0 12.84 10.41 23.25 23.25 23.25z" fill="#fff"/><path d="m400 120v120h-145v-75-45-30-25h145v25z" fill="#fff"/><path d="m340 270v16.75c0 12.84-10.41 23.25-23.25 23.25h-11.75v-40z" fill="#9bc9ff"/><path d="m135 165v145h-6.75c-12.84 0-23.25-10.41-23.25-23.25v-98.5c0-12.84 10.41-23.25 23.25-23.25z" fill="#9bc9ff"/><path d="m400 240v6.75c0 12.84-10.41 23.25-23.25 23.25h-36.75-35-26.75c-12.84 0-23.25-10.41-23.25-23.25v-6.75z" fill="#9bc9ff"/><path d="m400 58.25v6.75h-145v-6.75c0-12.84 10.41-23.25 23.25-23.25h98.5c12.84 0 23.25 10.41 23.25 23.25z" fill="#9bc9ff"/><circle cx="452.5" cy="432.5" fill="#1e81ce" r="7.5"/><circle cx="447.5" cy="52.5" fill="#1e81ce" r="7.5"/><circle cx="387.5" cy="452.5" fill="#1e81ce" r="7.5"/><path d="m337.5 465c6.9 0 12.5 5.6 12.5 12.5 0 3.45-1.4 6.58-3.66 8.84-2.27 2.26-5.39 3.66-8.84 3.66h-155c-6.91 0-12.5-5.6-12.5-12.5 0-3.45 1.4-6.58 3.66-8.84s5.39-3.66 8.84-3.66h42.5 70z" fill="#fff"/><path d="m335 400v5.5c0 10.77-8.73 19.5-19.5 19.5h-20.5-70-20.5c-10.77 0-19.5-8.73-19.5-19.5v-5.5z" fill="#fff"/><path d="m267.07 362.93c1.811 1.811 2.93 4.311 2.93 7.07s-1.119 5.26-2.93 7.07c-1.81 1.81-4.31 2.93-7.07 2.93-5.53 0-10-4.48-10-10 0-2.76 1.12-5.26 2.93-7.07 1.8-1.81 4.3-2.93 7.07-2.93 2.76 0 5.26 1.12 7.07 2.93z" fill="#1e81ce"/><circle cx="222.5" cy="37.5" fill="#1e81ce" r="7.5"/><circle cx="157.5" cy="422.5" fill="#1e81ce" r="7.5"/><circle cx="132.5" cy="62.5" fill="#1e81ce" r="7.5"/><circle cx="105" cy="460" fill="#9bc9ff" r="30"/><path d="m85 30c8.28 0 15 6.72 15 15s-6.72 15-15 15c-8.29 0-15-6.72-15-15s6.71-15 15-15z" fill="#9bc9ff"/><g fill="#1e81ce"><circle cx="47.5" cy="437.5" r="7.5"/><path d="m454.33 405h-119.33c-2.762 0-5-2.238-5-5s2.238-5 5-5h119.33c11.397 0 20.67-9.272 20.67-20.67v-258.66c0-11.397-9.273-20.67-20.67-20.67h-54.33c-2.762 0-5-2.239-5-5s2.238-5 5-5h54.33c16.912 0 30.67 13.758 30.67 30.67v258.66c0 16.911-13.758 30.67-30.67 30.67z"/><path d="m185 405h-119.34c-16.906 0-30.66-13.759-30.66-30.67v-258.66c0-16.912 13.754-30.67 30.66-30.67h189.34c2.762 0 5 2.239 5 5s-2.238 5-5 5h-189.34c-11.392 0-20.66 9.272-20.66 20.67v258.66c0 11.398 9.268 20.67 20.66 20.67h119.34c2.761 0 5 2.238 5 5s-2.239 5-5 5z"/><path d="m450 345h-380c-2.761 0-5-2.238-5-5v-220c0-2.761 2.239-5 5-5h185c2.762 0 5 2.239 5 5s-2.238 5-5 5h-180v210h370v-210h-45c-2.762 0-5-2.239-5-5s2.238-5 5-5h50c2.762 0 5 2.239 5 5v220c0 2.762-2.238 5-5 5z"/><path d="m315.5 430h-20.5c-2.762 0-5-2.238-5-5s2.238-5 5-5h20.5c7.995 0 14.5-6.505 14.5-14.5v-.5h-140v.5c0 7.995 6.505 14.5 14.5 14.5h20.5c2.761 0 5 2.238 5 5s-2.239 5-5 5h-20.5c-13.509 0-24.5-10.99-24.5-24.5v-5.5c0-2.762 2.239-5 5-5h150c2.762 0 5 2.238 5 5v5.5c0 13.51-10.99 24.5-24.5 24.5z"/><path d="m295 470c-2.762 0-5-2.238-5-5v-35h-60v35c0 2.762-2.239 5-5 5s-5-2.238-5-5v-40c0-2.762 2.239-5 5-5h70c2.762 0 5 2.238 5 5v40c0 2.762-2.238 5-5 5z"/><path d="m337.5 495h-155c-9.649 0-17.5-7.851-17.5-17.5 0-4.676 1.82-9.07 5.124-12.375 3.306-3.306 7.701-5.125 12.376-5.125h155c9.649 0 17.5 7.851 17.5 17.5 0 4.676-1.82 9.071-5.124 12.375-3.323 3.308-7.715 5.125-12.376 5.125zm-155-25c-2.004 0-3.888.78-5.305 2.196-1.415 1.415-2.195 3.299-2.195 5.304 0 4.136 3.364 7.5 7.5 7.5h155c1.998 0 3.885-.782 5.313-2.204 1.408-1.407 2.188-3.291 2.188-5.296 0-4.136-3.364-7.5-7.5-7.5z"/><path d="m105 495c-19.299 0-35-15.701-35-35s15.701-35 35-35 35 15.701 35 35-15.701 35-35 35zm0-60c-13.785 0-25 11.215-25 25s11.215 25 25 25 25-11.215 25-25-11.215-25-25-25z"/><path d="m400 70c-2.762 0-5-2.239-5-5v-6.75c0-10.063-8.187-18.25-18.25-18.25h-98.5c-10.062 0-18.25 8.187-18.25 18.25v6.75c0 2.761-2.238 5-5 5-2.761 0-5-2.239-5-5v-6.75c0-15.577 12.673-28.25 28.25-28.25h98.5c15.577 0 28.25 12.673 28.25 28.25v6.75c0 2.761-2.238 5-5 5z"/><path d="m376.75 275h-98.5c-15.577 0-28.25-12.673-28.25-28.25v-6.75c0-2.761 2.239-5 5-5 2.762 0 5 2.239 5 5v6.75c0 10.063 8.188 18.25 18.25 18.25h98.5c10.063 0 18.25-8.187 18.25-18.25v-6.75c0-2.761 2.238-5 5-5s5 2.239 5 5v6.75c0 15.577-12.673 28.25-28.25 28.25z"/><path d="m400 245h-145c-2.761 0-5-2.239-5-5v-175c0-2.761 2.239-5 5-5h145c2.762 0 5 2.239 5 5v175c0 2.761-2.238 5-5 5zm-140-10h135v-165h-135z"/><path d="m316.75 315h-188.5c-15.577 0-28.25-12.673-28.25-28.25v-98.5c0-15.577 12.673-28.25 28.25-28.25h126.75c2.762 0 5 2.239 5 5s-2.238 5-5 5h-126.75c-10.063 0-18.25 8.187-18.25 18.25v98.5c0 10.064 8.187 18.25 18.25 18.25h188.5c10.063 0 18.25-8.186 18.25-18.25v-16.75c0-2.762 2.238-5 5-5s5 2.238 5 5v16.75c0 15.577-12.673 28.25-28.25 28.25z"/><path d="m135 315c-2.761 0-5-2.238-5-5v-145c0-2.761 2.239-5 5-5s5 2.239 5 5v145c0 2.762-2.239 5-5 5z"/><path d="m305 315c-2.762 0-5-2.238-5-5v-40c0-2.762 2.238-5 5-5s5 2.238 5 5v40c0 2.762-2.238 5-5 5z"/><path d="m85 65c-11.028 0-20-8.972-20-20s8.972-20 20-20 20 8.972 20 20-8.972 20-20 20zm0-30c-5.514 0-10 4.486-10 10s4.486 10 10 10 10-4.486 10-10-4.486-10-10-10z"/></g></g></g></svg>