<svg width="55" height="56" viewBox="0 0 55 56" fill="none" xmlns="http://www.w3.org/2000/svg">
<g clip-path="url(#clip0_445_439)">
<path d="M27.498 0.152344L3.32812 10.3679V19.3162C3.32812 34.8173 12.5773 48.7712 26.8535 54.8943L27.498 55.1523L28.1426 54.8943C42.4188 48.7712 51.668 34.8173 51.668 19.3162V10.3679L27.498 0.152344ZM27.498 40.6504C20.3759 40.6504 14.6074 34.8819 14.6074 27.7598C14.6074 20.6376 20.3759 14.8691 27.498 14.8691C34.6202 14.8691 40.3887 20.6376 40.3887 27.7598C40.3887 34.8819 34.6202 40.6504 27.498 40.6504Z" fill="#6AA9FF"/>
<path d="M51.6699 10.3679V19.3162C51.6699 34.8173 42.4207 48.7712 28.1445 54.8943L27.5 55.1523V40.6504C34.6222 40.6504 40.3906 34.8819 40.3906 27.7598C40.3906 20.6376 34.6222 14.8691 27.5 14.8691V0.152344L51.6699 10.3679Z" fill="#4895FF"/>
<path d="M27.498 13.2578C19.506 13.2578 12.9961 19.7673 12.9961 27.7598C12.9961 35.7518 19.506 42.2617 27.498 42.2617C35.4901 42.2617 42 35.7518 42 27.7598C42 19.7673 35.4901 13.2578 27.498 13.2578Z" fill="#E0F4FF"/>
<path d="M42.002 27.7598C42.002 35.7518 35.492 42.2617 27.5 42.2617V13.2578C35.492 13.2578 42.002 19.7673 42.002 27.7598Z" fill="#BBDCFF"/>
<path d="M35.0723 25.665L27.499 33.2706L25.8877 34.8819L19.9258 28.8877L22.1816 26.6318L25.8877 30.3056L27.499 28.6943L32.8164 23.4092L35.0723 25.665Z" fill="#61729B"/>
<path d="M35.0732 25.665L27.5 33.2706V28.6943L32.8174 23.4092L35.0732 25.665Z" fill="#47568C"/>
</g>
<defs>
<clipPath id="clip0_445_439">
<rect width="55" height="55" fill="white" transform="translate(0 0.152344)"/>
</clipPath>
</defs>
</svg>
