<svg width="512" height="512" viewBox="0 0 512 512" fill="none" xmlns="http://www.w3.org/2000/svg">
<path d="M482.731 251.747C473.554 371.218 370.441 463.868 250.649 461.132C238.375 460.852 226.318 459.606 214.569 457.427C211.201 456.802 207.74 457.409 204.843 459.237L134.653 503.54C126.244 508.847 115.171 503.615 113.931 493.749L102.932 406.223C102.542 403.122 101.06 400.285 98.8008 398.125C53.2388 354.56 25.8048 292.287 28.7918 223.598C33.7998 108.401 126.582 13.8334 241.671 6.78142C379.798 -1.68158 493.374 113.197 482.731 251.747Z" fill="#D4E3FF"/>
<path d="M335.666 183.566C335.666 220.858 309.931 252.217 275.258 260.847V289.432C275.258 300.065 266.628 308.694 255.996 308.694C245.364 308.694 236.734 300.064 236.734 289.432V243.972C236.734 233.339 245.364 224.71 255.996 224.71C278.648 224.71 297.141 206.218 297.141 183.566C297.141 160.914 278.648 142.421 255.996 142.421C233.344 142.421 214.852 160.914 214.852 183.566C214.852 194.199 206.222 202.828 195.59 202.828C184.957 202.828 176.328 194.198 176.328 183.566C176.328 139.648 212.079 103.896 255.997 103.896C299.915 103.896 335.666 139.648 335.666 183.566Z" fill="white"/>
<path d="M275.943 351.493C275.943 362.53 267.028 371.474 255.991 371.474C244.954 371.474 236.039 362.53 236.039 351.493C236.039 340.484 244.954 331.541 255.991 331.541C267.028 331.541 275.943 340.484 275.943 351.493Z" fill="white"/>
<path d="M241.52 4.44197L241.521 4.44195C381.15 -4.09695 496.056 112.238 485.302 252.382C475.956 374.182 372.521 467.303 250.597 464.341C250.596 464.341 250.594 464.341 250.593 464.341L250.642 462.342C238.421 462.065 226.249 460.814 214.465 458.626L241.52 4.44197ZM241.52 4.44197C125.81 11.539 31.2532 107.931 26.2185 223.916C23.333 290.351 49.1365 354.739 97.0238 400.572L97.0275 400.576C98.0813 401.579 98.7328 402.873 98.8966 404.193L98.897 404.196L109.675 490.016L241.52 4.44197ZM216.727 446.415L216.732 446.416C227.86 448.483 239.365 449.666 250.923 449.93C365.659 452.543 462.193 365.287 470.938 251.277C481.012 120.031 373.469 10.8091 242.406 18.83C133.987 25.4817 45.3298 115.852 40.6119 224.542L40.6119 224.542C37.9026 286.833 62.0982 347.193 106.98 390.149C110.401 393.416 112.611 397.763 113.192 402.4C113.192 402.4 113.192 402.401 113.192 402.401L123.971 488.22L123.971 488.221C124.524 492.638 129.456 495.025 133.278 492.623L133.28 492.621M216.727 446.415L133.28 492.621M216.727 446.415C211.62 445.478 206.387 446.436 202.04 449.18L202.039 449.181L133.28 492.621M216.727 446.415L133.28 492.621" fill="#2380CD" stroke="#2380CD" stroke-width="4"/>
<path d="M255.996 97.584C208.581 97.584 170.012 136.156 170.012 183.568C170.012 197.669 181.483 209.14 195.589 209.14C209.69 209.14 221.161 197.669 221.161 183.568C221.161 164.362 236.788 148.734 255.995 148.734C275.201 148.734 290.829 164.361 290.829 183.568C290.829 202.775 275.202 218.399 255.995 218.399C241.888 218.399 230.418 229.87 230.418 243.974V289.433C230.418 303.537 241.888 315.008 255.995 315.008C270.096 315.008 281.567 303.537 281.567 289.433V265.634C317.379 254.519 341.978 221.453 341.978 183.567C341.98 136.156 303.411 97.584 255.996 97.584ZM273.734 254.724C270.917 255.424 268.945 257.948 268.945 260.848V289.433C268.945 296.574 263.136 302.384 255.996 302.384C248.855 302.384 243.042 296.573 243.042 289.433V243.974C243.042 236.834 248.855 231.023 255.996 231.023C282.163 231.023 303.453 209.735 303.453 183.568C303.453 157.399 282.162 136.111 255.996 136.111C229.829 136.111 208.539 157.399 208.539 183.568C208.539 190.706 202.73 196.517 195.59 196.517C188.449 196.517 182.636 190.706 182.636 183.568C182.636 143.117 215.548 110.208 255.996 110.208C296.443 110.208 329.356 143.117 329.356 183.568C329.356 217.311 306.482 246.569 273.734 254.724Z" fill="#2380CD" stroke="#2380CD" stroke-width="2"/>
<path d="M255.992 325.229C241.512 325.229 229.73 337.01 229.73 351.494C229.73 365.991 241.511 377.785 255.992 377.785C270.474 377.785 282.254 365.991 282.254 351.494C282.254 337.011 270.473 325.229 255.992 325.229ZM255.992 365.161C248.476 365.161 242.353 359.03 242.353 351.494C242.353 343.972 248.473 337.853 255.992 337.853C263.511 337.853 269.631 343.972 269.631 351.494C269.631 359.03 263.51 365.161 255.992 365.161Z" fill="#2380CD" stroke="#2380CD" stroke-width="2"/>
</svg>
