<svg enable-background="new 0 0 520 520" height="512" viewBox="0 0 520 520" width="512" xmlns="http://www.w3.org/2000/svg"><g id="_x33_9_x2C__Document_x2C__File_x2C__Search"><g><g><path d="m427.5 100h-60v-60h-240v30 20 360h240 60z" fill="#fff"/><path d="m403.97 313.96 12.61 12.62-33.62 33.62-12.61-12.61z" fill="#fff"/><path d="m416.58 326.58 10.92 10.91 26.92 26.92c4.64 4.64 6.96 10.729 6.96 16.81 0 6.09-2.32 12.181-6.96 16.82-7.28 7.28-18.11 8.85-26.92 4.72-2.42-1.14-4.7-2.72-6.71-4.72l-37.83-37.84z" fill="#9bc9ff"/><path d="m389.25 299.24c21.54-36.48 16.64-84.25-14.7-115.58-36.83-36.84-96.359-37.15-133.58-.93-37.52 36.52-38.03 98.17-1.09 135.28 31.34 31.48 79.2 36.431 115.74 14.851l14.729 14.729 33.62-33.63z" fill="#9bc9ff"/><path d="m42.5 320c5.52 0 10 4.48 10 10s-4.48 10-10 10c-5.521 0-10-4.48-10-10s4.479-10 10-10z" fill="#9bc9ff"/><path d="m462.5 440c8.28 0 15 6.72 15 15s-6.72 15-15 15-15-6.72-15-15 6.72-15 15-15z" fill="#9bc9ff"/><path d="m467.5 155c11.05 0 20 8.95 20 20s-8.95 20-20 20-20-8.95-20-20 8.95-20 20-20z" fill="#9bc9ff"/><path d="m367.5 450v40h-280v-400h40v360z" fill="#9bc9ff"/><path d="m307.29 179.58c39.4 0 71.34 31.93 71.34 71.33 0 39.399-31.939 71.34-71.34 71.34-39.39 0-71.33-31.94-71.33-71.34s31.94-71.33 71.33-71.33z" fill="#fff"/><path d="m427.5 100h-60v-60c18.55 18.55 41.45 41.45 60 60z" fill="#9bc9ff"/><g fill="#1e81ce"><circle cx="455" cy="262.5" r="7.5"/><circle cx="450" cy="67.5" r="7.5"/><circle cx="410" cy="477.5" r="7.5"/><circle cx="327.5" cy="70" r="5"/><circle cx="65" cy="417.5" r="7.5"/><circle cx="55" cy="242.5" r="7.5"/><circle cx="40" cy="52.5" r="7.5"/><path d="m427.5 455h-300c-2.762 0-5-2.238-5-5v-410c0-2.761 2.238-5 5-5h240c1.326 0 2.598.527 3.535 1.464l60 60c.938.938 1.465 2.209 1.465 3.536v237.49c0 2.762-2.238 5-5 5s-5-2.238-5-5v-235.419l-57.071-57.071h-232.929v400h290v-42.24c0-2.762 2.238-5.02 5-5.02s5 2.218 5 4.979v47.281c0 2.762-2.238 5-5 5z"/><path d="m437.602 410.004c-4.206 0-8.434-.939-12.225-2.717-3.006-1.415-5.733-3.333-8.115-5.703l-62.493-62.503c-14.526 7.825-30.857 11.944-47.478 11.944-26.825 0-52.024-10.473-70.956-29.488-18.808-18.895-29.048-44.253-28.834-71.405.215-27.166 10.862-52.376 29.98-70.985 18.788-18.283 43.58-28.352 69.81-28.352 26.744 0 51.886 10.416 70.794 29.33 31.4 31.39 38.299 79.499 17.385 118.266l62.484 62.484c5.433 5.433 8.425 12.657 8.425 20.345 0 7.694-2.992 14.923-8.425 20.355-5.434 5.436-12.662 8.429-20.352 8.429zm-81.984-82.144c1.294 0 2.574.501 3.537 1.465l65.171 65.18c1.558 1.551 3.346 2.81 5.304 3.731 2.464 1.155 5.224 1.768 7.973 1.768 5.019 0 9.735-1.953 13.282-5.499 3.543-3.544 5.495-8.262 5.495-13.285 0-5.016-1.952-9.73-5.495-13.274l-65.17-65.17c-1.613-1.612-1.931-4.113-.77-6.077 20.895-35.387 15.166-80.416-13.93-109.502-17.021-17.025-39.65-26.401-63.723-26.401-23.61 0-45.925 9.063-62.835 25.518-17.188 16.73-26.762 39.423-26.955 63.897-.193 24.46 9.013 47.285 25.921 64.271 17.041 17.116 39.724 26.543 63.869 26.543 16.14 0 31.972-4.313 45.785-12.471.791-.466 1.67-.694 2.541-.694z"/><path d="m307.29 327.25c-42.089 0-76.33-34.246-76.33-76.34 0-42.088 34.241-76.33 76.33-76.33 42.094 0 76.34 34.242 76.34 76.33 0 42.094-34.246 76.34-76.34 76.34zm0-142.67c-36.574 0-66.33 29.755-66.33 66.33 0 36.58 29.756 66.34 66.33 66.34 36.58 0 66.34-29.76 66.34-66.34 0-36.575-29.76-66.33-66.34-66.33z"/><path d="m370.35 352.59c-1.279 0-2.559-.488-3.535-1.464-1.953-1.952-1.953-5.118-.001-7.071l33.62-33.63c1.953-1.953 5.118-1.952 7.071-.001 1.953 1.952 1.953 5.118.001 7.071l-33.62 33.63c-.977.977-2.257 1.465-3.536 1.465z"/><path d="m382.96 365.2c-1.279 0-2.56-.488-3.535-1.465-1.953-1.952-1.953-5.118 0-7.07l33.62-33.62c1.951-1.953 5.119-1.953 7.07 0 1.953 1.952 1.953 5.118 0 7.07l-33.62 33.62c-.975.977-2.256 1.465-3.535 1.465z"/><path d="m367.5 495h-280c-2.762 0-5-2.238-5-5v-400c0-2.761 2.238-5 5-5h40c2.761 0 5 2.239 5 5s-2.239 5-5 5h-35v390h270v-35c0-2.762 2.238-5 5-5s5 2.238 5 5v40c0 2.762-2.238 5-5 5z"/><path d="m427.5 105h-60c-2.762 0-5-2.239-5-5v-60c0-2.761 2.238-5 5-5s5 2.239 5 5v55h55c2.762 0 5 2.239 5 5s-2.238 5-5 5z"/><path d="m192.5 230h-45c-2.762 0-5-2.239-5-5s2.238-5 5-5h45c2.761 0 5 2.239 5 5s-2.239 5-5 5z"/><path d="m192.5 250h-45c-2.762 0-5-2.239-5-5s2.238-5 5-5h45c2.761 0 5 2.239 5 5s-2.239 5-5 5z"/><path d="m192.5 270h-45c-2.762 0-5-2.238-5-5s2.238-5 5-5h45c2.761 0 5 2.238 5 5s-2.239 5-5 5z"/><path d="m192.5 290h-45c-2.762 0-5-2.238-5-5s2.238-5 5-5h45c2.761 0 5 2.238 5 5s-2.239 5-5 5z"/><path d="m202.5 310h-55c-2.762 0-5-2.238-5-5s2.238-5 5-5h55c2.761 0 5 2.238 5 5s-2.239 5-5 5z"/><path d="m217.5 330h-70c-2.762 0-5-2.238-5-5s2.238-5 5-5h70c2.761 0 5 2.238 5 5s-2.239 5-5 5z"/><path d="m242.5 350h-95c-2.762 0-5-2.238-5-5s2.238-5 5-5h95c2.761 0 5 2.238 5 5s-2.239 5-5 5z"/><path d="m302.5 370h-155c-2.762 0-5-2.238-5-5s2.238-5 5-5h155c2.762 0 5 2.238 5 5s-2.238 5-5 5z"/><path d="m357.5 390h-210c-2.762 0-5-2.238-5-5s2.238-5 5-5h210c2.762 0 5 2.238 5 5s-2.238 5-5 5z"/><path d="m387.5 410h-240c-2.762 0-5-2.238-5-5s2.238-5 5-5h240c2.762 0 5 2.238 5 5s-2.238 5-5 5z"/><path d="m387.5 430h-240c-2.762 0-5-2.238-5-5s2.238-5 5-5h240c2.762 0 5 2.238 5 5s-2.238 5-5 5z"/><path d="m312.5 75h-185c-2.762 0-5-2.239-5-5s2.238-5 5-5h185c2.762 0 5 2.239 5 5s-2.238 5-5 5z"/><path d="m42.5 345c-8.271 0-15-6.728-15-15s6.729-15 15-15 15 6.728 15 15-6.729 15-15 15zm0-20c-2.757 0-5 2.243-5 5s2.243 5 5 5 5-2.243 5-5-2.243-5-5-5z"/><path d="m462.5 475c-11.028 0-20-8.972-20-20s8.972-20 20-20 20 8.972 20 20-8.972 20-20 20zm0-30c-5.514 0-10 4.486-10 10s4.486 10 10 10 10-4.486 10-10-4.486-10-10-10z"/><path d="m467.5 200c-13.785 0-25-11.215-25-25s11.215-25 25-25 25 11.215 25 25-11.215 25-25 25zm0-40c-8.272 0-15 6.729-15 15s6.728 15 15 15c8.271 0 15-6.729 15-15s-6.729-15-15-15z"/></g></g></g></g></svg>