<svg enable-background="new 0 0 512 512" height="512" viewBox="0 0 512 512" width="512" xmlns="http://www.w3.org/2000/svg"><g id="_x31_1_Information"><g><path d="m500.851 256.052c0 135.21-109.591 244.802-244.904 244.802-135.21 0-244.802-109.592-244.802-244.802 0-135.312 109.592-244.904 244.802-244.904 135.313.001 244.904 109.592 244.904 244.904z" fill="#9ac8ff"/><path d="m255.946 450.023c-106.954 0-193.967-87.013-193.967-193.972 0-107.013 87.013-194.071 193.967-194.071 107.013 0 194.076 87.058 194.076 194.071 0 106.959-87.063 193.972-194.076 193.972z" fill="#fff"/><path d="m281.937 155.15c0 14.396-11.578 25.975-25.898 25.975s-25.975-11.578-25.975-25.975c0-14.32 11.654-25.898 25.975-25.898s25.898 11.579 25.898 25.898z" fill="#9ac8ff"/><path d="m298.885 364.774v17.976h-73.125v-17.976c0-8.708 7.059-15.767 15.768-15.767h2.743v-106.945h-16.638c-6.867 0-13.229-4.696-14.329-11.475-1.401-8.64 5.224-16.099 13.599-16.099h40.98c8.414 0 15.234 6.821 15.234 15.234v119.284c8.708.001 15.768 7.06 15.768 15.768z" fill="#9ac8ff"/><g fill="#2380cd"><path d="m255.946 3.248c-139.338 0-252.698 113.41-252.698 252.806 0 139.338 113.359 252.698 252.698 252.698 139.396 0 252.806-113.359 252.806-252.698 0-139.396-113.41-252.806-252.806-252.806zm0 489.707c-130.626 0-236.901-106.275-236.901-236.901 0-130.688 106.275-237.009 236.901-237.009 130.688 0 237.009 106.321 237.009 237.009 0 130.626-106.321 236.901-237.009 236.901z"/><path d="m255.946 54.08c-111.308 0-201.866 90.605-201.866 201.97 0 111.312 90.559 201.87 201.866 201.87 111.369 0 201.974-90.559 201.974-201.87 0-111.365-90.605-201.97-201.974-201.97zm0 388.044c-102.599 0-186.07-83.474-186.07-186.073 0-102.657 83.47-186.174 186.07-186.174 102.657 0 186.178 83.516 186.178 186.174 0 102.598-83.521 186.073-186.178 186.073z"/><path d="m256.039 189.025c18.635 0 33.796-15.195 33.796-33.873 0-18.635-15.161-33.796-33.796-33.796-18.678 0-33.873 15.161-33.873 33.796-.001 18.678 15.195 33.873 33.873 33.873zm0-51.873c9.923 0 17.999 8.076 17.999 17.999 0 9.966-8.076 18.076-17.999 18.076-9.966 0-18.076-8.111-18.076-18.076-.001-9.923 8.11-17.999 18.076-17.999z"/><path d="m291.015 342.463v-112.742c0-12.754-10.378-23.132-23.132-23.132h-40.981c-13.296 0-23.559 11.871-21.397 25.265 1.678 10.324 11.188 18.107 22.13 18.107h8.739v91.712c-10.579 2.36-18.512 11.821-18.512 23.102v17.976c0 4.362 3.537 7.898 7.898 7.898h73.127c4.362 0 7.898-3.537 7.898-7.898v-17.976c0-10.283-6.591-19.053-15.77-22.312zm-.027 32.388h-57.33v-10.078c0-4.339 3.529-7.868 7.868-7.868h2.746c4.362 0 7.898-3.537 7.898-7.898v-106.945c0-4.362-3.537-7.898-7.898-7.898h-16.638c-3.224 0-6.094-2.125-6.533-4.836-.619-3.821 2.266-6.942 5.8-6.942h40.981c4.046 0 7.335 3.29 7.335 7.335v119.287c0 4.362 3.537 7.898 7.898 7.898 4.339 0 7.871 3.529 7.871 7.868v10.077z"/></g></g></g></svg>