<svg width="40" height="17" viewBox="0 0 40 17" fill="none" xmlns="http://www.w3.org/2000/svg">
<path d="M39.4316 2.27801L37.3856 10.319L32.7755 6.62901L39.4316 2.27801ZM39.1176 0.583008H19.4095H18.7405L26.6055 7.47401L39.1176 0.583008ZM18.1975 2.03201L16.2475 9.53301L21.7195 5.32401L18.1975 2.03201ZM26.6465 9.91401C26.5455 9.98201 26.4185 10.018 26.2975 10.018C26.1765 10.018 26.0555 9.98301 25.9505 9.91401L22.3695 6.93201L15.6205 12.161C15.5665 12.2 15.5105 12.23 15.4475 12.251V12.32L14.3145 16.417H35.9255L36.8636 12.249L36.9026 12.05L31.2505 7.47001L26.6465 9.91401ZM15.6744 4H4.89985L4.55505 5.32401H15.3376L15.6744 4ZM0.570312 14H13.0622L13.4519 12.5H0.984375L0.570312 14ZM14.5 8.47731L14.8789 7.06032H8.35605L7.97011 8.47731H14.5Z" fill="white"/>
</svg>
