<svg width="512" height="512" viewBox="0 0 512 512" fill="none" xmlns="http://www.w3.org/2000/svg">
<path d="M487.647 249.63V434.312C487.647 469.262 459.284 497.519 424.387 497.519H87.582C52.685 497.519 24.375 469.262 24.375 434.312V248.834C25.437 249.418 26.553 249.843 27.721 250.268C93.584 273.585 158.013 287.342 221.008 291.644L227.382 325.054C228.551 331.109 233.809 335.518 240.077 335.518H271.946C278.16 335.518 283.472 331.11 284.587 325.054L290.908 292.441C357.302 289.466 422.103 275.497 485.257 250.692C486.106 250.374 486.903 250.002 487.647 249.63Z" fill="#D7E9FF"/>
<path d="M505.643 127.908V220.986C505.643 233.259 498.603 244.349 487.638 249.645C486.89 250.018 486.08 250.392 485.271 250.704C422.097 275.5 357.304 289.455 290.89 292.446L296.186 264.722C297.681 256.685 291.575 249.334 283.476 249.334H228.526C220.427 249.334 214.321 256.685 215.817 264.722L220.988 291.637C158.001 287.338 93.5814 273.569 27.7284 250.268C26.5444 249.832 25.4234 249.396 24.3644 248.835C13.4614 243.54 6.35938 232.388 6.35938 220.114V127.908C6.35938 109.84 21.0004 95.2617 39.0054 95.2617H472.998C491.002 95.2617 505.643 109.84 505.643 127.908Z" fill="#94C1FF"/>
<path d="M319.061 14.4336H192.965C170.922 14.4336 152.969 32.3876 152.969 54.4296V95.2756H184.095V54.4296C184.095 49.5966 188.079 45.6126 192.965 45.6126H319.061C323.895 45.6126 327.878 49.5966 327.878 54.4296V95.2756H359.057V54.4296C359.057 32.3866 341.104 14.4336 319.061 14.4336Z" fill="#D7E9FF"/>
<path d="M296.218 264.709L284.622 325.009C283.462 331.138 278.161 335.527 271.949 335.527H240.06C233.848 335.527 228.547 331.138 227.387 325.009L215.791 264.709C214.3 256.675 220.429 249.303 228.546 249.303H283.462C291.579 249.302 297.709 256.674 296.218 264.709Z" fill="white"/>
<path d="M473.001 89.9495H364.359V54.4525C364.359 29.4715 344.031 9.14648 319.05 9.14648H192.952C167.971 9.14648 147.643 29.4715 147.643 54.4525V89.9505H39.0059C18.0759 89.9505 1.04688 106.976 1.04688 127.906V220.114C1.04688 233.154 8.09487 245.269 19.0509 251.891V434.305C19.0509 472.103 49.8049 502.854 87.6029 502.854H424.403C462.201 502.854 492.95 472.103 492.95 434.305V252.698C503.957 246.029 510.954 233.974 510.954 220.984V127.905C510.955 106.976 493.931 89.9495 473.001 89.9495ZM158.267 54.4525C158.267 35.3275 173.828 19.7695 192.953 19.7695H319.05C338.175 19.7695 353.736 35.3285 353.736 54.4525V89.9505H333.211V54.4525C333.211 46.6455 326.857 40.2975 319.05 40.2975H192.952C185.145 40.2975 178.797 46.6465 178.797 54.4525V89.9505H158.267V54.4525ZM322.587 54.4525V89.9505H189.42V54.4525C189.42 52.5385 191.038 50.9205 192.952 50.9205H319.049C320.969 50.9205 322.587 52.5385 322.587 54.4525ZM482.328 434.305C482.328 466.247 456.346 492.231 424.404 492.231H87.6039C55.6619 492.231 29.6749 466.246 29.6749 434.305V256.578C89.1009 277.287 153.252 291.917 216.522 296.641C222.557 326.956 221.756 326.118 223.466 329.97C226.525 336.914 233.162 340.837 240.057 340.837H271.947C280.844 340.837 288.247 334.415 289.837 326.01L294.595 301.277L295.315 297.549C359.681 294.194 425.113 279.468 482.329 257.544V434.305H482.328ZM228.525 254.644H283.477C288.257 254.644 291.849 258.993 290.967 263.727C290.862 264.272 279.252 324.706 279.374 324.072C278.706 327.718 275.273 330.184 271.951 330.184H240.051C236.854 330.184 233.315 327.822 232.623 324.03C231.528 318.331 221.947 268.475 221.04 263.754C220.154 258.994 223.74 254.644 228.525 254.644ZM500.332 220.985C500.332 231.087 494.445 240.46 485.264 244.892C470.075 252.552 389.182 281.51 297.399 286.692L301.435 265.71C301.435 265.697 301.435 265.687 301.44 265.674C303.532 254.352 294.879 243.99 283.462 243.99H228.547C217.144 243.99 208.462 254.334 210.574 265.711L214.425 285.734C140.854 279.893 42.2589 252.242 26.6879 244.057C17.5639 239.625 11.6709 230.226 11.6709 220.114V127.906C11.6709 112.835 23.9329 100.573 39.0069 100.573H473.002C488.07 100.573 500.333 112.835 500.333 127.906V220.985H500.332Z" fill="#418CFE"/>
</svg>
