<svg enable-background="new 0 0 512 512" height="512" viewBox="0 0 512 512" width="512" xmlns="http://www.w3.org/2000/svg"><g id="_x33_7_x2C__Time_x2C__coach_x2C__stopwatch_x2C__timer_x2C__chronometer"><g id="XMLID_3950_"><path id="XMLID_3978_" d="m267 96c107.7 0 195 87.3 195 195 0 107.69-87.3 195-195 195-107.69 0-195-87.31-195-195 0-107.7 87.31-195 195-195z" fill="#a4c2f7"/><path id="XMLID_3976_" d="m425.72 291c0 87.66-71.06 158.72-158.72 158.72s-158.72-71.06-158.72-158.72 71.06-158.72 158.72-158.72 158.72 71.06 158.72 158.72z" fill="#fff"/><path id="XMLID_3975_" d="m267 272.05c10.47 0 18.95 8.48 18.95 18.95 0 10.46-8.48 18.95-18.95 18.95s-18.95-8.49-18.95-18.95c0-10.47 8.48-18.95 18.95-18.95z" fill="#fff"/><g fill="#418cfe"><path id="XMLID_3974_" d="m486 396c5.52 0 10 4.47 10 10 0 5.52-4.48 10-10 10s-10-4.48-10-10c0-5.53 4.48-10 10-10z"/><path id="XMLID_3973_" d="m457 36c8.29 0 15 6.71 15 15 0 8.28-6.71 15-15 15-8.28 0-15-6.72-15-15 0-8.29 6.72-15 15-15z"/><path id="XMLID_3972_" d="m412 476c5.52 0 10 4.47 10 10 0 5.52-4.48 10-10 10s-10-4.48-10-10c0-5.53 4.48-10 10-10z"/><path id="XMLID_3971_" d="m122 476c5.52 0 10 4.47 10 10 0 5.52-4.48 10-10 10s-10-4.48-10-10c0-5.53 4.48-10 10-10z"/><path id="XMLID_3970_" d="m112 16c5.52 0 10 4.47 10 10 0 5.52-4.48 10-10 10s-10-4.48-10-10c0-5.53 4.48-10 10-10z"/><path id="XMLID_3969_" d="m31 396c8.29 0 15 6.71 15 15 0 8.28-6.71 15-15 15-8.28 0-15-6.72-15-15 0-8.29 6.72-15 15-15z"/><path id="XMLID_3966_" d="m267 101c-22.056 0-40-17.944-40-40s17.944-40 40-40 40 17.944 40 40-17.944 40-40 40zm0-70c-16.542 0-30 13.458-30 30s13.458 30 30 30 30-13.458 30-30-13.458-30-30-30z"/><path id="XMLID_3963_" d="m267 491c-110.28 0-200-89.72-200-200s89.72-200 200-200 200 89.72 200 200-89.72 200-200 200zm0-390c-104.767 0-190 85.233-190 190s85.233 190 190 190 190-85.233 190-190-85.233-190-190-190z"/><path id="XMLID_3960_" d="m267 454.72c-90.275 0-163.72-73.444-163.72-163.72s73.445-163.72 163.72-163.72 163.72 73.445 163.72 163.72-73.444 163.72-163.72 163.72zm0-317.44c-84.762 0-153.72 68.958-153.72 153.72s68.958 153.72 153.72 153.72 153.72-68.958 153.72-153.72-68.958-153.72-153.72-153.72z"/><path id="XMLID_3957_" d="m267 314.95c-13.206 0-23.95-10.744-23.95-23.95s10.744-23.95 23.95-23.95 23.95 10.744 23.95 23.95-10.744 23.95-23.95 23.95zm0-37.9c-7.692 0-13.95 6.258-13.95 13.95s6.258 13.95 13.95 13.95 13.95-6.258 13.95-13.95-6.257-13.95-13.95-13.95z"/><path id="XMLID_3956_" d="m267 179.43c-2.761 0-5-2.238-5-5v-42.15c0-2.762 2.239-5 5-5 2.762 0 5 2.238 5 5v42.149c0 2.762-2.238 5.001-5 5.001z"/><path id="XMLID_3955_" d="m267 454.72c-2.761 0-5-2.238-5-5v-42.16c0-2.762 2.239-5 5-5 2.762 0 5 2.238 5 5v42.159c0 2.762-2.238 5.001-5 5.001z"/><path id="XMLID_3954_" d="m425.72 296h-42.16c-2.762 0-5-2.238-5-5s2.238-5 5-5h42.16c2.762 0 5 2.238 5 5s-2.238 5-5 5z"/><path id="XMLID_3953_" d="m150.44 296h-42.16c-2.761 0-5-2.238-5-5s2.239-5 5-5h42.16c2.761 0 5 2.238 5 5s-2.239 5-5 5z"/><path id="XMLID_3952_" d="m267 277.05c-2.761 0-5-2.238-5-5v-58.16c0-2.762 2.239-5 5-5 2.762 0 5 2.238 5 5v58.16c0 2.761-2.238 5-5 5z"/><path id="XMLID_3951_" d="m248.05 296h-37.37c-2.761 0-5-2.238-5-5s2.239-5 5-5h37.37c2.761 0 5 2.238 5 5s-2.239 5-5 5z"/></g></g></g></svg>