<svg height="512" viewBox="0 0 64 64" width="512" xmlns="http://www.w3.org/2000/svg"><g fill="#9bc9ff"><path d="m52.142 59.213a5 5 0 0 0 7.071-7.071l-14.263-14.263-7.071 7.071z"/><path d="m46.364 36.464-2.828-2.828-9.9 9.9 2.828 2.828 1.415-1.414 7.071-7.071z"/><path d="m37.879 44.95 7.071-7.071z"/><path d="m13.44 42.7a8.992 8.992 0 0 0 -9.19 12.81l5.51-5.51h4.24v4.24l-5.51 5.51a8.992 8.992 0 0 0 12.81-9.19 3.982 3.982 0 0 1 1.13-3.33l24.8-24.8a3.982 3.982 0 0 1 3.33-1.13 8.992 8.992 0 0 0 9.19-12.81l-5.51 5.51h-4.24v-4.24l5.51-5.51a8.992 8.992 0 0 0 -12.81 9.19 3.982 3.982 0 0 1 -1.13 3.33l-10.985 10.985v.005-.005l-2.83 2.83h.005-.005l-10.985 10.985a3.982 3.982 0 0 1 -3.33 1.13z"/></g><path d="m59.92 51.435-13.556-13.556.707-.708a1 1 0 0 0 0-1.414l-2.829-2.828a1 1 0 0 0 -1.414 0l-2.828 2.828-2.342-2.342 10.284-10.282a2.98 2.98 0 0 1 2.5-.84 9.991 9.991 0 0 0 10.209-14.236 1 1 0 0 0 -1.608-.274l-5.217 5.217h-2.826v-2.826l5.217-5.217a1 1 0 0 0 -.274-1.608 9.992 9.992 0 0 0 -14.236 10.212 2.974 2.974 0 0 1 -.844 2.5l-10.278 10.28-14.914-14.914.351-2.938a1 1 0 0 0 -.512-1l-8.489-4.646a1 1 0 0 0 -1.188.17l-2.82 2.82a1 1 0 0 0 -.17 1.188l4.65 8.489a1 1 0 0 0 1 .512l2.938-.351 14.91 14.914-10.282 10.282a2.974 2.974 0 0 1 -2.5.84 9.991 9.991 0 0 0 -10.21 14.236 1 1 0 0 0 1.608.274l5.217-5.217h2.826v2.826l-5.217 5.217a1 1 0 0 0 .274 1.608 9.991 9.991 0 0 0 14.235-10.212 2.975 2.975 0 0 1 .845-2.5l10.278-10.28 2.342 2.341-2.828 2.828a1 1 0 0 0 0 1.414l2.829 2.828a1 1 0 0 0 1.414 0l.707-.707 13.557 13.557a6 6 0 1 0 8.484-8.485zm-47.42-37.522a1 1 0 0 0 -.826-.286l-2.749.33-3.967-7.24 1.759-1.759 7.24 3.964-.33 2.749a1 1 0 0 0 .286.826l15.258 15.258-1.416 1.416zm9.23 32.606a4.951 4.951 0 0 0 -1.42 4.157 7.994 7.994 0 0 1 -10.01 8.683l4.411-4.412a1 1 0 0 0 .289-.707v-4.24a1 1 0 0 0 -1-1h-4.24a1 1 0 0 0 -.707.293l-4.412 4.407a7.993 7.993 0 0 1 8.678-10.011 4.961 4.961 0 0 0 4.158-1.416l24.8-24.8a4.957 4.957 0 0 0 1.42-4.157 7.994 7.994 0 0 1 10.003-8.675l-4.407 4.412a1 1 0 0 0 -.293.707v4.24a1 1 0 0 0 1 1h4.24a1 1 0 0 0 .707-.293l4.411-4.407a7.992 7.992 0 0 1 -8.677 10.012 4.961 4.961 0 0 0 -4.158 1.416zm14.518-11.69 2.341 2.341-1.419 1.416-2.341-2.341zm-1.2 8.707 8.485-8.486 1.415 1.414-8.483 8.486zm23.456 14.97a4.1 4.1 0 0 1 -5.656 0l-13.555-13.556 5.657-5.657 13.556 13.556a4 4 0 0 1 0 5.657z" fill="#1e81ce"/></svg>