<svg width="2190" height="2190" viewBox="0 0 2190 2190" fill="none" xmlns="http://www.w3.org/2000/svg">
<path d="M1874.42 234.768C1744.7 186.15 1408.9 73 1095 73C781.101 73 445.301 186.15 315.58 234.768C308.615 237.338 302.613 241.994 298.393 248.102C294.173 254.21 291.941 261.472 292.001 268.896V1145.77C292.238 1265.63 320.471 1383.77 374.45 1490.78C428.429 1597.8 506.66 1690.72 602.908 1762.15L1073.28 2109.7C1079.57 2114.35 1087.18 2116.86 1095 2116.86C1102.82 2116.86 1110.43 2114.35 1116.72 2109.7L1587.09 1762C1683.32 1690.59 1761.54 1597.69 1815.52 1490.7C1869.5 1383.72 1897.74 1265.6 1898 1145.77V268.896C1898.06 261.472 1895.83 254.21 1891.61 248.102C1887.39 241.994 1881.39 237.338 1874.42 234.768ZM1825 1145.77C1824.78 1254.21 1799.24 1361.11 1750.4 1457.93C1701.56 1554.75 1630.78 1638.83 1543.7 1703.46L1138.55 2003.05C1126.01 2012.39 1110.8 2017.44 1095.17 2017.44C1079.53 2017.44 1064.32 2012.39 1051.79 2003.05L646.635 1703.49C559.489 1638.89 488.642 1554.83 439.744 1458C390.847 1361.17 365.252 1254.25 365.001 1145.77V346.13C365 330.876 369.776 316.006 378.66 303.607C387.544 291.207 400.088 281.902 414.532 276.999C558.634 228.089 838.662 146 1095 146C1351.34 146 1631.55 228.089 1775.51 277.035C1789.94 281.943 1802.47 291.245 1811.35 303.637C1820.22 316.028 1825 330.887 1825 346.13V1145.77Z" fill="black"/>
<path fill-rule="evenodd" clip-rule="evenodd" d="M418.19 321.317C412.696 326.541 408.295 332.805 405.241 339.744L404.222 342.06C401.356 348.57 399.502 355.48 398.724 362.55L398 369.117V390.291L399.899 652.747V769.941L399.156 808.511C398.521 841.453 425.052 868.5 458 868.5H717.462H974.441C1028.87 868.5 1073 824.374 1073 769.941V523.242V234.365C1073 206.415 1051.07 183.379 1023.16 182L922.525 190.863L717.462 227.302L573.158 264.725L507.177 284.914L470.627 296.24L447.191 304.233C439.751 306.77 432.71 310.352 426.279 314.871L424.725 315.963C422.418 317.584 420.234 319.374 418.19 321.317ZM906.5 474.5H927L922 379H544.5V474.5H563C563.333 456.833 566 443 571 433C576 423 582.5 415.667 590.5 411C598.833 406 608.5 403 619.5 402C630.833 401 643 400.5 656 400.5C666.667 400.5 675.167 400.833 681.5 401.5C687.833 401.833 692.667 402.667 696 404C699.667 405.333 702 407 703 409C704.333 410.667 705 413 705 416V683.5C705 694.167 704.167 703.333 702.5 711C701.167 718.667 698.167 725 693.5 730C689.167 734.667 682.667 738.333 674 741C665.333 743.333 654 744.667 640 745V764H829V745C815 744.667 803.667 743.333 795 741C786.667 738.333 780.167 734.667 775.5 730C771.167 725 768.167 718.667 766.5 711C765.167 703.333 764.5 694.167 764.5 683.5V416C764.5 413 765 410.667 766 409C767.333 407 770 405.333 774 404C778 402.667 783.667 401.833 791 401.5C798.667 400.833 808.667 400.5 821 400.5C835.333 400.5 847.667 401.667 858 404C868.333 406.333 876.833 410.333 883.5 416C890.5 421.333 895.833 428.833 899.5 438.5C903.167 448.167 905.5 460.167 906.5 474.5Z" fill="black"/>
<path d="M1597 609C1597 635.333 1594.33 658.5 1589 678.5C1584 698.5 1575.67 715.167 1564 728.5C1552.67 741.833 1537.83 752 1519.5 759C1501.17 765.667 1479 769 1453 769C1428.33 769 1406.83 766.667 1388.5 762C1370.17 757 1354.83 749 1342.5 738C1330.17 726.667 1321 712 1315 694C1309 676 1306 653.833 1306 627.5V495.5C1306 470.833 1305.33 451.833 1304 438.5C1303 425.167 1299.67 415.333 1294 409C1290 404.667 1284.5 401.833 1277.5 400.5C1270.83 398.833 1261.83 398 1250.5 398V379H1421V398C1409.67 398 1400.5 398.667 1393.5 400C1386.5 401.333 1381 404.667 1377 410C1372.33 416 1369.33 425.667 1368 439C1366.67 452 1366 470.833 1366 495.5V631.5C1366 648.5 1367.67 663.667 1371 677C1374.67 690 1380.5 701.167 1388.5 710.5C1396.5 719.5 1406.83 726.333 1419.5 731C1432.5 735.667 1448.33 738 1467 738C1500.33 738 1525.33 728.833 1542 710.5C1558.67 691.833 1567 664.5 1567 628.5V508C1567 478.333 1565.83 455.833 1563.5 440.5C1561.17 425.167 1556.83 414.333 1550.5 408C1545.83 403.667 1540 401 1533 400C1526 398.667 1517.33 398 1507 398V379H1652V398C1641.33 398 1632.5 398.833 1625.5 400.5C1618.83 402.167 1613.5 405.833 1609.5 411.5C1604.5 418.5 1601.17 429.5 1599.5 444.5C1597.83 459.167 1597 480.333 1597 508V609Z" fill="black"/>
<path d="M881.5 1396.5C898.833 1420.17 920 1432 945 1432V1451H774.5V1432C789.5 1432 799.667 1430.67 805 1428C810.667 1425 813.5 1421 813.5 1416C813.5 1413.67 813.167 1411.33 812.5 1409C812.167 1406.33 811 1403.17 809 1399.5C807.333 1395.83 804.833 1391.33 801.5 1386C798.167 1380.67 793.667 1373.67 788 1365L731 1280L688 1334C677.667 1347 669 1358.17 662 1367.5C655 1376.83 649.333 1384.83 645 1391.5C641 1398.17 638 1403.67 636 1408C634.333 1412.33 633.5 1416 633.5 1419C633.5 1424 636.333 1427.5 642 1429.5C647.667 1431.17 658.333 1432 674 1432V1451H535V1432C543 1432 550.167 1431.17 556.5 1429.5C563.167 1427.83 569.667 1425.17 576 1421.5C582.333 1417.5 588.667 1412.33 595 1406C601.667 1399.33 608.833 1391.17 616.5 1381.5L714.5 1256.5L613 1118C604.667 1106.33 595.333 1098 585 1093C574.667 1087.67 562.333 1085 548 1085V1066H714V1085C692.333 1085 681.5 1091.5 681.5 1104.5C681.5 1112.83 686.167 1123.83 695.5 1137.5L750 1218.5L799 1156.5C808.333 1144.83 814.833 1135.33 818.5 1128C822.167 1120.67 824 1113.67 824 1107C824 1098.67 821.167 1093 815.5 1090C810.167 1086.67 800.5 1085 786.5 1085V1066H924V1085C916 1085 909 1085.67 903 1087C897.333 1088 891.833 1090.33 886.5 1094C881.167 1097.67 875.333 1103 869 1110C862.667 1117 855 1126.33 846 1138L766.5 1240.5L881.5 1396.5Z" fill="black"/>
<path fill-rule="evenodd" clip-rule="evenodd" d="M1771.4 1314.5L1780.4 1268L1786.77 1227.77C1787.59 1222.6 1788 1217.37 1788 1212.13V1157.44V1098.5V1048.69V950.274V925.5C1788 900.647 1767.85 880.5 1743 880.5H1470.5H1184.77C1146.24 880.5 1115 911.739 1115 950.274V1157.44V1671.5V1895V1925.5C1115 1939.98 1131.01 1948.72 1143.19 1940.9L1189 1911.5L1365.5 1781L1494 1684.5L1575.12 1625.84C1580.03 1622.29 1584.61 1618.29 1588.8 1613.91L1626 1575L1670.5 1521L1701 1473L1738.66 1405.3C1741.55 1400.11 1743.97 1394.67 1745.89 1389.06L1771.4 1314.5ZM1533.5 1076.5C1508.17 1066.17 1480.83 1061 1451.5 1061C1422.17 1061 1394.83 1066.17 1369.5 1076.5C1344.17 1086.83 1322.17 1101 1303.5 1119C1284.83 1137 1270.17 1158.17 1259.5 1182.5C1248.83 1206.83 1243.5 1233.17 1243.5 1261.5C1243.5 1288.5 1248.83 1313.83 1259.5 1337.5C1270.5 1361.17 1285.33 1381.83 1304 1399.5C1322.67 1416.83 1344.67 1430.67 1370 1441C1395.33 1451 1422.5 1456 1451.5 1456C1480.5 1456 1507.67 1451 1533 1441C1558.33 1430.67 1580.33 1416.83 1599 1399.5C1617.67 1381.83 1632.33 1361.17 1643 1337.5C1654 1313.83 1659.5 1288.5 1659.5 1261.5C1659.5 1233.17 1654.17 1206.83 1643.5 1182.5C1632.83 1158.17 1618.17 1137 1599.5 1119C1580.83 1101 1558.83 1086.83 1533.5 1076.5ZM1510.5 1417C1493.17 1424.67 1473.5 1428.5 1451.5 1428.5C1429.5 1428.5 1409.67 1424.67 1392 1417C1374.33 1409.33 1359.33 1398.33 1347 1384C1334.67 1369.67 1325.17 1352.33 1318.5 1332C1311.83 1311.33 1308.5 1288.33 1308.5 1263C1308.5 1236.33 1311.83 1212.33 1318.5 1191C1325.17 1169.33 1334.67 1151 1347 1136C1359.33 1120.67 1374.33 1109 1392 1101C1409.67 1092.67 1429.5 1088.5 1451.5 1088.5C1473.5 1088.5 1493.33 1092.67 1511 1101C1528.67 1109 1543.67 1120.67 1556 1136C1568.33 1151 1577.83 1169.33 1584.5 1191C1591.17 1212.33 1594.5 1236.33 1594.5 1263C1594.5 1288.33 1591.17 1311.33 1584.5 1332C1577.83 1352.33 1568.17 1369.67 1555.5 1384C1543.17 1398.33 1528.17 1409.33 1510.5 1417Z" fill="black"/>
</svg>
