<svg clip-rule="evenodd" fill-rule="evenodd" height="512" stroke-linejoin="round" stroke-miterlimit="2" viewBox="0 0 64 64" width="512" xmlns="http://www.w3.org/2000/svg"><g id="big-up-arrow"><path d="m22 30h-10c-.776 0-1.482-.449-1.811-1.152-.329-.702-.222-1.532.275-2.128l20-24c.38-.456.942-.72 1.536-.72s1.156.264 1.536.72l20 24c.497.596.604 1.426.275 2.128-.329.703-1.035 1.152-1.811 1.152h-10v18c0 1.104-.896 2-2 2s-2-.896-2-2v-20c0-1.105.895-2 2-2h7.73l-15.73-18.876-15.73 18.876h7.73c1.105 0 2 .895 2 2v32c0 1.104-.896 2-2 2s-2-.896-2-2z"/><path d="m38 56v4c0 1.104.896 2 2 2s2-.896 2-2v-4c0-1.104-.896-2-2-2s-2 .896-2 2z"/></g></svg>