<svg id="Layer_1" enable-background="new 0 0 512 512" height="512" viewBox="0 0 512 512" width="512" xmlns="http://www.w3.org/2000/svg"><g clip-rule="evenodd" fill-rule="evenodd"><path d="m477.895 471.793c-72.65 16.681-147.369 24.374-221.872 24.374-74.511 0-149.261-7.691-221.919-24.374l-6.794-1.56.616-6.944c7.781-87.676 64.462-162.336 146.765-193.543l3.226-1.223 3.104 1.507c23.294 11.308 49.11 17.214 75.003 17.214 25.87 0 51.727-5.915 75.003-17.214l3.105-1.507 3.227 1.224c82.274 31.215 138.937 105.892 146.716 193.543l.616 6.944z" fill="#9bc9ff"/><path d="m256.023 23.833c50.556 0 91.642 41.119 91.642 91.66 0 50.547-41.086 91.665-91.642 91.665s-91.689-41.119-91.689-91.665c.001-50.541 41.133-91.66 91.689-91.66zm0 207.327c63.749 0 115.671-51.889 115.671-115.667 0-63.777-51.922-115.662-115.671-115.662-63.796 0-115.671 51.885-115.671 115.662 0 63.778 51.876 115.667 115.671 115.667zm0 257.007c-76.235 0-150.255-8.128-220.129-24.171 7.491-84.419 62.005-156.578 141.633-186.77 24.312 11.803 51.31 18.018 78.496 18.018 27.139 0 54.184-6.215 78.496-18.018 79.58 30.192 134.094 102.356 141.585 186.77-69.873 16.043-143.846 24.171-220.081 24.171zm244.724-15.35c-2.214-49.43-19.082-96.457-48.766-135.993-29.165-38.81-68.696-67.843-114.21-83.967-3.157-1.112-6.644-.867-9.612.683-22.38 11.746-46.693 17.702-72.135 17.702-25.49 0-49.755-5.956-72.183-17.702-2.968-1.55-6.408-1.795-9.565-.683-45.562 16.123-85.093 45.157-114.258 83.962-29.684 39.54-46.551 86.562-48.766 135.997-.236 5.734 3.628 10.846 9.188 12.194 74.586 18.022 153.836 27.158 235.583 27.158 81.7 0 160.95-9.136 235.536-27.158 5.607-1.347 9.424-6.459 9.188-12.193z" fill="#57a4ff"/></g></svg>