<svg width="512" height="512" viewBox="0 0 512 512" fill="none" xmlns="http://www.w3.org/2000/svg">
<g clip-path="url(#clip0_222_15)">
<path fill-rule="evenodd" clip-rule="evenodd" d="M43.2053 152.715C55.3975 119.181 77.2646 90.0166 106.039 68.9151C134.813 47.8135 169.201 35.723 204.85 34.174C240.499 32.6249 275.806 41.6869 306.302 60.2129C336.798 78.7389 361.113 105.896 376.168 138.247C391.223 170.598 396.342 206.688 390.877 241.95C385.411 277.211 369.608 310.058 345.466 336.334C321.324 362.61 289.929 381.132 255.256 389.557C220.582 397.982 184.189 395.931 150.681 383.663C143.862 381.176 137.197 378.284 130.722 375.001C129.101 374.18 127.315 373.737 125.498 373.706C123.681 373.675 121.88 374.056 120.232 374.822L37.2003 413.468L67.4853 330.456C68.1505 328.623 68.3606 326.656 68.0976 324.723C67.8345 322.791 67.1063 320.951 65.9753 319.362C48.9145 295.531 37.9237 267.898 33.9559 238.858C29.9881 209.819 33.163 180.25 43.2053 152.715Z" fill="#D4E3FF"/>
<path fill-rule="evenodd" clip-rule="evenodd" d="M290.984 208.707C290.982 206.607 291.394 204.527 292.196 202.586C292.998 200.645 294.175 198.881 295.659 197.396C297.143 195.91 298.905 194.731 300.845 193.926C302.784 193.122 304.864 192.707 306.964 192.707H307.002C310.165 192.711 313.257 193.653 315.885 195.413C318.514 197.174 320.561 199.674 321.769 202.598C322.977 205.522 323.291 208.739 322.671 211.841C322.051 214.943 320.526 217.792 318.287 220.028C316.049 222.263 313.198 223.785 310.095 224.401C306.991 225.016 303.775 224.698 300.853 223.487C297.931 222.275 295.433 220.224 293.676 217.593C291.919 214.963 290.981 211.87 290.981 208.707H290.984ZM198.438 208.707C198.436 206.606 198.847 204.526 199.65 202.585C200.452 200.644 201.629 198.88 203.113 197.394C204.597 195.908 206.36 194.729 208.3 193.925C210.241 193.121 212.32 192.707 214.421 192.707H214.455C217.619 192.71 220.71 193.651 223.339 195.411C225.968 197.171 228.016 199.671 229.225 202.595C230.433 205.519 230.748 208.736 230.128 211.838C229.509 214.941 227.984 217.79 225.745 220.026C223.507 222.262 220.656 223.784 217.553 224.4C214.45 225.016 211.234 224.698 208.311 223.487C205.388 222.275 202.89 220.225 201.133 217.594C199.376 214.963 198.438 211.87 198.438 208.707ZM105.891 208.707C105.889 206.606 106.3 204.526 107.102 202.585C107.905 200.644 109.081 198.88 110.566 197.394C112.05 195.908 113.813 194.729 115.753 193.925C117.693 193.121 119.773 192.707 121.873 192.707H121.908C125.072 192.71 128.163 193.651 130.792 195.411C133.421 197.171 135.469 199.671 136.678 202.595C137.886 205.519 138.201 208.736 137.581 211.838C136.962 214.941 135.437 217.79 133.198 220.026C130.96 222.262 128.109 223.784 125.006 224.4C121.903 225.016 118.687 224.698 115.764 223.487C112.841 222.275 110.343 220.225 108.586 217.594C106.829 214.963 105.891 211.87 105.891 208.707ZM46.9638 154.086C37.1452 181.01 34.0418 209.923 37.9224 238.318C41.8031 266.713 52.5508 293.733 69.2338 317.036C70.7463 319.152 71.7201 321.605 72.0709 324.182C72.4217 326.759 72.1388 329.383 71.2468 331.827L44.2718 405.766L118.547 371.201C120.744 370.179 123.145 369.67 125.568 369.711C127.991 369.752 130.372 370.343 132.534 371.439C138.866 374.648 145.383 377.477 152.053 379.909C184.777 391.848 220.307 393.816 254.15 385.562C287.993 377.309 318.628 359.205 342.181 333.54C365.734 307.875 381.148 275.802 386.473 241.376C391.797 206.951 386.794 171.72 372.095 140.139C357.396 108.559 333.664 82.0466 303.898 63.9543C274.133 45.862 239.671 37.0021 204.87 38.495C170.069 39.9878 136.493 51.7663 108.386 72.3412C80.2787 92.916 58.9039 121.363 46.9638 154.086ZM465.046 207.301C452.536 172.644 429.398 142.825 398.934 122.101C399.675 123.601 400.394 125.111 401.104 126.633C415.708 158.092 422.227 192.7 420.068 227.316C417.909 261.933 407.141 295.463 388.741 324.863C370.34 354.264 344.89 378.605 314.7 395.679C284.509 412.752 250.533 422.017 215.855 422.633C237.769 434.458 261.94 441.508 286.776 443.316C311.612 445.124 336.549 441.65 359.945 433.123C366.614 430.69 373.133 427.862 379.465 424.653C381.626 423.556 384.008 422.965 386.432 422.923C388.855 422.882 391.256 423.391 393.454 424.413L467.735 458.983L440.756 385.034C439.863 382.592 439.58 379.969 439.931 377.393C440.283 374.817 441.259 372.366 442.774 370.254C459.456 346.95 470.203 319.929 474.084 291.534C477.965 263.139 474.862 234.226 465.046 207.301ZM5.18178 448.355C7.51423 450.493 10.4276 451.892 13.5545 452.377C16.6814 452.861 19.8817 452.409 22.7518 451.077L125.172 403.416C130.38 405.805 135.709 408.005 141.086 409.966C144.308 411.134 147.546 412.223 150.8 413.235C178.805 441.839 214.463 461.764 253.502 470.623C292.541 479.482 333.306 476.899 370.915 463.185C376.294 461.226 381.625 459.027 386.835 456.626L489.255 504.296C492.124 505.63 495.324 506.083 498.45 505.599C501.577 505.115 504.49 503.715 506.821 501.576C509.152 499.436 510.796 496.654 511.546 493.58C512.296 490.506 512.118 487.279 511.034 484.307L473.634 381.795C491.402 354.686 502.595 323.803 506.322 291.606C510.05 259.409 506.208 226.786 495.104 196.335C483.905 165.36 465.442 137.522 441.263 115.156C418.378 94.0158 391.08 78.2283 361.344 68.9355C325.187 31.9468 276.556 9.74309 224.923 6.65011C173.291 3.55713 122.357 19.7965 82.0431 52.2043C41.7296 84.6121 14.9245 130.867 6.85018 181.958C-1.22413 233.049 10.0107 285.315 38.3658 328.576L0.970781 431.085C-0.115036 434.057 -0.294498 437.284 0.455117 440.359C1.20473 443.433 2.84971 446.216 5.18178 448.355Z" fill="#2380CD"/>
<circle cx="315.5" cy="211.5" r="25.5" fill="white" stroke="#2380CD" stroke-width="10"/>
<circle cx="212.5" cy="211.5" r="25.5" fill="white" stroke="#2380CD" stroke-width="10"/>
<circle cx="109.5" cy="211.5" r="25.5" fill="white" stroke="#2380CD" stroke-width="10"/>
</g>
<defs>
<clipPath id="clip0_222_15">
<rect width="512" height="512" fill="white"/>
</clipPath>
</defs>
</svg>
