<svg width="512" height="512" viewBox="0 0 512 512" fill="none" xmlns="http://www.w3.org/2000/svg">
<path d="M131.611 256C131.611 278.397 137.629 300.352 149.012 319.49C155.626 330.607 154.399 344.073 146.118 353.715L158.284 365.88C167.926 357.599 181.391 356.372 192.51 362.985C211.648 374.37 233.602 380.387 255.998 380.387C324.587 380.387 380.388 324.587 380.388 255.998C380.388 187.409 324.587 131.609 255.999 131.609C187.411 131.609 131.61 187.41 131.61 255.998L131.611 256ZM256 149.472C314.74 149.472 362.528 197.26 362.528 256C362.528 314.74 314.74 362.528 256 362.528C197.26 362.528 149.472 314.74 149.472 256C149.472 197.26 197.26 149.472 256 149.472Z" fill="#A1D7FE"/>
<path d="M297.26 227.632H310.522V299.367H297.26V227.632Z" fill="#A1D7FE"/>
<path d="M412.661 100.82C425.505 100.82 435.916 90.4084 435.916 77.5651C435.916 64.7217 425.505 54.3101 412.661 54.3101C399.818 54.3101 389.406 64.7217 389.406 77.5651C389.406 90.4084 399.818 100.82 412.661 100.82Z" fill="#A1D7FE"/>
<path d="M201.479 254.632H214.74V299.367H201.479V254.632Z" fill="#A1D7FE"/>
<path d="M412.661 115.025C385.907 115.025 363.277 133.346 357.531 159.076C372.037 172.473 391.405 180.677 412.661 180.677C433.917 180.677 453.285 172.472 467.791 159.076C462.045 133.346 439.416 115.025 412.661 115.025Z" fill="#A1D7FE"/>
<path d="M435.916 390.887C435.916 378.064 425.484 367.632 412.661 367.632C399.838 367.632 389.406 378.064 389.406 390.887C389.406 403.71 399.838 414.142 412.661 414.142C425.484 414.142 435.916 403.71 435.916 390.887Z" fill="#A1D7FE"/>
<path d="M99.338 115.025C72.584 115.025 49.954 133.346 44.208 159.075C58.714 172.472 78.083 180.677 99.339 180.677C120.595 180.677 139.963 172.472 154.469 159.075C148.723 133.346 126.094 115.025 99.338 115.025Z" fill="#A1D7FE"/>
<path d="M412.661 428.347C385.907 428.347 363.277 446.668 357.531 472.398C372.037 485.795 391.405 493.999 412.661 493.999C433.917 493.999 453.285 485.794 467.791 472.398C462.045 446.668 439.416 428.347 412.661 428.347Z" fill="#A1D7FE"/>
<path d="M99.339 100.82C112.182 100.82 122.594 90.4084 122.594 77.5651C122.594 64.7217 112.182 54.3101 99.339 54.3101C86.4956 54.3101 76.084 64.7217 76.084 77.5651C76.084 90.4084 86.4956 100.82 99.339 100.82Z" fill="#A1D7FE"/>
<path d="M131.96 359.355C130.714 358.109 129.048 357.422 127.269 357.422C125.49 357.422 123.824 358.109 122.578 359.355L46.426 435.507C38.138 443.797 38.138 457.285 46.426 465.574C54.715 473.864 68.204 473.863 76.493 465.574L152.645 389.421C155.231 386.835 155.231 382.626 152.645 380.039L131.96 359.355Z" fill="#A1D7FE"/>
<path d="M462.65 293.086C464.817 280.93 465.916 268.452 465.916 256C465.916 243.548 464.817 231.073 462.649 218.914C461.971 215.108 464.506 211.473 468.312 210.794C472.133 210.117 475.754 212.651 476.432 216.457C478.744 229.425 479.915 242.729 479.915 256C479.915 269.271 478.743 282.578 476.433 295.543C475.829 298.934 472.877 301.316 469.549 301.316C469.142 301.316 468.729 301.28 468.313 301.206C464.507 300.528 461.972 296.893 462.65 293.086ZM218.914 49.349C243.23 45.015 268.776 45.016 293.087 49.349C293.503 49.423 293.916 49.459 294.323 49.459C297.651 49.459 300.602 47.077 301.207 43.687C301.885 39.881 299.35 36.246 295.544 35.567C269.617 30.944 242.394 30.944 216.457 35.567C212.651 36.245 210.116 39.88 210.794 43.687C211.473 47.493 215.11 50.033 218.914 49.349ZM44.097 208.894C40.295 208.179 36.64 210.684 35.927 214.484C33.377 228.081 32.084 242.049 32.084 256C32.084 295.916 42.73 335.112 62.871 369.351C64.176 371.568 66.512 372.803 68.911 372.803C70.117 372.803 71.339 372.491 72.453 371.835C75.785 369.875 76.897 365.585 74.937 362.252C56.061 330.163 46.083 293.422 46.083 256C46.083 242.912 47.295 229.812 49.686 217.064C50.399 213.264 47.897 209.606 44.097 208.894ZM293.993 462.488C281.545 464.763 268.762 465.916 256 465.916C218.585 465.916 181.843 455.938 149.747 437.062C146.415 435.102 142.124 436.215 140.165 439.547C138.205 442.88 139.317 447.17 142.649 449.13C176.895 469.271 216.09 479.917 256 479.917C269.604 479.917 283.233 478.687 296.511 476.26C300.314 475.565 302.833 471.919 302.138 468.116C301.444 464.313 297.808 461.793 293.993 462.489V462.488ZM362.528 256C362.528 314.74 314.74 362.528 256 362.528C197.26 362.528 149.472 314.74 149.472 256C149.472 197.26 197.26 149.472 256 149.472C314.74 149.472 362.528 197.26 362.528 256ZM348.528 256C348.528 204.98 307.02 163.472 256 163.472C204.98 163.472 163.472 204.98 163.472 256C163.472 307.02 204.98 348.528 256 348.528C307.02 348.528 348.528 307.02 348.528 256ZM228.739 247.632V306.367C228.739 310.233 225.605 313.367 221.739 313.367H194.478C190.612 313.367 187.478 310.233 187.478 306.367V247.632C187.478 243.766 190.612 240.632 194.478 240.632H221.739C225.605 240.632 228.739 243.766 228.739 247.632ZM214.739 254.632H201.478V299.367H214.739V254.632ZM276.631 190.632V306.367C276.631 310.233 273.497 313.367 269.631 313.367H242.369C238.503 313.367 235.369 310.233 235.369 306.367V190.632C235.369 186.766 238.503 183.632 242.369 183.632H269.631C273.497 183.632 276.631 186.766 276.631 190.632ZM262.631 197.632H249.369V299.367H262.631V197.632ZM324.522 220.632V306.367C324.522 310.233 321.388 313.367 317.522 313.367H290.26C286.394 313.367 283.26 310.233 283.26 306.367V220.632C283.26 216.766 286.394 213.632 290.26 213.632H317.522C321.388 213.632 324.522 216.766 324.522 220.632ZM310.522 227.632H297.26V299.367H310.522V227.632ZM508.001 412.661C508.001 465.231 465.232 508 412.662 508C360.092 508 317.323 465.231 317.323 412.661C317.323 399.738 319.913 387.409 324.592 376.16C304.361 387.754 280.941 394.388 255.999 394.388C231.057 394.388 206.655 387.69 185.353 375.018C179.375 371.46 172.108 372.226 167.019 376.853C170.096 384.329 168.608 393.257 162.544 399.32L86.392 475.473C79.52 482.346 70.489 485.784 61.46 485.784C52.431 485.784 43.401 482.348 36.526 475.473C22.779 461.725 22.778 439.356 36.526 425.608L112.679 349.456C116.57 345.566 121.751 343.423 127.269 343.423C130.02 343.423 132.688 343.957 135.154 344.973C139.774 339.885 140.537 332.623 136.982 326.649C124.31 305.346 117.612 280.917 117.612 256.001C117.612 231.085 124.247 207.639 135.841 187.408C124.592 192.088 112.263 194.677 99.34 194.677C46.77 194.677 4.00098 151.908 4.00098 99.339C4.00098 46.77 46.769 4.00002 99.339 4.00002C151.909 4.00002 194.677 46.769 194.677 99.338C194.677 112.262 192.087 124.59 187.408 135.839C207.639 124.245 231.059 117.61 256.001 117.61C280.943 117.61 304.362 124.245 324.592 135.838C319.913 124.589 317.323 112.261 317.323 99.337C317.323 46.767 360.092 3.99902 412.662 3.99902C465.232 3.99902 508.001 46.768 508.001 99.337C508.001 151.906 465.232 194.675 412.662 194.675C399.739 194.675 387.41 192.085 376.161 187.406C387.755 207.637 394.39 231.056 394.39 255.998C394.39 280.94 387.755 304.359 376.161 324.59C387.41 319.911 399.739 317.321 412.662 317.321C465.232 317.321 508.001 360.09 508.001 412.659V412.661ZM412.662 180.677C433.918 180.677 453.286 172.472 467.792 159.076C462.046 133.346 439.417 115.025 412.662 115.025C385.907 115.025 363.278 133.346 357.532 159.076C372.038 172.473 391.406 180.677 412.662 180.677ZM435.917 77.565C435.917 64.742 425.485 54.31 412.662 54.31C399.839 54.31 389.407 64.742 389.407 77.565C389.407 90.388 399.839 100.82 412.662 100.82C425.485 100.82 435.917 90.388 435.917 77.565ZM331.323 99.338C331.323 117.029 337.018 133.406 346.646 146.769C350.778 135.778 357.624 125.882 366.651 118.103C373.015 112.619 380.262 108.364 388.02 105.471C380.293 98.64 375.407 88.665 375.407 77.565C375.407 57.023 392.12 40.31 412.662 40.31C433.204 40.31 449.917 57.022 449.917 77.565C449.917 88.665 445.031 98.64 437.304 105.471C445.062 108.363 452.309 112.619 458.673 118.103C467.7 125.882 474.545 135.778 478.677 146.769C488.305 133.406 494 117.029 494 99.339C494 54.489 457.512 18.001 412.661 18.001C367.81 18.001 331.322 54.489 331.322 99.339L331.323 99.338ZM18.001 99.338C18.001 117.029 23.696 133.405 33.324 146.768C37.456 135.777 44.302 125.882 53.329 118.103C59.693 112.619 66.941 108.364 74.698 105.471C66.971 98.64 62.085 88.665 62.085 77.565C62.085 57.023 78.798 40.31 99.34 40.31C119.882 40.31 136.595 57.022 136.595 77.565C136.595 88.665 131.709 98.64 123.982 105.471C131.74 108.363 138.988 112.619 145.352 118.103C154.379 125.882 161.224 135.777 165.356 146.768C174.984 133.405 180.678 117.029 180.678 99.339C180.678 54.489 144.19 18.001 99.34 18.001C54.49 18.001 18 54.489 18 99.339L18.001 99.338ZM122.595 77.565C122.595 64.742 112.163 54.31 99.34 54.31C86.517 54.31 76.085 64.742 76.085 77.565C76.085 90.388 86.517 100.82 99.34 100.82C112.163 100.82 122.595 90.388 122.595 77.565ZM99.34 180.677C120.596 180.677 139.964 172.472 154.47 159.075C148.724 133.346 126.095 115.025 99.339 115.025C72.583 115.025 49.955 133.346 44.209 159.075C58.715 172.472 78.084 180.677 99.34 180.677ZM152.646 380.039L131.961 359.355C130.715 358.109 129.049 357.422 127.27 357.422C125.491 357.422 123.825 358.109 122.579 359.355L46.427 435.507C38.139 443.797 38.139 457.285 46.427 465.574C54.716 473.864 68.205 473.863 76.494 465.574L152.646 389.421C155.232 386.835 155.232 382.626 152.646 380.039ZM256 380.389C324.589 380.389 380.39 324.589 380.39 256C380.39 187.411 324.589 131.611 256.001 131.611C187.413 131.611 131.612 187.412 131.612 256C131.612 278.397 137.63 300.352 149.013 319.49C155.627 330.607 154.4 344.073 146.119 353.715L158.285 365.88C167.927 357.599 181.392 356.372 192.511 362.985C211.649 374.37 233.603 380.387 255.999 380.387L256 380.389ZM412.662 494C433.918 494 453.286 485.795 467.792 472.399C462.046 446.669 439.417 428.348 412.662 428.348C385.907 428.348 363.278 446.669 357.532 472.399C372.038 485.796 391.406 494 412.662 494ZM435.917 390.888C435.917 378.065 425.485 367.633 412.662 367.633C399.839 367.633 389.407 378.065 389.407 390.888C389.407 403.711 399.839 414.143 412.662 414.143C425.485 414.143 435.917 403.711 435.917 390.888ZM494.001 412.661C494.001 367.811 457.513 331.323 412.662 331.323C367.811 331.323 331.323 367.811 331.323 412.661C331.323 430.352 337.018 446.729 346.646 460.092C350.778 449.101 357.624 439.205 366.651 431.426C373.015 425.942 380.262 421.687 388.02 418.794C380.293 411.963 375.407 401.987 375.407 390.887C375.407 370.345 392.12 353.632 412.662 353.632C433.204 353.632 449.917 370.344 449.917 390.887C449.917 401.987 445.031 411.963 437.304 418.794C445.062 421.686 452.31 425.942 458.674 431.426C467.701 439.205 474.546 449.1 478.678 460.091C488.306 446.728 494.001 430.351 494.001 412.66V412.661Z" fill="#007CE7"/>
</svg>
