<svg width="512" height="512" viewBox="0 0 512 512" fill="none" xmlns="http://www.w3.org/2000/svg">
<g clip-path="url(#clip0_70_213)">
<path d="M351.656 104.916C372.587 104.916 389.614 87.889 389.614 66.958C389.614 46.027 372.587 29 351.656 29C330.725 29 313.699 46.027 313.699 66.958C313.699 87.889 330.726 104.916 351.656 104.916Z" fill="#A1D7FE"/>
<path d="M408.979 256.323L447.337 217.966L485.695 256.323L447.337 294.681L408.979 256.323Z" fill="#A1D7FE"/>
<path d="M26 256.284L64.3583 217.926L102.717 256.284L64.3583 294.642L26 256.284Z" fill="#A1D7FE"/>
<path d="M160.15 407.647C139.197 407.647 122.15 424.694 122.15 445.647C122.15 466.6 139.197 483.648 160.15 483.648C181.103 483.648 198.15 466.601 198.15 445.647C198.15 424.693 181.103 407.647 160.15 407.647Z" fill="#A1D7FE"/>
<path d="M306.416 197.158H205.395C200.634 197.158 196.761 201.031 196.761 205.792V306.813C196.761 311.574 200.634 315.447 205.395 315.447H306.416C311.176 315.447 315.049 311.574 315.049 306.813V205.792C315.049 201.031 311.176 197.158 306.416 197.158ZM262.905 296.591C262.905 300.457 259.771 303.591 255.905 303.591C252.039 303.591 248.905 300.457 248.905 296.591V294.823C248.905 290.957 252.039 287.823 255.905 287.823C259.771 287.823 262.905 290.957 262.905 294.823V296.591ZM270.536 260.63C265.523 265.145 262.908 267.786 262.908 273.916C262.908 277.782 259.774 280.916 255.908 280.916C252.042 280.916 248.908 277.782 248.908 273.916C248.908 261.269 255.706 255.146 261.167 250.228C265.924 245.944 269.065 243.114 269.065 236.174C269.065 228.917 263.162 223.014 255.905 223.014C248.648 223.014 242.744 228.917 242.744 236.174C242.744 240.04 239.61 243.174 235.744 243.174C231.878 243.174 228.744 240.04 228.744 236.174C228.744 221.198 240.929 209.014 255.905 209.014C270.881 209.014 283.065 221.199 283.065 236.174C283.065 249.346 275.824 255.867 270.536 260.63Z" fill="white"/>
<path d="M329.953 307.863V205.094C329.953 192.398 319.619 182.068 306.916 182.068H262.623V70.9782H300.572C304.065 96.7659 326.22 116.714 352.964 116.714C379.707 116.714 401.864 96.7659 405.356 70.9782H443.305V204.431L396.267 251.444C393.485 254.224 393.485 258.733 396.267 261.513L445.392 310.611C446.783 312.002 448.607 312.698 450.43 312.698C452.253 312.698 454.077 312.002 455.467 310.611L504.592 261.513C507.375 258.733 507.375 254.224 504.592 251.444L457.555 204.431V63.8571C457.555 59.9242 454.365 56.736 450.43 56.736H405.356C401.864 30.9483 379.707 11 352.964 11C326.22 11 304.064 30.9483 300.572 56.736H255.498C251.563 56.736 248.373 59.9242 248.373 63.8571V182.068H204.089C191.387 182.068 181.051 192.397 181.051 205.094V307.863C181.051 320.559 191.386 330.888 204.089 330.888H248.378V441.978H210.472C206.98 416.166 184.804 396.199 158.036 396.199C131.269 396.199 109.094 416.166 105.6 441.978H67.6953V308.525L114.734 261.514C116.07 260.179 116.821 258.367 116.821 256.479C116.821 254.591 116.071 252.779 114.734 251.444L65.6077 202.345C64.2723 201.009 62.4594 200.258 60.5703 200.258C58.6812 200.258 56.8684 201.008 55.5319 202.345L6.40798 251.444C3.62515 254.224 3.62515 258.733 6.40798 261.513L53.4453 308.525V449.099C53.4453 453.032 56.6353 456.22 60.5703 456.22H105.6C109.093 482.032 131.269 502 158.036 502C184.804 502 206.979 482.032 210.472 456.22H255.503C259.438 456.22 262.628 453.032 262.628 449.099V330.888H306.916C319.618 330.888 329.953 320.56 329.953 307.863ZM450.43 295.507L411.382 256.48L450.43 217.452L489.478 256.48L450.43 295.507ZM352.964 25.2423C374.268 25.2423 391.599 42.5639 391.599 63.8571C391.599 85.1503 374.268 102.472 352.964 102.472C331.659 102.472 314.329 85.1503 314.329 63.8571C314.329 42.5639 331.66 25.2423 352.964 25.2423ZM60.5713 217.451L99.6205 256.479L60.5713 295.506L21.5232 256.479L60.5713 217.451ZM158.037 487.758C136.71 487.758 119.359 470.416 119.359 449.099C119.359 427.783 136.71 410.442 158.037 410.442C179.365 410.442 196.716 427.784 196.716 449.099C196.716 470.415 179.365 487.758 158.037 487.758ZM315.703 307.863C315.703 312.706 311.761 316.646 306.916 316.646H204.09C199.244 316.646 195.302 312.706 195.302 307.863V205.094C195.302 200.25 199.244 196.31 204.09 196.31H306.916C311.761 196.31 315.703 200.25 315.703 205.094V307.863ZM262.628 295.666V297.465C262.628 301.398 259.438 304.586 255.503 304.586C251.568 304.586 248.378 301.398 248.378 297.465V295.666C248.378 291.733 251.568 288.545 255.503 288.545C259.438 288.545 262.628 291.733 262.628 295.666ZM283.148 236.002C283.148 249.402 275.777 256.036 270.395 260.882C265.292 265.475 262.631 268.161 262.631 274.397C262.631 278.33 259.441 281.519 255.506 281.519C251.571 281.519 248.381 278.33 248.381 274.397C248.381 261.532 255.3 255.303 260.859 250.3C265.7 245.941 268.898 243.062 268.898 236.002C268.898 228.62 262.889 222.615 255.503 222.615C248.116 222.615 242.107 228.62 242.107 236.002C242.107 239.935 238.917 243.123 234.982 243.123C231.046 243.123 227.856 239.935 227.856 236.002C227.856 220.767 240.259 208.372 255.503 208.372C270.746 208.372 283.148 220.768 283.148 236.002ZM115.018 86.1025C118.953 86.1025 122.143 82.9143 122.143 78.9814V48.7328C122.143 44.7999 118.953 41.6117 115.018 41.6117H6.12501C2.18997 41.6117 -1 44.7999 -1 48.7328V78.9814C-1 82.9143 2.18997 86.1025 6.12501 86.1025H115.018ZM13.25 55.854H107.892V71.8602H13.25V55.854ZM504.875 426.853H395.983C392.048 426.853 388.858 430.041 388.858 433.974V464.222C388.858 468.155 392.048 471.344 395.983 471.344H504.875C508.81 471.344 512 468.155 512 464.222V433.974C512 430.041 508.81 426.853 504.875 426.853ZM497.75 457.101H403.108V441.095H497.75V457.101ZM67.6963 173.258V187.295C67.6963 191.228 64.5064 194.416 60.5713 194.416C56.6363 194.416 53.4463 191.228 53.4463 187.295V173.258C53.4463 169.325 56.6363 166.137 60.5713 166.137C64.5064 166.137 67.6963 169.325 67.6963 173.258ZM67.6963 150.583C67.6963 154.516 64.5064 157.704 60.5713 157.704C56.6363 157.704 53.4463 154.516 53.4463 150.583V136.547C53.4463 132.614 56.6363 129.425 60.5713 129.425C64.5064 129.425 67.6963 132.614 67.6963 136.547V150.583ZM210.041 63.8571C210.041 59.9242 213.231 56.736 217.166 56.736H232.25C236.185 56.736 239.375 59.9242 239.375 63.8571C239.375 67.79 236.185 70.9782 232.25 70.9782H217.166C213.231 70.9782 210.041 67.79 210.041 63.8571ZM340.41 449.098C340.41 453.031 337.22 456.219 333.285 456.219H318.202C314.267 456.219 311.077 453.031 311.077 449.098C311.077 445.165 314.267 441.977 318.202 441.977H333.285C337.22 441.977 340.41 445.165 340.41 449.098ZM158.314 249.356H170.416C174.351 249.356 177.541 252.545 177.541 256.478C177.541 260.411 174.351 263.599 170.416 263.599H158.314C154.379 263.599 151.189 260.411 151.189 256.478C151.189 252.545 154.379 249.356 158.314 249.356ZM131.144 63.8561C131.144 59.9232 134.334 56.735 138.269 56.735H153.351C157.286 56.735 160.476 59.9232 160.476 63.8561C160.476 67.789 157.286 70.9772 153.351 70.9772H138.269C134.334 70.9772 131.144 67.789 131.144 63.8561ZM126.853 249.356H139.336C143.271 249.356 146.461 252.545 146.461 256.478C146.461 260.411 143.271 263.599 139.336 263.599H126.853C122.918 263.599 119.728 260.411 119.728 256.478C119.728 252.545 122.918 249.356 126.853 249.356ZM170.593 63.8561C170.593 59.9232 173.783 56.735 177.718 56.735H192.801C196.736 56.735 199.926 59.9232 199.926 63.8561C199.926 67.789 196.736 70.9772 192.801 70.9772H177.718C173.783 70.9772 170.593 67.789 170.593 63.8561ZM353.075 263.599H340.592C336.656 263.599 333.466 260.411 333.466 256.478C333.466 252.545 336.656 249.356 340.592 249.356H353.075C357.01 249.356 360.2 252.545 360.2 256.478C360.2 260.411 357.01 263.599 353.075 263.599ZM457.556 376.409C457.556 380.342 454.366 383.53 450.431 383.53C446.496 383.53 443.306 380.342 443.306 376.409V362.372C443.306 358.439 446.496 355.251 450.431 355.251C454.366 355.251 457.556 358.439 457.556 362.372V376.409ZM457.556 399.082V413.119C457.556 417.052 454.366 420.24 450.431 420.24C446.496 420.24 443.306 417.052 443.306 413.119V399.082C443.306 395.149 446.496 391.961 450.431 391.961C454.366 391.961 457.556 395.149 457.556 399.082ZM457.556 339.697C457.556 343.63 454.366 346.818 450.431 346.818C446.496 346.818 443.306 343.63 443.306 339.697V325.66C443.306 321.728 446.496 318.539 450.431 318.539C454.366 318.539 457.556 321.728 457.556 325.66V339.697ZM300.961 449.098C300.961 453.031 297.771 456.219 293.836 456.219H278.752C274.817 456.219 271.627 453.031 271.627 449.098C271.627 445.165 274.817 441.977 278.752 441.977H293.836C297.771 441.977 300.961 445.165 300.961 449.098ZM67.6963 113.873C67.6963 117.806 64.5064 120.994 60.5713 120.994C56.6363 120.994 53.4463 117.806 53.4463 113.873V99.8361C53.4463 95.9032 56.6363 92.715 60.5713 92.715C64.5064 92.715 67.6963 95.9032 67.6963 99.8361V113.873ZM384.153 263.6H372.053C368.117 263.6 364.928 260.412 364.928 256.479C364.928 252.546 368.117 249.358 372.053 249.358H384.153C388.088 249.358 391.278 252.546 391.278 256.479C391.278 260.412 388.088 263.6 384.153 263.6ZM379.858 449.099C379.858 453.032 376.669 456.22 372.733 456.22H357.651C353.716 456.22 350.526 453.032 350.526 449.099C350.526 445.166 353.716 441.978 357.651 441.978H372.733C376.669 441.978 379.858 445.166 379.858 449.099Z" fill="#007CE7"/>
</g>
<defs>
<clipPath id="clip0_70_213">
<rect width="512" height="512" fill="white"/>
</clipPath>
</defs>
</svg>
