<svg width="512" height="512" viewBox="0 0 512 512" fill="none" xmlns="http://www.w3.org/2000/svg">
<g clip-path="url(#clip0_70_259)">
<path d="M281.6 332.8H230.4V384H281.6V332.8Z" fill="#A1D7FE"/>
<path d="M221.532 501.024C244.481 504.292 267.777 504.281 290.723 500.992L273.067 384H238.934L221.532 501.024Z" fill="#A1D7FE"/>
<path d="M230.4 339.627L196.267 298.667H154.833C154.556 298.667 154.298 298.804 154.142 299.033C153.986 299.262 153.955 299.553 154.058 299.81L187.733 384L230.4 355.556V339.627Z" fill="#A1D7FE"/>
<path d="M357.168 298.667H315.734L281.601 339.627V355.556L324.267 384L357.943 299.81C358.046 299.553 358.014 299.262 357.859 299.033C357.703 298.804 357.444 298.667 357.168 298.667Z" fill="#A1D7FE"/>
<path d="M128 476.367C125.736 476.368 123.565 475.47 121.965 473.869C120.364 472.268 119.466 470.097 119.467 467.834V409.6C119.467 404.887 123.288 401.067 128 401.067C132.713 401.067 136.533 404.888 136.533 409.6V467.833C136.534 470.097 135.636 472.268 134.035 473.868C132.435 475.469 130.264 476.368 128 476.367Z" fill="#007CE7"/>
<path d="M384 476.342C381.736 476.343 379.565 475.445 377.965 473.844C376.364 472.243 375.466 470.072 375.467 467.809V409.6C375.467 404.887 379.288 401.067 384 401.067C388.712 401.067 392.533 404.888 392.533 409.6V467.808C392.534 470.072 391.636 472.243 390.035 473.843C388.435 475.444 386.264 476.343 384 476.342Z" fill="#007CE7"/>
<path d="M256 512C114.615 512 0 397.385 0 256C0 114.615 114.615 0 256 0C397.385 0 512 114.615 512 256C511.84 397.319 397.319 511.84 256 512ZM256 17.067C124.041 17.067 17.067 124.041 17.067 256C17.067 387.959 124.041 494.933 256 494.933C387.959 494.933 494.933 387.959 494.933 256C494.785 124.102 387.898 17.215 256 17.067Z" fill="#007CE7"/>
<path d="M256 512C171.51 511.978 92.4678 470.286 44.7418 400.567C43.6018 398.897 43.0878 396.878 43.2918 394.867C49.3098 335.262 99.5758 289.953 159.484 290.134H210.217C211.937 290.131 213.33 288.737 213.334 287.017V281.6C213.386 280.387 212.702 279.262 211.601 278.75C163.758 261.058 128 184.567 128 128C128 94.0528 141.485 61.4958 165.49 37.4928C189.495 13.4898 222.053 0.00578956 256 0.00878956H256.283C261.111 0.0237896 265.934 0.29679 270.733 0.82579C329.305 7.76979 375.625 53.7048 383.058 112.217C390.241 172.159 355.975 257.859 301.025 278.517C299.7 278.941 298.766 280.129 298.667 281.517V287.017C298.67 288.737 300.064 290.13 301.784 290.134H352.517C412.424 289.953 462.691 335.263 468.709 394.867C468.913 396.879 468.399 398.897 467.259 400.567C419.532 470.286 340.49 511.979 256 512ZM60.6328 393.525C105.375 457.103 178.257 494.933 256 494.933C333.743 494.933 406.625 457.103 451.367 393.525C444.794 343.997 402.479 307.044 352.517 307.2H301.784C290.643 307.184 281.616 298.157 281.601 287.017V281.517C281.641 272.998 287.006 265.415 295.026 262.542C340.818 245.325 372.384 166.609 366.109 114.25C359.677 63.5728 319.555 23.7918 268.826 17.7918C264.775 17.3368 260.702 17.1008 256.626 17.0838H256.342C226.863 16.9898 198.56 28.6338 177.682 49.4448C156.804 70.2558 145.068 98.5208 145.067 128C145.067 177.917 176.717 247.658 217.525 262.75C225.321 265.742 230.449 273.25 230.4 281.6V287.017C230.384 298.157 221.357 307.185 210.217 307.2H159.484C109.521 307.044 67.2068 343.997 60.6328 393.525Z" fill="#007CE7"/>
<path d="M281.6 392.533H230.4C228.136 392.534 225.965 391.636 224.365 390.035C222.764 388.434 221.866 386.263 221.867 384V332.8C221.866 330.536 222.764 328.365 224.365 326.765C225.966 325.164 228.137 324.266 230.4 324.267H281.6C283.864 324.266 286.035 325.164 287.635 326.765C289.236 328.366 290.134 330.537 290.133 332.8V384C290.134 386.264 289.236 388.435 287.635 390.035C286.035 391.636 283.864 392.535 281.6 392.533ZM238.933 375.467H273.066V341.334H238.933V375.467Z" fill="#007CE7"/>
<path d="M187.733 392.533C184.242 392.535 181.102 390.409 179.808 387.166L146.133 302.974C145.114 300.073 145.46 296.866 147.075 294.249C148.819 291.676 151.725 290.134 154.833 290.132H196.266C198.798 290.133 201.2 291.256 202.824 293.199L236.957 334.157C238.234 335.693 238.932 337.627 238.932 339.624V355.557C238.931 358.41 237.506 361.074 235.132 362.657L192.467 391.1C191.064 392.033 189.418 392.532 187.733 392.533ZM166.208 307.2L191.75 371.067L221.867 350.992V342.717L192.267 307.2H166.208Z" fill="#007CE7"/>
<path d="M324.267 392.533C322.582 392.532 320.936 392.033 319.534 391.099L276.867 362.657C274.493 361.074 273.068 358.41 273.067 355.557V339.624C273.067 337.627 273.765 335.693 275.042 334.157L309.175 293.199C310.799 291.256 313.201 290.133 315.733 290.132H357.166C360.274 290.132 363.179 291.673 364.922 294.245C366.665 296.817 367.019 300.087 365.866 302.973L332.191 387.165C330.898 390.409 327.758 392.536 324.267 392.533ZM290.133 350.992L320.25 371.067L345.792 307.2H319.734L290.134 342.717V350.992H290.133Z" fill="#007CE7"/>
<path d="M256 512C244.073 511.982 232.161 511.138 220.35 509.475C218.096 509.158 216.062 507.955 214.699 506.132C213.336 504.309 212.757 502.018 213.091 499.766L230.491 382.741C231.118 378.562 234.707 375.469 238.933 375.466H273.066C277.288 375.464 280.876 378.55 281.508 382.724L299.166 499.716C299.505 501.97 298.928 504.266 297.565 506.092C296.202 507.918 294.165 509.124 291.908 509.441C280.013 511.125 268.014 511.98 256 512ZM231.258 493.617C247.784 495.38 264.451 495.371 280.975 493.592L265.725 392.534H246.292L231.258 493.617Z" fill="#007CE7"/>
<path d="M292.421 65.5189C324.471 74.2319 352.798 93.1749 373.092 119.467C372.953 117.58 372.892 115.65 372.671 113.809C365.747 59.2089 322.52 16.3459 267.864 9.88186C263.514 9.39986 259.142 9.14786 254.765 9.12786L254.357 9.11786C196.287 9.01586 146.564 50.7049 136.534 107.902L136.567 107.952C138.092 110.105 188.604 87.1419 212.861 97.8859C227.673 104.427 244.506 104.676 259.505 98.5739C274.503 92.4719 286.382 80.5429 292.421 65.5189Z" fill="#A1D7FE"/>
<path d="M373.092 128C370.394 127.998 367.855 126.722 366.242 124.558C348.639 101.663 324.49 84.6612 297 75.8082C280.034 107.057 241.924 120.054 209.4 105.683C194.758 99.2002 164.467 108.783 149.9 113.4C138.733 116.933 133.625 118.55 129.608 112.883C128.279 111.014 127.746 108.695 128.125 106.433C138.731 45.1772 191.932 0.475203 254.1 0.583203H254.375C259.197 0.602203 264.015 0.875203 268.809 1.4002C327.384 8.3412 373.708 54.2772 381.142 112.792C381.309 114.175 381.4 115.617 381.483 117.059L381.6 118.825C381.776 121.192 380.959 123.526 379.345 125.266C377.731 127.007 375.465 127.997 373.092 128ZM254.458 17.6582C205.585 17.4492 162.36 49.3172 148.108 96.0662C166.5 90.2992 196.983 81.5162 216.316 90.0832C229.012 95.6852 243.438 95.8952 256.291 90.6642C269.144 85.4332 279.324 75.2092 284.499 62.3332C286.118 58.3122 290.494 56.1432 294.674 57.2912C318.315 63.8132 340.202 75.5282 358.74 91.5832C344.515 51.7232 308.942 23.3592 266.915 18.3662C262.864 17.9152 258.791 17.6792 254.715 17.6582H254.458Z" fill="#007CE7"/>
</g>
<defs>
<clipPath id="clip0_70_259">
<rect width="512" height="512" fill="white"/>
</clipPath>
</defs>
</svg>
