<svg width="512" height="512" viewBox="0 0 512 512" fill="none" xmlns="http://www.w3.org/2000/svg">
<g clip-path="url(#clip0_70_488)">
<path d="M8.53516 418.602C8.53516 395.035 27.6367 375.934 51.1992 375.934C74.7656 375.934 93.8672 395.035 93.8672 418.602V77.2656C93.8672 53.7031 74.7656 34.6016 51.1992 34.6016C27.6367 34.6016 8.53516 53.7031 8.53516 77.2656V418.602Z" fill="#A1D7FE"/>
<path d="M315.734 17.5352H469.332C488.184 17.5352 503.465 32.8164 503.465 51.668V393C503.465 411.852 488.184 427.133 469.332 427.133H315.734C296.883 427.133 281.602 411.852 281.602 393V51.668C281.602 32.8164 296.883 17.5352 315.734 17.5352Z" fill="#007CE7"/>
<path d="M315.734 17.5352H443.734C462.586 17.5352 477.867 32.8164 477.867 51.668V393C477.867 411.852 462.586 427.133 443.734 427.133H315.734C296.883 427.133 281.602 411.852 281.602 393V51.668C281.602 32.8164 296.883 17.5352 315.734 17.5352Z" fill="#A1D7FE"/>
<path d="M281.602 85.8008H503.465V333.266H281.602V85.8008Z" fill="#A1D7FE"/>
<path d="M281.602 85.8008H477.867V333.266H281.602V85.8008Z" fill="white"/>
<path d="M384 358.867H401.066C405.781 358.867 409.602 362.687 409.602 367.398V384.465C409.602 389.18 405.781 393 401.066 393H384C379.289 393 375.465 389.18 375.465 384.465V367.398C375.465 362.687 379.289 358.867 384 358.867Z" fill="#007CE7"/>
<path d="M51.1992 495.398H76.8008C53.2344 495.398 34.1328 476.297 34.1328 452.734V77.2656C34.1797 58.6953 46.2734 42.3047 64 36.7773C59.8711 35.3945 55.5547 34.6602 51.1992 34.6016C27.6367 34.6016 8.53516 53.7031 8.53516 77.2656V452.734C8.53516 464.051 13.0273 474.902 21.0312 482.902C29.0312 490.906 39.8828 495.398 51.1992 495.398Z" fill="white"/>
<path d="M17.0664 102.867V418.602H0V102.867H17.0664Z" fill="white"/>
<path d="M17.0664 102.867V418.602H0V102.867H17.0664Z" fill="white"/>
<path d="M8.53516 179.668C10.793 179.633 12.957 178.75 14.5938 177.191C17.8906 173.828 17.8906 168.441 14.5938 165.074L13.3125 164.051C12.8359 163.727 12.3203 163.469 11.7773 163.281C11.293 163.035 10.7734 162.863 10.2383 162.77C9.67579 162.676 9.10547 162.617 8.53516 162.602C6.27344 162.633 4.10938 163.516 2.47657 165.074C1.70313 165.891 1.09376 166.848 0.6836 167.891C-0.605463 171.074 0.0976624 174.715 2.47657 177.191C3.28907 177.965 4.2461 178.57 5.28907 178.984C6.31641 179.422 7.41797 179.652 8.53516 179.668Z" fill="#007CE7"/>
<path d="M469.332 9H315.734C292.18 9.02734 273.094 28.1133 273.066 51.668V94.332H102.398V77.2656C102.398 48.9883 79.4766 26.0664 51.1992 26.0664C22.9219 26.0664 0 48.9883 0 77.2656V137C0 141.711 3.82031 145.535 8.53516 145.535C13.2461 145.535 17.0664 141.711 17.0664 137V77.2656C17.0664 58.4141 32.3477 43.1328 51.1992 43.1328C70.0508 43.1328 85.332 58.4141 85.332 77.2656V380.543C65.9492 363.02 36.4492 363.02 17.0664 380.543V205.266C17.0664 200.555 13.2461 196.734 8.53516 196.734C3.82031 196.734 0 200.555 0 205.266V452.734C0.0273438 481 22.9336 503.906 51.1992 503.934H426.668C454.934 503.906 477.84 481 477.867 452.734V434.813C497.719 430.731 511.973 413.266 512 393V51.668C511.973 28.1133 492.887 9.02734 469.332 9ZM315.734 26.0664H469.332C483.473 26.0664 494.934 37.5273 494.934 51.668V77.2656H290.133V51.668C290.133 37.5273 301.594 26.0664 315.734 26.0664ZM494.934 324.734H290.133V94.332H494.934V324.734ZM273.066 192.52L179.738 154.066H273.066V192.52ZM259.199 205.266L146.141 251.852C145.465 250.652 145.094 249.309 145.066 247.934V162.602C145.094 161.227 145.465 159.879 146.141 158.684L259.199 205.266ZM273.066 218.016V256.465H179.738L273.066 218.016ZM426.668 486.867H51.1992C32.3477 486.867 17.0664 471.586 17.0664 452.734V418.602C17.0664 399.75 32.3477 384.465 51.1992 384.465C70.0508 384.465 85.332 399.75 85.332 418.602C85.332 423.313 89.1523 427.133 93.8672 427.133C98.5781 427.133 102.398 423.313 102.398 418.602V111.398H273.066V137H153.602C149.047 137.023 144.582 138.273 140.68 140.625C140.57 140.625 140.477 140.746 140.363 140.797C139.727 141.191 139.102 141.59 138.504 142.035C138.227 142.234 137.961 142.449 137.711 142.684C131.602 147.492 128.027 154.828 128 162.602V247.934C128.027 255.801 131.688 263.215 137.914 268.02C138.484 268.586 139.133 269.066 139.836 269.453C143.937 272.109 148.715 273.523 153.602 273.535H273.066V299.133H221.867C217.152 299.133 213.332 302.953 213.332 307.668C213.332 312.379 217.152 316.199 221.867 316.199H273.066V341.801H136.535C131.82 341.801 128 345.621 128 350.332C128 355.047 131.82 358.867 136.535 358.867H273.066V393C273.094 416.551 292.18 435.637 315.734 435.668H460.801V452.734C460.801 461.785 457.203 470.469 450.801 476.871C444.402 483.27 435.719 486.867 426.668 486.867ZM469.332 418.602H315.734C301.594 418.602 290.133 407.137 290.133 393V341.801H494.934V393C494.934 407.137 483.473 418.602 469.332 418.602Z" fill="#007CE7"/>
<path d="M375.465 60.1992H409.602C414.313 60.1992 418.133 56.3789 418.133 51.668C418.133 46.9531 414.313 43.1328 409.602 43.1328H375.465C370.754 43.1328 366.934 46.9531 366.934 51.668C366.934 56.3789 370.754 60.1992 375.465 60.1992Z" fill="#007CE7"/>
<path d="M401.066 350.332H384C374.574 350.332 366.934 357.973 366.934 367.398V384.465C366.934 393.891 374.574 401.535 384 401.535H401.066C410.492 401.535 418.133 393.891 418.133 384.465V367.398C418.133 357.973 410.492 350.332 401.066 350.332ZM384 384.465V367.398H401.066V384.465H384Z" fill="#007CE7"/>
<path d="M312.953 217.945C313.07 218.066 313.207 218.152 313.336 218.262C316.383 220.875 320.254 222.316 324.266 222.332H460.801C464.82 222.313 468.707 220.863 471.758 218.246C471.875 218.145 471.996 218.059 472.113 217.945C475.758 214.738 477.852 210.121 477.867 205.266V128.465C477.852 123.234 475.426 118.305 471.289 115.102L471.066 114.914C468.121 112.648 464.516 111.414 460.801 111.398H324.266C320.559 111.422 316.961 112.664 314.027 114.934L313.848 115.078C309.68 118.273 307.227 123.215 307.199 128.465V205.266C307.215 210.121 309.309 214.738 312.953 217.945ZM460.801 198.566L408.91 166.867L460.801 135.176V198.566ZM439.039 205.266H346.027L392.535 176.867L439.039 205.266ZM392.535 156.867L346.027 128.465H439.039L392.535 156.867ZM376.156 166.867L324.266 198.559V135.176L376.156 166.867Z" fill="#007CE7"/>
<path d="M324.266 256.465H358.398C363.113 256.465 366.934 252.645 366.934 247.934C366.934 243.219 363.113 239.398 358.398 239.398H324.266C319.555 239.398 315.734 243.219 315.734 247.934C315.734 252.645 319.555 256.465 324.266 256.465Z" fill="#007CE7"/>
<path d="M469.332 239.398H392.535C387.82 239.398 384 243.219 384 247.934C384 252.645 387.82 256.465 392.535 256.465H469.332C474.047 256.465 477.867 252.645 477.867 247.934C477.867 243.219 474.047 239.398 469.332 239.398Z" fill="#007CE7"/>
<path d="M469.332 273.535H324.266C319.555 273.535 315.734 277.355 315.734 282.066C315.734 286.781 319.555 290.602 324.266 290.602H469.332C474.047 290.602 477.867 286.781 477.867 282.066C477.867 277.355 474.047 273.535 469.332 273.535Z" fill="#007CE7"/>
<path d="M136.535 316.199H179.199C183.914 316.199 187.734 312.379 187.734 307.668C187.734 302.953 183.914 299.133 179.199 299.133H136.535C131.82 299.133 128 302.953 128 307.668C128 312.379 131.82 316.199 136.535 316.199Z" fill="#007CE7"/>
</g>
<defs>
<clipPath id="clip0_70_488">
<rect width="512" height="512" fill="white"/>
</clipPath>
</defs>
</svg>
