<svg width="512" height="512" viewBox="0 0 512 512" fill="none" xmlns="http://www.w3.org/2000/svg">
<path d="M397.276 441.191V462.619C397.276 486.88 377.601 506.553 353.342 506.553H157.976C133.716 506.553 114.042 486.879 114.042 462.619V441.191H397.276Z" fill="#A1D7FE"/>
<path d="M397.276 70.8086V441.192H114.042V70.8086H397.276Z" fill="#A1D7FE"/>
<path d="M135.829 92.5957H375.489V419.404H135.829C135.829 410.317 135.829 113.885 135.829 92.5957Z" fill="white"/>
<path d="M432.68 299.575C440.196 299.575 446.297 305.675 446.297 313.192C446.297 320.708 440.196 326.809 432.68 326.809C425.163 326.809 419.062 320.708 419.062 313.192C419.062 305.675 425.163 299.575 432.68 299.575Z" fill="#A1D7FE"/>
<path d="M462.639 49.0215C477.684 49.0215 489.873 61.2114 489.873 76.2555C489.873 91.2996 477.684 103.49 462.639 103.49C447.594 103.49 435.405 91.2996 435.405 76.2555C435.405 61.2114 447.594 49.0215 462.639 49.0215Z" fill="white"/>
<path d="M51.4037 430.298C67.9488 430.298 81.3612 416.885 81.3612 400.34C81.3612 383.795 67.9488 370.383 51.4037 370.383C34.8587 370.383 21.4463 383.795 21.4463 400.34C21.4463 416.885 34.8587 430.298 51.4037 430.298Z" fill="white"/>
<path d="M291.999 167.523C296.848 164.658 302.001 162.991 307.871 162.991C319.418 162.991 328.799 172.49 328.799 184.201C328.799 194.811 323.569 200.117 313.101 205.422C318.341 208.069 322.263 210.727 324.877 214.039C327.491 217.361 328.8 221.337 328.8 226.643C328.8 238.353 319.42 247.852 307.872 247.852C302.001 247.852 296.849 246.186 292 243.321C279.549 235.957 269.158 220.695 254.103 205.422C269.363 190.367 284.636 179.974 291.999 167.523Z" fill="#A1D7FE"/>
<path d="M216.204 167.523C228.655 174.887 239.048 190.149 254.104 205.422C238.83 220.477 223.569 230.869 216.204 243.321C211.356 246.186 206.204 247.852 200.332 247.852C188.785 247.852 179.405 238.353 179.405 226.643C179.405 216.032 184.634 210.727 195.103 205.422C189.863 202.775 185.941 200.117 183.327 196.805C180.713 193.482 179.405 189.506 179.405 184.201C179.405 172.49 188.785 162.991 200.332 162.991C206.204 162.991 211.356 164.658 216.204 167.523Z" fill="#A1D7FE"/>
<path d="M291.999 243.32C294.865 248.167 296.531 253.32 296.531 259.192C296.531 270.74 287.032 280.118 275.311 280.118C264.713 280.118 259.406 274.889 254.102 264.422C251.454 269.662 248.796 273.582 245.485 276.198C242.162 278.812 238.186 280.119 232.881 280.119C221.17 280.119 211.671 270.741 211.671 259.193C211.671 253.321 213.338 248.168 216.203 243.321C223.567 230.869 238.829 220.477 254.103 205.422C269.158 220.694 279.549 235.956 291.999 243.32Z" fill="#A1D7FE"/>
<path d="M296.532 151.65C296.532 157.521 294.867 162.674 292 167.522C284.636 179.973 269.365 190.366 254.103 205.421C239.048 190.148 228.655 174.886 216.203 167.522C213.338 162.674 211.671 157.521 211.671 151.65C211.671 140.103 221.17 130.723 232.881 130.723C243.491 130.723 248.796 135.952 254.102 146.421C256.749 141.181 259.406 137.259 262.718 134.645C266.029 132.03 270.016 130.723 275.311 130.723C287.033 130.723 296.532 140.103 296.532 151.65Z" fill="#A1D7FE"/>
<path d="M255.659 457.532C264.678 457.532 271.999 464.853 271.999 473.873C271.999 482.893 264.678 490.213 255.659 490.213C246.639 490.213 239.318 482.893 239.318 473.873C239.318 464.853 246.639 457.532 255.659 457.532Z" fill="white"/>
<path d="M397.276 49.3802V70.808H114.042V49.3802C114.042 25.1202 133.716 5.44629 157.976 5.44629H353.342C377.601 5.44629 397.276 25.1202 397.276 49.3802Z" fill="#A1D7FE"/>
<path d="M481.702 386.723C486.215 386.723 489.873 383.065 489.873 378.553C489.873 374.041 486.215 370.383 481.702 370.383C477.19 370.383 473.532 374.041 473.532 378.553C473.532 383.065 477.19 386.723 481.702 386.723Z" fill="#007CE7"/>
<path d="M465.363 201.533C469.875 201.533 473.533 197.875 473.533 193.363C473.533 188.85 469.875 185.192 465.363 185.192C460.85 185.192 457.192 188.85 457.192 193.363C457.192 197.875 460.85 201.533 465.363 201.533Z" fill="#007CE7"/>
<path d="M432.681 462.979C437.193 462.979 440.851 459.321 440.851 454.809C440.851 450.297 437.193 446.639 432.681 446.639C428.169 446.639 424.511 450.297 424.511 454.809C424.511 459.321 428.169 462.979 432.681 462.979Z" fill="#007CE7"/>
<path d="M427.233 32.6808C431.745 32.6808 435.403 29.0228 435.403 24.5105C435.403 19.9983 431.745 16.3403 427.233 16.3403C422.72 16.3403 419.062 19.9983 419.062 24.5105C419.062 29.0228 422.72 32.6808 427.233 32.6808Z" fill="#007CE7"/>
<path d="M78.638 277.787C83.1503 277.787 86.8082 274.129 86.8082 269.617C86.8082 265.105 83.1503 261.447 78.638 261.447C74.1257 261.447 70.4678 265.105 70.4678 269.617C70.4678 274.129 74.1257 277.787 78.638 277.787Z" fill="#007CE7"/>
<path d="M67.7444 495.66C72.2567 495.66 75.9146 492.002 75.9146 487.49C75.9146 482.977 72.2567 479.319 67.7444 479.319C63.2321 479.319 59.5742 482.977 59.5742 487.49C59.5742 492.002 63.2321 495.66 67.7444 495.66Z" fill="#007CE7"/>
<path d="M56.8509 43.5748C61.3632 43.5748 65.0211 39.9169 65.0211 35.4046C65.0211 30.8923 61.3632 27.2344 56.8509 27.2344C52.3386 27.2344 48.6807 30.8923 48.6807 35.4046C48.6807 39.9169 52.3386 43.5748 56.8509 43.5748Z" fill="#007CE7"/>
<path d="M40.5101 185.192C45.0223 185.192 48.6803 181.534 48.6803 177.022C48.6803 172.509 45.0223 168.852 40.5101 168.852C35.9978 168.852 32.3398 172.509 32.3398 177.022C32.3398 181.534 35.9978 185.192 40.5101 185.192Z" fill="#007CE7"/>
<path d="M255.659 495.66C243.646 495.66 233.872 485.886 233.872 473.873C233.872 461.859 243.646 452.085 255.659 452.085C267.672 452.085 277.447 461.859 277.447 473.873C277.447 485.886 267.672 495.66 255.659 495.66ZM255.659 462.979C249.653 462.979 244.766 467.866 244.766 473.873C244.766 479.879 249.653 484.766 255.659 484.766C261.666 484.766 266.553 479.879 266.553 473.873C266.553 467.866 261.666 462.979 255.659 462.979Z" fill="#007CE7"/>
<path d="M397.277 76.2559H114.043C111.035 76.2559 108.596 73.8168 108.596 70.8091C108.596 67.8014 111.035 65.3623 114.043 65.3623H397.277C400.285 65.3623 402.723 67.8014 402.723 70.8091C402.723 73.8168 400.285 76.2559 397.277 76.2559Z" fill="#007CE7"/>
<path d="M277.446 43.5753H233.512C230.505 43.5753 228.065 41.1362 228.065 38.1284C228.065 35.1207 230.505 32.6816 233.512 32.6816H277.446C280.455 32.6816 282.893 35.1207 282.893 38.1284C282.893 41.1362 280.455 43.5753 277.446 43.5753Z" fill="#007CE7"/>
<path d="M397.277 446.638H114.043C111.035 446.638 108.596 444.2 108.596 441.191C108.596 438.183 111.035 435.745 114.043 435.745H397.277C400.285 435.745 402.723 438.183 402.723 441.191C402.723 444.2 400.285 446.638 397.277 446.638Z" fill="#007CE7"/>
<path d="M51.4043 435.745C31.8829 435.745 16 419.863 16 400.341C16 380.818 31.8829 364.937 51.4043 364.937C70.9256 364.937 86.8085 380.818 86.8085 400.341C86.8085 419.863 70.9256 435.745 51.4043 435.745ZM51.4043 375.83C37.8885 375.83 26.8936 386.826 26.8936 400.341C26.8936 413.855 37.8885 424.851 51.4043 424.851C64.92 424.851 75.9149 413.855 75.9149 400.341C75.9149 386.826 64.92 375.83 51.4043 375.83Z" fill="#007CE7"/>
<path d="M353.343 512H157.976C130.748 512 108.596 489.848 108.596 462.619V49.3808C108.596 22.1522 130.748 0 157.976 0H353.343C380.571 0 402.723 22.1522 402.723 49.3808V462.619C402.723 489.848 380.571 512 353.343 512ZM157.976 10.8936C136.755 10.8936 119.489 28.1589 119.489 49.3808V462.619C119.489 483.841 136.755 501.106 157.976 501.106H353.343C374.563 501.106 391.83 483.841 391.83 462.619V49.3808C391.83 28.1589 374.563 10.8936 353.343 10.8936H157.976Z" fill="#007CE7"/>
<path d="M462.64 108.937C444.62 108.937 429.959 94.2763 429.959 76.256C429.959 58.2358 444.62 43.5752 462.64 43.5752C480.66 43.5752 495.321 58.2358 495.321 76.256C495.321 94.2763 480.66 108.937 462.64 108.937ZM462.64 54.4688C450.627 54.4688 440.853 64.2426 440.853 76.256C440.853 88.2695 450.627 98.0433 462.64 98.0433C474.652 98.0433 484.427 88.2695 484.427 76.256C484.427 64.2426 474.652 54.4688 462.64 54.4688Z" fill="#007CE7"/>
<path d="M432.68 332.256C422.169 332.256 413.616 323.703 413.616 313.192C413.616 302.681 422.169 294.128 432.68 294.128C443.191 294.128 451.744 302.681 451.744 313.192C451.744 323.703 443.191 332.256 432.68 332.256ZM432.68 305.022C428.174 305.022 424.51 308.687 424.51 313.192C424.51 317.698 428.174 321.362 432.68 321.362C437.186 321.362 440.85 317.698 440.85 313.192C440.85 308.687 437.186 305.022 432.68 305.022Z" fill="#007CE7"/>
<path d="M375.489 424.851H135.83C132.822 424.851 130.383 422.413 130.383 419.404V92.5957C130.383 89.588 132.822 87.1489 135.83 87.1489H375.489C378.498 87.1489 380.936 89.588 380.936 92.5957V419.404C380.936 422.413 378.498 424.851 375.489 424.851ZM141.276 413.957H370.042V98.0425H141.276V413.957Z" fill="#007CE7"/>
<path d="M254.101 210.868C252.695 210.868 251.288 210.327 250.223 209.246C248.111 207.104 248.135 203.655 250.275 201.543C255.585 196.306 260.774 191.728 265.792 187.302C274.969 179.207 282.895 172.215 287.311 164.749C289.885 160.395 291.084 156.232 291.084 151.65C291.084 143.115 284.008 136.171 275.311 136.171C271.344 136.171 268.501 137.019 266.093 138.92C263.676 140.828 261.478 143.899 258.963 148.878C258.036 150.711 256.158 151.867 254.103 151.868H254.101C252.048 151.868 250.169 150.715 249.242 148.883C244.305 139.141 240.483 136.171 232.88 136.171C224.188 136.171 217.117 143.115 217.117 151.65C217.117 156.232 218.317 160.395 220.891 164.751C222.421 167.34 221.563 170.68 218.973 172.211C216.383 173.743 213.044 172.883 211.513 170.294C207.955 164.272 206.225 158.174 206.225 151.65C206.225 137.107 218.183 125.277 232.881 125.277C243.235 125.277 249.546 129.792 254.097 135.88C255.756 133.64 257.475 131.847 259.344 130.37C263.685 126.943 268.909 125.276 275.312 125.276C290.017 125.276 301.978 137.106 301.978 151.649C301.978 158.172 300.249 164.271 296.69 170.293C291.396 179.243 282.87 186.763 273 195.47C268.094 199.798 263.021 204.273 257.927 209.297C256.865 210.345 255.482 210.868 254.101 210.868Z" fill="#007CE7"/>
<path d="M307.873 253.299C301.35 253.299 295.252 251.568 289.231 248.009C280.271 242.712 272.743 234.178 264.028 224.297C259.707 219.399 255.239 214.334 250.223 209.246C248.112 207.103 248.136 203.655 250.278 201.543C252.42 199.432 255.869 199.457 257.981 201.598C263.209 206.901 267.778 212.082 272.197 217.091C280.3 226.279 287.3 234.213 294.775 238.632C299.129 241.206 303.292 242.406 307.873 242.406C316.409 242.406 323.354 235.335 323.354 226.643C323.354 222.677 322.503 219.829 320.599 217.407C318.697 214.999 315.626 212.799 310.645 210.284C308.813 209.358 307.656 207.479 307.656 205.425C307.654 203.372 308.809 201.492 310.64 200.563C320.383 195.626 323.354 191.803 323.354 184.201C323.354 175.509 316.409 168.438 307.873 168.438C303.292 168.438 299.129 169.638 294.773 172.212C292.184 173.741 288.843 172.883 287.311 170.293C285.782 167.704 286.64 164.364 289.231 162.832C295.252 159.273 301.351 157.543 307.873 157.543C322.416 157.543 334.248 169.501 334.248 184.2C334.248 194.553 329.731 200.865 323.644 205.414C325.885 207.075 327.678 208.792 329.155 210.663C332.583 215.02 334.249 220.245 334.249 226.642C334.248 241.34 322.415 253.299 307.873 253.299Z" fill="#007CE7"/>
<path d="M275.311 285.566C264.965 285.566 258.656 281.05 254.108 274.964C252.447 277.204 250.73 278.996 248.86 280.473C244.503 283.902 239.278 285.567 232.88 285.567C218.182 285.567 206.224 273.736 206.224 259.193C206.224 252.671 207.954 246.573 211.512 240.55C216.811 231.591 225.345 224.063 235.226 215.347C240.125 211.027 245.189 206.559 250.277 201.543C252.419 199.432 255.868 199.455 257.98 201.599C260.091 203.741 260.068 207.189 257.925 209.302C252.622 214.528 247.441 219.098 242.432 223.518C233.245 231.621 225.31 238.621 220.891 246.095C218.317 250.45 217.118 254.612 217.118 259.193C217.118 267.728 224.189 274.673 232.881 274.673C236.848 274.673 239.696 273.823 242.117 271.918C244.527 270.016 246.725 266.946 249.24 261.967C250.166 260.133 252.044 258.978 254.098 258.976H254.102C256.155 258.976 258.031 260.13 258.96 261.96C263.898 271.702 267.718 274.673 275.312 274.673C284.009 274.673 291.085 267.728 291.085 259.193C291.085 254.612 289.886 250.449 287.311 246.093C285.781 243.503 286.639 240.163 289.23 238.633C291.818 237.101 295.159 237.959 296.69 240.55C300.25 246.572 301.979 252.67 301.979 259.193C301.979 273.734 290.016 285.566 275.311 285.566Z" fill="#007CE7"/>
<path d="M200.332 253.299C185.789 253.299 173.958 241.34 173.958 226.642C173.958 216.288 178.474 209.977 184.561 205.427C182.321 203.767 180.528 202.049 179.051 200.179C175.622 195.82 173.957 190.596 173.957 184.2C173.957 169.501 185.788 157.543 200.33 157.543C206.854 157.543 212.952 159.273 218.974 162.832C227.934 168.131 235.461 176.665 244.177 186.547C248.498 191.444 252.965 196.51 257.981 201.596C260.092 203.739 260.068 207.188 257.925 209.299C255.782 211.41 252.334 211.387 250.222 209.243C244.995 203.94 240.427 198.761 236.008 193.752C227.903 184.564 220.904 176.629 213.429 172.208C209.074 169.634 204.911 168.436 200.33 168.436C191.795 168.436 184.851 175.507 184.851 184.199C184.851 188.164 185.7 191.013 187.607 193.436C189.509 195.844 192.579 198.044 197.558 200.559C199.391 201.485 200.548 203.363 200.549 205.417C200.551 207.47 199.397 209.35 197.565 210.278C187.821 215.215 184.852 219.039 184.852 226.641C184.852 235.333 191.796 242.404 200.332 242.404C204.913 242.404 209.076 241.204 213.431 238.63C216.021 237.098 219.362 237.958 220.892 240.547C222.423 243.137 221.564 246.477 218.975 248.008C212.953 251.568 206.855 253.299 200.332 253.299Z" fill="#007CE7"/>
<path d="M315.574 392.17H135.83C132.822 392.17 130.383 389.732 130.383 386.724C130.383 383.715 132.822 381.277 135.83 381.277H315.574C318.583 381.277 321.021 383.715 321.021 386.724C321.021 389.732 318.583 392.17 315.574 392.17Z" fill="#007CE7"/>
<path d="M315.574 370.383H135.83C132.822 370.383 130.383 367.945 130.383 364.936C130.383 361.927 132.822 359.489 135.83 359.489H315.574C318.583 359.489 321.021 361.927 321.021 364.936C321.021 367.945 318.583 370.383 315.574 370.383Z" fill="#007CE7"/>
<path d="M375.489 348.596H195.745C192.737 348.596 190.298 346.158 190.298 343.149C190.298 340.141 192.737 337.703 195.745 337.703H375.489C378.498 337.703 380.936 340.141 380.936 343.149C380.936 346.158 378.498 348.596 375.489 348.596Z" fill="#007CE7"/>
<path d="M375.489 326.809H195.745C192.737 326.809 190.298 324.371 190.298 321.362C190.298 318.354 192.737 315.916 195.745 315.916H375.489C378.498 315.916 380.936 318.354 380.936 321.362C380.936 324.371 378.498 326.809 375.489 326.809Z" fill="#007CE7"/>
<path d="M397.276 441.191V462.619C397.276 486.88 377.601 506.553 353.342 506.553H157.976C133.716 506.553 114.042 486.879 114.042 462.619V441.191H397.276Z" fill="#A1D7FE"/>
<path d="M397.276 70.8086V441.192H114.042V70.8086H397.276Z" fill="#A1D7FE"/>
<path d="M135.829 92.5957H375.489V419.404H135.829C135.829 410.317 135.829 113.885 135.829 92.5957Z" fill="white"/>
<path d="M432.68 299.575C440.196 299.575 446.297 305.675 446.297 313.192C446.297 320.708 440.196 326.809 432.68 326.809C425.163 326.809 419.062 320.708 419.062 313.192C419.062 305.675 425.163 299.575 432.68 299.575Z" fill="#A1D7FE"/>
<path d="M462.639 49.0215C477.684 49.0215 489.873 61.2114 489.873 76.2555C489.873 91.2996 477.684 103.49 462.639 103.49C447.594 103.49 435.405 91.2996 435.405 76.2555C435.405 61.2114 447.594 49.0215 462.639 49.0215Z" fill="white"/>
<path d="M51.4037 430.298C67.9488 430.298 81.3612 416.885 81.3612 400.34C81.3612 383.795 67.9488 370.383 51.4037 370.383C34.8587 370.383 21.4463 383.795 21.4463 400.34C21.4463 416.885 34.8587 430.298 51.4037 430.298Z" fill="white"/>
<path d="M291.999 167.523C296.848 164.658 302.001 162.991 307.871 162.991C319.418 162.991 328.799 172.49 328.799 184.201C328.799 194.811 323.569 200.117 313.101 205.422C318.341 208.069 322.263 210.727 324.877 214.039C327.491 217.361 328.8 221.337 328.8 226.643C328.8 238.353 319.42 247.852 307.872 247.852C302.001 247.852 296.849 246.186 292 243.321C279.549 235.957 269.158 220.695 254.103 205.422C269.363 190.367 284.636 179.974 291.999 167.523Z" fill="#A1D7FE"/>
<path d="M216.204 167.523C228.655 174.887 239.048 190.149 254.104 205.422C238.83 220.477 223.569 230.869 216.204 243.321C211.356 246.186 206.204 247.852 200.332 247.852C188.785 247.852 179.405 238.353 179.405 226.643C179.405 216.032 184.634 210.727 195.103 205.422C189.863 202.775 185.941 200.117 183.327 196.805C180.713 193.482 179.405 189.506 179.405 184.201C179.405 172.49 188.785 162.991 200.332 162.991C206.204 162.991 211.356 164.658 216.204 167.523Z" fill="#A1D7FE"/>
<path d="M291.999 243.32C294.865 248.167 296.531 253.32 296.531 259.192C296.531 270.74 287.032 280.118 275.311 280.118C264.713 280.118 259.406 274.889 254.102 264.422C251.454 269.662 248.796 273.582 245.485 276.198C242.162 278.812 238.186 280.119 232.881 280.119C221.17 280.119 211.671 270.741 211.671 259.193C211.671 253.321 213.338 248.168 216.203 243.321C223.567 230.869 238.829 220.477 254.103 205.422C269.158 220.694 279.549 235.956 291.999 243.32Z" fill="#A1D7FE"/>
<path d="M296.532 151.65C296.532 157.521 294.867 162.674 292 167.522C284.636 179.973 269.365 190.366 254.103 205.421C239.048 190.148 228.655 174.886 216.203 167.522C213.338 162.674 211.671 157.521 211.671 151.65C211.671 140.103 221.17 130.723 232.881 130.723C243.491 130.723 248.796 135.952 254.102 146.421C256.749 141.181 259.406 137.259 262.718 134.645C266.029 132.03 270.016 130.723 275.311 130.723C287.033 130.723 296.532 140.103 296.532 151.65Z" fill="#A1D7FE"/>
<path d="M255.659 457.532C264.678 457.532 271.999 464.853 271.999 473.873C271.999 482.893 264.678 490.213 255.659 490.213C246.639 490.213 239.318 482.893 239.318 473.873C239.318 464.853 246.639 457.532 255.659 457.532Z" fill="white"/>
<path d="M397.276 49.3802V70.808H114.042V49.3802C114.042 25.1202 133.716 5.44629 157.976 5.44629H353.342C377.601 5.44629 397.276 25.1202 397.276 49.3802Z" fill="#A1D7FE"/>
<path d="M481.702 386.723C486.215 386.723 489.873 383.065 489.873 378.553C489.873 374.041 486.215 370.383 481.702 370.383C477.19 370.383 473.532 374.041 473.532 378.553C473.532 383.065 477.19 386.723 481.702 386.723Z" fill="#007CE7"/>
<path d="M465.363 201.533C469.875 201.533 473.533 197.875 473.533 193.363C473.533 188.85 469.875 185.192 465.363 185.192C460.85 185.192 457.192 188.85 457.192 193.363C457.192 197.875 460.85 201.533 465.363 201.533Z" fill="#007CE7"/>
<path d="M432.681 462.979C437.193 462.979 440.851 459.321 440.851 454.809C440.851 450.297 437.193 446.639 432.681 446.639C428.169 446.639 424.511 450.297 424.511 454.809C424.511 459.321 428.169 462.979 432.681 462.979Z" fill="#007CE7"/>
<path d="M427.233 32.6808C431.745 32.6808 435.403 29.0228 435.403 24.5105C435.403 19.9983 431.745 16.3403 427.233 16.3403C422.72 16.3403 419.062 19.9983 419.062 24.5105C419.062 29.0228 422.72 32.6808 427.233 32.6808Z" fill="#007CE7"/>
<path d="M78.638 277.787C83.1503 277.787 86.8082 274.129 86.8082 269.617C86.8082 265.105 83.1503 261.447 78.638 261.447C74.1257 261.447 70.4678 265.105 70.4678 269.617C70.4678 274.129 74.1257 277.787 78.638 277.787Z" fill="#007CE7"/>
<path d="M67.7444 495.66C72.2567 495.66 75.9146 492.002 75.9146 487.49C75.9146 482.977 72.2567 479.319 67.7444 479.319C63.2321 479.319 59.5742 482.977 59.5742 487.49C59.5742 492.002 63.2321 495.66 67.7444 495.66Z" fill="#007CE7"/>
<path d="M56.8509 43.5748C61.3632 43.5748 65.0211 39.9169 65.0211 35.4046C65.0211 30.8923 61.3632 27.2344 56.8509 27.2344C52.3386 27.2344 48.6807 30.8923 48.6807 35.4046C48.6807 39.9169 52.3386 43.5748 56.8509 43.5748Z" fill="#007CE7"/>
<path d="M40.5101 185.192C45.0223 185.192 48.6803 181.534 48.6803 177.022C48.6803 172.509 45.0223 168.852 40.5101 168.852C35.9978 168.852 32.3398 172.509 32.3398 177.022C32.3398 181.534 35.9978 185.192 40.5101 185.192Z" fill="#007CE7"/>
<path d="M255.659 495.66C243.646 495.66 233.872 485.886 233.872 473.873C233.872 461.859 243.646 452.085 255.659 452.085C267.672 452.085 277.447 461.859 277.447 473.873C277.447 485.886 267.672 495.66 255.659 495.66ZM255.659 462.979C249.653 462.979 244.766 467.866 244.766 473.873C244.766 479.879 249.653 484.766 255.659 484.766C261.666 484.766 266.553 479.879 266.553 473.873C266.553 467.866 261.666 462.979 255.659 462.979Z" fill="#007CE7"/>
<path d="M397.277 76.2559H114.043C111.035 76.2559 108.596 73.8168 108.596 70.8091C108.596 67.8014 111.035 65.3623 114.043 65.3623H397.277C400.285 65.3623 402.723 67.8014 402.723 70.8091C402.723 73.8168 400.285 76.2559 397.277 76.2559Z" fill="#007CE7"/>
<path d="M277.446 43.5753H233.512C230.505 43.5753 228.065 41.1362 228.065 38.1284C228.065 35.1207 230.505 32.6816 233.512 32.6816H277.446C280.455 32.6816 282.893 35.1207 282.893 38.1284C282.893 41.1362 280.455 43.5753 277.446 43.5753Z" fill="#007CE7"/>
<path d="M397.277 446.638H114.043C111.035 446.638 108.596 444.2 108.596 441.191C108.596 438.183 111.035 435.745 114.043 435.745H397.277C400.285 435.745 402.723 438.183 402.723 441.191C402.723 444.2 400.285 446.638 397.277 446.638Z" fill="#007CE7"/>
<path d="M51.4043 435.745C31.8829 435.745 16 419.863 16 400.341C16 380.818 31.8829 364.937 51.4043 364.937C70.9256 364.937 86.8085 380.818 86.8085 400.341C86.8085 419.863 70.9256 435.745 51.4043 435.745ZM51.4043 375.83C37.8885 375.83 26.8936 386.826 26.8936 400.341C26.8936 413.855 37.8885 424.851 51.4043 424.851C64.92 424.851 75.9149 413.855 75.9149 400.341C75.9149 386.826 64.92 375.83 51.4043 375.83Z" fill="#007CE7"/>
<path d="M353.343 512H157.976C130.748 512 108.596 489.848 108.596 462.619V49.3808C108.596 22.1522 130.748 0 157.976 0H353.343C380.571 0 402.723 22.1522 402.723 49.3808V462.619C402.723 489.848 380.571 512 353.343 512ZM157.976 10.8936C136.755 10.8936 119.489 28.1589 119.489 49.3808V462.619C119.489 483.841 136.755 501.106 157.976 501.106H353.343C374.563 501.106 391.83 483.841 391.83 462.619V49.3808C391.83 28.1589 374.563 10.8936 353.343 10.8936H157.976Z" fill="#007CE7"/>
<path d="M462.64 108.937C444.62 108.937 429.959 94.2763 429.959 76.256C429.959 58.2358 444.62 43.5752 462.64 43.5752C480.66 43.5752 495.321 58.2358 495.321 76.256C495.321 94.2763 480.66 108.937 462.64 108.937ZM462.64 54.4688C450.627 54.4688 440.853 64.2426 440.853 76.256C440.853 88.2695 450.627 98.0433 462.64 98.0433C474.652 98.0433 484.427 88.2695 484.427 76.256C484.427 64.2426 474.652 54.4688 462.64 54.4688Z" fill="#007CE7"/>
<path d="M432.68 332.256C422.169 332.256 413.616 323.703 413.616 313.192C413.616 302.681 422.169 294.128 432.68 294.128C443.191 294.128 451.744 302.681 451.744 313.192C451.744 323.703 443.191 332.256 432.68 332.256ZM432.68 305.022C428.174 305.022 424.51 308.687 424.51 313.192C424.51 317.698 428.174 321.362 432.68 321.362C437.186 321.362 440.85 317.698 440.85 313.192C440.85 308.687 437.186 305.022 432.68 305.022Z" fill="#007CE7"/>
<path d="M375.489 424.851H135.83C132.822 424.851 130.383 422.413 130.383 419.404V92.5957C130.383 89.588 132.822 87.1489 135.83 87.1489H375.489C378.498 87.1489 380.936 89.588 380.936 92.5957V419.404C380.936 422.413 378.498 424.851 375.489 424.851ZM141.276 413.957H370.042V98.0425H141.276V413.957Z" fill="#007CE7"/>
<path d="M254.101 210.868C252.695 210.868 251.288 210.327 250.223 209.246C248.111 207.104 248.135 203.655 250.275 201.543C255.585 196.306 260.774 191.728 265.792 187.302C274.969 179.207 282.895 172.215 287.311 164.749C289.885 160.395 291.084 156.232 291.084 151.65C291.084 143.115 284.008 136.171 275.311 136.171C271.344 136.171 268.501 137.019 266.093 138.92C263.676 140.828 261.478 143.899 258.963 148.878C258.036 150.711 256.158 151.867 254.103 151.868H254.101C252.048 151.868 250.169 150.715 249.242 148.883C244.305 139.141 240.483 136.171 232.88 136.171C224.188 136.171 217.117 143.115 217.117 151.65C217.117 156.232 218.317 160.395 220.891 164.751C222.421 167.34 221.563 170.68 218.973 172.211C216.383 173.743 213.044 172.883 211.513 170.294C207.955 164.272 206.225 158.174 206.225 151.65C206.225 137.107 218.183 125.277 232.881 125.277C243.235 125.277 249.546 129.792 254.097 135.88C255.756 133.64 257.475 131.847 259.344 130.37C263.685 126.943 268.909 125.276 275.312 125.276C290.017 125.276 301.978 137.106 301.978 151.649C301.978 158.172 300.249 164.271 296.69 170.293C291.396 179.243 282.87 186.763 273 195.47C268.094 199.798 263.021 204.273 257.927 209.297C256.865 210.345 255.482 210.868 254.101 210.868Z" fill="#007CE7"/>
<path d="M307.873 253.299C301.35 253.299 295.252 251.568 289.231 248.009C280.271 242.712 272.743 234.178 264.028 224.297C259.707 219.399 255.239 214.334 250.223 209.246C248.112 207.103 248.136 203.655 250.278 201.543C252.42 199.432 255.869 199.457 257.981 201.598C263.209 206.901 267.778 212.082 272.197 217.091C280.3 226.279 287.3 234.213 294.775 238.632C299.129 241.206 303.292 242.406 307.873 242.406C316.409 242.406 323.354 235.335 323.354 226.643C323.354 222.677 322.503 219.829 320.599 217.407C318.697 214.999 315.626 212.799 310.645 210.284C308.813 209.358 307.656 207.479 307.656 205.425C307.654 203.372 308.809 201.492 310.64 200.563C320.383 195.626 323.354 191.803 323.354 184.201C323.354 175.509 316.409 168.438 307.873 168.438C303.292 168.438 299.129 169.638 294.773 172.212C292.184 173.741 288.843 172.883 287.311 170.293C285.782 167.704 286.64 164.364 289.231 162.832C295.252 159.273 301.351 157.543 307.873 157.543C322.416 157.543 334.248 169.501 334.248 184.2C334.248 194.553 329.731 200.865 323.644 205.414C325.885 207.075 327.678 208.792 329.155 210.663C332.583 215.02 334.249 220.245 334.249 226.642C334.248 241.34 322.415 253.299 307.873 253.299Z" fill="#007CE7"/>
<path d="M275.311 285.566C264.965 285.566 258.656 281.05 254.108 274.964C252.447 277.204 250.73 278.996 248.86 280.473C244.503 283.902 239.278 285.567 232.88 285.567C218.182 285.567 206.224 273.736 206.224 259.193C206.224 252.671 207.954 246.573 211.512 240.55C216.811 231.591 225.345 224.063 235.226 215.347C240.125 211.027 245.189 206.559 250.277 201.543C252.419 199.432 255.868 199.455 257.98 201.599C260.091 203.741 260.068 207.189 257.925 209.302C252.622 214.528 247.441 219.098 242.432 223.518C233.245 231.621 225.31 238.621 220.891 246.095C218.317 250.45 217.118 254.612 217.118 259.193C217.118 267.728 224.189 274.673 232.881 274.673C236.848 274.673 239.696 273.823 242.117 271.918C244.527 270.016 246.725 266.946 249.24 261.967C250.166 260.133 252.044 258.978 254.098 258.976H254.102C256.155 258.976 258.031 260.13 258.96 261.96C263.898 271.702 267.718 274.673 275.312 274.673C284.009 274.673 291.085 267.728 291.085 259.193C291.085 254.612 289.886 250.449 287.311 246.093C285.781 243.503 286.639 240.163 289.23 238.633C291.818 237.101 295.159 237.959 296.69 240.55C300.25 246.572 301.979 252.67 301.979 259.193C301.979 273.734 290.016 285.566 275.311 285.566Z" fill="#007CE7"/>
<path d="M200.332 253.299C185.789 253.299 173.958 241.34 173.958 226.642C173.958 216.288 178.474 209.977 184.561 205.427C182.321 203.767 180.528 202.049 179.051 200.179C175.622 195.82 173.957 190.596 173.957 184.2C173.957 169.501 185.788 157.543 200.33 157.543C206.854 157.543 212.952 159.273 218.974 162.832C227.934 168.131 235.461 176.665 244.177 186.547C248.498 191.444 252.965 196.51 257.981 201.596C260.092 203.739 260.068 207.188 257.925 209.299C255.782 211.41 252.334 211.387 250.222 209.243C244.995 203.94 240.427 198.761 236.008 193.752C227.903 184.564 220.904 176.629 213.429 172.208C209.074 169.634 204.911 168.436 200.33 168.436C191.795 168.436 184.851 175.507 184.851 184.199C184.851 188.164 185.7 191.013 187.607 193.436C189.509 195.844 192.579 198.044 197.558 200.559C199.391 201.485 200.548 203.363 200.549 205.417C200.551 207.47 199.397 209.35 197.565 210.278C187.821 215.215 184.852 219.039 184.852 226.641C184.852 235.333 191.796 242.404 200.332 242.404C204.913 242.404 209.076 241.204 213.431 238.63C216.021 237.098 219.362 237.958 220.892 240.547C222.423 243.137 221.564 246.477 218.975 248.008C212.953 251.568 206.855 253.299 200.332 253.299Z" fill="#007CE7"/>
<path d="M315.574 392.17H135.83C132.822 392.17 130.383 389.732 130.383 386.724C130.383 383.715 132.822 381.277 135.83 381.277H315.574C318.583 381.277 321.021 383.715 321.021 386.724C321.021 389.732 318.583 392.17 315.574 392.17Z" fill="#007CE7"/>
<path d="M315.574 370.383H135.83C132.822 370.383 130.383 367.945 130.383 364.936C130.383 361.927 132.822 359.489 135.83 359.489H315.574C318.583 359.489 321.021 361.927 321.021 364.936C321.021 367.945 318.583 370.383 315.574 370.383Z" fill="#007CE7"/>
<path d="M375.489 348.596H195.745C192.737 348.596 190.298 346.158 190.298 343.149C190.298 340.141 192.737 337.703 195.745 337.703H375.489C378.498 337.703 380.936 340.141 380.936 343.149C380.936 346.158 378.498 348.596 375.489 348.596Z" fill="#007CE7"/>
<path d="M375.489 326.809H195.745C192.737 326.809 190.298 324.371 190.298 321.362C190.298 318.354 192.737 315.916 195.745 315.916H375.489C378.498 315.916 380.936 318.354 380.936 321.362C380.936 324.371 378.498 326.809 375.489 326.809Z" fill="#007CE7"/>
</svg>
