<svg width="512" height="512" viewBox="0 0 512 512" fill="none" xmlns="http://www.w3.org/2000/svg">
<path d="M295.038 274.409V150.148C248.072 194.33 212.198 150.148 212.198 150.148V274.409L211.968 275.156C224.152 279.067 238.396 281.312 253.618 281.312C268.84 281.312 283.084 279.068 295.28 275.168L295.038 274.409Z" fill="#A1D7FE"/>
<path d="M46.5172 28.7642C56.0427 28.7642 63.7756 36.4959 63.7756 46.0226C63.7756 55.5492 56.0427 63.281 46.5172 63.281C36.9906 63.281 29.2588 55.5492 29.2588 46.0226C29.2588 36.4959 36.9906 28.7642 46.5172 28.7642Z" fill="white"/>
<path d="M311.145 442.966V448.719C311.145 464.596 304.702 478.978 294.289 489.391C283.877 499.804 269.495 506.247 253.617 506.247C221.85 506.247 196.089 480.486 196.089 448.719V442.966H311.145Z" fill="#A1D7FE"/>
<path d="M317.13 391.19H319.776C326.933 391.19 333.399 394.09 338.082 398.773C342.765 403.455 345.664 409.922 345.664 417.078C345.664 431.38 334.078 442.966 319.776 442.966H311.147H196.091H187.462C180.304 442.966 173.839 440.066 169.156 435.383C164.474 430.701 161.574 424.235 161.574 417.078C161.574 402.777 173.159 391.19 187.462 391.19H190.108H317.13Z" fill="#A1D7FE"/>
<path d="M58.0229 402.696C70.7366 402.696 81.0342 412.994 81.0342 425.708C81.0342 438.421 70.7366 448.719 58.0229 448.719C45.3092 448.719 35.0117 438.421 35.0117 425.708C35.0117 412.994 45.3092 402.696 58.0229 402.696Z" fill="white"/>
<path d="M452.089 425.708C469.563 425.708 483.729 411.542 483.729 394.067C483.729 376.593 469.563 362.427 452.089 362.427C434.614 362.427 420.448 376.593 420.448 394.067C420.448 411.542 434.614 425.708 452.089 425.708Z" fill="white"/>
<path d="M438.858 190.993L405.675 192.327C405.675 108.348 337.597 40.2693 253.617 40.2693C169.638 40.2693 101.559 108.348 101.559 192.327L68.377 190.993C68.377 88.6849 151.309 5.75244 253.617 5.75244C355.925 5.75244 438.858 88.6849 438.858 190.993Z" fill="#A1D7FE"/>
<path d="M492.36 287.641C497.125 287.641 500.989 283.778 500.989 279.012C500.989 274.246 497.125 270.383 492.36 270.383C487.594 270.383 483.73 274.246 483.73 279.012C483.73 283.778 487.594 287.641 492.36 287.641Z" fill="#007CE7"/>
<path d="M429.077 40.2701C433.843 40.2701 437.707 36.4067 437.707 31.6409C437.707 26.8751 433.843 23.0117 429.077 23.0117C424.312 23.0117 420.448 26.8751 420.448 31.6409C420.448 36.4067 424.312 40.2701 429.077 40.2701Z" fill="#007CE7"/>
<path d="M388.809 465.977C393.575 465.977 397.438 462.114 397.438 457.348C397.438 452.582 393.575 448.719 388.809 448.719C384.043 448.719 380.18 452.582 380.18 457.348C380.18 462.114 384.043 465.977 388.809 465.977Z" fill="#007CE7"/>
<path d="M253.618 253.123C256.795 253.123 259.371 250.548 259.371 247.37C259.371 244.193 256.795 241.618 253.618 241.618C250.441 241.618 247.865 244.193 247.865 247.37C247.865 250.548 250.441 253.123 253.618 253.123Z" fill="#007CE7"/>
<path d="M129.931 471.73C134.697 471.73 138.56 467.867 138.56 463.101C138.56 458.335 134.697 454.472 129.931 454.472C125.165 454.472 121.302 458.335 121.302 463.101C121.302 467.867 125.165 471.73 129.931 471.73Z" fill="#007CE7"/>
<path d="M124.18 23.0109C128.946 23.0109 132.809 19.1474 132.809 14.3816C132.809 9.61587 128.946 5.75244 124.18 5.75244C119.414 5.75244 115.551 9.61587 115.551 14.3816C115.551 19.1474 119.414 23.0109 124.18 23.0109Z" fill="#007CE7"/>
<path d="M20.6292 322.157C25.395 322.157 29.2584 318.293 29.2584 313.528C29.2584 308.762 25.395 304.898 20.6292 304.898C15.8634 304.898 12 308.762 12 313.528C12 318.293 15.8634 322.157 20.6292 322.157Z" fill="#007CE7"/>
<path d="M253.618 287.065C238.324 287.065 223.314 284.841 210.208 280.634C198.444 276.867 188.291 271.52 180.849 265.175C178.432 263.114 178.143 259.482 180.205 257.065C182.267 254.647 185.897 254.359 188.315 256.42C194.608 261.785 203.392 266.37 213.721 269.677C225.707 273.525 239.501 275.558 253.616 275.558C267.716 275.558 281.516 273.527 293.525 269.687C303.857 266.379 312.637 261.796 318.913 256.433C321.326 254.368 324.959 254.653 327.023 257.07C329.087 259.486 328.803 263.116 326.387 265.18C318.96 271.528 308.81 276.874 297.032 280.645C283.904 284.845 268.891 287.065 253.618 287.065Z" fill="#007CE7"/>
<path d="M295.039 280.162C291.861 280.162 289.286 277.587 289.286 274.409V151.742L253.618 92.2969L217.951 151.742V274.409C217.951 277.587 215.375 280.162 212.198 280.162C209.02 280.162 206.445 277.587 206.445 274.409V150.148C206.445 149.106 206.728 148.083 207.265 147.189L248.685 78.1554C249.725 76.4226 251.598 75.3618 253.618 75.3618C255.639 75.3618 257.512 76.4215 258.551 78.1554L299.971 147.189C300.508 148.083 300.791 149.106 300.791 150.148V274.409C300.791 277.587 298.216 280.162 295.039 280.162Z" fill="#007CE7"/>
<path d="M252.73 175.539C251.561 175.539 250.394 175.499 249.223 175.421C224.218 173.744 208.393 154.589 207.73 153.775C205.728 151.308 206.103 147.686 208.57 145.683C211.033 143.683 214.648 144.056 216.653 146.511C216.838 146.735 230.181 162.668 250.104 163.949C263.686 164.827 277.478 158.769 291.095 145.959C293.409 143.782 297.052 143.894 299.226 146.207C301.404 148.521 301.293 152.161 298.978 154.338C284.012 168.419 268.469 175.539 252.73 175.539Z" fill="#007CE7"/>
<path d="M317.129 396.944C313.951 396.944 311.376 394.369 311.376 391.191V365.062C311.376 362.645 312.887 360.486 315.157 359.657C385.706 333.909 433.106 266.127 433.106 190.993C433.106 92.023 352.588 11.5056 253.618 11.5056C154.648 11.5056 74.1306 92.023 74.1306 190.993C74.1306 266.128 121.53 333.909 192.079 359.657C194.35 360.487 195.86 362.645 195.86 365.062V391.191C195.86 394.369 193.284 396.944 190.107 396.944C186.929 396.944 184.354 394.369 184.354 391.191V369.041C149.546 355.505 119.723 332.267 97.9219 301.643C74.8302 269.206 62.625 230.944 62.625 190.993C62.625 85.6789 148.304 0 253.618 0C358.931 0 444.611 85.6789 444.611 190.993C444.611 230.944 432.406 269.206 409.314 301.643C387.512 332.267 357.689 355.505 322.882 369.041V391.191C322.882 394.369 320.307 396.944 317.129 396.944Z" fill="#007CE7"/>
<path d="M405.676 198.081C404.193 198.081 402.766 197.508 401.691 196.477C400.561 195.392 399.924 193.894 399.924 192.328C399.924 111.655 334.291 46.0227 253.618 46.0227C172.946 46.0227 107.313 111.655 107.313 192.328C107.313 193.894 106.674 195.392 105.546 196.477C104.416 197.561 102.896 198.13 101.329 198.076L68.1467 196.742C64.9723 196.614 62.502 193.937 62.6297 190.762C62.7574 187.588 65.4348 185.141 68.6092 185.245L95.9178 186.344C99.0738 102.087 168.602 34.5171 253.618 34.5171C338.633 34.5171 408.163 102.087 411.318 186.344L438.627 185.245C441.776 185.114 444.479 187.587 444.607 190.762C444.735 193.937 442.264 196.614 439.09 196.742L405.908 198.076C405.831 198.08 405.754 198.081 405.676 198.081Z" fill="#007CE7"/>
<path d="M319.774 448.719H311.145C307.967 448.719 305.392 446.144 305.392 442.966C305.392 439.788 307.967 437.213 311.145 437.213H319.774C330.876 437.213 339.909 428.18 339.909 417.078C339.909 411.7 337.815 406.644 334.013 402.84C330.209 399.038 325.153 396.944 319.774 396.944H187.46C176.358 396.944 167.325 405.977 167.325 417.078C167.325 422.457 169.419 427.513 173.222 431.317C177.025 435.119 182.081 437.213 187.46 437.213H196.089C199.266 437.213 201.842 439.788 201.842 442.966C201.842 446.144 199.266 448.719 196.089 448.719H187.46C179.008 448.719 171.062 445.428 165.086 439.451C159.111 433.475 155.819 425.529 155.819 417.078C155.819 399.632 170.013 385.438 187.46 385.438H319.774C328.226 385.438 336.172 388.729 342.147 394.706C348.123 400.681 351.415 408.628 351.415 417.078C351.415 434.524 337.22 448.719 319.774 448.719Z" fill="#007CE7"/>
<path d="M253.617 512C218.724 512 190.336 483.612 190.336 448.719V442.966C190.336 439.788 192.911 437.213 196.089 437.213H311.145C314.323 437.213 316.898 439.788 316.898 442.966V448.719C316.898 465.615 310.313 481.503 298.356 493.46C286.401 505.415 270.513 512 253.617 512ZM201.842 448.719C201.842 477.269 225.067 500.494 253.617 500.494C267.44 500.494 280.438 495.106 290.221 485.324C300.005 475.541 305.392 462.542 305.392 448.719H201.842Z" fill="#007CE7"/>
<path d="M253.618 235.289C250.44 235.289 247.865 232.713 247.865 229.537V172.584C247.865 169.407 250.44 166.831 253.618 166.831C256.796 166.831 259.371 169.407 259.371 172.584V229.537C259.371 232.713 256.796 235.289 253.618 235.289Z" fill="#007CE7"/>
<path d="M58.0228 454.471C42.1623 454.471 29.2588 441.568 29.2588 425.707C29.2588 409.847 42.1623 396.943 58.0228 396.943C73.8833 396.943 86.7868 409.847 86.7868 425.707C86.7868 441.568 73.8833 454.471 58.0228 454.471ZM58.0228 408.449C48.5065 408.449 40.7644 416.19 40.7644 425.707C40.7644 435.225 48.5065 442.966 58.0228 442.966C67.5391 442.966 75.2812 435.225 75.2812 425.707C75.2812 416.19 67.5391 408.449 58.0228 408.449Z" fill="#007CE7"/>
<path d="M46.5161 69.0342C33.8277 69.0342 23.5049 58.7113 23.5049 46.0229C23.5049 33.3346 33.8277 23.0117 46.5161 23.0117C59.2033 23.0117 69.5273 33.3346 69.5273 46.0229C69.5273 58.7113 59.2033 69.0342 46.5161 69.0342ZM46.5161 34.5173C40.1708 34.5173 35.0105 39.6788 35.0105 46.0229C35.0105 52.3671 40.1708 57.5286 46.5161 57.5286C52.8603 57.5286 58.0217 52.3671 58.0217 46.0229C58.0217 39.6788 52.8603 34.5173 46.5161 34.5173Z" fill="#007CE7"/>
<path d="M452.09 431.461C431.47 431.461 414.696 414.687 414.696 394.068C414.696 373.448 431.47 356.674 452.09 356.674C472.709 356.674 489.483 373.448 489.483 394.068C489.483 414.687 472.709 431.461 452.09 431.461ZM452.09 368.18C437.816 368.18 426.202 379.794 426.202 394.068C426.202 408.341 437.816 419.955 452.09 419.955C466.363 419.955 477.977 408.341 477.977 394.068C477.977 379.794 466.363 368.18 452.09 368.18Z" fill="#007CE7"/>
</svg>
