<svg width="512" height="512" viewBox="0 0 512 512" fill="none" xmlns="http://www.w3.org/2000/svg">
<g clip-path="url(#clip0_73_2)">
<path d="M324.266 366.934C324.196 353.591 327.124 340.403 332.836 328.345C338.548 316.286 346.896 305.665 357.265 297.267C383.504 276.282 402.576 247.664 411.843 215.369C421.111 183.074 420.116 148.697 408.997 116.992C397.878 85.2862 377.184 57.8182 349.775 38.3852C322.367 18.9522 289.598 8.51416 256 8.51416C222.401 8.51416 189.632 18.9522 162.224 38.3852C134.815 57.8182 114.121 85.2862 103.002 116.992C91.8829 148.697 90.8885 183.074 100.156 215.369C109.424 247.664 128.495 276.282 154.734 297.267C165.103 305.665 173.451 316.286 179.163 328.345C184.875 340.403 187.803 353.591 187.733 366.934H324.266Z" fill="#A1D7FE"/>
<path d="M255.999 8.53369C251.681 8.53369 247.466 8.84942 243.199 9.18222C275.597 11.7244 306.482 23.9508 331.841 44.2732C357.2 64.5956 375.862 92.0746 385.402 123.14C394.941 154.206 394.918 187.423 385.335 218.475C375.752 249.528 357.052 276.981 331.664 297.268C321.296 305.666 312.947 316.286 307.236 328.345C301.524 340.403 298.595 353.591 298.666 366.934H324.266C324.195 353.591 327.124 340.403 332.836 328.345C338.547 316.286 346.896 305.666 357.264 297.268C383.496 276.281 402.561 247.663 411.823 215.372C421.086 183.08 420.09 148.709 408.971 117.008C397.853 85.3072 377.163 57.8428 349.759 38.4108C322.356 18.9787 289.593 8.53871 255.999 8.53369Z" fill="#6AB6ED"/>
<path d="M324.266 366.934H187.733C178.307 366.934 170.666 374.575 170.666 384C170.666 393.426 178.307 401.067 187.733 401.067H324.266C333.692 401.067 341.333 393.426 341.333 384C341.333 374.575 333.692 366.934 324.266 366.934Z" fill="white"/>
<path d="M324.266 366.934H298.666C303.192 366.934 307.533 368.732 310.734 371.932C313.935 375.133 315.733 379.474 315.733 384C315.733 388.527 313.935 392.868 310.734 396.068C307.533 399.269 303.192 401.067 298.666 401.067H324.266C328.792 401.067 333.133 399.269 336.334 396.068C339.535 392.868 341.333 388.527 341.333 384C341.333 379.474 339.535 375.133 336.334 371.932C333.133 368.732 328.792 366.934 324.266 366.934Z" fill="white"/>
<path d="M324.266 401.067H187.733C178.307 401.067 170.666 408.708 170.666 418.134C170.666 427.559 178.307 435.2 187.733 435.2H324.266C333.692 435.2 341.333 427.559 341.333 418.134C341.333 408.708 333.692 401.067 324.266 401.067Z" fill="white"/>
<path d="M324.266 401.067H298.666C303.192 401.067 307.533 402.865 310.734 406.066C313.935 409.266 315.733 413.607 315.733 418.134C315.733 422.66 313.935 427.001 310.734 430.202C307.533 433.402 303.192 435.2 298.666 435.2H324.266C328.792 435.2 333.133 433.402 336.334 430.202C339.535 427.001 341.333 422.66 341.333 418.134C341.333 413.607 339.535 409.266 336.334 406.066C333.133 402.865 328.792 401.067 324.266 401.067Z" fill="white"/>
<path d="M324.266 435.2H187.733C178.307 435.2 170.666 442.841 170.666 452.267C170.666 461.693 178.307 469.334 187.733 469.334H324.266C333.692 469.334 341.333 461.693 341.333 452.267C341.333 442.841 333.692 435.2 324.266 435.2Z" fill="white"/>
<path d="M324.266 435.2H298.666C303.192 435.2 307.533 436.998 310.734 440.199C313.935 443.4 315.733 447.741 315.733 452.267C315.733 456.793 313.935 461.134 310.734 464.335C307.533 467.535 303.192 469.334 298.666 469.334H324.266C328.792 469.334 333.133 467.535 336.334 464.335C339.535 461.134 341.333 456.793 341.333 452.267C341.333 447.741 339.535 443.4 336.334 440.199C333.133 436.998 328.792 435.2 324.266 435.2Z" fill="white"/>
<path d="M315.733 469.333C308.053 489.071 284.228 503.467 256 503.467C227.772 503.467 203.947 489.071 196.267 469.333H315.733Z" fill="white"/>
<path d="M290.133 469.333C285.785 478.389 279.188 486.178 270.971 491.955C262.753 497.733 253.192 501.305 243.199 502.332C247.428 503.055 251.709 503.435 255.999 503.467C284.227 503.467 308.053 489.071 315.733 469.333H290.133Z" fill="white"/>
<path d="M290.133 153.6H221.866C221.856 150.313 222.97 147.121 225.024 144.555L249.344 114.176C250.131 113.161 251.14 112.339 252.294 111.774C253.447 111.208 254.715 110.915 256 110.915C257.284 110.915 258.552 111.208 259.706 111.774C260.859 112.339 261.868 113.161 262.656 114.176L286.976 144.555C289.029 147.121 290.143 150.313 290.133 153.6Z" fill="white"/>
<path d="M286.975 144.555L262.655 114.176C261.868 113.161 260.859 112.339 259.705 111.774C258.552 111.208 257.284 110.915 255.999 110.915C254.714 110.915 253.447 111.208 252.293 111.774C251.139 112.339 250.13 113.161 249.343 114.176L243.199 121.856L261.375 144.563C263.427 147.128 264.541 150.316 264.533 153.6H290.133C290.143 150.313 289.029 147.121 286.975 144.555Z" fill="white"/>
<path d="M221.866 153.6H256V332.8H221.866V153.6Z" fill="white"/>
<path d="M256 153.6H290.133V332.8H256V153.6Z" fill="white"/>
<path d="M256 153.6H290.133V332.8H256V153.6Z" fill="white"/>
<path d="M221.866 332.8H290.133V366.934H221.866V332.8Z" fill="white"/>
<path d="M264.533 332.8H290.133V366.934H264.533V332.8Z" fill="white"/>
<path d="M213.334 365.995H187.734C187.66 352.814 184.659 339.814 178.948 327.934C173.237 316.054 164.958 305.591 154.71 297.302C127.62 275.642 108.194 245.862 99.2901 212.34C90.3859 178.819 92.4728 143.325 105.244 111.077C118.015 78.8298 140.796 51.5312 170.237 33.1955C199.678 14.8598 234.226 6.45472 268.8 9.21621C236.405 11.7622 205.523 23.9899 180.166 44.3114C154.809 64.6329 136.148 92.1093 126.606 123.172C117.065 154.235 117.084 187.449 126.66 218.502C136.237 249.554 154.929 277.009 180.31 297.302C190.558 305.591 198.837 316.054 204.548 327.934C210.259 339.814 213.26 352.814 213.334 365.995Z" fill="white"/>
<path d="M115.831 233.43L100.258 240.418C90.4542 218.469 85.3695 194.706 85.333 170.667H102.4C102.437 192.297 107.013 213.679 115.831 233.43Z" fill="white"/>
<path d="M97.604 213.129C95.3409 213.139 93.1663 212.25 91.5588 210.656C89.9513 209.063 89.0425 206.897 89.0323 204.634C89.0221 202.371 89.9114 200.196 91.5045 198.589C93.0976 196.981 95.2641 196.072 97.5272 196.062H97.604C99.8672 196.062 102.038 196.961 103.638 198.561C105.238 200.162 106.137 202.332 106.137 204.595C106.137 206.859 105.238 209.029 103.638 210.629C102.038 212.23 99.8672 213.129 97.604 213.129Z" fill="#007CE7"/>
<path d="M362.598 303.932C385.142 285.901 402.744 262.448 413.757 235.764C424.77 209.08 428.836 180.039 425.572 151.357C422.309 122.675 411.824 95.2896 395.097 71.7622C378.371 48.2348 355.95 29.3344 329.933 16.8292C303.915 4.32392 275.15 -1.37755 246.329 0.258105C217.509 1.89376 189.574 10.8131 165.138 26.1817C140.702 41.5503 120.564 62.866 106.607 88.1348C92.6497 113.404 85.3303 141.8 85.333 170.667C85.333 172.93 86.2321 175.1 87.8324 176.701C89.4327 178.301 91.6032 179.2 93.8663 179.2C96.1295 179.2 98.3 178.301 99.9003 176.701C101.501 175.1 102.4 172.93 102.4 170.667C102.396 144.686 108.982 119.128 121.543 96.3852C134.104 73.6422 152.228 54.4569 174.221 40.6242C196.213 26.7915 221.355 18.7635 247.295 17.2911C273.234 15.8186 299.123 20.95 322.54 32.2051C345.956 43.4601 366.135 60.4711 381.189 81.6466C396.243 102.822 405.679 127.47 408.616 153.285C411.552 179.099 407.892 205.237 397.979 229.252C388.065 253.268 372.222 274.376 351.931 290.603C341.664 298.866 333.197 309.145 327.052 320.805C320.907 332.464 317.215 345.259 316.202 358.4H298.666V153.6C298.662 148.373 296.881 143.303 293.615 139.221L269.329 108.843C267.676 106.927 265.63 105.39 263.33 104.337C261.03 103.284 258.53 102.738 256 102.738C253.47 102.738 250.97 103.284 248.669 104.337C246.369 105.39 244.323 106.927 242.671 108.843L218.385 139.221C215.119 143.303 213.337 148.373 213.333 153.6V358.4H195.797C194.785 345.259 191.092 332.464 184.948 320.805C178.803 309.145 170.336 298.866 160.068 290.603C141.015 275.305 125.856 255.713 115.831 233.429C114.874 231.436 113.2 229.877 111.143 229.066C109.086 228.254 106.798 228.249 104.738 229.052C103.668 229.467 102.695 230.099 101.881 230.908C101.066 231.716 100.427 232.685 100.004 233.752C99.5813 234.819 99.3833 235.962 99.4225 237.109C99.4617 238.256 99.7374 239.383 100.232 240.418C111.365 265.17 128.203 286.933 149.367 303.923C157.867 310.768 164.869 319.287 169.937 328.953C175.004 338.618 178.029 349.223 178.824 360.107C174.908 361.536 171.404 363.907 168.622 367.012C165.84 370.117 163.866 373.859 162.874 377.908C161.882 381.957 161.903 386.188 162.935 390.227C163.966 394.267 165.977 397.989 168.789 401.067C164.508 405.72 162.133 411.811 162.133 418.133C162.133 424.456 164.508 430.547 168.789 435.2C165.452 438.858 163.253 443.409 162.46 448.296C161.667 453.184 162.315 458.196 164.324 462.721C166.333 467.247 169.617 471.089 173.774 473.778C177.931 476.468 182.782 477.889 187.733 477.867H191.044C202.069 498.449 227.208 512 256 512C284.791 512 309.93 498.449 320.955 477.867H324.266C329.218 477.889 334.068 476.468 338.225 473.778C342.382 471.089 345.666 467.247 347.675 462.721C349.684 458.196 350.332 453.184 349.539 448.296C348.746 443.409 346.547 438.858 343.21 435.2C347.491 430.547 349.867 424.456 349.867 418.133C349.867 411.811 347.491 405.72 343.21 401.067C346.022 397.989 348.033 394.267 349.065 390.227C350.096 386.188 350.117 381.957 349.125 377.908C348.133 373.859 346.159 370.117 343.377 367.012C340.595 363.907 337.091 361.536 333.175 360.107C333.967 349.227 336.987 338.625 342.049 328.962C347.111 319.298 354.105 310.778 362.598 303.932ZM332.8 384C332.8 386.263 331.901 388.434 330.3 390.034C328.7 391.634 326.53 392.533 324.266 392.533H187.733C185.47 392.533 183.299 391.634 181.699 390.034C180.099 388.434 179.2 386.263 179.2 384C179.2 381.737 180.099 379.566 181.699 377.966C183.299 376.366 185.47 375.467 187.733 375.467H324.266C326.53 375.467 328.7 376.366 330.3 377.966C331.901 379.566 332.8 381.737 332.8 384ZM332.8 418.133C332.8 420.397 331.901 422.567 330.3 424.167C328.7 425.768 326.53 426.667 324.266 426.667H187.733C185.47 426.667 183.299 425.768 181.699 424.167C180.099 422.567 179.2 420.397 179.2 418.133C179.2 415.87 180.099 413.7 181.699 412.099C183.299 410.499 185.47 409.6 187.733 409.6H324.266C326.53 409.6 328.7 410.499 330.3 412.099C331.901 413.7 332.8 415.87 332.8 418.133ZM230.4 324.267V162.176H247.466V324.267H230.4ZM264.533 162.176H281.6V324.267H264.533V162.176ZM256 119.509L276.48 145.109H256.204C256.136 145.109 256.076 145.109 256 145.109C255.923 145.109 255.863 145.109 255.795 145.109H235.52L256 119.509ZM230.4 341.333H281.6V358.4H230.4V341.333ZM256 494.933C247.858 495.16 239.753 493.768 232.153 490.839C224.554 487.909 217.611 483.5 211.729 477.867H300.271C294.388 483.5 287.446 487.909 279.846 490.839C272.247 493.768 264.141 495.16 256 494.933ZM324.266 460.8H187.733C185.47 460.8 183.299 459.901 181.699 458.301C180.099 456.7 179.2 454.53 179.2 452.267C179.2 450.004 180.099 447.833 181.699 446.233C183.299 444.632 185.47 443.733 187.733 443.733H324.266C326.53 443.733 328.7 444.632 330.3 446.233C331.901 447.833 332.8 450.004 332.8 452.267C332.8 454.53 331.901 456.7 330.3 458.301C328.7 459.901 326.53 460.8 324.266 460.8Z" fill="#007CE7"/>
<path d="M503.467 162.133H452.267C450.004 162.133 447.833 163.032 446.233 164.633C444.632 166.233 443.733 168.403 443.733 170.667C443.733 172.93 444.632 175.1 446.233 176.701C447.833 178.301 450.004 179.2 452.267 179.2H503.467C505.73 179.2 507.9 178.301 509.501 176.701C511.101 175.1 512 172.93 512 170.667C512 168.403 511.101 166.233 509.501 164.633C507.9 163.032 505.73 162.133 503.467 162.133Z" fill="#007CE7"/>
<path d="M428.817 273.135L473.78 297.626C475.767 298.71 478.103 298.96 480.275 298.322C482.446 297.683 484.275 296.208 485.359 294.221C486.443 292.234 486.694 289.897 486.055 287.726C485.417 285.554 483.942 283.725 481.955 282.641L436.984 258.142C434.996 257.059 432.659 256.81 430.487 257.45C428.315 258.091 426.487 259.567 425.404 261.555C424.321 263.543 424.072 265.88 424.713 268.052C425.353 270.224 426.829 272.052 428.817 273.135Z" fill="#007CE7"/>
<path d="M485.359 47.1125C484.823 46.1278 484.099 45.2583 483.227 44.5537C482.355 43.8492 481.352 43.3234 480.277 43.0064C479.201 42.6894 478.074 42.5874 476.959 42.7063C475.844 42.8252 474.764 43.1626 473.78 43.6992L428.817 68.1899C426.829 69.2728 425.353 71.1012 424.713 73.2728C424.072 75.4444 424.321 77.7814 425.404 79.7696C426.487 81.7578 428.315 83.2344 430.487 83.8745C432.659 84.5146 434.996 84.2659 436.984 83.1829L481.955 58.6837C483.94 57.5999 485.413 55.7724 486.052 53.6028C486.69 51.4331 486.441 49.0987 485.359 47.1125Z" fill="#007CE7"/>
<path d="M0 170.667C0 172.93 0.899045 175.1 2.49936 176.701C4.09967 178.301 6.27015 179.2 8.53333 179.2H59.7333C61.9965 179.2 64.167 178.301 65.7673 176.701C67.3676 175.1 68.2667 172.93 68.2667 170.667C68.2667 168.403 67.3676 166.233 65.7673 164.633C64.167 163.032 61.9965 162.133 59.7333 162.133H8.53333C6.27015 162.133 4.09967 163.032 2.49936 164.633C0.899045 166.233 0 168.403 0 170.667Z" fill="#007CE7"/>
<path d="M75.0166 258.142L30.0459 282.641C28.0588 283.725 26.5838 285.554 25.9453 287.726C25.3067 289.897 25.557 292.234 26.6411 294.221C27.7252 296.208 29.5542 297.683 31.7258 298.322C33.8974 298.96 36.2338 298.71 38.2208 297.626L83.183 273.135C85.1712 272.052 86.6478 270.224 87.2879 268.052C87.928 265.88 87.6792 263.543 86.5963 261.555C85.5134 259.567 83.685 258.091 81.5134 257.45C79.3417 256.81 77.0048 257.059 75.0166 258.142Z" fill="#007CE7"/>
<path d="M26.6409 47.1213C25.5599 49.1085 25.3121 51.4437 25.9522 53.6135C26.5923 55.7833 28.0677 57.6102 30.0543 58.6925L75.0249 83.1917C76.0094 83.7279 77.0898 84.065 78.2046 84.1837C79.3193 84.3023 80.4465 84.2003 81.5217 83.8833C82.597 83.5663 83.5993 83.0407 84.4715 82.3364C85.3436 81.632 86.0685 80.7628 86.6047 79.7784C87.1409 78.7939 87.478 77.7135 87.5966 76.5988C87.7153 75.4841 87.6132 74.3569 87.2963 73.2816C86.9793 72.2063 86.4536 71.204 85.7493 70.3319C85.045 69.4597 84.1758 68.7349 83.1913 68.1987L38.2207 43.708C37.2363 43.1714 36.1558 42.834 35.041 42.7151C33.9262 42.5962 32.7989 42.6982 31.7235 43.0152C30.6481 43.3322 29.6458 43.858 28.7737 44.5625C27.9016 45.2671 27.1769 46.1366 26.6409 47.1213Z" fill="#007CE7"/>
</g>
<defs>
<clipPath id="clip0_73_2">
<rect width="512" height="512" fill="white"/>
</clipPath>
</defs>
</svg>
