<svg id="Layer_1" enable-background="new 0 0 512 512" height="512" viewBox="0 0 512 512" width="512" xmlns="http://www.w3.org/2000/svg"><g id="_x30_3_Mountian_Peak"><g><path d="m482.104 502.261h-255.688l127.844-247.957z" fill="#94c1ff"/><path d="m378.473 502.261h-348.576l174.288-338.038z" fill="#fff"/><path d="m266.62 285.316-62.435-121.093-62.434 121.093 62.434 59.068z" fill="#d7e9ff"/><path d="m204.185 64.071h81.038v63.785h-81.038z" fill="#94c1ff"/><path d="m333.923 95.963-15.392 31.892 15.392 31.892h-48.7v-63.784z" fill="#94c1ff"/><g fill="#116fff"><path d="m311.814 336.566c2.569 1.322 5.726.32 7.056-2.253l35.372-68.57 54.131 104.984c1.332 2.579 4.499 3.576 7.056 2.254 2.574-1.325 3.582-4.484 2.257-7.058l-58.787-114.013c-1.951-3.776-7.36-3.779-9.313 0l-40.028 77.598c-1.326 2.57-.319 5.733 2.256 7.058z"/><path d="m448.129 436.379c2.569-1.327 3.577-4.487 2.251-7.058l-9.062-17.553c-1.331-2.574-4.493-3.582-7.061-2.253-2.569 1.327-3.577 4.487-2.251 7.058l9.062 17.553c1.338 2.589 4.514 3.569 7.061 2.253z"/><path d="m161.202 296.507c-2.091-1.98-5.413-1.896-7.407.207-1.988 2.101-1.896 5.416.207 7.407l46.579 44.066c2.019 1.911 5.183 1.908 7.2 0l46.581-44.066c2.103-1.99 2.195-5.306.207-7.407-1.993-2.103-5.311-2.193-7.407-.207l-42.981 40.66z"/><path d="m502.26 497.02h-16.971l-24.061-46.637c-1.331-2.571-4.487-3.584-7.056-2.254-2.574 1.327-3.582 4.487-2.257 7.058l21.573 41.82c-9.323.001 26.128-.004-91.819.013l-172.245-334.068v-29.857h70.557v26.653c0 2.894 2.344 5.239 5.239 5.239h48.701c3.846 0 6.4-4.026 4.718-7.516l-14.291-29.615 14.292-29.616c1.683-3.493-.874-7.516-4.718-7.516h-43.462v-26.653c0-2.894-2.344-5.239-5.239-5.239h-75.797v-10.827c0-2.894-2.346-5.239-5.239-5.239-2.894 0-5.239 2.346-5.239 5.239v114.949l-172.244 334.066h-16.962c-2.894 0-5.239 2.346-5.239 5.239 0 2.894 2.346 5.239 5.239 5.239h492.518c2.896 0 5.239-2.346 5.239-5.239.001-2.894-2.342-5.239-5.237-5.239zm-176.682-395.817-11.763 24.376c-.695 1.438-.695 3.116 0 4.554l11.763 24.376h-35.117c0-18.643 0-34.663 0-53.306zm-45.595-31.893v53.306h-70.557v-53.306zm-241.491 427.71 165.693-321.363 165.693 321.363z"/><path d="m491.08 23.105c-4.462-11.139-15.268-18.604-27.599-18.604-12.326 0-23.133 7.465-27.599 18.607-9.154.839-16.353 8.563-16.353 17.934 0 9.967 8.08 18.078 18.011 18.078 2.896 0 5.239-2.346 5.239-5.239s-2.344-5.239-5.239-5.239c-4.155 0-7.532-3.408-7.532-7.598 0-4.87 4.597-8.257 8.616-7.434 2.753.558 5.465-1.172 6.13-3.91 2.052-8.529 9.932-14.718 18.727-14.718 8.801 0 16.681 6.189 18.727 14.716.66 2.74 3.362 4.465 6.13 3.912 4.03-.825 8.683 2.543 8.683 7.434 0 4.19-3.408 7.598-7.598 7.598-2.896 0-5.239 2.346-5.239 5.239s2.344 5.239 5.239 5.239c9.967 0 18.078-8.11 18.078-18.078-.002-9.374-7.227-17.097-16.421-17.937z"/><path d="m55.556 199.063c2.894 0 5.239-2.346 5.239-5.239s-2.346-5.239-5.239-5.239c-4.152 0-7.532-3.408-7.532-7.598 0-4.81 4.489-8.233 8.637-7.434 2.771.553 5.452-1.182 6.107-3.915 2.055-8.524 9.932-14.713 18.73-14.713s16.675 6.189 18.73 14.713c.66 2.733 3.344 4.472 6.107 3.915 4.15-.799 8.703 2.6 8.703 7.434 0 4.19-3.408 7.598-7.598 7.598-2.894 0-5.239 2.346-5.239 5.239s2.346 5.239 5.239 5.239c9.967 0 18.078-8.11 18.078-18.078 0-9.374-7.225-17.097-16.419-17.936-4.462-11.139-15.268-18.604-27.599-18.604s-23.138 7.465-27.599 18.607c-9.159.839-16.353 8.563-16.353 17.934-.003 9.968 8.076 18.077 18.008 18.077z"/></g></g></g></svg>