<svg id="Layer_1" enable-background="new 0 0 512 512" viewBox="0 0 512 512" xmlns="http://www.w3.org/2000/svg"><g clip-rule="evenodd" fill-rule="evenodd"><path d="m491.003 439.932-101.961 17.747h-266.078l-101.961-17.747v-35.603h158.411v25.289c0 2.764 2.231 5.001 4.996 5.001l143.181-.001c2.764 0 4.998-2.236 4.998-4.999l.003-25.29h158.41v35.603z" fill="#9ac9ff"/><path d="m317.43 152.361c0 4.419-3.581 8-8.001 8l-120.268-.001c-4.419 0-8.002-3.58-8.002-7.999.002-4.419 3.58-8 8-8l120.274-.001c4.42 0 7.997 3.583 7.997 8.001zm-178.798 0c-.002-4.418-3.582-8.001-8.001-8.001l-44.582.001c-14.25 0-25.848 10.525-25.848 23.46l-.001 203.818c0 4.42 3.593 8 8.002 8h375.597c4.41 0 8.001-3.581 8.001-8l-.001-203.818c0-12.935-11.595-23.462-25.847-23.462l-60.583.001c-4.41 0-7.997 3.581-7.999 8 0 4.419 3.593 7.999 8.004 7.999l60.576.001c5.34 0 9.853 3.414 9.853 7.46v195.817h-359.6l-.003-195.815c0-4.044 4.512-7.462 9.849-7.462l44.579.001c4.421 0 8.004-3.581 8.004-8zm95.341-65.542c0-4.417 3.576-7.998 7.997-7.998l18.441-.001c4.419 0 7.999 3.582 7.999 8.001.002 4.417-3.58 8-8 8l-18.44-.001c-4.419 0-8-3.58-8-7.999zm-56.56 0c0-4.417 3.577-7.998 7.997-7.998l18.44-.001c4.42 0 7.999 3.582 7.999 8.001.002 4.417-3.58 8-7.999 8l-18.436-.001c-4.423 0-8.004-3.58-8.004-7.999zm37.498-19.058v-18.441c0-4.419 3.579-8 7.998-8 4.421-.001 8 3.581 8 8l.004 18.441c0 4.419-3.584 8-8.004 8-4.415-.001-7.999-3.581-7.998-8zm0 55.897v-17.779c0-4.419 3.579-7.999 7.998-7.999 4.421-.002 8 3.582 8 8l.004 17.779c0 4.419-3.584 8.001-8.004 8.001-4.415-.003-7.999-3.582-7.998-8.002zm-37.008 57.341h18.437c4.424 0 7.999 3.582 7.999 8.001.002 4.417-3.58 8-8 8l-18.436-.001c-4.424 0-8.004-3.58-8.004-7.999.003-4.419 3.58-8 8-8zm-27.063 27.059c0-4.417 3.579-7.998 7.999-7.998 4.421 0 8.001 3.582 8.001 8l.002 18.439c0 4.419-3.583 8.001-8.003 8.001-4.417-.001-8-3.582-8-8zm0-38.117v-17.579c0-4.419 3.579-8 7.999-8 4.421-.001 8.001 3.582 8.001 8l.002 17.579c0 4.419-3.583 8-8.003 8-4.417-.002-8-3.582-7.999-8zm-29.498 11.058h18.437c4.424 0 8 3.582 8 8.001.001 4.417-3.58 8-8 8l-18.437-.001c-4.423 0-8.003-3.58-8.003-7.999.002-4.419 3.579-8 7.999-8zm171.707-51.313c0-4.417 3.58-7.998 7.999-7.998l18.442-.001c4.419 0 7.998 3.584 7.998 8.001.003 4.417-3.58 8-7.999 8l-18.44-.001c-4.418 0-8-3.581-8-8.001zm37.503 37.5v-18.441c0-4.419 3.577-7.999 7.997-7.999 4.414-.002 8 3.582 8 8v18.44c0 4.419-3.59 8.001-8 8.001-4.419.001-8-3.582-7.997-8.001zm0-56.558v-18.441c0-4.419 3.577-8 7.997-8 4.414-.001 8 3.582 8 8v18.441c0 4.419-3.59 8-8 8-4.419-.001-8-3.58-7.997-8zm19.058 19.058c0-4.417 3.58-7.998 7.999-7.998l18.443-.001c4.41 0 7.998 3.584 7.998 8.001.003 4.417-3.59 8-8.001 8l-18.438-.001c-4.42 0-8.002-3.581-8.001-8.001zm-121.756 108.207-29.43 24.804 29.43 24.805c3.379 2.849 3.806 7.895.956 11.278-1.577 1.869-3.839 2.84-6.12 2.84-1.82 0-3.65-.62-5.15-1.88l-36.697-30.925c-1.8-1.521-2.842-3.757-2.842-6.117.003-2.359 1.04-4.597 2.84-6.117l36.7-30.923c3.384-2.848 8.42-2.416 11.27.963 2.851 3.377 2.42 8.426-.96 11.273zm56.299 49.609 29.429-24.805-29.429-24.804c-3.38-2.846-3.814-7.893-.964-11.272 2.84-3.38 7.89-3.809 11.27-.963l36.7 30.922c1.801 1.521 2.84 3.761 2.84 6.118 0 2.36-1.04 4.598-2.84 6.118l-36.697 30.923c-1.503 1.26-3.332 1.881-5.152 1.881-2.277 0-4.54-.97-6.121-2.84-2.848-3.384-2.419-8.429.964-11.278zm-31.68-68.898 22.517 84.045c1.139 4.271-1.391 8.661-5.661 9.801-.688.189-1.391.27-2.08.27-3.527-.001-6.76-2.35-7.72-5.93l-22.518-84.046c-1.138-4.268 1.389-8.654 5.659-9.798 4.272-1.142 8.649 1.389 9.803 5.658zm235.53 218.805-99.22 17.27h-265.559l-99.221-17.27v-30.08h152.411v22.289c0 4.42 3.576 8.001 7.996 8.001l143.181-.001c4.419 0 7.998-3.579 7.998-7.999l.003-22.29h152.41v30.08zm-295.592-30.08v14.29h127.179v-14.29zm303.588-16h-17.217v-247.264c0-15.664-12.743-28.407-28.403-28.407l-50.328-.001c-4.419 0-8.001 3.583-8.001 8.001 0 4.416 3.58 8 8 8l50.333-.002c6.841 0 12.397 5.569 12.397 12.41l.001 247.263h-413.56v-247.264c0-6.84 5.558-12.407 12.398-12.407l131.593-.002c4.419 0 7.997-3.58 7.997-7.998.005-4.42-3.58-8-7.999-8l-131.587-.001c-15.66 0-28.403 12.745-28.403 28.409l.003 247.263h-17.221c-4.419 0-8.002 3.581-8.002 8l.002 44.799c0 3.89 2.798 7.221 6.628 7.891l106.534 18.54c.45.08.907.12 1.366.12l266.941-.001c.459 0 .919-.039 1.369-.119l106.533-18.541c3.83-.669 6.628-3.999 6.628-7.889l.001-44.8c-.002-4.42-3.582-8-8.003-8z" fill="#57a4ff"/></g></svg>