<svg id="Layer_1" enable-background="new 0 0 512 512" viewBox="0 0 512 512" xmlns="http://www.w3.org/2000/svg"><g clip-rule="evenodd" fill-rule="evenodd"><path d="m46.793 35.39c.078 1.475 1.302 2.65 2.796 2.65 1.544 0 2.801-1.256 2.801-2.8 0-1.546-1.255-2.8-2.801-2.8-1.544 0-2.796 1.256-2.796 2.799zm25.057-2.95c-1.544 0-2.799 1.256-2.799 2.8 0 1.543 1.256 2.8 2.799 2.8s2.801-1.256 2.8-2.799c0-1.545-1.256-2.801-2.8-2.801zm22.259 0c-1.545 0-2.798 1.257-2.798 2.801-.001 1.542 1.256 2.799 2.798 2.799 1.543 0 2.801-1.255 2.8-2.798 0-1.546-1.253-2.802-2.8-2.802zm222.094 268.141c-.001-2.759-2.241-5.001-5.001-5.001h-39.932c-2.755 0-5 2.246-5.001 5.001-.001 2.76 2.246 4.999 5.004 4.999h39.927c2.762 0 5.004-2.234 5.003-4.999zm0 90c-.001-2.759-2.241-5.001-5.001-5.001h-39.932c-2.755 0-5 2.246-5.001 5.001-.001 2.76 2.246 4.999 5.004 4.999h39.927c2.762 0 5.004-2.234 5.003-4.999zm0-30c-.001-2.759-2.242-5.001-5.001-5.001h-39.932c-2.755 0-5 2.246-5.001 5.001-.001 2.76 2.246 4.999 5.004 4.999l39.927.001c2.763-.001 5.004-2.236 5.003-5zm0-30c-.001-2.759-2.241-5.001-5.001-5.001h-39.932c-2.755 0-5 2.246-5.001 5.001-.001 2.76 2.246 4.999 5.004 4.999h39.927c2.762 0 5.004-2.235 5.003-4.999zm146.826 64.999c2.763 0 5.004-2.234 5.003-4.999-.001-2.758-2.242-5.001-5.001-5.001h-121.752c-2.761 0-4.999 2.242-5 5.001-.001 2.764 2.237 4.999 5 4.999zm0-30c2.763 0 5.004-2.234 5.003-4.999-.001-2.758-2.242-5.001-5.001-5.001h-121.752c-2.761 0-4.999 2.242-5 5.001-.001 2.764 2.237 4.998 5 4.998zm0-30c2.763 0 5.004-2.235 5.003-5-.001-2.758-2.242-5.001-5.001-5.001h-121.752c-2.761 0-4.999 2.242-5 5.001-.001 2.764 2.237 4.999 5 4.999zm0-30c2.763 0 5.004-2.234 5.003-4.999-.001-2.758-2.242-5.001-5.001-5.001h-121.752c-2.761 0-4.999 2.242-5 5.001-.001 2.764 2.237 4.999 5 4.999zm-440.258-256.47v-22.82c0-2.697 2.223-4.92 4.921-4.92h219.839c2.695 0 4.919 2.224 4.919 4.92l.003 22.82zm451.92 214.73c8.027 0 14.538 6.513 14.539 14.54l.004 134.41c0 8.026-6.519 14.54-14.544 14.54h-215.076c-8.021 0-14.545-6.517-14.545-14.54l.002-134.41c0-8.021 6.517-14.54 14.538-14.54zm-37.859 204.54c2.725 0 5.545.702 7.837 2.204 2.076 1.361 3.83 3.51 3.83 6.105v13.94h-162.69v-13.94c0-2.594 1.75-4.743 3.824-6.105 2.292-1.504 5.112-2.205 7.836-2.205h139.363z" fill="#9ac9ff"/><path d="m219.861 409.27c-.918 3.63-4.18 6.04-7.751 6.04-.646 0-1.31-.08-1.969-.24-76.798-19.42-130.441-88.37-130.441-167.69l-8.546 11.31c-2.66 3.52-7.684 4.21-11.214 1.55-3.518-2.66-4.22-7.68-1.549-11.2l24.971-33.04c.369-.5.778-.95 1.248-1.35.314-.27.65-.52 1-.74 1.532-.96 3.38-1.4 5.3-1.14.184.02.37.05.55.09h.01c1.833.38 3.4 1.36 4.521 2.71.192.23.37.47.54.72.003 0 0 .01 0 .01.134.19.24.38.349.58l20.134 36.29c2.137 3.87.746 8.74-3.123 10.88-3.856 2.14-8.73.75-10.87-3.12l-7.318-13.19c.162 71.83 48.779 134.23 118.359 151.81 4.277 1.09 6.877 5.44 5.799 9.72zm60.119-324.8c.932-4.31 5.19-7.06 9.51-6.12 61.5 13.35 110.5 59.43 128.579 118.41l5.47-14.261c1.584-4.13 6.201-6.189 10.331-4.61 4.124 1.58 6.19 6.21 4.61 10.33l-14.877 38.83c-.833 2.16-2.553 3.84-4.693 4.64-.568.22-1.17.37-1.8.46-.37.06-.75.08-1.12.08-2.647 0-5.08-1.32-6.54-3.41l-28.44-28.29c-3.128-3.12-3.14-8.18-.03-11.31 3.121-3.14 8.18-3.15 11.319-.03l9.631 9.58c-17.05-52.24-60.96-92.88-115.83-104.78-4.319-.939-7.06-5.199-6.12-9.519zm39.222 246.11c0 4.419-3.583 8-8.003 8h-39.927c-4.411 0-8.004-3.58-8.004-8 .002-4.41 3.59-8 8-8h39.932c4.421 0 7.999 3.59 8.002 8zm0 30c0 4.42-3.583 8-8.003 8h-39.927c-4.411 0-8.004-3.58-8.004-7.999.002-4.41 3.59-8 8-8h39.932c4.421-.001 7.999 3.589 8.002 7.999zm151.83 30c0 4.42-3.582 8-8.003 8h-121.75c-4.419 0-8-3.58-8-8 .003-4.41 3.58-8 8-8h121.752c4.419 0 7.998 3.59 8.001 8zm0-90c0 4.42-3.582 8-8.003 8h-121.75c-4.419 0-8-3.58-8-8 .003-4.41 3.58-8 8-8h121.752c4.419 0 7.998 3.59 8.001 8zm0 60c0 4.42-3.582 8-8.003 8h-121.75c-4.419 0-8-3.58-8-7.999.003-4.41 3.58-8 8-8h121.752c4.419-.001 7.998 3.589 8.001 7.999zm-151.83 30c0 4.42-3.583 8-8.003 8h-39.927c-4.411 0-8.004-3.58-8.004-8 .002-4.41 3.59-8 8-8h39.932c4.421 0 7.999 3.59 8.002 8zm151.83-60c0 4.419-3.582 8-8.003 8h-121.75c-4.419 0-8-3.58-8-8 .003-4.41 3.58-8 8-8h121.752c4.419 0 7.998 3.59 8.001 8zm-151.83-30c0 4.42-3.583 8-8.003 8h-39.927c-4.411 0-8.004-3.58-8.004-8 .002-4.41 3.59-8 8-8h39.932c4.421 0 7.999 3.59 8.002 8zm167.031 112.21-.004-134.41c0-6.37-5.166-11.54-11.539-11.54h-215.082c-6.36 0-11.538 5.17-11.538 11.54l-.002 134.41c0 6.37 5.182 11.54 11.545 11.54h215.077c6.37 0 11.543-5.17 11.543-11.54zm-87.142 42.59h-63.877v-15.05h63.877zm46.408 21.31v10.94h-156.69v-10.94c0-2.51 3.7-5.31 8.66-5.31h139.362c4.96-.001 8.668 2.8 8.668 5.31zm29.192-225.85h-215.077c-15.193 0-27.544 12.35-27.544 27.54l.004 134.41c0 15.19 12.347 27.54 27.536 27.54h59.602v15.05h-21.739c-13.599 0-24.663 9.56-24.663 21.31l.002 18.94c0 4.42 3.578 8 7.998 8h172.691c4.41 0 7.999-3.58 7.999-8l.002-18.94c0-11.75-11.072-21.31-24.672-21.31h-21.737v-15.05h59.598c15.192 0 27.539-12.35 27.539-27.54l.001-134.41c0-15.19-12.352-27.54-27.54-27.54zm-262.728-126.14c0 2.359-1.044 4.6-2.843 6.12l-34.79 29.31c-1.499 1.26-3.33 1.88-5.15 1.88-2.28 0-4.54-.96-6.119-2.84-2.847-3.38-2.42-8.43.959-11.27l27.531-23.2-27.531-23.19c-3.38-2.85-3.81-7.89-.96-11.27 2.849-3.38 7.889-3.81 11.269-.97l34.794 29.32c1.8 1.52 2.836 3.75 2.84 6.11zm-100.774-23.19-27.517 23.19 27.517 23.2c3.38 2.84 3.81 7.891.97 11.27-1.586 1.88-3.85 2.84-6.12 2.84-1.829 0-3.66-.62-5.16-1.88l-34.779-29.31c-1.8-1.52-2.841-3.76-2.841-6.12.001-2.36 1.04-4.59 2.841-6.11l34.78-29.32c3.38-2.84 8.429-2.41 11.279.97 2.842 3.38 2.41 8.42-.97 11.27zm44.821-14.57-21.348 79.67c-.958 3.57-4.192 5.93-7.722 5.93-.688 0-1.38-.09-2.08-.28-4.26-1.14-6.8-5.53-5.65-9.79l21.343-79.67c1.148-4.27 5.537-6.8 9.797-5.66 4.274 1.14 6.799 5.53 5.66 9.8zm-67.699-51.701c0-3.199 2.598-5.799 5.798-5.799 3.203 0 5.8 2.6 5.8 5.8.003 3.199-2.6 5.8-5.8 5.8-3.196 0-5.8-2.6-5.798-5.801zm-22.261 0c0-3.199 2.599-5.799 5.799-5.799s5.8 2.6 5.8 5.8c.001 3.199-2.601 5.8-5.8 5.8-3.198 0-5.8-2.6-5.799-5.801zm-22.257 0c0-3.199 2.596-5.799 5.796-5.799 3.204 0 5.801 2.6 5.801 5.8 0 3.199-2.601 5.8-5.801 5.8s-5.8-2.6-5.8-5.8zm-18.022 152.821c-.001 1.04.882 1.92 1.921 1.92h219.837c1.04 0 1.923-.88 1.923-1.92v-125.95h-223.681zm1.921-163.69c-1.043 0-1.921.88-1.921 1.92v19.82h223.681l-.002-19.82c0-1.04-.88-1.92-1.919-1.92zm237.758 163.69v-161.77c0-9.881-8.04-17.92-17.921-17.92h-219.837c-9.882 0-17.923 8.04-17.923 17.92l.005 161.77c0 9.88 8.036 17.92 17.916 17.92l219.841-.001c9.882.001 17.919-8.039 17.919-17.919z" fill="#57a4ff"/></g></svg>