<svg enable-background="new 0 0 512 512" viewBox="0 0 512 512" xmlns="http://www.w3.org/2000/svg"><g id="_x31_6_Photo_Frame"><g><path d="m33.964 141.157h444.071v359.118h-444.071z" fill="#b8daff"/><path d="m97.678 200.366h316.642v240.699h-316.642z" fill="#fefdfe"/><circle cx="257.501" cy="37.897" fill="#fefdfe" r="26.172"/><g fill="#b8daff"><path d="m97.678 441.065h252.367l-108.759-124.614c-5.371-6.154-14.845-6.434-20.57-.607l-123.038 125.221-63.714 59.21"/><path d="m272.576 352.303 77.469 88.763h64.275l-102.025-111.407c-5.722-6.248-15.634-6.035-21.083.453z"/><circle cx="313.559" cy="253.858" r="29.886"/></g><path d="m33.819 135.446c-.064.002-.125.015-.189.019-3.174.187-5.391 2.828-5.391 5.691v359.118c0 3.153 2.61 5.725 5.725 5.725h444.071c3.143 0 5.725-2.624 5.725-5.725v-359.117c0-2.786-2.148-5.5-5.391-5.691-.064-.004-.124-.017-.189-.019-.05-.001-.096-.015-.146-.015h-444.07c-.05 0-.096.013-.145.014zm438.491 351.694-52.265-48.569v-235.711l52.265-48.568zm-134.86-51.799h-226.121l113.469-115.484c3.431-3.49 9.019-3.254 12.175.358 25.398 29.1 84.236 96.517 100.477 115.126zm15.198 0-72.535-83.109 15.482-18.438c3.053-3.633 8.867-4.206 12.475-.268l93.243 101.816h-48.665zm55.947-9.004-92.078-100.543c-7.73-8.454-21.789-8.769-29.69.634l-14.335 17.071-26.893-30.813c-7.57-8.674-20.928-9.037-28.967-.857l-113.229 115.25v-220.988h305.193v220.246zm-308.675 20.454h312.152l51.393 47.758h-414.932zm312.152-252.15h-312.146l-51.392-47.758h414.931zm-320.12 8.219v235.711l-52.262 48.569v-332.848z" fill="#3f8cf4"/><path d="m147.32 121.506c1.79 2.589 5.364 3.256 7.965 1.45l84.601-58.492c5.052 3.36 11.105 5.329 17.614 5.329 5.953 0 11.51-1.669 16.284-4.519l85.266 57.716c2.62 1.777 6.184 1.079 7.95-1.532 1.772-2.62 1.087-6.176-1.532-7.95l-82.819-56.059c4.213-5.407 6.75-12.181 6.75-19.55 0-17.59-14.309-31.899-31.899-31.899-17.587 0-31.897 14.309-31.897 31.899 0 6.869 2.205 13.222 5.915 18.434l-82.745 57.209c-2.601 1.796-3.251 5.363-1.453 7.964zm110.18-104.056c11.275 0 20.448 9.173 20.448 20.448 0 11.271-9.173 20.444-20.448 20.444-11.273 0-20.446-9.173-20.446-20.444 0-11.275 9.173-20.448 20.446-20.448z" fill="#3f8cf4"/><path d="m313.559 289.468c19.636 0 35.611-15.975 35.611-35.611s-15.975-35.607-35.611-35.607-35.611 15.972-35.611 35.607 15.976 35.611 35.611 35.611zm0-59.768c13.322 0 24.161 10.835 24.161 24.157s-10.839 24.161-24.161 24.161-24.161-10.839-24.161-24.161 10.84-24.157 24.161-24.157z" fill="#3f8cf4"/></g></g><g id="Layer_1"/></svg>