<svg height="512" viewBox="0 0 64 64" width="512" xmlns="http://www.w3.org/2000/svg"><g id="Setting"><path d="m59 3h-54a2 2 0 0 0 -2 2v6h58v-6a2 2 0 0 0 -2-2z" fill="#9bc9ff"/><path d="m42.021 39.364 1.414-1.414-2.828-2.829-2.829 2.829-13.556-13.557-1.419-2.832-6.369-3.531-1.4 1.405 3.531 6.369 2.835 1.423 13.55 13.551-2.829 2.829 2.829 2.828 1.414-1.414 7.9 7.9a4 4 0 0 0 5.657-5.657z" fill="none"/><path d="m49.92 47.263-7.9-7.9-5.657 5.657 7.9 7.9a4 4 0 0 0 5.657-5.657z" fill="#9bc9ff"/><path d="m32.121 43.607 2.829 2.828 1.414-1.414 5.657-5.657 1.414-1.414-2.828-2.829-2.829 2.829-2.828 2.828z" fill="#9bc9ff"/><path d="m48.97 19.69-4 4h-2.83v-2.83l4-4a5.987 5.987 0 0 0 -8.37 6.96l-7.06 7.06 4.24 4.24 7.06-7.06a5.992 5.992 0 0 0 6.96-8.37z" fill="#9bc9ff"/><path d="m27.88 33.71-9.06 9.06a5.987 5.987 0 0 0 -6.96 8.37l4-4h2.83v2.83l-4 4a5.992 5.992 0 0 0 8.37-6.96l9.06-9.06z" fill="#9bc9ff"/><g fill="#1e81ce"><path d="m43.435 39.364.707-.707a1 1 0 0 0 0-1.414l-2.829-2.829a1 1 0 0 0 -1.414 0l-2.121 2.121-1.415-1.414 5.965-5.965a6.993 6.993 0 0 0 7.542-9.9 1 1 0 0 0 -.733-.552.985.985 0 0 0 -.874.279l-3.707 3.707h-1.416v-1.416l3.707-3.707a1 1 0 0 0 -.273-1.608 6.987 6.987 0 0 0 -9.9 7.542l-5.965 5.966-5.659-5.659-1.35-2.691a1 1 0 0 0 -.408-.427l-6.368-3.531a1 1 0 0 0 -1.193.168l-1.406 1.4a1 1 0 0 0 -.167 1.192l3.532 6.368a1 1 0 0 0 .426.41l2.691 1.348 5.659 5.659-7.966 7.97a6.987 6.987 0 0 0 -7.542 9.9 1 1 0 0 0 1.607.273l3.707-3.707h1.418v1.416l-3.707 3.707a1 1 0 0 0 .273 1.608 6.992 6.992 0 0 0 9.9-7.543l7.966-7.965 1.415 1.415-2.123 2.122a1 1 0 0 0 0 1.414l2.829 2.829a1 1 0 0 0 1.414 0l.707-.707 7.193 7.192a5 5 0 1 0 7.07-7.07zm-4.958-14.837a1 1 0 0 0 .257-.969 4.989 4.989 0 0 1 5.531-6.237l-2.832 2.832a1 1 0 0 0 -.293.707v2.83a1 1 0 0 0 1 1h2.83a1 1 0 0 0 .707-.293l2.831-2.831a5 5 0 0 1 -6.237 5.534.993.993 0 0 0 -.968.258l-6.354 6.354-2.826-2.826zm-16.124 21.773a1 1 0 0 0 -.258.968 5 5 0 0 1 -5.529 6.237l2.834-2.828a1 1 0 0 0 .293-.707v-2.83a1 1 0 0 0 -1-1h-2.833a1 1 0 0 0 -.707.293l-2.832 2.832a4.988 4.988 0 0 1 6.238-5.53 1.006 1.006 0 0 0 .968-.258l8.354-8.354 2.826 2.826zm-.253-19.785a1 1 0 0 0 -.329-.219l-2.481-1.244-3.017-5.438.34-.341 5.439 3.017 1.248 2.479a1 1 0 0 0 .22.332l12.844 12.848-1.414 1.415zm11.435 17.091 7.071-7.071 1.415 1.415-7.071 7.071zm15.678 8.607a3.072 3.072 0 0 1 -4.242 0l-7.193-7.192 4.243-4.243 7.192 7.193a3 3 0 0 1 0 4.242z"/><path d="m42.728 44.314a1 1 0 1 0 -1.415 1.414l5.072 5.072a1 1 0 0 0 1.415-1.415z"/><path d="m59 2h-54a3 3 0 0 0 -3 3v54a3 3 0 0 0 3 3h54a3 3 0 0 0 3-3v-54a3 3 0 0 0 -3-3zm-54 2h54a1 1 0 0 1 1 1v5h-56v-5a1 1 0 0 1 1-1zm54 56h-54a1 1 0 0 1 -1-1v-47h56v47a1 1 0 0 1 -1 1z"/><path d="m7 8h1a1 1 0 0 0 0-2h-1a1 1 0 0 0 0 2z"/><path d="m12 8h1a1 1 0 0 0 0-2h-1a1 1 0 0 0 0 2z"/><path d="m17 8h1a1 1 0 0 0 0-2h-1a1 1 0 0 0 0 2z"/></g></g></svg>