<svg height="512pt" viewBox="-8 0 512 512" width="512pt" xmlns="http://www.w3.org/2000/svg"><path d="m64 8h368c4.417969 0 8 3.582031 8 8v480c0 4.417969-3.582031 8-8 8h-368c-4.417969 0-8-3.582031-8-8v-480c0-4.417969 3.582031-8 8-8zm0 0" fill="#58abfb"/><path d="m80 32h336v448h-336zm0 0" fill="#fff"/><path d="m407.238281 282.894531c-5.757812 11.492188-13.535156 21.851563-22.957031 30.59375-9.539062 8.761719-21.933594 13.761719-34.882812 14.070313-17.359376-.191406-32.605469-10.804688-47.101563-20.359375-32.472656-21.40625-68.386719-39.847657-107.199219-42.863281-34.820312-2.136719-69.421875 6.828124-98.824218 25.601562-5.621094 3.546875-11.050782 7.382812-16.273438 11.496094v178.566406h336v-215.574219c-2.65625 6.277344-5.519531 12.46875-8.761719 18.46875zm0 0" fill="#58abfb"/><path d="m80 32v96.800781c14.109375-3.171875 28.410156-5.441406 42.808594-6.792969 50.574218-3.972656 101.453125.8125 150.398437 14.144532 28.527344 7.398437 56.960938 17.105468 86.441407 17.34375 19.957031.4375 39.585937-5.136719 56.335937-16v-105.496094zm0 0" fill="#58abfb"/><path d="m243.601562 291.199219-10.402343 22.800781-9.519531 21.121094-7.679688 16.878906 16.878906-7.679688 21.121094-9.519531 22.800781-10.402343 139.199219-139.277344v-66.242188zm0 0" fill="#fff"/><path d="m80 200v56l136 136h-136v40h232zm0 0" fill="#58abfb"/><path d="m8 112v304h304zm40 96 168 168h-168zm0 0" fill="#fff"/><path d="m24 400v-272l-16-16v304h304l-16-16zm0 0" fill="#58abfb"/><path d="m254 318.800781-21.121094 9.519531-16.878906 7.679688 7.679688-16.878906 9.519531-21.121094zm0 0" fill="#58abfb"/><path d="m440 78.878906 8-8c4.378906-4.414062 10.339844-6.898437 16.558594-6.898437 6.222656 0 12.183594 2.484375 16.5625 6.898437 4.402344 4.386719 6.878906 10.34375 6.878906 16.5625 0 6.214844-2.476562 12.171875-6.878906 16.558594l-65.121094 65.121094-139.199219 139.277344-22.800781 10.402343-20.800781-20.800781 10.402343-22.800781 172.398438-172.320313zm0 0" fill="#58abfb"/><path d="m481.121094 70.878906c-3.617188-3.625-8.335938-5.949218-13.417969-6.597656.167969 1.042969.265625 2.101562.296875 3.160156.035156 6.222656-2.445312 12.191406-6.878906 16.558594l-65.121094 65.121094-139.199219 139.277344-22.800781 10.402343 20 20 22.800781-10.402343 139.199219-139.277344 65.121094-65.121094c4.402344-4.386719 6.878906-10.34375 6.878906-16.558594 0-6.21875-2.476562-12.175781-6.878906-16.5625zm0 0" fill="#fff"/><path d="m481.121094 70.878906c-1.347656-1.320312-2.855469-2.46875-4.488282-3.414062 5.574219 9.175781 4.121094 20.980468-3.511718 28.535156l-65.121094 65.121094-139.199219 139.277344-22.800781 10.402343 8 8 22.800781-10.402343 139.199219-139.277344 65.121094-65.121094c4.402344-4.386719 6.878906-10.34375 6.878906-16.558594 0-6.21875-2.476562-12.175781-6.878906-16.5625zm0 0" fill="#58abfb"/><g fill="#107be8"><path d="m496 87.441406c.046875-11.425781-6.128906-21.972656-16.121094-27.519531-9.992187-5.542969-22.207031-5.207031-31.878906.878906v-44.800781c0-8.835938-7.164062-16-16-16h-368c-8.835938 0-16 7.164062-16 16v124.6875l-34.34375-34.34375c-2.289062-2.285156-5.730469-2.972656-8.71875-1.734375s-4.9375 4.15625-4.9375 7.390625v304c0 4.417969 3.582031 8 8 8h40v72c0 8.835938 7.164062 16 16 16h368c8.835938 0 16-7.164062 16-16v-347.550781l38.726562-38.746094c5.972657-5.863281 9.320313-13.894531 9.273438-22.261719zm-432-71.441406h368v59.558594l-8 8v-51.558594c0-4.417969-3.582031-8-8-8h-336c-4.417969 0-8 3.582031-8 8v132.6875l-8-8zm-48 115.3125 186.34375 186.34375 11.3125-11.3125-125.65625-125.65625v-140.6875h320v59.550781l-170.054688 169.992188c-.671874.675781-1.214843 1.46875-1.601562 2.335937l-10.398438 22.800782-17.226562 38.007812c-1.125 2.476562-.914062 5.355469.554688 7.640625 1.472656 2.289063 4.007812 3.671875 6.726562 3.671875 1.144531.003906 2.273438-.242188 3.3125-.71875l60.800781-27.609375c.867188-.390625 1.65625-.933594 2.335938-1.601563l125.550781-125.605468v283.535156h-320v-48h224c3.234375 0 6.152344-1.949219 7.390625-4.9375s.550781-6.429688-1.734375-8.71875l-72-72-11.3125 11.3125 58.34375 58.34375h-276.6875zm219.734375 180.535156 4.402344 4.398438-8 3.648437zm196.265625 184.152344h-368v-72h8v56c0 4.417969 3.582031 8 8 8h336c4.417969 0 8-3.582031 8-8v-307.542969l8-8zm43.464844-397.65625-203.296875 203.375-16.464844 7.472656-12.917969-12.917968 7.496094-16.441407 203.398438-203.320312c6.09375-5.894531 15.769531-5.863281 21.824218.074219 2.886719 2.886718 4.503906 6.804687 4.496094 10.886718-.007812 4.082032-1.640625 7.992188-4.535156 10.871094zm0 0"/><path d="m168 440h160v16h-160zm0 0"/><path d="m53.65625 202.34375c-2.289062-2.285156-5.730469-2.972656-8.71875-1.734375s-4.9375 4.15625-4.9375 7.390625v168c0 4.417969 3.582031 8 8 8h168c3.234375 0 6.152344-1.949219 7.390625-4.9375s.550781-6.429688-1.734375-8.71875zm34.34375 165.65625v-96h-16v96h-16v-140.6875l140.6875 140.6875zm0 0"/><path d="m104 56h16v16h-16zm0 0"/><path d="m136 56h96v16h-96zm0 0"/><path d="m376 56h16v16h-16zm0 0"/><path d="m344 56h16v16h-16zm0 0"/></g></svg>