<svg clip-rule="evenodd" fill-rule="evenodd" height="512" image-rendering="optimizeQuality" shape-rendering="geometricPrecision" text-rendering="geometricPrecision" viewBox="0 0 512 512" width="512" xmlns="http://www.w3.org/2000/svg"><g id="Layer_x0020_1"><g id="_217153880"><path id="_217153784" d="m400.035 404.479-95.5987-55.2238c-2.00788-1.20473-3.21261-3.31418-3.21261-5.62325l-.00118111-110.418 98.8125 56.9919v114.273zm-92.2538-182.581 95.5668-55.2049c2.00788-1.20473 4.51891-1.20473 6.52679 0l95.4712 55.1494-98.783 57.1195-98.7818-57.064zm204.219 11.2158v110.518c0 2.30906-1.20473 4.51891-3.21261 5.62325l-95.6968 55.2805-.00118111-114.234 98.9105-57.188z"/><path id="_217154048" d="m162.013 492.346-110.433-10.1363c-2.30906-.200788-4.31812-1.60749-5.32206-3.81497l-46.258-100.389 113.839 10.5827 48.175 103.758zm-160.718-127.379 63.6392-90.1231c1.3063-1.90867 3.61537-2.91261 5.92443-2.71182l110.151 10.2083-66.0663 93.2247-113.648-10.5981zm190.321-74.875 46.1399 100.133c1.00512 2.10827.703939 4.61931-.602364 6.52679l-63.4431 89.8467-48.0061-103.396 65.9116-93.1101z"/><path id="_217153952" d="m237.414 239.86-110.018-10.2048c-2.30906-.200788-4.31812-1.60749-5.32206-3.81615l-46.3938-100.373 113.87 10.6583 47.8631 103.735zm-160.35-127.42 63.5872-90.0499c1.3063-1.90867 3.61537-2.91261 5.92443-2.71182l109.98 10.1044-65.8951 93.3275-113.596-10.6701zm190.13-74.992 46.2805 100.223c1.00512 2.10946.703939 4.62049-.602364 6.52797l-63.6522 90.1408-47.8643-103.735 65.8384-93.1562z"/></g></g></svg>