<svg id="Layer_2" enable-background="new 0 0 60 60" viewBox="0 0 60 60" xmlns="http://www.w3.org/2000/svg"><g><g><path d="m38.482 45.906-14.02 3.6h-.01l-5.43 1.39c-2.01.51-4.06-.7-4.57-2.71l-8.33-32.47c-.52-2.01.69-4.06 2.7-4.57l19.47-4.99c2.01-.52 4.06.69 4.57 2.7l.12.44v.02l8.21 32.02c.52 2.01-.7 4.05-2.71 4.57z" fill="#8bb2fc"/><path d="m18.094 52.012c-2.126 0-4.066-1.433-4.611-3.58l-8.33-32.467c-.318-1.231-.137-2.514.512-3.609.647-1.093 1.681-1.866 2.911-2.179l19.468-4.989c1.231-.318 2.513-.138 3.609.512 1.093.647 1.866 1.681 2.179 2.911l.115.423c.01.037.018.074.023.111l8.19 31.943c.318 1.229.136 2.509-.516 3.604-.647 1.09-1.682 1.865-2.912 2.184-.001 0-.002 0-.002 0l-14.02 3.6c-.024.006-.048.011-.072.016l-5.369 1.374c-.393.098-.786.146-1.175.146zm11.143-44.977c-.231 0-.465.03-.695.089l-19.472 4.991c-.713.181-1.31.628-1.684 1.26-.376.634-.481 1.377-.297 2.092l8.331 32.471c.374 1.472 1.873 2.367 3.355 1.989l5.428-1.389c.023-.006.047-.011.071-.016l13.958-3.584c.716-.186 1.317-.636 1.693-1.269.376-.632.481-1.372.298-2.083l-8.21-32.022c-.007-.027-.013-.056-.018-.084l-.099-.361c-.185-.728-.632-1.325-1.263-1.699-.43-.254-.909-.385-1.396-.385zm9.245 38.871h.01z" fill="#3d4c67"/></g><g><path d="m53.872 18.806-8.71 32.38c-.54 2-2.6 3.19-4.6 2.65l-16.1-4.33 14.02-3.6c2.01-.52 3.23-2.56 2.71-4.57l-8.21-32.02v-.02l18.24 4.91c2 .54 3.19 2.59 2.65 4.6z" fill="#ff6061"/><path d="m41.536 54.966c-.408 0-.823-.053-1.235-.165l-16.099-4.329c-.438-.118-.743-.517-.74-.972.003-.454.312-.85.751-.963l14.02-3.6c.715-.185 1.316-.636 1.693-1.269.376-.632.481-1.372.298-2.083l-8.211-32.021c-.021-.082-.031-.165-.031-.249 0-.311.145-.614.392-.803s.569-.263.868-.182l18.24 4.91c2.53.683 4.035 3.296 3.355 5.825l-8.71 32.38c-.572 2.121-2.497 3.521-4.591 3.521zm-13.14-5.437 12.426 3.341c1.462.395 2.979-.477 3.374-1.945l8.71-32.379c.394-1.465-.479-2.979-1.944-3.375l-16.592-4.465 7.79 30.382c.318 1.229.136 2.509-.516 3.604-.647 1.09-1.682 1.865-2.912 2.184zm25.475-30.723h.01z" fill="#3d4c67"/></g></g></svg>