<svg id="Layer_2" viewBox="0 0 75 75" xmlns="http://www.w3.org/2000/svg"><g id="Ekstra"><path d="m21.1 28.64-7.68 4.43v8.87l7.67 4.43 7.68-4.43v-8.87zm-.25 15.42-5.55-3.21v-6.4h1v5.83l5.05 2.91zm8.43-29.59-7.68 4.43v8.87l7.68 4.43 7.68-4.43v-8.87zm-.25 15.42-5.55-3.21v-6.41h1v5.83l5.05 2.92zm.25 12.91-7.68 4.44v8.86l7.68 4.43 7.68-4.43v-8.86zm-.25 15.42-5.55-3.21v-6.4h1v5.83l5.05 2.91zm8.43-29.58-7.68 4.43v8.87l7.68 4.43 7.68-4.43v-8.87zm-.25 15.42-5.55-3.21v-6.4h1v5.83l5.05 2.91zm8.43-29.59-7.68 4.43v8.87l7.68 4.43 7.68-4.43v-8.87zm-.25 15.42-5.55-3.21v-6.41h1v5.83l5.05 2.92zm.25 12.91-7.68 4.44v8.86l7.68 4.43 7.68-4.43v-8.87zm-.25 15.42-5.55-3.21v-6.4h1v5.83l5.05 2.91zm8.52-29.58-7.68 4.43v8.87l7.68 4.43 7.68-4.43v-8.87zm-.25 15.42-5.55-3.21v-6.4h1v5.83l5.05 2.91zm.25-15.42-7.68 4.43v8.87l7.68 4.43 7.68-4.43v-8.87zm-.25 15.42-5.55-3.21v-6.4h1v5.83l5.05 2.91zm-8.02-1.26-7.68 4.44v8.86l7.68 4.43 7.68-4.43v-8.87zm-.25 15.42-5.55-3.21v-6.4h1v5.83l5.05 2.91zm.25-43.75-7.68 4.43v8.87l7.68 4.43 7.68-4.43v-8.87zm-.25 15.42-5.55-3.21v-6.41h1v5.83l5.05 2.92zm-7.93-1.25-7.68 4.43v8.87l7.68 4.43 7.68-4.43v-8.87zm-.25 15.42-5.55-3.21v-6.4h1v5.83l5.05 2.91zm-7.93-1.26-7.68 4.44v8.86l7.68 4.43 7.68-4.43v-8.86zm-.25 15.42-5.55-3.21v-6.4h1v5.83l5.05 2.91zm.25-43.75-7.68 4.43v8.87l7.68 4.43 7.68-4.43v-8.87zm-.25 15.42-5.55-3.21v-6.41h1v5.83l5.05 2.92zm-7.93-1.25-7.68 4.43v8.87l7.67 4.43 7.68-4.43v-8.87zm-.25 15.42-5.55-3.21v-6.4h1v5.83l5.05 2.91zm.25-15.42-7.68 4.43v8.87l7.67 4.43 7.68-4.43v-8.87zm-.25 15.42-5.55-3.21v-6.4h1v5.83l5.05 2.91zm8.43-29.59-7.68 4.43v8.87l7.68 4.43 7.68-4.43v-8.87zm-.25 15.42-5.55-3.21v-6.41h1v5.83l5.05 2.92zm.25 12.91-7.68 4.44v8.86l7.68 4.43 7.68-4.43v-8.86zm-.25 15.42-5.55-3.21v-6.4h1v5.83l5.05 2.91zm8.43-29.58-7.68 4.43v8.87l7.68 4.43 7.68-4.43v-8.87zm-.25 15.42-5.55-3.21v-6.4h1v5.83l5.05 2.91zm8.43-29.59-7.68 4.43v8.87l7.68 4.43 7.68-4.43v-8.87zm-.25 15.42-5.55-3.21v-6.41h1v5.83l5.05 2.92zm.25 12.91-7.68 4.44v8.86l7.68 4.43 7.68-4.43v-8.87zm-.25 15.42-5.55-3.21v-6.4h1v5.83l5.05 2.91zm8.52-29.58-7.68 4.43v8.87l7.68 4.43 7.68-4.43v-8.87zm-.25 15.42-5.55-3.21v-6.4h1v5.83l5.05 2.91zm.25-15.42-7.68 4.43v8.87l7.68 4.43 7.68-4.43v-8.87zm-.25 15.42-5.55-3.21v-6.4h1v5.83l5.05 2.91zm-15.7 3.18v8.86l7.68 4.43 7.68-4.43v-8.87l-7.68-4.43zm7.43 10.98-5.55-3.21v-6.4h1v5.83l5.05 2.91zm7.93-30.45v-8.87l-7.68-4.43-7.68 4.43v8.87l7.68 4.43zm-13.48-1.09v-6.41h1v5.83l5.05 2.92-.5.87zm5.3 6.39-7.68-4.43-7.68 4.43v8.87l7.68 4.43 7.68-4.43zm-7.93 10.99-5.55-3.21v-6.4h1v5.83l5.05 2.91zm-15.61 3.18v8.86l7.68 4.43 7.68-4.43v-8.86l-7.68-4.44zm7.43 10.98-5.55-3.21v-6.4h1v5.83l5.05 2.91zm7.93-30.45v-8.87l-7.68-4.43-7.68 4.43v8.87l7.68 4.43zm-13.48-1.09v-6.41h1v5.83l5.05 2.92-.5.87zm5.29 6.39-7.67-4.43-7.68 4.43v8.87l7.67 4.43 7.68-4.43zm-7.92 10.99-5.55-3.21v-6.4h1v5.83l5.05 2.91zm16.65-44.06c-20.71 0-37.5 16.79-37.5 37.5s16.79 37.5 37.5 37.5 37.5-16.79 37.5-37.5-16.79-37.5-37.5-37.5zm25.09 42.52-8.27 4.77v9.39l-8.68 5.01-8.18-4.73-8.18 4.73-8.68-5.01v-9.44l-8.18-4.72v-10.02l8.18-4.73v-9.45l8.68-5.01 8.18 4.73 8.18-4.73 8.68 5.01v9.4l8.27 4.78zm-16.36-9.45v8.87l7.68 4.43 7.68-4.43v-8.87l-7.68-4.43zm7.43 10.99-5.55-3.21v-6.4h1v5.83l5.05 2.91zm-15.7 3.18v8.86l7.68 4.43 7.68-4.43v-8.87l-7.68-4.43zm7.43 10.98-5.55-3.21v-6.4h1v5.83l5.05 2.91zm7.93-30.45v-8.87l-7.68-4.43-7.68 4.43v8.87l7.68 4.43zm-13.48-1.09v-6.41h1v5.83l5.05 2.92-.5.87zm5.3 6.39-7.68-4.43-7.68 4.43v8.87l7.68 4.43 7.68-4.43zm-7.93 10.99-5.55-3.21v-6.4h1v5.83l5.05 2.91zm-15.61 3.18v8.86l7.68 4.43 7.68-4.43v-8.86l-7.68-4.44zm7.43 10.98-5.55-3.21v-6.4h1v5.83l5.05 2.91zm7.93-30.45v-8.87l-7.68-4.43-7.68 4.43v8.87l7.68 4.43zm-13.48-1.09v-6.41h1v5.83l5.05 2.92-.5.87zm5.29 6.39-7.67-4.43-7.68 4.43v8.87l7.67 4.43 7.68-4.43zm-7.92 10.99-5.55-3.21v-6.4h1v5.83l5.05 2.91zm.25-15.42-7.68 4.43v8.87l7.67 4.43 7.68-4.43v-8.87zm-.25 15.42-5.55-3.21v-6.4h1v5.83l5.05 2.91zm8.43-29.59-7.68 4.43v8.87l7.68 4.43 7.68-4.43v-8.87zm-.25 15.42-5.55-3.21v-6.41h1v5.83l5.05 2.92zm.25 12.91-7.68 4.44v8.86l7.68 4.43 7.68-4.43v-8.86zm-.25 15.42-5.55-3.21v-6.4h1v5.83l5.05 2.91zm8.43-29.58-7.68 4.43v8.87l7.68 4.43 7.68-4.43v-8.87zm-.25 15.42-5.55-3.21v-6.4h1v5.83l5.05 2.91zm8.43-29.59-7.68 4.43v8.87l7.68 4.43 7.68-4.43v-8.87zm-.25 15.42-5.55-3.21v-6.41h1v5.83l5.05 2.92zm.25 12.91-7.68 4.44v8.86l7.68 4.43 7.68-4.43v-8.87zm-.25 15.42-5.55-3.21v-6.4h1v5.83l5.05 2.91zm8.52-29.58-7.68 4.43v8.87l7.68 4.43 7.68-4.43v-8.87zm-.25 15.42-5.55-3.21v-6.4h1v5.83l5.05 2.91zm.25-15.42-7.68 4.43v8.87l7.68 4.43 7.68-4.43v-8.87zm-.25 15.42-5.55-3.21v-6.4h1v5.83l5.05 2.91zm-8.02-1.26-7.68 4.44v8.86l7.68 4.43 7.68-4.43v-8.87zm-.25 15.42-5.55-3.21v-6.4h1v5.83l5.05 2.91zm.25-43.75-7.68 4.43v8.87l7.68 4.43 7.68-4.43v-8.87zm-.25 15.42-5.55-3.21v-6.41h1v5.83l5.05 2.92zm-7.93-1.25-7.68 4.43v8.87l7.68 4.43 7.68-4.43v-8.87zm-.25 15.42-5.55-3.21v-6.4h1v5.83l5.05 2.91zm-7.93-1.26-7.68 4.44v8.86l7.68 4.43 7.68-4.43v-8.86zm-.25 15.42-5.55-3.21v-6.4h1v5.83l5.05 2.91zm.25-43.75-7.68 4.43v8.87l7.68 4.43 7.68-4.43v-8.87zm-.25 15.42-5.55-3.21v-6.41h1v5.83l5.05 2.92zm-7.93-1.25-7.68 4.43v8.87l7.67 4.43 7.68-4.43v-8.87zm-.25 15.42-5.55-3.21v-6.4h1v5.83l5.05 2.91zm.25-15.42-7.68 4.43v8.87l7.67 4.43 7.68-4.43v-8.87zm-.25 15.42-5.55-3.21v-6.4h1v5.83l5.05 2.91zm8.43-29.59-7.68 4.43v8.87l7.68 4.43 7.68-4.43v-8.87zm-.25 15.42-5.55-3.21v-6.41h1v5.83l5.05 2.92zm.25 12.91-7.68 4.44v8.86l7.68 4.43 7.68-4.43v-8.86zm-.25 15.42-5.55-3.21v-6.4h1v5.83l5.05 2.91zm8.43-29.58-7.68 4.43v8.87l7.68 4.43 7.68-4.43v-8.87zm-.25 15.42-5.55-3.21v-6.4h1v5.83l5.05 2.91zm8.43-29.59-7.68 4.43v8.87l7.68 4.43 7.68-4.43v-8.87zm-.25 15.42-5.55-3.21v-6.41h1v5.83l5.05 2.92zm.25 12.91-7.68 4.44v8.86l7.68 4.43 7.68-4.43v-8.87zm-.25 15.42-5.55-3.21v-6.4h1v5.83l5.05 2.91zm8.52-29.58-7.68 4.43v8.87l7.68 4.43 7.68-4.43v-8.87zm-.25 15.42-5.55-3.21v-6.4h1v5.83l5.05 2.91zm.25-15.42-7.68 4.43v8.87l7.68 4.43 7.68-4.43v-8.87zm-.25 15.42-5.55-3.21v-6.4h1v5.83l5.05 2.91zm-8.02-1.26-7.68 4.44v8.86l7.68 4.43 7.68-4.43v-8.87zm-.25 15.42-5.55-3.21v-6.4h1v5.83l5.05 2.91zm.25-43.75-7.68 4.43v8.87l7.68 4.43 7.68-4.43v-8.87zm-.25 15.42-5.55-3.21v-6.41h1v5.83l5.05 2.92zm-7.93-1.25-7.68 4.43v8.87l7.68 4.43 7.68-4.43v-8.87zm-.25 15.42-5.55-3.21v-6.4h1v5.83l5.05 2.91zm-7.93-1.26-7.68 4.44v8.86l7.68 4.43 7.68-4.43v-8.86zm-.25 15.42-5.55-3.21v-6.4h1v5.83l5.05 2.91zm.25-43.75-7.68 4.43v8.87l7.68 4.43 7.68-4.43v-8.87zm-.25 15.42-5.55-3.21v-6.41h1v5.83l5.05 2.92zm-7.93-1.25-7.68 4.43v8.87l7.67 4.43 7.68-4.43v-8.87zm-.25 15.42-5.55-3.21v-6.4h1v5.83l5.05 2.91z" fill="#f39200"/></g></svg>