<svg width="309" height="309" viewBox="0 0 309 309" fill="none" xmlns="http://www.w3.org/2000/svg">
<path d="M154.51 301.374C79.716 301.374 19.0832 240.741 19.0832 165.947C19.0832 91.1523 79.716 30.5195 154.51 30.5195C229.305 30.5195 289.938 91.1523 289.938 165.947C289.938 240.741 229.305 301.374 154.51 301.374Z" fill="#ECECEC"/>
<path d="M131.449 113.604C132.005 117.912 131.111 122.395 129.403 126.83C127.964 130.53 129.295 134.945 132.087 137.767C134.879 140.589 138.892 141.959 142.853 142.209C146.816 142.459 150.769 141.685 154.624 140.738C157.817 139.953 161.021 139.027 163.851 137.354C166.68 135.68 169.135 133.17 170.502 129.937C170.038 120.235 170.527 110.489 171.961 100.883C169.957 103.714 167.097 105.853 164.023 107.46C160.948 109.066 157.643 110.176 154.355 111.28C150.928 112.429 147.48 113.584 143.908 114.129C140.336 114.673 136.596 114.581 131.449 113.604Z" fill="#FEB187"/>
<path d="M113.488 30.2071C112.23 43.675 112.062 57.3584 114.697 70.6262C117.333 83.8933 122.907 96.785 132.063 106.741C137.002 112.11 143.475 116.766 150.769 116.893C157.183 117.003 163.262 113.508 167.552 108.74C171.841 103.971 174.578 98.0235 176.911 92.0487C182.067 78.8435 185.567 64.9986 187.384 50.9391C188.243 44.2907 188.722 37.4912 187.393 30.92C186.063 24.3487 182.739 17.964 177.252 14.1117C169.561 8.71231 159.292 9.15998 149.992 10.5151C142.616 11.5896 135.208 13.128 128.522 16.4224C121.837 19.7169 114.026 24.4524 113.488 30.2071Z" fill="#3E1D0C"/>
<path d="M116.077 35.4084C114.311 56.5615 112.62 78.3962 119.462 98.5367C121.632 104.927 124.909 111.354 130.664 115.047C136.382 118.716 143.851 119.102 150.418 117.235C156.984 115.368 163.365 112.871 168.514 108.468C173.472 104.227 178.521 98.0778 179.996 91.783C181.813 84.0279 182.907 79.0183 183.107 72.3635C183.452 60.8526 183.64 49.1761 180.78 38.0052C179.641 33.5558 177.969 29.1273 174.967 25.6046C169.742 19.4714 161.254 16.9525 153.125 16.2701C145.095 15.595 136.771 16.4614 129.543 19.9512C122.314 23.4401 116.546 29.7976 116.077 35.4084Z" fill="#FEB187"/>
<path d="M127.486 89.2891C128.652 94.3959 133.066 98.4973 137.737 98.814C142.408 99.1306 146.921 95.6345 147.883 90.4914C141.837 93.4861 134.452 93.1911 127.486 89.2891Z" fill="black"/>
<path d="M139.103 56.1807C138.496 58.8362 137.863 61.4515 137.01 63.9663C136.131 66.4812 135.015 68.828 133.5 71.0166C133.127 71.5816 132.762 72.1916 132.418 72.7454C132.067 73.316 131.69 73.8786 131.343 74.4911C131.002 75.1027 130.654 75.7609 130.476 76.5558C130.267 77.3467 130.426 78.2742 130.797 78.959C131.126 79.6357 131.708 80.298 132.377 80.6548C133.041 81.0334 133.741 81.2383 134.429 81.3717C135.813 81.6145 137.165 81.6361 138.527 81.6723C137.22 81.2849 135.869 81.0446 134.63 80.609C133.381 80.1886 132.313 79.532 131.936 78.4325C131.731 77.898 131.69 77.4078 131.845 76.887C131.99 76.3645 132.299 75.8188 132.649 75.2731L134.843 71.8991C135.585 70.7538 136.307 69.5369 136.866 68.2598C137.417 66.9779 137.883 65.6662 138.209 64.3232C138.864 61.6411 139.157 58.9045 139.103 56.1807Z" fill="black"/>
<path d="M156.603 66.2314C156.697 64.5138 155.786 63.0671 154.567 63.0004C153.348 62.9337 152.283 64.2711 152.189 65.9887C152.094 67.7062 153.005 69.1529 154.224 69.2196C155.443 69.2872 156.508 67.949 156.603 66.2314Z" fill="black"/>
<path d="M125.743 65.5898C125.838 63.8722 124.927 62.4255 123.707 62.3588C122.489 62.2921 121.424 63.6295 121.329 65.3471C121.234 67.0646 122.146 68.5113 123.365 68.578C124.583 68.6455 125.648 67.3074 125.743 65.5898Z" fill="black"/>
<path d="M161.859 55.8471C159.088 54.3039 156.095 53.1594 153.001 52.4602C152.095 52.2552 151.135 52.0905 150.249 52.3702C149.363 52.6507 148.596 53.5163 148.738 54.4341C148.863 55.2379 149.633 55.8109 150.424 55.9958C151.217 56.1806 152.043 56.0665 152.854 56.0118C156.521 55.7643 160.261 56.7906 163.288 58.8747C163.597 59.0869 163.957 59.3216 164.317 59.2171C164.788 59.0805 164.911 58.4126 164.666 57.9866C164.424 57.5606 164.099 57.0936 161.859 55.8471Z" fill="#3E1D0C"/>
<path d="M118.143 55.4657C121.075 54.2561 124.18 53.4684 127.335 53.1341C128.258 53.036 129.231 52.9846 130.078 53.3656C130.925 53.7465 131.587 54.6965 131.337 55.5911C131.12 56.3747 130.289 56.8537 129.48 56.9453C128.672 57.037 127.865 56.8272 127.065 56.6785C123.452 56.005 119.618 56.5885 116.368 58.306C116.037 58.4812 115.651 58.6717 115.306 58.5263C114.854 58.335 114.81 57.6574 115.103 57.2636C115.396 56.8682 115.773 56.443 118.143 55.4657Z" fill="#3E1D0C"/>
<path d="M170.16 27.1732C165.81 24.6125 160.21 25.8133 155.635 27.9488C151.06 30.0842 146.81 33.099 141.876 34.1696C136.443 35.3478 130.825 34.037 125.284 33.5933C119.742 33.1504 113.525 33.8698 110.667 37.6826C109.663 30.8703 111.913 23.7549 116.235 18.3941C120.556 13.0341 126.821 9.39162 133.503 7.72952C140.186 6.06742 147.261 6.31417 153.968 7.87178C158.357 8.8917 162.762 10.5554 165.948 13.7422C169.135 16.9289 170.828 21.9168 170.16 27.1732Z" fill="#3E1D0C"/>
<path d="M166.799 23.5264C170.341 28.028 170.359 34.3227 169.637 40.0043C168.915 45.6866 167.627 51.5232 169.113 57.0552C170.693 62.9393 175.329 68.096 175.005 74.1801C174.924 75.7016 174.891 77.7904 176.381 78.1087C177.291 78.3032 178.174 77.5373 178.482 76.6596C178.789 75.782 178.589 74.8215 178.65 73.894C180.133 51.5457 183.952 62.703 183.955 56.1293C183.957 51.0595 187.017 37.7643 186.006 32.7965C184.723 26.4913 182.446 19.6749 176.86 16.4825C174.213 14.9699 170.742 14.5206 168.163 16.145C165.583 17.7709 165.092 21.3571 166.799 23.5264Z" fill="#3E1D0C"/>
<path d="M182.459 58.9369C184.268 57.9403 186.661 58.2931 188.287 59.5228C189.913 60.7525 190.821 62.7216 191.055 64.7116C191.289 66.7016 190.909 68.7214 190.329 70.6511C189.73 72.6492 188.891 74.628 187.484 76.2073C186.077 77.7874 184.026 78.9295 181.881 78.8957C181.123 78.8837 180.302 78.6867 179.857 78.0976C179.385 77.4723 179.477 76.6147 179.588 75.844C180.383 70.3899 181.177 64.9351 182.459 58.9369Z" fill="#FEB187"/>
<path d="M189.133 65.8942C189.071 65.1708 188.748 64.5222 188.32 63.962C187.885 63.4058 187.322 62.9461 186.69 62.619C186.059 62.2911 185.355 62.0966 184.643 62.0701C183.934 62.0516 183.21 62.1818 182.602 62.5804C183.27 62.8545 183.841 63.0659 184.388 63.3078C184.933 63.5417 185.445 63.786 185.953 64.0464C186.46 64.3076 186.96 64.5865 187.473 64.8935L189.133 65.8942Z" fill="black"/>
<path d="M187.156 64.2734C186.399 64.9614 185.933 65.9034 185.579 66.818C185.231 67.7431 184.997 68.6698 184.755 69.5483C184.514 70.4123 184.242 71.2513 183.868 72.0398C183.492 72.8291 183.028 73.5604 182.234 74.193C183.273 74.2099 184.264 73.5371 184.924 72.7342C185.599 71.9176 186.035 70.9532 186.304 69.9758C186.568 69.009 186.693 68.0533 186.802 67.1194C186.903 66.1775 186.998 65.2717 187.156 64.2734Z" fill="black"/>
<path d="M176.169 67.1972C175.756 84.3558 164.853 100.838 149.222 107.929C147.241 108.828 144.683 109.503 143.079 108.033C142.326 107.341 141.984 106.326 141.477 105.437C140.971 104.549 140.117 103.696 139.098 103.779C137.655 103.895 137.067 105.63 136.174 106.768C134.42 109.003 130.856 109.02 128.42 107.56C125.984 106.1 124.423 103.568 123.007 101.105C119.205 94.4883 116.397 86.6577 115.295 79.859C114.905 87.6382 114.706 92.074 115.688 98.1919C116.67 104.31 119.423 110.386 124.376 114.109C130.75 118.901 144.563 127.342 165.016 112.153C171.533 107.313 175.507 98.765 176.628 90.403C178.471 82.7837 179.387 74.9402 179.35 67.1015C179.348 66.5686 179.333 66.006 179.056 65.5511C178.615 64.8294 177.507 64.6333 176.845 65.1621C176.184 65.691 176.178 66.813 176.169 67.1972Z" fill="#3E1D0C"/>
<path d="M124.167 105.276C122.383 99.5855 121.504 95.5926 121.173 89.5317C120.955 85.5308 121.385 84.4321 125.408 83.7265C127.806 83.3061 130.727 84.9513 133.086 84.6098C133.928 84.4876 134.747 84.1621 135.594 84.1348C136.441 84.1074 137.376 84.4643 137.782 85.3492C138.237 86.3394 137.842 87.6422 137.125 88.38C136.408 89.1178 135.451 89.4184 134.524 89.6587C131.053 90.5605 127.485 90.9391 123.962 90.9013C124.601 96.7138 125.538 102.481 126.767 108.157C126.001 108.47 124.957 107.792 124.167 105.276Z" fill="#3E1D0C"/>
<path d="M136.195 87.5637C139.516 90.4137 143.76 91.6916 147.819 91.0639C149.659 90.7793 151.805 90.2264 153.151 91.747C154.126 92.8497 154.246 94.6211 154.305 96.2205C154.396 98.7346 154.487 101.248 154.579 103.762C154.61 104.635 154.655 105.557 155.064 106.282C155.473 107.007 156.383 107.405 156.961 106.867C157.39 106.468 157.473 105.749 157.519 105.104C157.87 100.149 157.879 95.1604 157.545 90.2039C157.443 88.7058 157.26 87.0774 156.352 86.0334C155.078 84.569 153.04 84.9106 151.28 85.1412C147.761 85.6026 144.165 85.2031 140.779 83.975C139.647 83.5651 138.415 83.0644 137.321 83.5973C136.228 84.1302 135.767 86.2922 136.195 87.5637Z" fill="#3E1D0C"/>
<path d="M162.672 9.95605C163.76 11.4695 164.746 12.9829 165.596 14.5614C166.434 16.1431 167.164 17.7682 167.722 19.4544C168.307 21.131 168.721 22.8638 169.021 24.6288C169.312 26.3978 169.455 28.1981 169.518 30.062C170.119 28.2922 170.336 26.393 170.27 24.5074C170.213 22.6163 169.84 20.7372 169.242 18.9377C168.616 17.1478 167.764 15.431 166.655 13.8991C165.557 12.3648 164.226 10.9929 162.672 9.95605Z" fill="black"/>
<path d="M172.483 13.2412C172.464 14.5537 172.501 15.8091 172.508 17.0573C172.515 18.3047 172.49 19.5384 172.445 20.7705C172.393 22.0026 172.326 23.2347 172.222 24.478C172.119 25.7222 171.987 26.9712 171.909 28.2813C172.624 27.1778 173.113 25.9561 173.456 24.6983C173.8 23.4396 174.004 22.1384 174.05 20.8316C174.101 19.5247 173.997 18.213 173.751 16.9311C173.504 15.6516 173.111 14.3962 172.483 13.2412Z" fill="black"/>
<path d="M175.601 26.1528C176.294 25.6963 176.897 25.2953 177.522 24.9521C178.14 24.6049 178.758 24.3067 179.393 24.0471C180.028 23.7883 180.676 23.5657 181.359 23.3792C182.045 23.1847 182.755 23.0456 183.57 22.8809C182.897 22.3842 182.066 22.1648 181.236 22.1214C180.402 22.0852 179.557 22.2403 178.783 22.5602C178.007 22.8793 177.297 23.3615 176.731 23.9731C176.17 24.5888 175.733 25.3266 175.601 26.1528Z" fill="black"/>
<path d="M173.496 31.3242C176.027 33.4444 177.817 35.9971 179.196 38.8165C179.885 40.2254 180.489 41.6898 181.062 43.1896C181.636 44.6885 182.182 46.2212 182.867 47.733C182.835 46.0749 182.626 44.4434 182.264 42.8287C181.9 41.2164 181.385 39.617 180.638 38.1084C179.895 36.5958 178.919 35.1837 177.721 33.9869C176.53 32.7918 175.089 31.8105 173.496 31.3242Z" fill="black"/>
<path d="M177.641 29.8057C180.333 31.7073 182.139 34.2494 183.466 37.0609C184.127 38.4714 184.687 39.9454 185.212 41.458C185.74 42.969 186.237 44.517 186.891 46.0392C186.893 44.3852 186.736 42.7552 186.424 41.1333C186.112 39.5154 185.644 37.8999 184.92 36.3753C184.2 34.8466 183.218 33.4256 181.991 32.2498C180.771 31.0771 179.268 30.1521 177.641 29.8057Z" fill="black"/>
<path d="M158.172 20.7171C156.91 18.8469 155.274 17.225 153.443 15.8683C151.615 14.5003 149.572 13.4226 147.433 12.6084C145.284 11.8215 143.034 11.2983 140.757 11.1368C138.485 10.964 136.185 11.1191 134.008 11.709C136.258 11.7862 138.449 11.9879 140.598 12.3809C142.742 12.7844 144.845 13.3438 146.872 14.1138C148.91 14.8564 150.866 15.8104 152.752 16.9091C154.634 18.0182 156.421 19.3002 158.172 20.7171Z" fill="black"/>
<path d="M149.852 25.2803C147.661 22.8611 144.854 20.9691 141.788 19.7025C138.722 18.4213 135.373 17.7888 132.027 17.8354C128.68 17.9102 125.357 18.6665 122.34 20.0593C119.323 21.4385 116.588 23.4333 114.489 25.9337C117.051 23.9212 119.852 22.3266 122.822 21.2175C125.791 20.122 128.918 19.4855 132.056 19.4412C135.195 19.3681 138.344 19.8881 141.351 20.8727C144.361 21.8717 147.219 23.3626 149.852 25.2803Z" fill="black"/>
<path d="M134.555 30.0434C132.774 28.9078 130.921 27.9152 128.973 27.0849C127.03 26.2458 124.977 25.6085 122.85 25.2532C120.716 24.9277 118.514 24.9117 116.391 25.3714C114.278 25.8142 112.225 26.7385 110.682 28.1981C112.597 27.3035 114.579 26.8068 116.584 26.6107C118.589 26.4283 120.611 26.5111 122.597 26.8398C124.596 27.142 126.568 27.6805 128.548 28.26C130.526 28.8491 132.507 29.517 134.555 30.0434Z" fill="black"/>
<mask id="mask0_415_330" style="mask-type:luminance" maskUnits="userSpaceOnUse" x="19" y="30" width="271" height="272">
<path d="M154.526 301.375C79.7316 301.375 19.0988 240.742 19.0988 165.948C19.0988 91.1533 79.7316 30.5205 154.526 30.5205C229.32 30.5205 289.953 91.1533 289.953 165.948C289.953 240.742 229.32 301.375 154.526 301.375Z" fill="white"/>
</mask>
<g mask="url(#mask0_415_330)">
<path d="M170.904 116.135C168.582 125.044 166.597 128.616 161.364 132.051C156.131 135.486 149.609 137.21 143.484 135.92C137.358 134.63 132.23 127.432 130.788 120.985C121.313 129.709 119.695 133.39 117.694 140.66C115.692 147.931 104.263 203.414 104.467 223.724C104.668 243.686 109.003 288.757 105.242 308.363C105.242 308.363 188.856 305.392 188.891 305.074C185.548 253.194 181.344 174.52 170.904 116.135Z" fill="#2B3126"/>
<path d="M178.594 193.595C154.232 195.788 129.599 194.943 105.445 191.087C105.445 191.087 106.832 210.263 106.992 210.23C130.359 214.433 154.442 214.633 177.876 210.815L178.594 193.595Z" fill="#FFE1CC"/>
<path d="M176.984 228.958C152.623 231.151 127.989 230.306 103.835 226.45C103.835 226.45 105.222 245.626 105.382 245.593C128.75 249.797 152.833 249.996 176.267 246.178L176.984 228.958Z" fill="#FFE1CC"/>
<path d="M174.977 265.528C150.615 267.721 125.982 266.877 101.827 263.021C101.827 263.021 103.215 282.197 103.375 282.164C126.742 286.367 150.825 286.566 174.259 282.749L174.977 265.528Z" fill="#FFE1CC"/>
<path d="M182.305 125.546C180.135 128.157 177.811 130.613 175.36 132.947C174.147 134.125 172.919 135.289 171.682 136.447C170.441 137.582 169.226 138.825 167.986 139.908C163.023 144.321 156.402 146.509 149.797 146.772C146.484 146.921 143.146 146.64 139.894 145.946C136.636 145.278 133.473 144.158 130.523 142.637C127.625 141.064 124.865 139.045 123.066 136.275C121.238 133.569 120.707 129.88 122.094 126.76C121.234 128.229 120.864 129.982 120.949 131.708C121.031 133.433 121.506 135.166 122.39 136.681C124.142 139.735 126.943 141.997 129.916 143.735C135.955 147.146 142.957 148.639 149.869 148.377C151.598 148.28 153.323 148.078 155.028 147.75C156.724 147.385 158.415 146.961 160.034 146.319C161.648 145.676 163.237 144.947 164.706 144.008C165.084 143.791 165.448 143.554 165.799 143.296C166.153 143.043 166.517 142.803 166.861 142.537C167.527 141.977 168.222 141.452 168.831 140.829C171.274 138.415 173.599 135.991 175.922 133.491C178.194 130.964 180.425 128.377 182.305 125.546Z" fill="black"/>
<path d="M83.4736 156.023C74.8184 171.595 70.3039 189.444 70.5144 207.258C70.6213 216.267 71.9049 225.351 70.4156 234.236C69.124 241.94 65.7877 249.201 64.6601 256.931C62.6789 270.511 66.2217 297.986 62.5801 306.107C62.5801 306.107 92.8346 307.867 93.1842 307.007C92.28 257.965 96.1974 201.69 95.2932 152.648C95.2626 150.99 95.1501 149.14 93.9389 148.009C92.3242 146.502 89.52 147.195 88.0637 148.856C86.6066 150.517 85.5079 152.365 83.4736 156.023Z" fill="#91C8CF"/>
<path d="M130.959 121.766C124.156 127.291 119.8 135.849 118.982 144.575C118.164 153.301 119.665 162.058 122.408 170.522C117.879 183.724 113.715 197.201 112.623 211.115C111.704 222.82 112.979 234.571 113.575 246.297C114.17 258.023 112.044 296.529 108.461 307.71C108.461 307.71 83.9052 308.863 84.2138 307.344C87.6554 285.845 86.6089 241.46 83.0806 219.974C79.5522 198.489 76.8011 176.09 82.5252 154.445C88.9132 144.006 100.068 136.618 112.511 134.192C114.5 125.302 125.368 114.796 125.368 114.796C125.368 114.796 126.723 115.963 131.213 118.28L131.695 118.481C131.694 118.481 131.16 120.911 130.959 121.766Z" fill="#91C8CF"/>
<path d="M81.5427 174.493C80.9528 177.211 80.5525 179.984 80.4094 182.768L80.2704 184.856L80.2085 186.946L80.1482 189.037L80.1458 191.129C80.1828 196.706 80.4657 202.277 80.8884 207.835C81.2951 213.395 81.9429 218.933 82.6583 224.462C83.3953 229.989 84.2247 235.502 85.3411 240.99C85.9141 243.725 86.4832 246.396 86.8754 249.139C87.2845 251.87 87.5811 254.62 87.8053 257.379C88.2594 262.897 88.3366 268.447 88.4185 274C88.478 279.556 88.4137 285.12 88.4354 290.687C88.5118 296.254 88.6034 301.831 89.1017 307.377C88.9683 301.812 89.0334 296.255 89.2238 290.696C89.3621 285.138 89.5646 279.577 89.6555 274.004C89.8283 262.884 89.3557 251.603 86.9124 240.656C84.6499 229.82 83.2843 218.761 82.1149 207.725C81.5443 202.201 81.1288 196.661 80.9295 191.113C80.7189 185.572 80.6739 179.995 81.5427 174.493Z" fill="black"/>
<path d="M70.5302 265.449C72.1594 265.444 73.7379 265.409 75.3092 265.433C76.8788 265.457 78.4356 265.54 79.9868 265.671C81.538 265.809 83.086 265.99 84.6364 266.234C86.1883 266.478 87.7379 266.779 89.3438 267.059C87.9839 266.156 86.4793 265.499 84.9233 265.013C83.3665 264.528 81.7534 264.205 80.1235 264.07C78.4943 263.93 76.8499 263.971 75.2336 264.186C73.6189 264.402 72.0244 264.792 70.5302 265.449Z" fill="black"/>
<path d="M69.2632 259.252C71.0355 259.66 72.7675 260.033 74.4778 260.468C76.1841 260.913 77.8735 261.382 79.5324 261.948C81.2001 262.486 82.8365 263.116 84.4713 263.778C86.1028 264.45 87.7167 265.183 89.3828 265.911C88.0912 264.627 86.6027 263.559 85.025 262.653C83.4497 261.736 81.7659 261.01 80.0379 260.423C78.3003 259.865 76.5168 259.443 74.7044 259.239C72.8961 259.026 71.0652 258.995 69.2632 259.252Z" fill="black"/>
<path d="M68.6055 255.371C70.3841 255.632 72.1041 255.917 73.7927 256.308C75.4765 256.709 77.1322 257.18 78.7388 257.788C80.3559 258.367 81.9216 259.081 83.4639 259.866C85.003 260.663 86.498 261.559 88.0234 262.511C86.9497 261.065 85.5994 259.831 84.1141 258.794C82.6321 257.746 80.9957 256.921 79.2926 256.28C77.5799 255.667 75.7988 255.235 73.9912 255.074C72.1885 254.903 70.3608 254.967 68.6055 255.371Z" fill="black"/>
<path d="M70.848 251.2C72.7029 251.805 74.4736 252.477 76.1694 253.291C77.858 254.113 79.4807 255.043 80.9958 256.129C82.5277 257.191 83.9494 258.407 85.2917 259.719C86.6282 261.042 87.8587 262.482 89.0547 264.023C88.4495 262.164 87.4521 260.432 86.2272 258.884C85.0079 257.326 83.5339 255.969 81.92 254.816C80.2893 253.686 78.5155 252.756 76.638 252.133C74.7677 251.502 72.8018 251.146 70.848 251.2Z" fill="black"/>
<path d="M71.8822 223.55C71.9031 225.75 72.1804 227.935 72.6072 230.088C73.0235 232.245 73.6271 234.363 74.3368 236.443C75.0754 238.513 75.9241 240.545 76.9425 242.492C77.9511 244.442 79.0964 246.322 80.4531 248.055C79.6807 245.996 78.8658 243.991 78.0862 241.976C77.317 239.959 76.551 237.948 75.8534 235.913C75.1284 233.887 74.4742 231.838 73.8176 229.78C73.1714 227.719 72.5598 225.642 71.8822 223.55Z" fill="black"/>
<path d="M98.1629 160.188C96.1689 165.028 94.7921 170.117 93.7963 175.269C92.8495 180.433 92.3432 185.675 92.1278 190.92C91.7171 201.425 92.6213 211.911 93.6717 222.317L95.4431 237.899C96.0242 243.09 96.4928 248.288 96.9509 253.485C97.3849 258.685 97.6895 263.895 97.757 269.111C97.872 274.327 97.6831 279.548 97.1117 284.749C98.0448 279.597 98.3936 274.35 98.5447 269.114C98.6371 263.873 98.4708 258.631 98.1846 253.4C97.5899 242.937 96.328 232.538 95.2679 222.146C94.0857 211.772 93.2144 201.366 93.3575 190.953C93.4218 185.75 93.7883 180.547 94.5679 175.398C95.2977 170.241 96.5097 165.151 98.1629 160.188Z" fill="black"/>
<path d="M111.227 154.079C108.948 160.082 107.353 166.332 106.047 172.623C104.795 178.929 103.899 185.301 103.18 191.686C102.441 198.072 102.004 204.483 101.598 210.89C101.204 217.299 100.897 223.71 100.599 230.118C100.113 242.938 99.608 255.748 98.6371 268.519C98.1596 274.906 97.5231 281.28 96.6133 287.618C95.7533 293.963 94.5582 300.263 92.9692 306.48C94.9094 300.361 96.2653 294.064 97.3921 287.74C98.4634 281.402 99.2398 275.019 99.8692 268.626C101.099 255.834 101.591 242.996 102.203 230.187C102.689 217.371 103.264 204.564 104.405 191.81C104.973 185.434 105.731 179.073 106.818 172.766C107.859 166.452 109.291 160.198 111.227 154.079Z" fill="black"/>
<path d="M118.399 151.153C117.259 152.406 116.228 153.765 115.5 155.361C114.776 156.945 114.376 158.789 114.721 160.637C114.889 161.559 115.281 162.438 115.75 163.191C116.236 163.941 116.761 164.62 117.313 165.246C118.386 166.52 119.484 167.673 120.031 169.295C120.11 168.441 119.885 167.562 119.558 166.756C119.216 165.952 118.775 165.206 118.324 164.502C117.416 163.091 116.559 161.769 116.299 160.339C116.028 158.891 116.219 157.321 116.669 155.8C117.117 154.268 117.822 152.754 118.399 151.153Z" fill="black"/>
<path d="M116.571 153.216C114.622 152.965 112.558 152.733 111.066 151.601C110.331 151.05 109.738 150.306 109.505 149.487C109.261 148.673 109.423 147.836 109.798 146.986L112.426 141.706C113.305 139.935 114.181 138.166 115.096 136.421C116 134.671 116.917 132.929 117.907 131.234C118.868 129.52 119.906 127.855 120.99 126.219C123.152 122.941 125.634 119.888 128.406 117.034C125.195 119.381 122.364 122.286 119.968 125.492C117.529 128.677 115.523 132.157 113.67 135.683C111.862 139.257 110.198 142.794 108.636 146.532C108.459 147.03 108.312 147.565 108.269 148.135C108.226 148.702 108.301 149.302 108.515 149.828C108.932 150.893 109.73 151.702 110.63 152.254C112.505 153.348 114.614 153.302 116.571 153.216Z" fill="black"/>
<path d="M112.516 134.554C111.515 136.228 110.444 137.828 109.298 139.363C108.146 140.895 106.91 142.352 105.614 143.749C104.303 145.131 102.942 146.465 101.485 147.679C100.045 148.913 98.5075 150.027 96.9081 150.981L96.8639 151.008C96.5208 151.212 96.4082 151.657 96.6132 152C96.696 152.138 96.8173 152.24 96.9556 152.297C97.9618 152.719 99.0155 153.023 100.089 153.154C101.16 153.29 102.242 153.311 103.303 153.168C105.42 152.911 107.459 152.093 109.07 150.793C107.21 151.697 105.211 152.146 103.233 152.176C102.244 152.178 101.26 152.1 100.306 151.888C99.3555 151.673 98.4264 151.381 97.5616 150.956L97.6082 152.273C99.3989 151.347 101.003 150.164 102.521 148.898C104.018 147.606 105.424 146.213 106.685 144.698C107.959 143.197 109.1 141.582 110.089 139.886C111.081 138.195 111.916 136.409 112.516 134.554Z" fill="black"/>
<path d="M105.634 257.656C104.413 257.656 103.423 256.397 103.423 254.843C103.423 253.29 104.413 252.03 105.634 252.03C106.854 252.03 107.844 253.29 107.844 254.843C107.844 256.397 106.854 257.656 105.634 257.656Z" fill="black"/>
<path d="M107.235 213.451C106.014 213.451 105.025 212.192 105.025 210.638C105.025 209.085 106.014 207.825 107.235 207.825C108.456 207.825 109.445 209.085 109.445 210.638C109.445 212.192 108.456 213.451 107.235 213.451Z" fill="black"/>
<path d="M114.876 172.462C113.655 172.462 112.665 171.203 112.665 169.649C112.665 168.095 113.655 166.836 114.876 166.836C116.096 166.836 117.086 168.095 117.086 169.649C117.086 171.203 116.096 172.462 114.876 172.462Z" fill="black"/>
<path d="M171.239 113.9C169.44 125.82 170.668 137.786 160.473 149.939C162.55 158.839 164.631 167.768 165.561 176.86C166.424 185.303 166.287 193.812 166.149 202.299C165.7 229.859 165.25 278.345 162.777 305.798C162.777 305.798 237.62 304.186 236.892 303.973C238.839 252.327 241.013 185.388 242.266 132.633C237.586 124.504 227.562 121.466 218.481 119.118C206.547 116.033 184.969 114.153 171.239 113.9Z" fill="#91C8CF"/>
<path d="M225.839 205.051C220.558 188.01 218.171 170.094 218.591 152.258C218.765 144.848 219.588 136.992 224.097 131.109C227.093 127.2 231.955 124.418 236.839 125.053C240.568 125.538 243.798 127.887 246.464 130.54C253.378 137.42 257.54 146.638 260.118 156.046C262.696 165.453 263.828 175.185 265.569 184.783C267.357 194.644 269.803 204.464 269.964 214.485C270.126 224.506 265.715 244.253 258.982 251.677C256.391 254.533 242.496 243.451 239.701 239.506C232.456 229.275 229.513 216.906 225.839 205.051Z" fill="#91C8CF"/>
<path d="M163.064 153.037C167.056 151.105 170.827 148.672 174.266 145.826C177.721 142.996 180.849 139.766 183.633 136.266C186.395 132.748 188.814 128.958 190.767 124.942C192.74 120.938 194.234 116.704 195.188 112.373C193.635 116.526 191.777 120.524 189.655 124.361C187.514 128.185 185.094 131.846 182.373 135.269C176.961 142.153 170.414 148.088 163.064 153.037Z" fill="black"/>
<path d="M174.31 145.258C174.957 148.495 175.561 151.739 176.101 154.992C176.618 158.248 177.093 161.511 177.461 164.785C178.249 171.326 178.757 177.899 178.931 184.479C179.102 191.058 179.046 197.639 178.66 204.21C178.287 210.783 177.671 217.348 177.097 223.926C176.558 230.504 176.109 237.12 175.909 243.723C175.683 250.324 175.464 256.933 175.53 263.544C175.571 270.154 175.747 276.767 176.22 283.364L176.678 288.304C176.89 289.945 177.032 291.592 177.3 293.225C177.736 296.502 178.41 299.748 179.254 302.938C177.885 296.477 177.286 289.897 177.007 283.316C176.695 276.735 176.658 270.141 176.767 263.551C176.897 256.962 177.071 250.372 177.372 243.782C177.62 237.191 178.118 230.636 178.698 224.06C179.223 217.484 179.793 210.899 180.12 204.288C180.286 200.983 180.383 197.671 180.392 194.36C180.411 192.704 180.383 191.048 180.358 189.393C180.297 187.739 180.259 186.084 180.162 184.431C179.837 177.819 179.191 171.226 178.239 164.682C177.232 158.145 175.962 151.651 174.31 145.258Z" fill="black"/>
<path d="M210.445 126.896C209.206 131.236 208.065 135.597 207.026 139.981C205.965 144.36 204.995 148.758 204.044 153.159C203.122 157.566 202.219 161.979 201.408 166.411C200.575 170.837 199.844 175.286 199.214 179.756C200.456 175.416 201.596 171.054 202.636 166.672C203.696 162.293 204.666 157.895 205.616 153.493C206.536 149.085 207.439 144.672 208.249 140.241C209.081 135.814 209.813 131.365 210.445 126.896Z" fill="black"/>
<path d="M229.711 138.03C223.186 149.278 218.489 161.6 215.467 174.284C213.98 180.635 212.899 187.082 212.306 193.573C211.691 200.061 211.578 206.592 211.974 213.078C212.203 206.585 212.736 200.125 213.553 193.711C214.394 187.301 215.532 180.935 217.031 174.653C219.98 162.072 224.318 149.848 229.711 138.03Z" fill="black"/>
<path d="M243.992 137.98C241.374 139.259 238.905 140.836 236.575 142.594C234.236 144.345 232.058 146.309 230.015 148.402C227.995 150.517 226.111 152.764 224.444 155.164C222.77 157.556 221.283 160.08 220.101 162.743C221.858 160.421 223.609 158.136 225.441 155.924C227.281 153.72 229.173 151.569 231.171 149.519C233.148 147.448 235.229 145.479 237.366 143.562C239.511 141.649 241.734 139.819 243.992 137.98Z" fill="black"/>
<path d="M241.242 150.737C238.541 151.61 235.959 152.85 233.52 154.327C231.073 155.796 228.789 157.533 226.663 159.443C224.558 161.375 222.611 163.484 220.915 165.781C219.213 168.067 217.733 170.521 216.609 173.127C218.311 170.858 220.044 168.661 221.89 166.571C223.743 164.487 225.679 162.491 227.744 160.633C229.788 158.753 231.961 157.015 234.21 155.369C236.468 153.73 238.821 152.215 241.242 150.737Z" fill="black"/>
<path d="M252.391 161.15C249.668 160.358 246.818 159.984 243.965 159.934C241.109 159.872 238.244 160.169 235.439 160.738C232.639 161.336 229.895 162.21 227.302 163.409C224.706 164.597 222.245 166.079 220.067 167.895C222.607 166.642 225.161 165.512 227.776 164.57C230.393 163.638 233.055 162.863 235.766 162.31C238.472 161.73 241.222 161.376 243.993 161.183C246.769 161 249.561 161.015 252.391 161.15Z" fill="black"/>
<path d="M246.773 177.581C244.056 176.774 241.196 176.424 238.338 176.434C235.477 176.433 232.616 176.828 229.834 177.525C227.061 178.252 224.362 179.284 221.855 180.662C219.346 182.029 217.008 183.715 215.016 185.733C217.422 184.24 219.872 182.907 222.409 181.787C224.949 180.679 227.558 179.754 230.234 179.081C232.902 178.38 235.635 177.934 238.394 177.682C241.157 177.441 243.946 177.43 246.773 177.581Z" fill="black"/>
<path d="M173.088 206.745C172.268 203.792 172.257 200.621 173.056 197.664C173.418 197.67 173.734 197.942 173.896 198.266C174.058 198.59 174.095 198.96 174.125 199.322C174.294 201.352 174.319 203.394 174.2 205.427C174.176 205.831 174.144 206.245 173.973 206.612C173.802 206.978 173.265 207.383 173.088 206.745Z" stroke="black" stroke-miterlimit="10" stroke-linecap="round" stroke-linejoin="round"/>
<path d="M170.036 168.577C168.975 165.703 168.702 162.543 169.253 159.53C169.615 159.506 169.952 159.751 170.141 160.061C170.329 160.371 170.396 160.737 170.457 161.094C170.792 163.103 170.986 165.136 171.035 167.173C171.045 167.577 171.047 167.992 170.907 168.372C170.768 168.751 170.266 169.199 170.036 168.577Z" stroke="black" stroke-miterlimit="10" stroke-linecap="round" stroke-linejoin="round"/>
<path d="M170.555 253.731C169.956 250.726 170.18 247.563 171.195 244.673C171.556 244.706 171.851 245.001 171.989 245.336C172.126 245.671 172.136 246.043 172.139 246.406C172.157 248.442 172.03 250.481 171.761 252.5C171.708 252.901 171.646 253.311 171.448 253.664C171.25 254.017 170.684 254.38 170.555 253.731Z" stroke="black" stroke-miterlimit="10" stroke-linecap="round" stroke-linejoin="round"/>
<path d="M168.945 293.916C168.347 290.912 168.57 287.749 169.586 284.858C169.947 284.891 170.242 285.186 170.379 285.521C170.517 285.857 170.526 286.229 170.53 286.591C170.547 288.628 170.421 290.666 170.152 292.685C170.099 293.086 170.036 293.497 169.838 293.85C169.641 294.202 169.075 294.566 168.945 293.916Z" stroke="black" stroke-miterlimit="10" stroke-linecap="round" stroke-linejoin="round"/>
<path d="M180.531 58.3597L170.927 97.7702C170.881 97.9575 170.941 98.1544 171.083 98.2838L183.789 109.902C184.091 110.178 184.578 110.021 184.661 109.62L192.606 71.04C192.64 70.8777 192.595 70.7081 192.484 70.5843L181.437 58.1347C181.156 57.8164 180.632 57.9466 180.531 58.3597Z" fill="#C64300"/>
<path d="M181.374 69.4082C180.652 69.4082 180.068 68.6886 180.068 67.8008C180.068 66.913 180.652 66.1934 181.374 66.1934C182.095 66.1934 182.68 66.913 182.68 67.8008C182.68 68.6886 182.095 69.4082 181.374 69.4082Z" fill="black"/>
<path d="M182.577 64.7862C181.855 64.7862 181.271 64.0665 181.271 63.1787C181.271 62.291 181.855 61.5713 182.577 61.5713C183.298 61.5713 183.883 62.291 183.883 63.1787C183.883 64.0665 183.298 64.7862 182.577 64.7862Z" fill="black"/>
<path d="M197.269 209.642C189.111 191.619 184.891 174.293 179.036 155.396C179.036 155.396 169.335 141.283 169.122 140.448C168.139 134.607 168.265 128.582 168.802 122.011C165.001 118.969 162.729 114.104 162.856 108.443C162.271 107.978 162.111 107.127 162.274 106.397C162.435 105.667 162.86 105.027 163.277 104.406C165.612 100.924 167.947 97.442 170.314 93.9538C170.643 93.5415 171.188 93.3486 171.715 93.3309C172.242 93.3124 172.762 93.4483 173.269 93.5897C176.647 94.5301 179.937 95.7815 182.982 96.889C181.406 93.4121 180.231 89.7528 179.489 86.0082C179.159 84.3461 178.914 82.6519 179.023 80.9616C179.133 79.2706 179.618 77.5715 180.632 76.2149C181.132 75.547 181.913 74.9233 182.722 75.1242C183.707 75.3685 184.01 76.587 184.197 77.5844C185.261 83.2707 188.312 88.3575 191.309 93.3052C193.186 96.4044 195.063 99.5035 196.94 102.602C198.106 104.528 199.284 106.479 200.178 109.185C196.655 117.472 194.124 126.178 192.674 135.31C194.853 141.618 198.064 147.569 202.141 152.852C202.141 152.852 227.523 181.995 227.2 182.174C221.292 194.233 212.058 206.853 197.269 209.642Z" fill="#FEB187"/>
<path d="M165.24 110.554C165.378 111.111 165.698 111.539 166.073 111.896C166.455 112.246 166.909 112.507 167.395 112.671C167.881 112.835 168.402 112.901 168.917 112.852C169.432 112.794 169.945 112.644 170.391 112.28C169.91 111.971 169.493 111.783 169.089 111.599C168.685 111.425 168.299 111.277 167.906 111.147C167.514 111.016 167.116 110.901 166.689 110.796C166.255 110.7 165.809 110.598 165.24 110.554Z" fill="black"/>
<path d="M166.279 115.504C166.613 115.857 167.009 116.012 167.409 116.089C167.809 116.156 168.216 116.123 168.595 116.004C168.974 115.886 169.327 115.68 169.616 115.395C169.899 115.103 170.135 114.748 170.203 114.266C169.721 114.216 169.366 114.243 169.028 114.276C168.697 114.317 168.4 114.38 168.111 114.472C167.822 114.564 167.542 114.683 167.247 114.841C166.952 115.007 166.646 115.188 166.279 115.504Z" fill="black"/>
<path d="M170.514 109.647C170.094 110.625 169.833 111.617 169.627 112.613C169.422 113.61 169.271 114.611 169.184 115.618C169.091 116.624 169.067 117.636 169.095 118.653C169.124 119.67 169.21 120.692 169.455 121.728C169.877 120.751 170.139 119.759 170.344 118.762C170.549 117.766 170.7 116.764 170.785 115.757C170.874 114.751 170.901 113.738 170.872 112.722C170.842 111.705 170.757 110.683 170.514 109.647Z" fill="black"/>
<path d="M183.031 104.732C181.45 104.247 179.855 103.92 178.254 103.647C176.653 103.376 175.046 103.159 173.434 103.007C171.823 102.848 170.204 102.757 168.58 102.72C167.769 102.696 166.957 102.704 166.138 102.72C165.72 102.741 165.284 102.762 164.861 102.885C164.44 102.999 164.026 103.241 163.803 103.596C164.523 103.155 165.303 103.343 166.066 103.507C166.86 103.675 167.661 103.838 168.461 103.969C170.062 104.239 171.668 104.457 173.281 104.607C174.893 104.762 176.511 104.854 178.134 104.891C179.759 104.928 181.388 104.909 183.031 104.732Z" fill="black"/>
<path d="M188.336 103.077C186.68 102.114 184.906 101.387 183.097 100.787C181.291 100.176 179.436 99.7369 177.578 99.3527C175.713 98.9983 173.842 98.7082 171.959 98.5225C171.008 98.426 170.099 98.3344 169.101 98.3047C168.603 98.3127 168.076 98.3617 167.599 98.5659C167.127 98.7604 166.705 99.1044 166.502 99.5448C167.226 98.8818 168.174 98.893 169.023 99.0899L171.751 99.7594C173.588 100.197 175.431 100.551 177.266 100.929L182.778 101.996C184.617 102.359 186.451 102.739 188.336 103.077Z" fill="black"/>
<path d="M194.258 102.694C193.608 101.762 192.806 100.98 191.941 100.284C191.076 99.5875 190.144 98.9751 189.158 98.4639C188.175 97.9479 187.138 97.538 186.07 97.2286C185.004 96.9199 183.903 96.715 182.766 96.7198C183.707 97.3556 184.653 97.878 185.596 98.3899C186.539 98.9011 187.474 99.4042 188.416 99.8897L191.266 101.335C192.227 101.812 193.199 102.287 194.258 102.694Z" fill="black"/>
<path d="M236.585 260.438C227.447 254.029 218.227 247.549 210.714 239.295C203.201 231.041 197.926 216.215 196.289 207.865C210.189 205.91 220.36 194.32 227.015 181.335C228.198 181.034 230.263 181.593 232.082 182.937C233.832 184.23 233.467 185.336 235.315 187.297C237.164 189.259 241.228 189.465 242.996 190.969C248.889 195.979 254.39 204.062 258.033 209.577C262.35 216.112 265.164 223.759 265.307 231.591C265.45 239.421 262.776 247.411 257.364 253.072C251.951 258.732 242.531 264.608 236.585 260.438Z" fill="#91C8CF"/>
<path d="M226.521 181.326C228.982 181.069 231.469 182.266 232.675 184.26C233.3 185.238 233.692 186.491 234.721 187.481C235.75 188.453 237.053 188.835 238.159 189.29C240.365 190.156 242.282 191.603 243.988 193.301C245.695 194.994 247.301 196.869 248.823 198.772C251.888 202.569 254.573 206.672 256.621 211.092C258.641 215.518 260.044 220.265 260.447 225.202C260.583 222.728 260.336 220.235 259.907 217.777C259.434 215.326 258.711 212.918 257.773 210.595C255.902 205.939 253.188 201.664 250.076 197.766C248.49 195.835 246.875 193.952 245.037 192.205C243.197 190.492 241.06 188.919 238.592 188.118C237.404 187.716 236.256 187.391 235.418 186.698C234.573 186.023 234.087 184.863 233.321 183.815C231.729 181.719 228.94 180.708 226.521 181.326Z" fill="black"/>
<path d="M253.585 204.127C255.851 206.464 257.659 209.126 259.033 211.984C260.395 214.846 261.361 217.886 261.91 221C262.489 224.116 262.67 227.306 262.644 230.507C262.609 233.71 262.336 236.924 262.041 240.167C262.993 237.054 263.623 233.836 263.897 230.566C264.182 227.299 264.068 223.976 263.491 220.714C262.884 217.457 261.796 214.274 260.139 211.401C258.498 208.532 256.288 205.956 253.585 204.127Z" fill="black"/>
<path d="M249.484 198.369C248.776 201.611 247.944 204.788 246.906 207.89C245.859 210.987 244.641 214.018 243.197 216.94C241.779 219.874 240.137 222.698 238.338 225.428C236.529 228.153 234.537 230.763 232.417 233.317C235.009 231.239 237.318 228.803 239.358 226.159C241.408 223.518 243.16 220.647 244.641 217.645C246.096 214.63 247.284 211.483 248.105 208.244C248.936 205.01 249.438 201.69 249.484 198.369Z" fill="black"/>
<path d="M244.422 193.356C241.893 197.07 239.337 200.745 236.638 204.291C233.922 207.823 231.051 211.224 227.878 214.316C224.729 217.426 221.272 220.22 217.541 222.605C213.8 224.969 209.78 226.933 205.489 228.273C209.928 227.543 214.242 225.924 218.186 223.681C222.148 221.455 225.756 218.629 229.003 215.461C232.23 212.27 235.108 208.75 237.649 205.023C240.21 201.308 242.429 197.383 244.422 193.356Z" fill="black"/>
<path d="M196.484 208.366C197.7 213.93 199.211 219.456 201.399 224.765C203.543 230.088 206.536 235.106 210.21 239.548C213.901 243.985 218.217 247.833 222.782 251.27C227.341 254.724 232.152 257.799 237.055 260.699C232.497 257.278 227.944 253.871 223.559 250.285C219.196 246.682 215.017 242.859 211.447 238.523C207.847 234.217 204.887 229.4 202.544 224.265C200.199 219.129 198.298 213.767 196.484 208.366Z" fill="black"/>
</g>
<path d="M83.4589 66.0752L86.6176 59.4727L88.1318 66.7238L95.0703 67.714L89.0014 71.0503L90.9569 76.3508L85.6748 71.2319L79.2137 75.4426L82.3048 69.9749L77.3884 65.8687L83.4589 66.0752Z" fill="#FF9327"/>
<path d="M250.743 107.864L253.237 103.386L253.652 108.638L257.969 109.805L253.877 111.769L254.718 115.665L251.758 111.675L247.354 114.235L249.72 110.557L246.917 107.312L250.743 107.864Z" fill="#FF9327"/>
<path d="M59.9673 117.643C58.8575 117.643 57.958 116.743 57.958 115.633C57.958 114.524 58.8575 113.624 59.9673 113.624C61.077 113.624 61.9766 114.524 61.9766 115.633C61.9766 116.743 61.077 117.643 59.9673 117.643Z" fill="#FF9327"/>
<path d="M280.194 175.51C279.084 175.51 278.185 174.61 278.185 173.501C278.185 172.391 279.084 171.491 280.194 171.491C281.304 171.491 282.203 172.391 282.203 173.501C282.203 174.61 281.304 175.51 280.194 175.51Z" fill="#FF9327"/>
<path d="M246.436 53.3438C245.326 53.3438 244.427 52.4442 244.427 51.3345C244.427 50.2248 245.326 49.3252 246.436 49.3252C247.546 49.3252 248.445 50.2248 248.445 51.3345C248.445 52.4442 247.546 53.3438 246.436 53.3438Z" fill="#FF9327"/>
<path d="M212.685 67.8116C212.019 67.8116 211.479 67.2718 211.479 66.606C211.479 65.9401 212.019 65.4004 212.685 65.4004C213.351 65.4004 213.891 65.9401 213.891 66.606C213.891 67.2718 213.351 67.8116 212.685 67.8116Z" fill="#FF9327"/>
<path d="M88.1069 108.801C87.4411 108.801 86.9013 108.261 86.9013 107.595C86.9013 106.929 87.4411 106.39 88.1069 106.39C88.7727 106.39 89.3125 106.929 89.3125 107.595C89.3125 108.261 88.7727 108.801 88.1069 108.801Z" fill="#FF9327"/>
<path d="M90.5132 17.1768C89.8473 17.1768 89.3076 16.637 89.3076 15.9712C89.3076 15.3054 89.8473 14.7656 90.5132 14.7656C91.179 14.7656 91.7188 15.3054 91.7188 15.9712C91.7188 16.637 91.179 17.1768 90.5132 17.1768Z" fill="#FF9327"/>
<path d="M229.715 103.921C228.716 103.921 227.907 103.112 227.907 102.113C227.907 101.114 228.716 100.305 229.715 100.305C230.714 100.305 231.523 101.114 231.523 102.113C231.523 103.112 230.714 103.921 229.715 103.921Z" stroke="#FF9327" stroke-miterlimit="10"/>
<path d="M41.6447 50.8765C40.646 50.8765 39.8364 50.0669 39.8364 49.0681C39.8364 48.0694 40.646 47.2598 41.6447 47.2598C42.6435 47.2598 43.4531 48.0694 43.4531 49.0681C43.4531 50.0669 42.6435 50.8765 41.6447 50.8765Z" stroke="#FF9327" stroke-miterlimit="10"/>
<path d="M71.3947 140.893C70.396 140.893 69.5864 140.083 69.5864 139.085C69.5864 138.086 70.396 137.276 71.3947 137.276C72.3935 137.276 73.2031 138.086 73.2031 139.085C73.2031 140.083 72.3935 140.893 71.3947 140.893Z" stroke="#FF9327" stroke-miterlimit="10"/>
</svg>
